<svg xmlns="http://www.w3.org/2000/svg" viewBox="0 0 648 482"><g id="Layer_5_copy_2" data-name="Layer 5 copy 2"><path d="M437.27,342.24c-8.3,34.86-43.73,63.17-48.76,68.13-15.1,14.85-121.73-3.33-186.9-26.49-25.5-9.07-43.55-35.95-50.87-59.4-11.65-37.33-9.47-57.21-7.07-95.73,1-15.54,16.81-62.27,32.63-73,39-26.4,55.34-9.62,83.34-14.84,70.14-13,84.65-81.12,109.56-85.67,40.52-7.41,74.09-3.79,85.26,4.94s61.91,33.69,50,107.69c-5.9,36.58-63.48,32.73-75.86,76.66C421.6,269.3,444.2,313.12,437.27,342.24Z" style="fill:none;stroke:#84e29c;stroke-miterlimit:10;stroke-width:48px"/><path d="M437.27,342.24c-8.3,34.86-43.73,63.17-48.76,68.13-15.1,14.85-121.73-3.33-186.9-26.49-25.5-9.07-43.55-35.95-50.87-59.4-11.65-37.33-9.47-57.21-7.07-95.73,1-15.54,16.81-62.27,32.63-73,39-26.4,55.34-9.62,83.34-14.84,70.14-13,84.65-81.12,109.56-85.67,40.52-7.41,74.09-3.79,85.26,4.94s61.91,33.69,50,107.69c-5.9,36.58-63.48,32.73-75.86,76.66C421.6,269.3,444.2,313.12,437.27,342.24Z" style="fill:none;stroke:#fff;stroke-miterlimit:10;stroke-width:44px"/><path d="M437.27,342.24c-8.3,34.86-43.73,63.17-48.76,68.13-15.1,14.85-121.73-3.33-186.9-26.49-25.5-9.07-43.55-35.95-50.87-59.4-11.65-37.33-9.47-57.21-7.07-95.73,1-15.54,16.81-62.27,32.63-73,39-26.4,55.34-9.62,83.34-14.84,70.14-13,84.65-81.12,109.56-85.67,40.52-7.41,74.09-3.79,85.26,4.94s61.91,33.69,50,107.69c-5.9,36.58-63.48,32.73-75.86,76.66C421.6,269.3,444.2,313.12,437.27,342.24Z" style="fill:none;stroke:#313d46;stroke-miterlimit:10;stroke-width:36px"/><path d="M437.27,342.24c-8.3,34.86-43.73,63.17-48.76,68.13-15.1,14.85-121.73-3.33-186.9-26.49-25.5-9.07-43.55-35.95-50.87-59.4-11.65-37.33-9.47-57.21-7.07-95.73,1-15.54,16.81-62.27,32.63-73,39-26.4,55.34-9.62,83.34-14.84,70.14-13,84.65-81.12,109.56-85.67,40.52-7.41,74.09-3.79,85.26,4.94s61.91,33.69,50,107.69c-5.9,36.58-63.48,32.73-75.86,76.66-7,24.74,15.63,68.56,8.7,97.68Z" style="fill:none;stroke:#f90;stroke-miterlimit:10;stroke-width:2px;stroke-dasharray:10.001607894897461,7.001125335693359"/></g></svg>