<?xml version="1.0" encoding="UTF-8"?><svg id="a" xmlns="http://www.w3.org/2000/svg" viewBox="0 0 648 482"><defs><style>.b{stroke:#84e29c;stroke-width:48px;}.b,.c,.d,.e{fill:none;stroke-miterlimit:10;}.c{stroke:#313d46;stroke-width:36px;}.d{stroke:#f90;stroke-dasharray:0 0 10.06 7.04;stroke-width:2px;}.e{stroke:#fff;stroke-width:44px;}</style></defs><path class="b" d="M526.29,277.13c-8.75,19.08-19.1,38.3-34.91,52.62-31.94,23.6-67.77,41.72-101.49,62.67-75.13,45.93-55.91,38.97-131.32-1.26-22.94-12.6-45.88-25.19-68.82-37.79-14.05-8.82-41.85-16.81-35.33-38.37,11.7-23.15,24.43-47.43,36.28-70.3,11.3-19.32,9.04-23.5-10.56-33.1-38.91-21.65-91.47-40.31-59.43-94.37,7.12-12.52,14.42-24.89,21.98-37.12,6.34-9.29,12.28-24.53,25.86-22.37,19.45,5.5,36.6,17.81,54.77,26.53,36.86,19.17,73.21,39.31,110.4,57.81,49.24,25.33,106.53,37.7,159.7,53.68,13.07,4.3,25.64,6.1,36.22,11.53,15.98,17.83,6.04,49.34-3.35,69.82Z"/><path class="e" d="M526.29,277.13c-8.75,19.08-19.1,38.3-34.91,52.62-31.94,23.6-67.77,41.72-101.49,62.67-75.13,45.93-55.91,38.97-131.32-1.26-22.94-12.6-45.88-25.19-68.82-37.79-14.05-8.82-41.85-16.81-35.33-38.37,11.7-23.15,24.43-47.43,36.28-70.3,11.3-19.32,9.04-23.5-10.56-33.1-38.91-21.65-91.47-40.31-59.43-94.37,7.12-12.52,14.42-24.89,21.98-37.12,6.34-9.29,12.28-24.53,25.86-22.37,19.45,5.5,36.6,17.81,54.77,26.53,36.86,19.17,73.21,39.31,110.4,57.81,49.24,25.33,106.53,37.7,159.7,53.68,13.07,4.3,25.64,6.1,36.22,11.53,15.98,17.83,6.04,49.34-3.35,69.82Z"/><path class="c" d="M526.29,277.13c-8.75,19.08-19.1,38.3-34.91,52.62-31.94,23.6-67.77,41.72-101.49,62.67-75.13,45.93-55.91,38.97-131.32-1.26-22.94-12.6-45.88-25.19-68.82-37.79-14.05-8.82-41.85-16.81-35.33-38.37,11.7-23.15,24.43-47.43,36.28-70.3,11.3-19.32,9.04-23.5-10.56-33.1-38.91-21.65-91.47-40.31-59.43-94.37,7.12-12.52,14.42-24.89,21.98-37.12,6.34-9.29,12.28-24.53,25.86-22.37,19.45,5.5,36.6,17.81,54.77,26.53,36.86,19.17,73.21,39.31,110.4,57.81,49.24,25.33,106.53,37.7,159.7,53.68,13.07,4.3,25.64,6.1,36.22,11.53,15.98,17.83,6.04,49.34-3.35,69.82Z"/><path class="d" d="M526.29,277.13c-8.75,19.08-19.1,38.3-34.91,52.62-31.94,23.6-67.77,41.72-101.49,62.67-75.13,45.93-55.91,38.97-131.32-1.26-22.94-12.6-45.88-25.19-68.82-37.79-14.05-8.82-41.85-16.81-35.33-38.37,11.7-23.15,24.43-47.43,36.28-70.3,11.3-19.32,9.04-23.5-10.56-33.1-38.91-21.65-91.47-40.31-59.43-94.37,7.12-12.52,14.42-24.89,21.98-37.12,6.34-9.29,12.28-24.53,25.86-22.37,19.45,5.5,36.6,17.81,54.77,26.53,36.86,19.17,73.21,39.31,110.4,57.82,60.19,31.22,132.66,42.38,195.92,65.21,15.98,17.83,6.04,49.35-3.35,69.83h0Z"/></svg>