<?xml version="1.0" encoding="UTF-8"?><svg id="a" xmlns="http://www.w3.org/2000/svg" viewBox="0 0 648 482"><defs><style>.b{stroke:#84e29c;stroke-width:48px;}.b,.c,.d,.e{fill:none;stroke-miterlimit:10;}.c{stroke:#f90;stroke-dasharray:0 0 10.04 7.03;stroke-width:2px;}.d{stroke:#313d46;stroke-width:36px;}.e{stroke:#fff;stroke-width:44px;}</style></defs><path class="b" d="M430.43,125.02c-1.67-5.74-4.52-14.82-7.14-23.84-3.6-12.41-6.76-24.7-5.84-28.07,1.97-7.23,12.11-9.85,19.09-11,5.89-.52,22.53,10.25,26.06,12.16s7.04,3.81,10.58,5.74c3.53,1.93,7.04,3.84,10.58,5.74s7.04,3.84,10.55,5.77c3.51,1.93,7.02,3.86,10.53,5.81,3.51,1.95,7.02,3.88,10.51,5.86,3.49,1.98,7,3.93,10.48,5.9,1.23,.7,2.35,1.42,3.32,2.16s1.81,1.51,2.53,2.28c.72,.79,1.3,1.6,1.77,2.44s.81,1.72,1.02,2.63,.33,1.86,.33,2.84-.12,2.02-.35,3.09-.56,2.21-.98,3.37c-.42,1.16-.95,2.39-1.58,3.7-.91,1.84-1.79,3.7-2.72,5.53-.91,1.84-1.84,3.67-2.74,5.51s-1.84,3.67-2.77,5.51c-.93,1.84-1.84,3.67-2.74,5.51-.91,1.84-1.81,3.67-2.72,5.51-3.03,7.29-8.09,14.11-8.97,22.06-.84,9.45,1.69,19.72-1.84,28.69-2.65,4.88-5.3,9.76-7.95,14.65-2.65,4.88-5.32,9.76-8,14.62-2.67,4.88-5.37,9.74-8.04,14.6-2.67,4.86-5.39,9.72-8.11,14.58-2.72,4.86-5.44,9.69-8.18,14.53-2.74,4.84-5.49,9.67-8.23,14.51-2.77,4.84-5.53,9.65-8.32,14.46-2.79,4.81-5.58,9.62-8.39,14.41-.63,1.07-1.3,2.14-2.02,3.18-.72,1.05-1.49,2.09-2.28,3.12s-1.63,2.02-2.51,3c-.86,.98-1.77,1.93-2.7,2.86s-1.88,1.84-2.86,2.72c-.98,.88-1.98,1.72-3,2.53-1.02,.81-2.05,1.58-3.09,2.32s-2.09,1.44-3.16,2.09c-4.63,2.88-9.25,5.72-13.9,8.56-4.65,2.84-9.3,5.65-13.97,8.46s-9.35,5.6-14.02,8.39-9.35,5.58-14.04,8.35c-4.67,2.79-9.37,5.56-14.04,8.32s-9.37,5.56-14.04,8.35c-4.67,2.79-9.37,5.58-14.02,8.37s-9.35,5.6-13.99,8.42c-1.44,.86-2.84,1.6-4.23,2.23-1.39,.6-2.77,1.12-4.11,1.49-1.35,.37-2.7,.63-4.05,.79-1.35,.14-2.67,.19-4,.12-1.33-.07-2.67-.23-4-.51s-2.67-.65-4.02-1.09-2.72-1.02-4.09-1.65c-1.37-.65-2.77-1.37-4.18-2.16-4.58-2.6-9.18-5.21-13.79-7.79-4.6-2.58-9.21-5.16-13.83-7.72-4.6-2.56-9.23-5.11-13.86-7.67-4.63-2.56-9.25-5.09-13.88-7.63-4.63-2.53-9.25-5.07-13.88-7.6s-9.25-5.07-13.88-7.6c-4.63-2.53-9.25-5.07-13.88-7.6-4.63-2.53-9.25-5.09-13.88-7.63-.3-.16-.6-.35-.93-.51-.3-.16-.63-.35-.93-.51s-.6-.35-.93-.51c-.3-.19-.6-.35-.91-.53l-.91-.56c-.3-.19-.6-.37-.88-.58-.3-.19-.58-.4-.86-.6l-.84-.63c-1-.77-1.93-1.56-2.79-2.35s-1.67-1.6-2.39-2.44-1.37-1.67-1.93-2.56-1.02-1.79-1.37-2.74c-.35-.95-.6-1.93-.72-2.95s-.14-2.09,0-3.18c.14-1.12,.4-2.28,.81-3.49s.98-2.49,1.7-3.81c1.35-2.46,2.65-4.91,3.98-7.39s2.6-4.95,3.91-7.42c1.3-2.49,2.58-4.95,3.86-7.44s2.56-4.97,3.84-7.46,2.53-4.97,3.81-7.46,2.53-4.97,3.81-7.46,2.56-4.97,3.84-7.46,2.58-4.95,3.88-7.44c.72-1.35,1.33-2.58,1.86-3.72,.51-1.12,.93-2.14,1.23-3.09,.3-.93,.49-1.79,.56-2.58,.07-.79,.02-1.53-.16-2.23s-.49-1.35-.93-2c-.44-.65-1.02-1.28-1.74-1.91s-1.6-1.28-2.63-1.95c-1.02-.67-2.21-1.37-3.53-2.14-1.74-1-3.51-1.98-5.28-2.95-1.77-.98-3.53-1.93-5.3-2.88s-3.56-1.91-5.32-2.86c-1.77-.95-3.56-1.91-5.32-2.86-1.77-.95-3.53-1.93-5.3-2.91s-3.51-1.98-5.25-2.98-3.46-2.02-5.18-3.07c-1.72-1.05-3.42-2.12-5.11-3.18-2.84-1.84-5.37-3.7-7.63-5.6s-4.23-3.86-5.95-5.86c-1.7-2-3.12-4.07-4.25-6.18-1.14-2.12-2-4.3-2.6-6.56-.58-2.25-.91-4.58-.95-6.97-.05-2.39,.19-4.88,.67-7.46,.49-2.58,1.26-5.23,2.28-8,1.02-2.77,2.32-5.6,3.88-8.58,.95-1.81,1.93-3.63,2.91-5.42,.98-1.79,1.98-3.58,3-5.37s2.05-3.56,3.07-5.32,2.09-3.53,3.14-5.28c1.07-1.77,2.12-3.51,3.21-5.25,1.07-1.74,2.16-3.49,3.23-5.23,1.09-1.74,2.19-3.49,3.25-5.21,1.09-1.74,2.19-3.46,3.28-5.21,.84-1.33,1.65-2.51,2.49-3.56,.84-1.07,1.65-2,2.51-2.81,.84-.81,1.7-1.49,2.58-2.05,.88-.56,1.79-1,2.74-1.3s1.93-.49,2.95-.56,2.09,0,3.21,.19,2.3,.49,3.53,.91,2.56,.98,3.93,1.65c2.37,1.14,4.74,2.3,7.09,3.49s4.7,2.37,7.04,3.58,4.67,2.42,7.02,3.65c2.32,1.23,4.67,2.46,7,3.7s4.65,2.49,6.97,3.72c2.32,1.26,4.65,2.49,6.97,3.72s4.65,2.49,7,3.7,4.67,2.44,7.02,3.65c4.09,2.12,8.18,4.25,12.25,6.42,4.07,2.16,8.14,4.32,12.23,6.51,4.07,2.19,8.14,4.35,12.2,6.53,4.07,2.16,8.14,4.32,12.23,6.49,4.09,2.14,8.18,4.28,12.27,6.37,4.11,2.09,8.23,4.16,12.37,6.18,4.14,2.02,8.3,4,12.46,5.93,4.18,1.93,8.37,3.79,12.6,5.6,4.72,2.02,9.32,3.86,13.83,5.49,4.51,1.63,8.88,3.02,13.16,4.11s8.42,1.91,12.46,2.37,7.95,.58,11.74,.28,7.44-1,10.97-2.19c3.53-1.19,6.93-2.84,10.21-5.02,3.28-2.19,6.39-4.91,9.39-8.23s5.86-7.23,8.56-11.81c1.28-2.14,2.46-4.3,3.58-6.49s2.19-4.37,3.16-6.58c3.34-7.52,6.01-15.31,7.97-23.28,1.04-4.22,1.89-8.49,2.53-12.79,.14-.91-.31-5.42-.92-7.52Z"/><path class="e" d="M430.43,125.02c-1.67-5.74-4.52-14.82-7.14-23.84-3.6-12.41-6.76-24.7-5.84-28.07,1.97-7.23,12.11-9.85,19.09-11,5.89-.52,22.53,10.25,26.06,12.16s7.04,3.81,10.58,5.74c3.53,1.93,7.04,3.84,10.58,5.74s7.04,3.84,10.55,5.77c3.51,1.93,7.02,3.86,10.53,5.81,3.51,1.95,7.02,3.88,10.51,5.86,3.49,1.98,7,3.93,10.48,5.9,1.23,.7,2.35,1.42,3.32,2.16s1.81,1.51,2.53,2.28c.72,.79,1.3,1.6,1.77,2.44s.81,1.72,1.02,2.63,.33,1.86,.33,2.84-.12,2.02-.35,3.09-.56,2.21-.98,3.37c-.42,1.16-.95,2.39-1.58,3.7-.91,1.84-1.79,3.7-2.72,5.53-.91,1.84-1.84,3.67-2.74,5.51s-1.84,3.67-2.77,5.51c-.93,1.84-1.84,3.67-2.74,5.51-.91,1.84-1.81,3.67-2.72,5.51-3.03,7.29-8.09,14.11-8.97,22.06-.84,9.45,1.69,19.72-1.84,28.69-2.65,4.88-5.3,9.76-7.95,14.65-2.65,4.88-5.32,9.76-8,14.62-2.67,4.88-5.37,9.74-8.04,14.6-2.67,4.86-5.39,9.72-8.11,14.58-2.72,4.86-5.44,9.69-8.18,14.53-2.74,4.84-5.49,9.67-8.23,14.51-2.77,4.84-5.53,9.65-8.32,14.46-2.79,4.81-5.58,9.62-8.39,14.41-.63,1.07-1.3,2.14-2.02,3.18-.72,1.05-1.49,2.09-2.28,3.12s-1.63,2.02-2.51,3c-.86,.98-1.77,1.93-2.7,2.86s-1.88,1.84-2.86,2.72c-.98,.88-1.98,1.72-3,2.53-1.02,.81-2.05,1.58-3.09,2.32s-2.09,1.44-3.16,2.09c-4.63,2.88-9.25,5.72-13.9,8.56-4.65,2.84-9.3,5.65-13.97,8.46s-9.35,5.6-14.02,8.39-9.35,5.58-14.04,8.35c-4.67,2.79-9.37,5.56-14.04,8.32s-9.37,5.56-14.04,8.35c-4.67,2.79-9.37,5.58-14.02,8.37s-9.35,5.6-13.99,8.42c-1.44,.86-2.84,1.6-4.23,2.23-1.39,.6-2.77,1.12-4.11,1.49-1.35,.37-2.7,.63-4.05,.79-1.35,.14-2.67,.19-4,.12-1.33-.07-2.67-.23-4-.51s-2.67-.65-4.02-1.09-2.72-1.02-4.09-1.65c-1.37-.65-2.77-1.37-4.18-2.16-4.58-2.6-9.18-5.21-13.79-7.79-4.6-2.58-9.21-5.16-13.83-7.72-4.6-2.56-9.23-5.11-13.86-7.67-4.63-2.56-9.25-5.09-13.88-7.63-4.63-2.53-9.25-5.07-13.88-7.6s-9.25-5.07-13.88-7.6c-4.63-2.53-9.25-5.07-13.88-7.6-4.63-2.53-9.25-5.09-13.88-7.63-.3-.16-.6-.35-.93-.51-.3-.16-.63-.35-.93-.51s-.6-.35-.93-.51c-.3-.19-.6-.35-.91-.53l-.91-.56c-.3-.19-.6-.37-.88-.58-.3-.19-.58-.4-.86-.6l-.84-.63c-1-.77-1.93-1.56-2.79-2.35s-1.67-1.6-2.39-2.44-1.37-1.67-1.93-2.56-1.02-1.79-1.37-2.74c-.35-.95-.6-1.93-.72-2.95s-.14-2.09,0-3.18c.14-1.12,.4-2.28,.81-3.49s.98-2.49,1.7-3.81c1.35-2.46,2.65-4.91,3.98-7.39s2.6-4.95,3.91-7.42c1.3-2.49,2.58-4.95,3.86-7.44s2.56-4.97,3.84-7.46,2.53-4.97,3.81-7.46,2.53-4.97,3.81-7.46,2.56-4.97,3.84-7.46,2.58-4.95,3.88-7.44c.72-1.35,1.33-2.58,1.86-3.72,.51-1.12,.93-2.14,1.23-3.09,.3-.93,.49-1.79,.56-2.58,.07-.79,.02-1.53-.16-2.23s-.49-1.35-.93-2c-.44-.65-1.02-1.28-1.74-1.91s-1.6-1.28-2.63-1.95c-1.02-.67-2.21-1.37-3.53-2.14-1.74-1-3.51-1.98-5.28-2.95-1.77-.98-3.53-1.93-5.3-2.88s-3.56-1.91-5.32-2.86c-1.77-.95-3.56-1.91-5.32-2.86-1.77-.95-3.53-1.93-5.3-2.91s-3.51-1.98-5.25-2.98-3.46-2.02-5.18-3.07c-1.72-1.05-3.42-2.12-5.11-3.18-2.84-1.84-5.37-3.7-7.63-5.6s-4.23-3.86-5.95-5.86c-1.7-2-3.12-4.07-4.25-6.18-1.14-2.12-2-4.3-2.6-6.56-.58-2.25-.91-4.58-.95-6.97-.05-2.39,.19-4.88,.67-7.46,.49-2.58,1.26-5.23,2.28-8,1.02-2.77,2.32-5.6,3.88-8.58,.95-1.81,1.93-3.63,2.91-5.42,.98-1.79,1.98-3.58,3-5.37s2.05-3.56,3.07-5.32,2.09-3.53,3.14-5.28c1.07-1.77,2.12-3.51,3.21-5.25,1.07-1.74,2.16-3.49,3.23-5.23,1.09-1.74,2.19-3.49,3.25-5.21,1.09-1.74,2.19-3.46,3.28-5.21,.84-1.33,1.65-2.51,2.49-3.56,.84-1.07,1.65-2,2.51-2.81,.84-.81,1.7-1.49,2.58-2.05,.88-.56,1.79-1,2.74-1.3s1.93-.49,2.95-.56,2.09,0,3.21,.19,2.3,.49,3.53,.91,2.56,.98,3.93,1.65c2.37,1.14,4.74,2.3,7.09,3.49s4.7,2.37,7.04,3.58,4.67,2.42,7.02,3.65c2.32,1.23,4.67,2.46,7,3.7s4.65,2.49,6.97,3.72c2.32,1.26,4.65,2.49,6.97,3.72s4.65,2.49,7,3.7,4.67,2.44,7.02,3.65c4.09,2.12,8.18,4.25,12.25,6.42,4.07,2.16,8.14,4.32,12.23,6.51,4.07,2.19,8.14,4.35,12.2,6.53,4.07,2.16,8.14,4.32,12.23,6.49,4.09,2.14,8.18,4.28,12.27,6.37,4.11,2.09,8.23,4.16,12.37,6.18,4.14,2.02,8.3,4,12.46,5.93,4.18,1.93,8.37,3.79,12.6,5.6,4.72,2.02,9.32,3.86,13.83,5.49,4.51,1.63,8.88,3.02,13.16,4.11s8.42,1.91,12.46,2.37,7.95,.58,11.74,.28,7.44-1,10.97-2.19c3.53-1.19,6.93-2.84,10.21-5.02,3.28-2.19,6.39-4.91,9.39-8.23s5.86-7.23,8.56-11.81c1.28-2.14,2.46-4.3,3.58-6.49s2.19-4.37,3.16-6.58c3.34-7.52,6.01-15.31,7.97-23.28,1.04-4.22,1.89-8.49,2.53-12.79,.14-.91-.31-5.42-.92-7.52Z"/><path class="d" d="M430.43,125.02c-1.67-5.74-4.52-14.82-7.14-23.84-3.6-12.41-6.76-24.7-5.84-28.07,1.97-7.23,12.11-9.85,19.09-11,5.89-.52,22.53,10.25,26.06,12.16s7.04,3.81,10.58,5.74c3.53,1.93,7.04,3.84,10.58,5.74s7.04,3.84,10.55,5.77c3.51,1.93,7.02,3.86,10.53,5.81,3.51,1.95,7.02,3.88,10.51,5.86,3.49,1.98,7,3.93,10.48,5.9,1.23,.7,2.35,1.42,3.32,2.16s1.81,1.51,2.53,2.28c.72,.79,1.3,1.6,1.77,2.44s.81,1.72,1.02,2.63,.33,1.86,.33,2.84-.12,2.02-.35,3.09-.56,2.21-.98,3.37c-.42,1.16-.95,2.39-1.58,3.7-.91,1.84-1.79,3.7-2.72,5.53-.91,1.84-1.84,3.67-2.74,5.51s-1.84,3.67-2.77,5.51c-.93,1.84-1.84,3.67-2.74,5.51-.91,1.84-1.81,3.67-2.72,5.51-3.03,7.29-8.09,14.11-8.97,22.06-.84,9.45,1.69,19.72-1.84,28.69-2.65,4.88-5.3,9.76-7.95,14.65-2.65,4.88-5.32,9.76-8,14.62-2.67,4.88-5.37,9.74-8.04,14.6-2.67,4.86-5.39,9.72-8.11,14.58-2.72,4.86-5.44,9.69-8.18,14.53-2.74,4.84-5.49,9.67-8.23,14.51-2.77,4.84-5.53,9.65-8.32,14.46-2.79,4.81-5.58,9.62-8.39,14.41-.63,1.07-1.3,2.14-2.02,3.18-.72,1.05-1.49,2.09-2.28,3.12s-1.63,2.02-2.51,3c-.86,.98-1.77,1.93-2.7,2.86s-1.88,1.84-2.86,2.72c-.98,.88-1.98,1.72-3,2.53-1.02,.81-2.05,1.58-3.09,2.32s-2.09,1.44-3.16,2.09c-4.63,2.88-9.25,5.72-13.9,8.56-4.65,2.84-9.3,5.65-13.97,8.46s-9.35,5.6-14.02,8.39-9.35,5.58-14.04,8.35c-4.67,2.79-9.37,5.56-14.04,8.32s-9.37,5.56-14.04,8.35c-4.67,2.79-9.37,5.58-14.02,8.37s-9.35,5.6-13.99,8.42c-1.44,.86-2.84,1.6-4.23,2.23-1.39,.6-2.77,1.12-4.11,1.49-1.35,.37-2.7,.63-4.05,.79-1.35,.14-2.67,.19-4,.12-1.33-.07-2.67-.23-4-.51s-2.67-.65-4.02-1.09-2.72-1.02-4.09-1.65c-1.37-.65-2.77-1.37-4.18-2.16-4.58-2.6-9.18-5.21-13.79-7.79-4.6-2.58-9.21-5.16-13.83-7.72-4.6-2.56-9.23-5.11-13.86-7.67-4.63-2.56-9.25-5.09-13.88-7.63-4.63-2.53-9.25-5.07-13.88-7.6s-9.25-5.07-13.88-7.6c-4.63-2.53-9.25-5.07-13.88-7.6-4.63-2.53-9.25-5.09-13.88-7.63-.3-.16-.6-.35-.93-.51-.3-.16-.63-.35-.93-.51s-.6-.35-.93-.51c-.3-.19-.6-.35-.91-.53l-.91-.56c-.3-.19-.6-.37-.88-.58-.3-.19-.58-.4-.86-.6l-.84-.63c-1-.77-1.93-1.56-2.79-2.35s-1.67-1.6-2.39-2.44-1.37-1.67-1.93-2.56-1.02-1.79-1.37-2.74c-.35-.95-.6-1.93-.72-2.95s-.14-2.09,0-3.18c.14-1.12,.4-2.28,.81-3.49s.98-2.49,1.7-3.81c1.35-2.46,2.65-4.91,3.98-7.39s2.6-4.95,3.91-7.42c1.3-2.49,2.58-4.95,3.86-7.44s2.56-4.97,3.84-7.46,2.53-4.97,3.81-7.46,2.53-4.97,3.81-7.46,2.56-4.97,3.84-7.46,2.58-4.95,3.88-7.44c.72-1.35,1.33-2.58,1.86-3.72,.51-1.12,.93-2.14,1.23-3.09,.3-.93,.49-1.79,.56-2.58,.07-.79,.02-1.53-.16-2.23s-.49-1.35-.93-2c-.44-.65-1.02-1.28-1.74-1.91s-1.6-1.28-2.63-1.95c-1.02-.67-2.21-1.37-3.53-2.14-1.74-1-3.51-1.98-5.28-2.95-1.77-.98-3.53-1.93-5.3-2.88s-3.56-1.91-5.32-2.86c-1.77-.95-3.56-1.91-5.32-2.86-1.77-.95-3.53-1.93-5.3-2.91s-3.51-1.98-5.25-2.98-3.46-2.02-5.18-3.07c-1.72-1.05-3.42-2.12-5.11-3.18-2.84-1.84-5.37-3.7-7.63-5.6s-4.23-3.86-5.95-5.86c-1.7-2-3.12-4.07-4.25-6.18-1.14-2.12-2-4.3-2.6-6.56-.58-2.25-.91-4.58-.95-6.97-.05-2.39,.19-4.88,.67-7.46,.49-2.58,1.26-5.23,2.28-8,1.02-2.77,2.32-5.6,3.88-8.58,.95-1.81,1.93-3.63,2.91-5.42,.98-1.79,1.98-3.58,3-5.37s2.05-3.56,3.07-5.32,2.09-3.53,3.14-5.28c1.07-1.77,2.12-3.51,3.21-5.25,1.07-1.74,2.16-3.49,3.23-5.23,1.09-1.74,2.19-3.49,3.25-5.21,1.09-1.74,2.19-3.46,3.28-5.21,.84-1.33,1.65-2.51,2.49-3.56,.84-1.07,1.65-2,2.51-2.81,.84-.81,1.7-1.49,2.58-2.05,.88-.56,1.79-1,2.74-1.3s1.93-.49,2.95-.56,2.09,0,3.21,.19,2.3,.49,3.53,.91,2.56,.98,3.93,1.65c2.37,1.14,4.74,2.3,7.09,3.49s4.7,2.37,7.04,3.58,4.67,2.42,7.02,3.65c2.32,1.23,4.67,2.46,7,3.7s4.65,2.49,6.97,3.72c2.32,1.26,4.65,2.49,6.97,3.72s4.65,2.49,7,3.7,4.67,2.44,7.02,3.65c4.09,2.12,8.18,4.25,12.25,6.42,4.07,2.16,8.14,4.32,12.23,6.51,4.07,2.19,8.14,4.35,12.2,6.53,4.07,2.16,8.14,4.32,12.23,6.49,4.09,2.14,8.18,4.28,12.27,6.37,4.11,2.09,8.23,4.16,12.37,6.18,4.14,2.02,8.3,4,12.46,5.93,4.18,1.93,8.37,3.79,12.6,5.6,4.72,2.02,9.32,3.86,13.83,5.49,4.51,1.63,8.88,3.02,13.16,4.11s8.42,1.91,12.46,2.37,7.95,.58,11.74,.28,7.44-1,10.97-2.19c3.53-1.19,6.93-2.84,10.21-5.02,3.28-2.19,6.39-4.91,9.39-8.23s5.86-7.23,8.56-11.81c1.28-2.14,2.46-4.3,3.58-6.49s2.19-4.37,3.16-6.58c3.34-7.52,6.01-15.31,7.97-23.28,1.04-4.22,1.89-8.49,2.53-12.79,.14-.91-.31-5.42-.92-7.52Z"/><path class="c" d="M430.43,125.02c-2.75-10.55-14.43-44.2-12.98-51.92,1.97-7.23,12.11-9.85,19.09-11,5.89-.52,22.53,10.25,26.06,12.16,10.57,5.74,21.17,11.47,31.71,17.25,7.02,3.86,14.06,7.74,21.04,11.67,3.49,1.98,7,3.93,10.48,5.9,4.76,2.59,9.11,6.65,8.97,12.34-.1,3.56-1.31,6.84-2.91,10.16-1.79,3.69-3.64,7.37-5.46,11.04-2.76,5.5-5.52,11.01-8.23,16.53-3.03,7.29-8.09,14.11-8.97,22.06-.84,9.45,1.69,19.72-1.84,28.69-7.93,14.65-15.93,29.3-23.99,43.87-8.05,14.59-16.3,29.12-24.53,43.61-2.77,4.84-5.53,9.65-8.32,14.46-4.2,6.93-7.76,14.25-12.69,20.71-4.02,5.11-8.85,9.67-14.16,13.44-5.57,3.77-11.37,7.1-17.06,10.65-13.95,8.5-27.97,16.88-42.03,25.2-14.04,8.33-28.11,16.64-42.1,25.04-6.04,3.47-12,7.57-18.23,10.65-9.44,4.51-19.78,2.13-28.45-3.02-9.17-5.22-18.38-10.39-27.62-15.51-27.67-15.37-55.52-30.46-83.25-45.73-7.71-4.13-17.46-10.78-16.39-20.67,.34-2.55,1.19-4.88,2.51-7.3,2.67-4.89,5.29-9.88,7.88-14.81,5.18-9.91,10.23-19.87,15.32-29.83,2.56-4.98,5.1-9.94,7.72-14.9,1.19-2.34,2.37-4.53,3.09-6.81,1.86-4.93-.81-8.12-4.91-10.67-2.62-1.72-5.97-3.5-8.81-5.09-8.82-4.86-17.78-9.44-26.5-14.48-14.45-8.19-31.52-19.07-31.69-37.43-.2-10.42,4.63-20.34,9.74-29.45,3.94-7.18,8.1-14.27,12.41-21.22,2.13-3.48,4.33-6.99,6.49-10.44,3.67-5.6,6.96-12.6,13.6-14.92,7.31-2.23,14.27,2.7,20.71,5.67,7.06,3.54,14.08,7.22,21.06,10.93,13.34,7.2,26.8,14.15,40.22,21.2,16.29,8.62,32.52,17.49,48.94,25.9,12.31,6.27,24.73,12.29,37.43,17.71,12.82,5.43,25.89,10.36,39.45,11.97,29.82,3.73,46.31-14.5,57.61-40.03,5.11-11.5,8.65-23.64,10.5-36.06,.14-.91-.31-5.42-.92-7.52h0Z"/></svg>