<?xml version="1.0" encoding="UTF-8"?>
<svg width="648px" height="481px" viewBox="0 0 648 481" version="1.1" xmlns="http://www.w3.org/2000/svg" xmlns:xlink="http://www.w3.org/1999/xlink">
    <title>img_console_environemnt_training_august_pro</title>
    <g id="Training-tracks" stroke="none" stroke-width="1" fill="none" fill-rule="evenodd">
        <g id="Track-creation-Copy" transform="translate(-6338.000000, -6011.000000)">
            <g id="AUGUST_PRO" transform="translate(3174.000000, 2704.000000)">
                <g id="img_console_environemnt_training_august_pro" transform="translate(3164.000000, 3307.000000)">
                    <g id="Group-34" transform="translate(66.000000, 118.000000)">
                        <path d="M454.223609,22.7457007 L248.564549,0.0172853233 C248.564549,0.0172853233 222.729182,-1.53619083 210.327852,24.8111179 C197.926522,51.1584266 170.043391,74.9460302 135.946354,69.2440666 C101.849318,63.542103 68.2642227,55.2980875 68.2642227,55.2980875 C68.2642227,55.2980875 37.7772531,45.5888615 22.2777978,70.1002438 C15.0488377,86.8177656 2.12674058,116.2632 2.12674058,116.2632 C2.12674058,116.2632 -8.46514232,139.891925 17.6261959,148.303646 C25.1640859,150.730952 48.6251065,155.532606 67.5845769,136.943851 C72.0773005,132.530567 80.7273382,121.938684 93.5788228,123.103791 C110.631754,124.692574 117.348773,129.864943 123.545025,138.108959 C127.817084,143.810922 146.282267,191.165465 182.683038,193.486853 C203.822671,194.837318 291.179225,199.665451 291.179225,199.665451 C291.179225,199.665451 304.101322,198.632743 318.047301,215.685674 C331.99328,232.738606 338.719126,233.250547 354.730522,235.827905 C370.741918,238.405263 476.925544,245.387079 476.925544,245.387079 C476.925544,245.387079 508.957164,252.104098 515.162242,220.072479 C517.368884,208.668552 514.959231,198.473864 510.934315,190.062144 C503.611056,175.011846 488.340554,165.460929 471.603123,165.462496 L379.61262,165.047647 C378.411148,165.062022 377.211579,165.147495 376.020207,165.303618 C372.145343,165.70964 349.258049,160.828547 338.454329,144.631793 C327.862446,128.743969 318.329751,119.60847 310.535891,106.33331 C306.996567,100.356756 305.53479,93.3768486 306.378577,86.482356 C308.14389,72.8982662 316.158415,76.0758311 345.171348,76.6848643 C378.112104,77.3821633 416.172269,77.3733367 437.647312,77.2938976 C452.191894,77.3545348 465.768057,70.011035 473.677367,57.8048331 C476.068538,54.2184975 477.702445,50.1817868 478.479021,45.9419242 C481.082858,29.4627198 470.323271,24.5286677 454.223609,22.7457007 Z" id="Path" stroke="#84E29C" stroke-width="49"></path>
                        <path d="M454.223609,22.7457007 L248.564549,0.0172853233 C248.564549,0.0172853233 222.729182,-1.53619083 210.327852,24.8111179 C197.926522,51.1584266 170.043391,74.9460302 135.946354,69.2440666 C101.849318,63.542103 68.2642227,55.2980875 68.2642227,55.2980875 C68.2642227,55.2980875 37.7772531,45.5888615 22.2777978,70.1002438 C15.0488377,86.8177656 2.12674058,116.2632 2.12674058,116.2632 C2.12674058,116.2632 -8.46514232,139.891925 17.6261959,148.303646 C25.1640859,150.730952 48.6251065,155.532606 67.5845769,136.943851 C72.0773005,132.530567 80.7273382,121.938684 93.5788228,123.103791 C110.631754,124.692574 117.348773,129.864943 123.545025,138.108959 C127.817084,143.810922 146.282267,191.165465 182.683038,193.486853 C203.822671,194.837318 291.179225,199.665451 291.179225,199.665451 C291.179225,199.665451 304.101322,198.632743 318.047301,215.685674 C331.99328,232.738606 338.719126,233.250547 354.730522,235.827905 C370.741918,238.405263 476.925544,245.387079 476.925544,245.387079 C476.925544,245.387079 508.957164,252.104098 515.162242,220.072479 C517.368884,208.668552 514.959231,198.473864 510.934315,190.062144 C503.611056,175.011846 488.340554,165.460929 471.603123,165.462496 L379.61262,165.047647 C378.411148,165.062022 377.211579,165.147495 376.020207,165.303618 C372.145343,165.70964 349.258049,160.828547 338.454329,144.631793 C327.862446,128.743969 318.329751,119.60847 310.535891,106.33331 C306.996567,100.356756 305.53479,93.3768486 306.378577,86.482356 C308.14389,72.8982662 316.158415,76.0758311 345.171348,76.6848643 C378.112104,77.3821633 416.172269,77.3733367 437.647312,77.2938976 C452.191894,77.3545348 465.768057,70.011035 473.677367,57.8048331 C476.068538,54.2184975 477.702445,50.1817868 478.479021,45.9419242 C481.082858,29.4627198 470.323271,24.5286677 454.223609,22.7457007 Z" id="Path" stroke="#FFFFFF" stroke-width="45"></path>
                        <path d="M454.223609,22.7457007 L248.564549,0.0172853233 C248.564549,0.0172853233 222.729182,-1.53619083 210.327852,24.8111179 C197.926522,51.1584266 170.043391,74.9460302 135.946354,69.2440666 C101.849318,63.542103 68.2642227,55.2980875 68.2642227,55.2980875 C68.2642227,55.2980875 37.7772531,45.5888615 22.2777978,70.1002438 C15.0488377,86.8177656 2.12674058,116.2632 2.12674058,116.2632 C2.12674058,116.2632 -8.46514232,139.891925 17.6261959,148.303646 C25.1640859,150.730952 48.6251065,155.532606 67.5845769,136.943851 C72.0773005,132.530567 80.7273382,121.938684 93.5788228,123.103791 C110.631754,124.692574 117.348773,129.864943 123.545025,138.108959 C127.817084,143.810922 146.282267,191.165465 182.683038,193.486853 C203.822671,194.837318 291.179225,199.665451 291.179225,199.665451 C291.179225,199.665451 304.101322,198.632743 318.047301,215.685674 C331.99328,232.738606 338.719126,233.250547 354.730522,235.827905 C370.741918,238.405263 476.925544,245.387079 476.925544,245.387079 C476.925544,245.387079 508.957164,252.104098 515.162242,220.072479 C517.368884,208.668552 514.959231,198.473864 510.934315,190.062144 C503.611056,175.011846 488.340554,165.460929 471.603123,165.462496 L379.61262,165.047647 C378.411148,165.062022 377.211579,165.147495 376.020207,165.303618 C372.145343,165.70964 349.258049,160.828547 338.454329,144.631793 C327.862446,128.743969 318.329751,119.60847 310.535891,106.33331 C306.996567,100.356756 305.53479,93.3768486 306.378577,86.482356 C308.14389,72.8982662 316.158415,76.0758311 345.171348,76.6848643 C378.112104,77.3821633 416.172269,77.3733367 437.647312,77.2938976 C452.191894,77.3545348 465.768057,70.011035 473.677367,57.8048331 C476.068538,54.2184975 477.702445,50.1817868 478.479021,45.9419242 C481.082858,29.4627198 470.323271,24.5286677 454.223609,22.7457007 Z" id="Path" stroke="#313D46" stroke-width="36"></path>
                        <path d="M454.223609,22.7457007 L248.564549,0.0172853233 C248.564549,0.0172853233 222.729182,-1.53619083 210.327852,24.8111179 C197.926522,51.1584266 170.043391,74.9460302 135.946354,69.2440666 C101.849318,63.542103 68.2642227,55.2980875 68.2642227,55.2980875 C68.2642227,55.2980875 37.7772531,45.5888615 22.2777978,70.1002438 C15.0488377,86.8177656 2.12674058,116.2632 2.12674058,116.2632 C2.12674058,116.2632 -8.46514232,139.891925 17.6261959,148.303646 C25.1640859,150.730952 48.6251065,155.532606 67.5845769,136.943851 C72.0773005,132.530567 80.7273382,121.938684 93.5788228,123.103791 C110.631754,124.692574 117.348773,129.864943 123.545025,138.108959 C127.817084,143.810922 146.282267,191.165465 182.683038,193.486853 C203.822671,194.837318 291.179225,199.665451 291.179225,199.665451 C291.179225,199.665451 304.101322,198.632743 318.047301,215.685674 C331.99328,232.738606 338.719126,233.250547 354.730522,235.827905 C370.741918,238.405263 476.925544,245.387079 476.925544,245.387079 C476.925544,245.387079 508.957164,252.104098 515.162242,220.072479 C517.368884,208.668552 514.959231,198.473864 510.934315,190.062144 C503.611056,175.011846 488.340554,165.460929 471.603123,165.462496 L379.61262,165.047647 C378.411148,165.062022 377.211579,165.147495 376.020207,165.303618 C372.145343,165.70964 349.258049,160.828547 338.454329,144.631793 C327.862446,128.743969 318.329751,119.60847 310.535891,106.33331 C306.996567,100.356756 305.53479,93.3768486 306.378577,86.482356 C308.14389,72.8982662 316.158415,76.0758311 345.171348,76.6848643 C378.112104,77.3821633 416.172269,77.3733367 437.647312,77.2938976 C452.191894,77.3545348 465.768057,70.011035 473.677367,57.8048331 C476.068538,54.2184975 477.702445,50.1817868 478.479021,45.9419242 C481.082858,29.4627198 470.323271,24.5286677 454.223609,22.7457007 Z" id="Path" stroke="#FF9900" stroke-width="2.32" stroke-dasharray="9,6"></path>
                    </g>
                    <rect id="Rectangle-Copy" x="0" y="0" width="648" height="481.00207"></rect>
                </g>
            </g>
        </g>
    </g>
</svg>