<svg xmlns="http://www.w3.org/2000/svg" viewBox="0 0 648 482"><g id="Layer_5_copy_2" data-name="Layer 5 copy 2"><path d="M229,87.89c-25.53,29.36-49.86,59.78-75,89.52a126.36,126.36,0,0,0-13.18,21.43c-16.42,35.53-21.42,78.41-9,115.88a62.32,62.32,0,0,0,13.65,19.8c5.36,5.18,12.14,8.81,16.45,15.05,11.15,15.94,19.53,38.56,41.32,41.66l161.46,23.33a109.71,109.71,0,0,0,36.58-7.37A53.94,53.94,0,0,0,414.1,400c4.38-3.83,7.5-9,13-11.47,12.39-6.28,28.95-6.54,37.22-19.09l1.84-3.69c5.4-17.11,1-40.51-17.53-47.37-15.29-5.87-31.88-2.55-47.65-.94-25,2.61-50.13,6.55-75.35,5.4-31.37-2.6-91-2.38-115.83-19.73-20.48-16.71-14.88-50.39,8-62.23A46.34,46.34,0,0,1,245,234.35l235.88,21.38c29.27,2.09,58.36-13.79,70.37-40.95,19.35-43.3-11.15-42.62-6.32-81.15,1.15-14.57.69-29.35-7.65-41.95-11.69-25.93-42.45-34-68.67-34.43-21.38-.66-44.82-9.37-64.81,1.69l-4.12,3.24-3.51,4.19c-.94,1.75-1.88,3.49-2.81,5.25a54.19,54.19,0,0,0-3.15,21.72c.43,2.13.87,4.25,1.3,6.38.8,1.77,1.61,3.53,2.42,5.3l3.36,4.37c12.81,12.39,32.4,13.17,45.87,24.6l3.8,4.11,2.94,5c.63,2,1.27,4,1.9,6a55,55,0,0,1,.17,14.55l-1.68,6.29q-1.36,2.65-2.71,5.31l-3.63,4.42C422.44,197.5,391.73,191,366,189.87c-27.49-1.8-72.83-4.6-73.14-41,.26-1.64.52-3.27.77-4.91,4.65-16.33,21.24-25.39,27.31-41,.37-1.5.75-3,1.12-4.51.07-1.6.13-3.19.19-4.8-.3-1.72-.61-3.43-.91-5.15C303.05,41.26,255.89,58.61,229,87.89Z" style="fill:none;stroke:#84e29c;stroke-miterlimit:10;stroke-width:48px"/><path d="M229,87.89c-25.53,29.36-49.86,59.78-75,89.52a126.36,126.36,0,0,0-13.18,21.43c-16.42,35.53-21.42,78.41-9,115.88a62.32,62.32,0,0,0,13.65,19.8c5.36,5.18,12.14,8.81,16.45,15.05,11.15,15.94,19.53,38.56,41.32,41.66l161.46,23.33a109.71,109.71,0,0,0,36.58-7.37A53.94,53.94,0,0,0,414.1,400c4.38-3.83,7.5-9,13-11.47,12.39-6.28,28.95-6.54,37.22-19.09l1.84-3.69c5.4-17.11,1-40.51-17.53-47.37-15.29-5.87-31.88-2.55-47.65-.94-25,2.61-50.13,6.55-75.35,5.4-31.37-2.6-91-2.38-115.83-19.73-20.48-16.71-14.88-50.39,8-62.23A46.34,46.34,0,0,1,245,234.35l235.88,21.38c29.27,2.09,58.36-13.79,70.37-40.95,19.35-43.3-11.15-42.62-6.32-81.15,1.15-14.57.69-29.35-7.65-41.95-11.69-25.93-42.45-34-68.67-34.43-21.38-.66-44.82-9.37-64.81,1.69l-4.12,3.24-3.51,4.19c-.94,1.75-1.88,3.49-2.81,5.25a54.19,54.19,0,0,0-3.15,21.72c.43,2.13.87,4.25,1.3,6.38.8,1.77,1.61,3.53,2.42,5.3l3.36,4.37c12.81,12.39,32.4,13.17,45.87,24.6l3.8,4.11,2.94,5c.63,2,1.27,4,1.9,6a55,55,0,0,1,.17,14.55l-1.68,6.29q-1.36,2.65-2.71,5.31l-3.63,4.42C422.44,197.5,391.73,191,366,189.87c-27.49-1.8-72.83-4.6-73.14-41,.26-1.64.52-3.27.77-4.91,4.65-16.33,21.24-25.39,27.31-41,.37-1.5.75-3,1.12-4.51.07-1.6.13-3.19.19-4.8-.3-1.72-.61-3.43-.91-5.15C303.05,41.26,255.89,58.61,229,87.89Z" style="fill:none;stroke:#fff;stroke-miterlimit:10;stroke-width:44px"/><path d="M229,87.89c-25.53,29.36-49.86,59.78-75,89.52a126.36,126.36,0,0,0-13.18,21.43c-16.42,35.53-21.42,78.41-9,115.88a62.32,62.32,0,0,0,13.65,19.8c5.36,5.18,12.14,8.81,16.45,15.05,11.15,15.94,19.53,38.56,41.32,41.66l161.46,23.33a109.71,109.71,0,0,0,36.58-7.37A53.94,53.94,0,0,0,414.1,400c4.38-3.83,7.5-9,13-11.47,12.39-6.28,28.95-6.54,37.22-19.09l1.84-3.69c5.4-17.11,1-40.51-17.53-47.37-15.29-5.87-31.88-2.55-47.65-.94-25,2.61-50.13,6.55-75.35,5.4-31.37-2.6-91-2.38-115.83-19.73-20.48-16.71-14.88-50.39,8-62.23A46.34,46.34,0,0,1,245,234.35l235.88,21.38c29.27,2.09,58.36-13.79,70.37-40.95,19.35-43.3-11.15-42.62-6.32-81.15,1.15-14.57.69-29.35-7.65-41.95-11.69-25.93-42.45-34-68.67-34.43-21.38-.66-44.82-9.37-64.81,1.69l-4.12,3.24-3.51,4.19c-.94,1.75-1.88,3.49-2.81,5.25a54.19,54.19,0,0,0-3.15,21.72c.43,2.13.87,4.25,1.3,6.38.8,1.77,1.61,3.53,2.42,5.3l3.36,4.37c12.81,12.39,32.4,13.17,45.87,24.6l3.8,4.11,2.94,5c.63,2,1.27,4,1.9,6a55,55,0,0,1,.17,14.55l-1.68,6.29q-1.36,2.65-2.71,5.31l-3.63,4.42C422.44,197.5,391.73,191,366,189.87c-27.49-1.8-72.83-4.6-73.14-41,.26-1.64.52-3.27.77-4.91,4.65-16.33,21.24-25.39,27.31-41,.37-1.5.75-3,1.12-4.51.07-1.6.13-3.19.19-4.8-.3-1.72-.61-3.43-.91-5.15C303.05,41.26,255.89,58.61,229,87.89Z" style="fill:none;stroke:#313d46;stroke-miterlimit:10;stroke-width:36px"/><path d="M229,87.89c-25.53,29.36-49.86,59.78-75,89.52a126.36,126.36,0,0,0-13.18,21.43c-17.47,35.52-26.64,106,4.62,135.68,5.36,5.18,12.14,8.81,16.45,15.05,11.15,15.94,19.53,38.56,41.32,41.66l161.46,23.33a109.71,109.71,0,0,0,36.58-7.37A53.94,53.94,0,0,0,414.1,400c4.38-3.83,7.5-9,13-11.47,13.38-6.69,32.66-7,39.06-22.78,5.4-17.11,1-40.51-17.53-47.37-15.29-5.87-31.88-2.55-47.65-.94-25,2.61-50.13,6.55-75.35,5.4-31.37-2.6-91-2.38-115.83-19.73-20.48-16.71-14.88-50.39,8-62.23A46.34,46.34,0,0,1,245,234.35l235.88,21.38c29.27,2.09,58.36-13.79,70.37-40.95,19.35-43.3-11.15-42.62-6.32-81.15,1.15-14.57.69-29.35-7.65-41.95-11.69-25.93-42.45-34-68.67-34.43-21.38-.66-44.82-9.37-64.81,1.69-11.29,7.38-14.22,21.71-13.59,34.4.43,2.13.87,4.25,1.3,6.38.8,1.77,1.61,3.53,2.42,5.3l3.36,4.37c16.18,15.92,48.88,13.73,54.51,39.7,7,50.7-52.55,43.39-85.78,40.78-28.46-1.27-78.73-6.49-72.37-45.86,4.91-17.81,24.85-27.12,28.43-45.46.07-1.61.13-3.2.19-4.81-.3-1.72-.61-3.43-.91-5.15-18.29-47.33-65.45-30-92.35-.7Z" style="fill:none;stroke:#f90;stroke-miterlimit:10;stroke-width:2px;stroke-dasharray:10.02065658569336,7.014459609985352"/></g></svg>