<?xml version="1.0" encoding="utf-8"?>
<!-- Generator: Adobe Illustrator 25.3.1, SVG Export Plug-In . SVG Version: 6.00 Build 0)  -->
<svg version="1.1" id="Layer_1" xmlns="http://www.w3.org/2000/svg" xmlns:xlink="http://www.w3.org/1999/xlink" x="0px" y="0px"
	 viewBox="0 0 649 481" style="enable-background:new 0 0 649 481;" xml:space="preserve">
<style type="text/css">
	.st0{fill:none;stroke:#84E29C;stroke-width:49;}
	.st1{fill:none;stroke:#FFFFFF;stroke-width:45;}
	.st2{fill:none;stroke:#313D46;stroke-width:36;}
	.st3{fill:none;stroke:#FF9900;stroke-width:2.32;stroke-dasharray:9,6;}
	.st4{display:none;fill:none;}
</style>
<g id="Training-tracks">
	<g id="Track-creation-Copy" transform="translate(-5635.000000, -6011.000000)">
		<g id="AUGUST_OPEN" transform="translate(2844.000000, 2704.000000)">
			<g id="img_console_environemnt_training_august_open" transform="translate(2791.718062, 3307.000000)">
				<g id="Group-30" transform="translate(65.000000, 132.000000)">
					<path id="Path" class="st0" d="M314.9,216.9c0,0-94.5-5.3-117.4-6.7c-39.4-2.5-59.4-54-64-60.1c-6.7-9-14-14.6-32.4-16.3
						c-13.9-1.3-23.3,10.2-28.1,15c-20.5,20.2-45.9,15-54,12.3c-28.2-9.1-16.8-34.8-16.8-34.8s14-32,21.8-50.1
						c16.8-26.6,49.7-16.1,49.7-16.1s36.3,9,73.2,15.1s67.1-19.6,80.5-48.3S268.9,0,268.9,0l222.5,24.7c17.4,1.9,29.1,7.3,26.3,25.3
						c-0.8,4.6-2.6,9-5.2,12.9C504,76.2,393,216.9,344.4,216.9L314.9,216.9z"/>
					<path id="Path_1_" class="st1" d="M314.9,216.9c0,0-94.5-5.3-117.4-6.7c-39.4-2.5-59.4-54-64-60.1c-6.7-9-14-14.6-32.4-16.3
						c-13.9-1.3-23.3,10.2-28.1,15c-20.5,20.2-45.9,15-54,12.3c-28.2-9.1-16.8-34.8-16.8-34.8s14-32,21.8-50.1
						c16.8-26.6,49.7-16.1,49.7-16.1s36.3,9,73.2,15.1s67.1-19.6,80.5-48.3S268.9,0,268.9,0l222.5,24.7c17.4,1.9,29.1,7.3,26.3,25.3
						c-0.8,4.6-2.6,9-5.2,12.9C504,76.2,393,216.9,344.4,216.9L314.9,216.9z"/>
					<path id="Path_2_" class="st2" d="M314.9,216.9c0,0-94.5-5.3-117.4-6.7c-39.4-2.5-59.4-54-64-60.1c-6.7-9-14-14.6-32.4-16.3
						c-13.9-1.3-23.3,10.2-28.1,15c-20.5,20.2-45.9,15-54,12.3c-28.2-9.1-16.8-34.8-16.8-34.8s14-32,21.8-50.1
						c16.8-26.6,49.7-16.1,49.7-16.1s36.3,9,73.2,15.1s67.1-19.6,80.5-48.3S268.9,0,268.9,0l222.5,24.7c17.4,1.9,29.1,7.3,26.3,25.3
						c-0.8,4.6-2.6,9-5.2,12.9C504,76.2,393,216.9,344.4,216.9L314.9,216.9z"/>
					<path id="Path_3_" class="st3" d="M314.9,216.9c0,0-94.5-5.3-117.4-6.7c-39.4-2.5-59.4-54-64-60.1c-6.7-9-14-14.6-32.4-16.3
						c-13.9-1.3-23.3,10.2-28.1,15c-20.5,20.2-45.9,15-54,12.3c-28.2-9.1-16.8-34.8-16.8-34.8s14-32,21.8-50.1
						c16.8-26.6,49.7-16.1,49.7-16.1s36.3,9,73.2,15.1s67.1-19.6,80.5-48.3S268.9,0,268.9,0l222.5,24.7c17.4,1.9,29.1,7.3,26.3,25.3
						c-0.8,4.6-2.6,9-5.2,12.9C504,76.2,393,216.9,344.4,216.9L314.9,216.9z"/>
				</g>
				<rect id="Rectangle-Copy" x="0" class="st4" width="648" height="481"/>
			</g>
		</g>
	</g>
</g>
</svg>
