<svg xmlns="http://www.w3.org/2000/svg" width="555" height="364" viewBox="0 0 555 364">
  <g fill="none" fill-rule="evenodd" transform="translate(27 27)">
    <path stroke="#84E29C" stroke-width="52.53" d="M249.582291,129.656103 C276.717076,143.519799 270.62428,141.436115 303.132289,164.831102 C335.640298,188.226088 351.109469,156.688211 376.632285,176.906101 C402.155102,197.123991 425.977416,169.292831 449.082282,172.181101 C472.187148,175.069371 502.63228,182.681101 501.58228,241.481098 C500.53228,300.281095 434.331347,309.926264 375.225876,310.215091 C316.120405,310.503918 250.660778,310.864795 232.257292,288.206096 C213.853806,265.547397 192.882294,232.031098 158.757295,257.231097 C124.632297,282.431096 110.600145,286.635717 70.0322994,269.306097 C29.4644535,251.976477 24.8746395,252.416539 6.50730228,222.056099 C-11.860035,191.695659 10.2588257,157.258791 52.7073002,104.981104 C95.1557746,52.7034179 118.332297,29.3811077 136.707296,13.6311084 C155.082296,-2.11889089 174.601008,-4.22197117 193.407294,7.33110868 C212.21358,18.8841885 219.864341,21.0531582 222.282292,46.1811069 C224.700244,71.3090556 222.447507,115.792407 249.582291,129.656103 Z" stroke-linejoin="round"/>
    <path stroke="#FFFFFF" stroke-width="48.41" d="M249.582291,129.656103 C276.717076,143.519799 270.62428,141.436115 303.132289,164.831102 C335.640298,188.226088 351.109469,156.688211 376.632285,176.906101 C402.155102,197.123991 425.977416,169.292831 449.082282,172.181101 C472.187148,175.069371 502.63228,182.681101 501.58228,241.481098 C500.53228,300.281095 434.331347,309.926264 375.225876,310.215091 C316.120405,310.503918 250.660778,310.864795 232.257292,288.206096 C213.853806,265.547397 192.882294,232.031098 158.757295,257.231097 C124.632297,282.431096 110.600145,286.635717 70.0322994,269.306097 C29.4644535,251.976477 24.8746395,252.416539 6.50730228,222.056099 C-11.860035,191.695659 10.2588257,157.258791 52.7073002,104.981104 C95.1557746,52.7034179 118.332297,29.3811077 136.707296,13.6311084 C155.082296,-2.11889089 174.601008,-4.22197117 193.407294,7.33110868 C212.21358,18.8841885 219.864341,21.0531582 222.282292,46.1811069 C224.700244,71.3090556 222.447507,115.792407 249.582291,129.656103 Z" stroke-linejoin="round"/>
    <path stroke="#313D46" stroke-width="42.23" d="M249.582291,129.656103 C276.717076,143.519799 270.62428,141.436115 303.132289,164.831102 C335.640298,188.226088 351.109469,156.688211 376.632285,176.906101 C402.155102,197.123991 425.977416,169.292831 449.082282,172.181101 C472.187148,175.069371 502.63228,182.681101 501.58228,241.481098 C500.53228,300.281095 434.331347,309.926264 375.225876,310.215091 C316.120405,310.503918 250.660778,310.864795 232.257292,288.206096 C213.853806,265.547397 192.882294,232.031098 158.757295,257.231097 C124.632297,282.431096 110.600145,286.635717 70.0322994,269.306097 C29.4644535,251.976477 24.8746395,252.416539 6.50730228,222.056099 C-11.860035,191.695659 10.2588257,157.258791 52.7073002,104.981104 C95.1557746,52.7034179 118.332297,29.3811077 136.707296,13.6311084 C155.082296,-2.11889089 174.601008,-4.22197117 193.407294,7.33110868 C212.21358,18.8841885 219.864341,21.0531582 222.282292,46.1811069 C224.700244,71.3090556 222.447507,115.792407 249.582291,129.656103 Z" stroke-linejoin="round"/>
    <path stroke="#FF9900" stroke-width="2.317" d="M249.582291,129.656103 C276.717076,143.519799 270.62428,141.436115 303.132289,164.831102 C335.640298,188.226088 351.109469,156.688211 376.632285,176.906101 C402.155102,197.123991 425.977416,169.292831 449.082282,172.181101 C472.187148,175.069371 502.63228,182.681101 501.58228,241.481098 C500.53228,300.281095 434.331347,309.926264 375.225876,310.215091 C316.120405,310.503918 250.660778,310.864795 232.257292,288.206096 C213.853806,265.547397 192.882294,232.031098 158.757295,257.231097 C124.632297,282.431096 110.600145,286.635717 70.0322994,269.306097 C29.4644535,251.976477 24.8746395,252.416539 6.50730228,222.056099 C-11.860035,191.695659 10.2588257,157.258791 52.7073002,104.981104 C95.1557746,52.7034179 118.332297,29.3811077 136.707296,13.6311084 C155.082296,-2.11889089 174.601008,-4.22197117 193.407294,7.33110868 C212.21358,18.8841885 219.864341,21.0531582 222.282292,46.1811069 C224.700244,71.3090556 222.447507,115.792407 249.582291,129.656103 Z" stroke-dasharray="9.27 6.18"/>
  </g>
</svg>
