<svg xmlns="http://www.w3.org/2000/svg" width="563" height="279" viewBox="0 0 563 279">
  <g fill="none" fill-rule="evenodd" transform="translate(27 27)">
    <path stroke="#84E29C" stroke-width="52.53" d="M299.441255,21.8363999 C331.748719,35.1030601 489.57863,75.4337072 502.819394,95.0683643 C516.060159,114.703021 504.937917,129.031014 498.052719,134.337679 C491.167522,139.644343 425.996136,167.992486 406.42663,170.953661 C386.857125,173.914836 367.629505,152.308007 349.756159,146.543006 C331.882813,140.778004 330.159828,150.257671 314.800541,142.297675 C299.441255,134.337679 300.500516,121.601685 282.493076,116.825687 C264.485637,112.049689 254.422656,125.31635 238.533739,127.969682 C222.644822,130.623014 220.526299,130.092347 213.111471,133.276346 C205.696643,136.460344 196.692924,152.380336 187.689204,156.625668 C178.685484,160.870999 162.266936,161.401665 150.615064,176.790991 C138.963191,192.180317 145.848389,211.284308 129.959472,219.77497 C114.070554,228.265633 98.1816372,229.857632 82.8223506,197.486981 C67.463064,165.11633 7.08333252,48.3502319 1.25924248,29.796396 C-4.56484756,11.2425601 10.7925928,0.609743508 27.2111405,0.0790770993 C43.6296883,-0.45158931 63.2260194,1.67107633 79.6445672,6.97774042 C96.0631149,12.2844045 102.418682,63.7590462 108.774249,78.0870392 C115.129815,92.4150323 143.729866,90.2923666 148.496542,89.2310338 C153.263217,88.169701 167.033612,84.4550361 167.033612,62.1670469 C167.033612,39.8790578 169.589109,24.5253103 174.44844,18.121735 C179.30777,11.7181597 190.866987,7.50840682 204.107752,17.5910686 C217.348516,27.6737304 215.229994,52.6150516 221.58556,58.4523821 C227.941127,64.2897126 238.533739,73.8417079 254.422656,62.1670469 C270.311573,50.4923859 267.13379,8.56973964 299.441255,21.8363999 Z" stroke-linejoin="round"/>
    <path stroke="#FFFFFF" stroke-width="48.41" d="M299.441255,21.8363999 C331.748719,35.1030601 489.57863,75.4337072 502.819394,95.0683643 C516.060159,114.703021 504.937917,129.031014 498.052719,134.337679 C491.167522,139.644343 425.996136,167.992486 406.42663,170.953661 C386.857125,173.914836 367.629505,152.308007 349.756159,146.543006 C331.882813,140.778004 330.159828,150.257671 314.800541,142.297675 C299.441255,134.337679 300.500516,121.601685 282.493076,116.825687 C264.485637,112.049689 254.422656,125.31635 238.533739,127.969682 C222.644822,130.623014 220.526299,130.092347 213.111471,133.276346 C205.696643,136.460344 196.692924,152.380336 187.689204,156.625668 C178.685484,160.870999 162.266936,161.401665 150.615064,176.790991 C138.963191,192.180317 145.848389,211.284308 129.959472,219.77497 C114.070554,228.265633 98.1816372,229.857632 82.8223506,197.486981 C67.463064,165.11633 7.08333252,48.3502319 1.25924248,29.796396 C-4.56484756,11.2425601 10.7925928,0.609743508 27.2111405,0.0790770993 C43.6296883,-0.45158931 63.2260194,1.67107633 79.6445672,6.97774042 C96.0631149,12.2844045 102.418682,63.7590462 108.774249,78.0870392 C115.129815,92.4150323 143.729866,90.2923666 148.496542,89.2310338 C153.263217,88.169701 167.033612,84.4550361 167.033612,62.1670469 C167.033612,39.8790578 169.589109,24.5253103 174.44844,18.121735 C179.30777,11.7181597 190.866987,7.50840682 204.107752,17.5910686 C217.348516,27.6737304 215.229994,52.6150516 221.58556,58.4523821 C227.941127,64.2897126 238.533739,73.8417079 254.422656,62.1670469 C270.311573,50.4923859 267.13379,8.56973964 299.441255,21.8363999 Z" stroke-linejoin="round"/>
    <path stroke="#313D46" stroke-width="42.23" d="M299.441255,21.8363999 C331.748719,35.1030601 489.57863,75.4337072 502.819394,95.0683643 C516.060159,114.703021 504.937917,129.031014 498.052719,134.337679 C491.167522,139.644343 425.996136,167.992486 406.42663,170.953661 C386.857125,173.914836 367.629505,152.308007 349.756159,146.543006 C331.882813,140.778004 330.159828,150.257671 314.800541,142.297675 C299.441255,134.337679 300.500516,121.601685 282.493076,116.825687 C264.485637,112.049689 254.422656,125.31635 238.533739,127.969682 C222.644822,130.623014 220.526299,130.092347 213.111471,133.276346 C205.696643,136.460344 196.692924,152.380336 187.689204,156.625668 C178.685484,160.870999 162.266936,161.401665 150.615064,176.790991 C138.963191,192.180317 145.848389,211.284308 129.959472,219.77497 C114.070554,228.265633 98.1816372,229.857632 82.8223506,197.486981 C67.463064,165.11633 7.08333252,48.3502319 1.25924248,29.796396 C-4.56484756,11.2425601 10.7925928,0.609743508 27.2111405,0.0790770993 C43.6296883,-0.45158931 63.2260194,1.67107633 79.6445672,6.97774042 C96.0631149,12.2844045 102.418682,63.7590462 108.774249,78.0870392 C115.129815,92.4150323 143.729866,90.2923666 148.496542,89.2310338 C153.263217,88.169701 167.033612,84.4550361 167.033612,62.1670469 C167.033612,39.8790578 169.589109,24.5253103 174.44844,18.121735 C179.30777,11.7181597 190.866987,7.50840682 204.107752,17.5910686 C217.348516,27.6737304 215.229994,52.6150516 221.58556,58.4523821 C227.941127,64.2897126 238.533739,73.8417079 254.422656,62.1670469 C270.311573,50.4923859 267.13379,8.56973964 299.441255,21.8363999 Z" stroke-linejoin="round"/>
    <path stroke="#FF9900" stroke-width="2.317" d="M299.441255,21.8363999 C331.748719,35.1030601 489.57863,75.4337072 502.819394,95.0683643 C516.060159,114.703021 504.937917,129.031014 498.052719,134.337679 C491.167522,139.644343 425.996136,167.992486 406.42663,170.953661 C386.857125,173.914836 367.629505,152.308007 349.756159,146.543006 C331.882813,140.778004 330.159828,150.257671 314.800541,142.297675 C299.441255,134.337679 300.500516,121.601685 282.493076,116.825687 C264.485637,112.049689 254.422656,125.31635 238.533739,127.969682 C222.644822,130.623014 220.526299,130.092347 213.111471,133.276346 C205.696643,136.460344 196.692924,152.380336 187.689204,156.625668 C178.685484,160.870999 162.266936,161.401665 150.615064,176.790991 C138.963191,192.180317 145.848389,211.284308 129.959472,219.77497 C114.070554,228.265633 98.1816372,229.857632 82.8223506,197.486981 C67.463064,165.11633 7.08333252,48.3502319 1.25924248,29.796396 C-4.56484756,11.2425601 10.7925928,0.609743508 27.2111405,0.0790770993 C43.6296883,-0.45158931 63.2260194,1.67107633 79.6445672,6.97774042 C96.0631149,12.2844045 102.418682,63.7590462 108.774249,78.0870392 C115.129815,92.4150323 143.729866,90.2923666 148.496542,89.2310338 C153.263217,88.169701 167.033612,84.4550361 167.033612,62.1670469 C167.033612,39.8790578 169.589109,24.5253103 174.44844,18.121735 C179.30777,11.7181597 190.866987,7.50840682 204.107752,17.5910686 C217.348516,27.6737304 215.229994,52.6150516 221.58556,58.4523821 C227.941127,64.2897126 238.533739,73.8417079 254.422656,62.1670469 C270.311573,50.4923859 267.13379,8.56973964 299.441255,21.8363999 Z" stroke-dasharray="9 6"/>
  </g>
</svg>
