<svg xmlns="http://www.w3.org/2000/svg" width="577" height="353" viewBox="0 0 577 353">
  <g fill="none" fill-rule="evenodd" transform="translate(27.57 27.973)">
    <path stroke="#84E29C" stroke-width="52.53" d="M27.8177622,267.326626 C38.5458573,290.3603 44.9827143,304.287638 64.8296901,295.181302 C84.6766659,286.074966 245.061687,212.688609 263.835853,204.117939 C282.610019,195.54727 289.046876,195.54727 300.311376,211.617275 C311.575876,227.68728 316.316037,235.969752 323.37678,242.150285 C330.437524,248.330817 335.177685,250.720954 346.97859,250.185287 C358.779494,249.649621 418.856826,236.25795 438.703802,228.758614 C446.736095,225.723549 459.877977,206.896441 473.033706,188.583601 C492.384443,161.64728 509.200766,140.088469 520.237324,123.232246 C529.356205,109.304909 500.390349,61.0948929 495.026301,52.5242235 C492.894089,49.1173776 474.197437,47.1321582 456.941564,45.5605546 C432.042543,43.2928402 405.246211,40.739553 392.572993,40.739553 C378.268867,40.739553 370.938002,52.7027791 370.580399,76.6292313 C373.441224,95.9132375 369.865192,107.162241 359.852304,110.376242 C349.839415,113.590243 338.03851,111.447576 324.44959,103.94824 C316.224717,98.9486829 309.78786,91.985014 305.139019,83.0572334 C298.165757,69.6655624 286.901257,50.917223 278.318781,38.5968857 C269.736305,26.2765484 209.951434,24.8960934 171.574236,16.6345453 C133.197038,8.37299707 115.788142,-3.72079465 88.4314992,1.1002069 C61.0748568,5.92120846 30.499786,20.3842131 16.5532624,40.739553 C2.60673888,61.0948929 32.1090002,99.1272386 41.227881,120.553912 C47.3071349,134.838361 41.4066826,150.908366 23.5265242,168.763928 C5.64636581,185.548155 -2.0421023,199.296938 0.461119874,210.010274 C4.21595314,226.08028 17.0896672,244.292952 27.8177622,267.326626 Z" stroke-linejoin="round"/>
    <path stroke="#FFFFFF" stroke-width="48.41" d="M27.8090317,267.326626 C38.5337598,290.3603 44.9685966,304.287638 64.8093435,295.181302 C84.6500904,286.074966 244.984775,212.688609 263.753049,204.117939 C282.521323,195.54727 288.95616,195.54727 300.217124,211.617275 C311.478089,227.68728 316.216763,235.969752 323.27529,242.150285 C330.333817,248.330817 335.072491,250.720954 346.869692,250.185287 C358.666892,249.649621 418.72537,236.25795 438.566116,228.758614 C446.595888,225.723549 459.733646,206.896441 472.885246,188.583601 C492.22991,161.64728 508.080151,139.872746 520.07405,123.232246 C529.726305,109.840575 500.233303,61.0948929 494.870939,52.5242235 C492.739396,49.1173776 474.048612,47.1321582 456.798154,45.5605546 C431.906948,43.2928402 405.119025,40.739553 392.449786,40.739553 C378.150148,40.739553 370.821584,52.7027791 370.464093,76.6292313 C373.324021,95.9132375 369.749111,107.162241 359.739365,110.376242 C349.729619,113.590243 337.932418,111.447576 324.347763,103.94824 C316.125471,98.9486829 309.690634,91.985014 305.043252,83.0572334 C298.072179,69.6655624 286.811214,50.917223 278.231432,38.5968857 C269.65165,26.2765484 209.885541,24.8960934 171.520388,16.6345453 C133.155234,8.37299707 115.751802,-3.72079465 88.4037453,1.1002069 C61.0556887,5.92120846 30.4902137,20.3842131 16.5480672,40.739553 C2.60592077,61.0948929 32.0989229,99.1272386 41.2149418,120.553912 C47.2922877,134.838361 41.3936873,150.908366 23.5191405,168.763928 C5.64459372,185.548155 -2.04146139,199.296938 0.460975154,210.010274 C4.21462998,226.08028 17.0843036,244.292952 27.8090317,267.326626 Z" stroke-linejoin="round"/>
    <path stroke="#313D46" stroke-width="42.23" d="M27.8177622,267.326626 C38.5458573,290.3603 44.9827143,304.287638 64.8296901,295.181302 C84.6766659,286.074966 245.061687,212.688609 263.835853,204.117939 C282.610019,195.54727 289.046876,195.54727 300.311376,211.617275 C311.575876,227.68728 316.316037,235.969752 323.37678,242.150285 C330.437524,248.330817 335.177685,250.720954 346.97859,250.185287 C358.779494,249.649621 418.856826,236.25795 438.703802,228.758614 C446.736095,225.723549 459.877977,206.896441 473.033706,188.583601 C492.384443,161.64728 508.816167,140.004961 520.237324,123.232246 C529.356205,109.840575 500.390349,61.0948929 495.026301,52.5242235 C492.894089,49.1173776 474.197437,47.1321582 456.941564,45.5605546 C432.042543,43.2928402 405.246211,40.739553 392.572993,40.739553 C378.268867,40.739553 370.938002,52.7027791 370.580399,76.6292313 C373.441224,95.9132375 369.865192,107.162241 359.852304,110.376242 C349.839415,113.590243 338.03851,111.447576 324.44959,103.94824 C316.224717,98.9486829 309.78786,91.985014 305.139019,83.0572334 C298.165757,69.6655624 286.901257,50.917223 278.318781,38.5968857 C269.736305,26.2765484 209.951434,24.8960934 171.574236,16.6345453 C133.197038,8.37299707 115.788142,-3.72079465 88.4314992,1.1002069 C61.0748568,5.92120846 30.499786,20.3842131 16.5532624,40.739553 C2.60673888,61.0948929 32.1090002,99.1272386 41.227881,120.553912 C47.3071349,134.838361 41.4066826,150.908366 23.5265242,168.763928 C5.64636581,185.548155 -2.0421023,199.296938 0.461119874,210.010274 C4.21595314,226.08028 17.0896672,244.292952 27.8177622,267.326626 Z" stroke-linejoin="round"/>
    <path stroke="#FF9900" stroke-width="2.317" d="M27.8001157,267.326626 C38.5214052,290.3603 44.9541789,304.287638 64.7885646,295.181302 C84.6229502,286.074966 244.906229,212.688609 263.668485,204.117939 C282.430742,195.54727 288.863516,195.54727 300.12087,211.617275 C311.378224,227.68728 316.115378,235.969752 323.171642,242.150285 C330.227906,248.330817 334.965061,250.720954 346.758479,250.185287 C358.551898,249.649621 418.591119,236.25795 438.425505,228.758614 C446.452702,225.723549 459.586247,206.896441 472.733631,188.583601 C492.072093,161.64728 507.764132,139.836894 519.907305,123.232246 C530.09253,109.304909 500.07292,61.0948929 494.712275,52.5242235 C492.581416,49.1173776 473.896624,47.1321582 456.651697,45.5605546 C431.768472,43.2928402 404.989137,40.739553 392.32396,40.739553 C378.028907,40.739553 370.702693,52.7027791 370.345316,76.6292313 C373.204327,95.9132375 369.630564,107.162241 359.624027,110.376242 C349.61749,113.590243 337.824071,111.447576 324.243771,103.94824 C316.024116,98.9486829 309.591342,91.985014 304.94545,83.0572334 C297.976612,69.6655624 286.719258,50.917223 278.142226,38.5968857 C269.565195,26.2765484 209.818249,24.8960934 171.465395,16.6345453 C133.112542,8.37299707 115.71469,-3.72079465 88.3754015,1.1002069 C61.0361132,5.92120846 30.480438,20.3842131 16.5427617,40.739553 C2.60508526,61.0948929 32.0886315,99.1272386 41.2017276,120.553912 C47.277125,134.838361 41.3804157,150.908366 23.5115999,168.763928 C5.64278396,185.548155 -2.04080687,199.296938 0.460827357,210.010274 C4.21327869,226.08028 17.0788261,244.292952 27.8001157,267.326626 Z" stroke-dasharray="9 6"/>
  </g>
</svg>
