<svg xmlns="http://www.w3.org/2000/svg" width="403" height="421" viewBox="0 0 403 421">
  <g fill="none" fill-rule="evenodd" transform="rotate(14 151.711 468.191)">
    <path stroke="#84E29C" stroke-width="52.53" d="M181.899244,8.8781407 C150.026574,32.3729312 181.382242,54.5427759 160.82829,81.4984022 C119.066726,140.921915 108.826933,97.1127188 77.5333663,159.534671 C38.7679145,236.860953 53.2675392,284.941929 16.6786273,335.516754 C-4.84873659,368.089077 -1.29574183,387.528047 9.75640077,400.813964 C29.1316277,424.105164 44.1674473,420.652195 77.5333663,408.670988 C116.556468,382.658899 113.437662,374.649311 150.178711,342.153269 C171.401801,328.651393 181.899244,343.221214 200.840281,328.651393 C219.781319,314.081572 229.442009,310.954018 257.511257,262.133675 C263.824936,239.554266 242.462769,239.583721 241.46082,205.380025 C240.637127,177.2615 261.390747,171.205784 257.511257,140.921915 C252.795015,111.782272 279.875374,99.5771858 279.875374,73.7939417 C280.796058,42.9606739 274.626652,41.2979003 268.921521,31.4575497 C243.987204,4.95210189 210.196697,-10.8788422 181.899244,8.8781407 Z" stroke-linejoin="round"/>
    <path stroke="#FFFFFF" stroke-width="48.41" d="M181.899244,8.8781407 C150.026574,32.3729312 181.382242,54.5427759 160.82829,81.4984022 C119.066726,140.921915 108.826933,97.1127188 77.5333663,159.534671 C38.7679145,236.860953 53.2675392,284.941929 16.6786273,335.516754 C-4.84873659,368.089077 -1.29574183,387.528047 9.75640077,400.813964 C29.1316277,424.105164 44.1674473,420.652195 77.5333663,408.670988 C116.556468,382.658899 113.437662,374.649311 150.178711,342.153269 C171.401801,328.651393 181.899244,343.221214 200.840281,328.651393 C219.781319,314.081572 229.442009,310.954018 257.511257,262.133675 C263.824936,239.554266 242.462769,239.583721 241.46082,205.380025 C240.637127,177.2615 261.390747,171.205784 257.511257,140.921915 C252.795015,111.782272 279.875374,99.5771858 279.875374,73.7939417 C280.796058,42.9606739 274.626652,41.2979003 268.921521,31.4575497 C243.987204,4.95210189 210.196697,-10.8788422 181.899244,8.8781407 Z" stroke-linejoin="round"/>
    <path stroke="#313D46" stroke-width="42.23" d="M181.899244,8.8781407 C150.026574,32.3729312 181.382242,54.5427759 160.82829,81.4984022 C119.066726,140.921915 108.826933,97.1127188 77.5333663,159.534671 C38.7679145,236.860953 53.2675392,284.941929 16.6786273,335.516754 C-4.84873659,368.089077 -1.29574183,387.528047 9.75640077,400.813964 C29.1316277,424.105164 44.1674473,420.652195 77.5333663,408.670988 C116.556468,382.658899 113.437662,374.649311 150.178711,342.153269 C171.401801,328.651393 181.899244,343.221214 200.840281,328.651393 C219.781319,314.081572 229.442009,310.954018 257.511257,262.133675 C263.824936,239.554266 242.462769,239.583721 241.46082,205.380025 C240.637127,177.2615 261.390747,171.205784 257.511257,140.921915 C252.795015,111.782272 279.875374,99.5771858 279.875374,73.7939417 C280.796058,42.9606739 274.626652,41.2979003 268.921521,31.4575497 C243.987204,4.95210189 210.196697,-10.8788422 181.899244,8.8781407 Z" stroke-linejoin="round"/>
    <path stroke="#FF9900" stroke-width="2.317" d="M181.899244,8.8781407 C150.026574,32.3729312 181.382242,54.5427759 160.82829,81.4984022 C119.066726,140.921915 108.826933,97.1127188 77.5333663,159.534671 C38.7679145,236.860953 53.2675392,284.941929 16.6786273,335.516754 C-4.84873659,368.089077 -1.29574183,387.528047 9.75640077,400.813964 C29.1316277,424.105164 44.1674473,420.652195 77.5333663,408.670988 C116.556468,382.658899 113.437662,374.649311 150.178711,342.153269 C171.401801,328.651393 181.899244,343.221214 200.840281,328.651393 C219.781319,314.081572 229.442009,310.954018 257.511257,262.133675 C263.824936,239.554266 242.462769,239.583721 241.46082,205.380025 C240.637127,177.2615 261.390747,171.205784 257.511257,140.921915 C252.795015,111.782272 279.875374,99.5771858 279.875374,73.7939417 C280.796058,42.9606739 274.626652,41.2979003 268.921521,31.4575497 C243.987204,4.95210189 210.196697,-10.8788422 181.899244,8.8781407 Z" stroke-dasharray="9.27 6.18"/>
  </g>
</svg>
