<svg xmlns="http://www.w3.org/2000/svg" width="572" height="271" viewBox="0 0 572 271">
  <g fill="none" fill-rule="evenodd" transform="translate(20 20.93)">
    <path stroke="#84E29C" stroke-width="40" d="M404.059403,3.14025741 C375.112347,12.2523436 355.996367,19.6559136 330.872507,44.7141505 C305.748647,69.7723874 300.702551,105.07039 286.632667,114.763313 C272.562782,124.456235 239.661972,124.444904 230.923238,99.3866674 C222.184504,74.3284305 227.100042,62.3688174 218.907479,49.2701936 C213.836561,41.1625905 210.155215,33.1151994 196.514473,25.9204728 C188.117266,21.4914165 154.459316,12.8218489 144.628241,31.6155266 C129.374178,60.7761128 133.158652,73.7589251 114.042672,101.095184 C94.9266915,128.431442 81.2724198,136.404517 62.7026102,139.252044 C44.1328007,142.099571 25.5629912,130.709464 11.9087194,141.530066 C-1.7455523,152.350668 -6.66109012,171.713851 13.547232,187.090497 C33.7555542,202.467142 50.1406803,204.745164 110.219476,214.426755 C170.298271,224.108347 181.151614,222.86705 207.437891,224.677852 C231.415658,226.329626 268.609028,228.66439 298.102255,229.8034 C327.595482,230.942411 406.244087,226.955874 441.199022,222.39983 C476.153958,217.843787 495.816109,211.579228 514.385919,200.758626 C532.955728,189.938024 532.409558,167.727314 525.309336,156.337206 C518.209115,144.947098 507.831868,137.543528 487.623546,143.238582 C467.415224,148.933636 442.837535,162.03226 428.637092,155.7677 C414.43665,149.503141 408.974941,122.166883 416.621333,107.929248 C424.267726,93.6916135 438.468168,90.2745812 452.668611,90.2745812 C466.869053,90.2745812 497.645093,94.0703903 516.785289,88.5703903 C535.925485,83.0703903 534.414417,56.5703903 526.355387,43.5703903 C518.296357,30.5703903 499.686485,32.8997056 491.097131,34.5703903 C472.711331,38.1465475 461.407345,40.1581074 452.12244,23.0729459 C442.837535,5.98778433 433.006459,-5.97182874 404.059403,3.14025741 Z" stroke-linejoin="round"/>
    <path stroke="#FFFFFF" stroke-width="38" d="M404.059403,3.14025741 C375.112347,12.2523436 355.996367,19.6559136 330.872507,44.7141505 C305.748647,69.7723874 300.702551,105.07039 286.632667,114.763313 C272.562782,124.456235 239.661972,124.444904 230.923238,99.3866674 C222.184504,74.3284305 227.100042,62.3688174 218.907479,49.2701936 C213.836561,41.1625905 210.155215,33.1151994 196.514473,25.9204728 C188.117266,21.4914165 154.459316,12.8218489 144.628241,31.6155266 C129.374178,60.7761128 133.158652,73.7589251 114.042672,101.095184 C94.9266915,128.431442 81.2724198,136.404517 62.7026102,139.252044 C44.1328007,142.099571 25.5629912,130.709464 11.9087194,141.530066 C-1.7455523,152.350668 -6.66109012,171.713851 13.547232,187.090497 C33.7555542,202.467142 50.1406803,204.745164 110.219476,214.426755 C170.298271,224.108347 181.151614,222.86705 207.437891,224.677852 C231.415658,226.329626 268.609028,228.66439 298.102255,229.8034 C327.595482,230.942411 406.244087,226.955874 441.199022,222.39983 C476.153958,217.843787 495.816109,211.579228 514.385919,200.758626 C532.955728,189.938024 532.409558,167.727314 525.309336,156.337206 C518.209115,144.947098 507.831868,137.543528 487.623546,143.238582 C467.415224,148.933636 442.837535,162.03226 428.637092,155.7677 C414.43665,149.503141 408.974941,122.166883 416.621333,107.929248 C424.267726,93.6916135 438.468168,90.2745812 452.668611,90.2745812 C466.869053,90.2745812 497.645093,94.0703903 516.785289,88.5703903 C535.925485,83.0703903 534.414417,56.5703903 526.355387,43.5703903 C518.296357,30.5703903 499.686485,32.8997056 491.097131,34.5703903 C472.711331,38.1465475 461.407345,40.1581074 452.12244,23.0729459 C442.837535,5.98778433 433.006459,-5.97182874 404.059403,3.14025741 Z" stroke-linejoin="round"/>
    <path stroke="#313D46" stroke-width="32" d="M404.059403,3.14025741 C375.112347,12.2523436 355.996367,19.6559136 330.872507,44.7141505 C305.748647,69.7723874 300.702551,105.07039 286.632667,114.763313 C272.562782,124.456235 239.661972,124.444904 230.923238,99.3866674 C222.184504,74.3284305 227.100042,62.3688174 218.907479,49.2701936 C213.836561,41.1625905 210.155215,33.1151994 196.514473,25.9204728 C188.117266,21.4914165 154.459316,12.8218489 144.628241,31.6155266 C129.374178,60.7761128 133.158652,73.7589251 114.042672,101.095184 C94.9266915,128.431442 81.2724198,136.404517 62.7026102,139.252044 C44.1328007,142.099571 25.5629912,130.709464 11.9087194,141.530066 C-1.7455523,152.350668 -6.66109012,171.713851 13.547232,187.090497 C33.7555542,202.467142 50.1406803,204.745164 110.219476,214.426755 C170.298271,224.108347 181.151614,222.86705 207.437891,224.677852 C231.415658,226.329626 268.609028,228.66439 298.102255,229.8034 C327.595482,230.942411 406.244087,226.955874 441.199022,222.39983 C476.153958,217.843787 495.816109,211.579228 514.385919,200.758626 C532.955728,189.938024 532.409558,167.727314 525.309336,156.337206 C518.209115,144.947098 507.831868,137.543528 487.623546,143.238582 C467.415224,148.933636 442.837535,162.03226 428.637092,155.7677 C414.43665,149.503141 408.974941,122.166883 416.621333,107.929248 C424.267726,93.6916135 438.468168,90.2745812 452.668611,90.2745812 C466.869053,90.2745812 497.645093,94.0703903 516.785289,88.5703903 C535.925485,83.0703903 534.414417,56.5703903 526.355387,43.5703903 C518.296357,30.5703903 499.686485,32.8997056 491.097131,34.5703903 C472.711331,38.1465475 461.407345,40.1581074 452.12244,23.0729459 C442.837535,5.98778433 433.006459,-5.97182874 404.059403,3.14025741 Z" stroke-linejoin="round"/>
    <path stroke="#FF9900" stroke-width="1.5" d="M404.149984,3.14025741 C375.196439,12.2523436 356.076173,19.6559136 330.946681,44.7141505 C305.817189,69.7723874 299.796903,107.524569 286.696923,114.763313 C273.596944,122.002057 239.715699,124.444904 230.975006,99.3866674 C222.234313,74.3284305 227.150953,62.3688174 218.956553,49.2701936 C213.884498,41.1625905 210.202327,33.1151994 196.558527,25.9204728 C188.159437,21.4914165 154.493943,12.8218489 144.660663,31.6155266 C129.403181,60.7761128 133.188504,73.7589251 114.068238,101.095184 C94.9479719,128.431442 81.2906392,136.404517 62.7166668,139.252044 C44.1426943,142.099571 25.5687218,130.709464 11.9113891,141.530066 C-1.74594361,152.350668 -6.66258339,171.713851 13.550269,187.090497 C33.7631214,202.467142 50.1519207,204.745164 110.244185,214.426755 C170.336448,224.108347 181.192224,222.86705 207.484393,224.677852 C231.467536,226.329626 268.669244,228.66439 298.169083,229.8034 C327.668921,230.942411 406.335158,226.955874 441.297929,222.39983 C476.260701,217.843787 495.92726,211.579228 514.501233,200.758626 C533.075205,189.938024 532.528912,167.727314 525.427099,156.337206 C518.325286,144.947098 507.945713,137.543528 487.732861,143.238582 C467.520008,148.933636 442.936809,162.03226 428.733183,155.7677 C414.529557,149.503141 409.066624,122.166883 416.71473,107.929248 C424.362837,93.6916135 438.566463,90.2745812 452.770089,90.2745812 C466.973715,90.2745812 495.380967,91.9830974 513.954939,87.9965597 C532.528912,84.010022 531.982618,58.9517851 524.880805,46.4226666 C517.778992,33.8935482 509.584593,32.7545374 493.195794,36.7410751 C475.621193,41.0160562 461.510782,40.1581074 452.223795,23.0729459 C442.936809,5.98778433 433.10353,-5.97182874 404.149984,3.14025741 Z" stroke-dasharray="8.27 5.18"/>
  </g>
</svg>
