<svg xmlns="http://www.w3.org/2000/svg" width="580" height="276" viewBox="0 0 580 276">
  <g fill="none" fill-rule="evenodd" transform="translate(27 27)">
    <polygon stroke="#84E29C" stroke-width="52.53" points="169.663 221.949 157.665 221.949 79.373 221.949 69.904 221.913 60.455 221.7 51.053 221.096 41.679 219.972 32.376 218.141 23.503 214.984 15.533 209.988 8.968 203.249 4.139 195.112 1.144 186.171 0 176.85 .738 167.475 2.493 158.15 4.166 148.877 5.926 139.616 8.116 130.371 10.55 121.256 13.095 112.251 15.92 103.108 19.944 94.569 26.604 88.232 35.343 84.44 44.614 82.7 54.004 82.021 63.473 81.535 72.914 81.184 82.32 81.023 91.789 81.023 101.285 80.88 110.66 80.194 120.022 79.267 129.538 78.568 138.786 76.919 147.316 73.095 154.97 67.571 161.874 61.135 168.463 54.32 174.886 47.379 180.966 40.221 186.943 32.929 193.37 25.85 200.839 20.227 209.665 17.137 219.098 15.827 228.496 15.255 237.898 14.718 247.331 13.811 256.681 12.469 265.937 10.721 275.162 8.63 284.311 6.223 293.358 3.599 302.519 1.267 311.897 0 321.212 .86 330.077 4.175 338.086 9.174 345.492 14.999 353.071 20.697 361.419 24.907 370.789 26.312 380.073 24.69 388.401 20.523 396.375 15.31 404.66 10.69 413.608 8.164 423.077 7.667 432.546 7.872 441.924 8.452 451.283 9.545 460.653 11.053 469.838 13.235 478.123 17.524 484.57 24.5 488.168 33.15 488.685 42.494 486.633 51.736 482.408 60.192 476.391 67.381 469.289 73.616 461.769 79.373 454.072 84.854 446.398 90.292 438.859 96.057 431.832 102.441 425.946 109.67 421.72 117.984 419.708 127.502 421.085 136.724 426.608 143.898 435 148.12 444.572 148.964 453.67 146.597 461.56 141.7 468.5 135.386 475.294 128.761 482.877 122.968 491.478 119.235 500.785 118.635 509.619 121.623 516.788 127.905 521.522 136.021 524.004 144.971 525.479 154.441 526 163.975 524.864 173.117 522.193 182.102 518.247 191.04 512.456 198.415 504.565 203.04 495.49 205.281 485.994 206.07 476.525 206.615 467.163 207.357 457.749 208.071 448.304 208.817 438.91 209.732 429.524 210.667 420.051 211.476 410.641 212.265 401.248 213.054 391.806 213.769 382.337 214.345 372.967 214.739 363.546 214.597 354.077 213.331 345.575 209.503 339.51 202.357 337.325 193.376 338.954 183.989 342.079 174.964 345.571 166.386 349.516 157.795 353.706 149.201 357.718 140.729 360.875 131.854 362.102 122.384 359.699 113.537 353.28 106.6 344.785 102.406 335.565 100.725 326.112 100.2 316.643 100.37 307.245 101.182 297.859 102.232 288.442 103.195 279.075 104.339 269.78 105.847 260.461 107.61 251.533 110.523 244.684 115.502 240.111 124.377 240.9 133.709 245.453 142.264 250.996 149.836 256.358 157.48 260.607 166.011 262.761 175.173 262.54 184.569 260.568 193.806 257.037 202.558 251.793 210.45 244.77 216.606 236.091 220.212 226.713 221.736 217.307 222 207.881 221.921 198.412 221.957 188.944 221.957 179.475 221.933" stroke-linejoin="round"/>
    <polygon stroke="#FFFFFF" stroke-width="48.41" points="169.663 221.949 157.665 221.949 79.373 221.949 69.904 221.913 60.455 221.7 51.053 221.096 41.679 219.972 32.376 218.141 23.503 214.984 15.533 209.988 8.968 203.249 4.139 195.112 1.144 186.171 0 176.85 .738 167.475 2.493 158.15 4.166 148.877 5.926 139.616 8.116 130.371 10.55 121.256 13.095 112.251 15.92 103.108 19.944 94.569 26.604 88.232 35.343 84.44 44.614 82.7 54.004 82.021 63.473 81.535 72.914 81.184 82.32 81.023 91.789 81.023 101.285 80.88 110.66 80.194 120.022 79.267 129.538 78.568 138.786 76.919 147.316 73.095 154.97 67.571 161.874 61.135 168.463 54.32 174.886 47.379 180.966 40.221 186.943 32.929 193.37 25.85 200.839 20.227 209.665 17.137 219.098 15.827 228.496 15.255 237.898 14.718 247.331 13.811 256.681 12.469 265.937 10.721 275.162 8.63 284.311 6.223 293.358 3.599 302.519 1.267 311.897 0 321.212 .86 330.077 4.175 338.086 9.174 345.492 14.999 353.071 20.697 361.419 24.907 370.789 26.312 380.073 24.69 388.401 20.523 396.375 15.31 404.66 10.69 413.608 8.164 423.077 7.667 432.546 7.872 441.924 8.452 451.283 9.545 460.653 11.053 469.838 13.235 478.123 17.524 484.57 24.5 488.168 33.15 488.685 42.494 486.633 51.736 482.408 60.192 476.391 67.381 469.289 73.616 461.769 79.373 454.072 84.854 446.398 90.292 438.859 96.057 431.832 102.441 425.946 109.67 421.72 117.984 419.708 127.502 421.085 136.724 426.608 143.898 435 148.12 444.572 148.964 453.67 146.597 461.56 141.7 468.5 135.386 475.294 128.761 482.877 122.968 491.478 119.235 500.785 118.635 509.619 121.623 516.788 127.905 521.522 136.021 524.004 144.971 525.479 154.441 526 163.975 524.864 173.117 522.193 182.102 518.247 191.04 512.456 198.415 504.565 203.04 495.49 205.281 485.994 206.07 476.525 206.615 467.163 207.357 457.749 208.071 448.304 208.817 438.91 209.732 429.524 210.667 420.051 211.476 410.641 212.265 401.248 213.054 391.806 213.769 382.337 214.345 372.967 214.739 363.546 214.597 354.077 213.331 345.575 209.503 339.51 202.357 337.325 193.376 338.954 183.989 342.079 174.964 345.571 166.386 349.516 157.795 353.706 149.201 357.718 140.729 360.875 131.854 362.102 122.384 359.699 113.537 353.28 106.6 344.785 102.406 335.565 100.725 326.112 100.2 316.643 100.37 307.245 101.182 297.859 102.232 288.442 103.195 279.075 104.339 269.78 105.847 260.461 107.61 251.533 110.523 244.684 115.502 240.111 124.377 240.9 133.709 245.453 142.264 250.996 149.836 256.358 157.48 260.607 166.011 262.761 175.173 262.54 184.569 260.568 193.806 257.037 202.558 251.793 210.45 244.77 216.606 236.091 220.212 226.713 221.736 217.307 222 207.881 221.921 198.412 221.957 188.944 221.957 179.475 221.933" stroke-linejoin="round"/>
    <polygon stroke="#313D46" stroke-width="42.23" points="169.663 221.949 157.665 221.949 79.373 221.949 69.904 221.913 60.455 221.7 51.053 221.096 41.679 219.972 32.376 218.141 23.503 214.984 15.533 209.988 8.968 203.249 4.139 195.112 1.144 186.171 0 176.85 .738 167.475 2.493 158.15 4.166 148.877 5.926 139.616 8.116 130.371 10.55 121.256 13.095 112.251 15.92 103.108 19.944 94.569 26.604 88.232 35.343 84.44 44.614 82.7 54.004 82.021 63.473 81.535 72.914 81.184 82.32 81.023 91.789 81.023 101.285 80.88 110.66 80.194 120.022 79.267 129.538 78.568 138.786 76.919 147.316 73.095 154.97 67.571 161.874 61.135 168.463 54.32 174.886 47.379 180.966 40.221 186.943 32.929 193.37 25.85 200.839 20.227 209.665 17.137 219.098 15.827 228.496 15.255 237.898 14.718 247.331 13.811 256.681 12.469 265.937 10.721 275.162 8.63 284.311 6.223 293.358 3.599 302.519 1.267 311.897 0 321.212 .86 330.077 4.175 338.086 9.174 345.492 14.999 353.071 20.697 361.419 24.907 370.789 26.312 380.073 24.69 388.401 20.523 396.375 15.31 404.66 10.69 413.608 8.164 423.077 7.667 432.546 7.872 441.924 8.452 451.283 9.545 460.653 11.053 469.838 13.235 478.123 17.524 484.57 24.5 488.168 33.15 488.685 42.494 486.633 51.736 482.408 60.192 476.391 67.381 469.289 73.616 461.769 79.373 454.072 84.854 446.398 90.292 438.859 96.057 431.832 102.441 425.946 109.67 421.72 117.984 419.708 127.502 421.085 136.724 426.608 143.898 435 148.12 444.572 148.964 453.67 146.597 461.56 141.7 468.5 135.386 475.294 128.761 482.877 122.968 491.478 119.235 500.785 118.635 509.619 121.623 516.788 127.905 521.522 136.021 524.004 144.971 525.479 154.441 526 163.975 524.864 173.117 522.193 182.102 518.247 191.04 512.456 198.415 504.565 203.04 495.49 205.281 485.994 206.07 476.525 206.615 467.163 207.357 457.749 208.071 448.304 208.817 438.91 209.732 429.524 210.667 420.051 211.476 410.641 212.265 401.248 213.054 391.806 213.769 382.337 214.345 372.967 214.739 363.546 214.597 354.077 213.331 345.575 209.503 339.51 202.357 337.325 193.376 338.954 183.989 342.079 174.964 345.571 166.386 349.516 157.795 353.706 149.201 357.718 140.729 360.875 131.854 362.102 122.384 359.699 113.537 353.28 106.6 344.785 102.406 335.565 100.725 326.112 100.2 316.643 100.37 307.245 101.182 297.859 102.232 288.442 103.195 279.075 104.339 269.78 105.847 260.461 107.61 251.533 110.523 244.684 115.502 240.111 124.377 240.9 133.709 245.453 142.264 250.996 149.836 256.358 157.48 260.607 166.011 262.761 175.173 262.54 184.569 260.568 193.806 257.037 202.558 251.793 210.45 244.77 216.606 236.091 220.212 226.713 221.736 217.307 222 207.881 221.921 198.412 221.957 188.944 221.957 179.475 221.933" stroke-linejoin="round"/>
    <path stroke="#FF9900" stroke-width="2.317" d="M169.662529,221.948702 L157.664674,221.948702 L79.372852,221.948702 L69.9039761,221.913189 L60.4548271,221.700107 L51.0530224,221.096374 L41.6788353,219.971774 L32.3756647,218.140846 L23.502539,214.984074 L15.5329018,209.988482 L8.96781452,203.248774 L4.13868783,195.112193 L1.14415583,186.170636 L0,176.850267 L0.737783245,167.474653 L2.49347065,158.150338 L4.16630538,148.87732 L5.92593815,139.616139 L8.11561569,130.370743 L10.5499059,121.255563 L13.0946663,112.250871 L15.9195476,103.10807 L19.9438198,94.5690011 L26.6035958,88.231781 L35.3425792,84.4397085 L44.6141868,82.6995379 L54.0041554,82.0208319 L63.4730313,81.5354781 L72.9142896,81.1842872 L82.3200396,81.0225027 L91.7889155,81.0225027 L101.285409,80.8804479 L110.659596,80.19385 L120.021947,79.2665482 L129.538167,78.5681123 L138.786103,76.9186989 L147.315982,73.0950587 L154.96999,67.5707074 L161.874378,61.1348383 L168.463138,54.3201564 L174.886192,47.3792037 L180.965999,40.2212229 L186.943227,32.9290793 L193.370227,25.8500178 L200.838803,20.2270174 L209.664584,17.1373267 L219.097952,15.8272663 L228.495811,15.2551013 L237.897616,14.7184501 L247.330983,13.8108781 L256.681498,12.4692499 L265.937324,10.7211873 L275.161587,8.62982581 L284.310889,6.22278706 L293.357611,3.59872023 L302.518748,1.26665482 L311.89688,0 L321.211887,0.860220405 L330.077122,4.17483114 L338.086213,9.174369 L345.491663,14.9986136 L353.070709,20.6965873 L361.419101,24.9069321 L370.789343,26.3116957 L380.072787,24.689904 L388.401452,20.5229648 L396.375035,15.3103448 L404.660301,10.6896196 L413.608389,8.16420192 L423.077265,7.66701031 L432.546141,7.8722005 L441.924273,8.45225738 L451.282679,9.54528973 L460.65292,11.0526484 L469.83773,13.2347672 L478.122996,17.5240313 L484.569723,24.5004977 L488.167896,33.1500533 L488.684738,42.4940988 L486.633149,51.7355492 L482.407663,60.1917526 L476.390981,67.3813011 L469.289324,73.6159261 L461.769459,79.3730892 L454.072052,84.8540348 L446.398317,90.2915748 L438.858724,96.0566299 L431.832029,102.441202 L425.945545,109.67021 L421.720059,117.984358 L419.707923,127.502026 L421.084855,136.723747 L426.608366,143.897512 L435.000158,148.119694 L444.571613,148.964131 L453.669624,146.596552 L461.560354,141.699609 L468.500251,135.386065 L475.29417,128.760789 L482.877161,122.968112 L491.478057,119.235229 L500.785173,118.635443 L509.618845,121.622538 L516.787573,127.904515 L521.522011,136.021365 L524.003645,144.970814 L525.479212,154.44113 L526,163.974582 L524.863735,173.117384 L522.192723,182.102346 L518.247358,191.039957 L512.455562,198.414966 L504.564832,203.039637 L495.490493,205.280946 L485.993999,206.070139 L476.525124,206.614682 L467.162773,207.356523 L457.749132,208.070743 L448.303928,208.81653 L438.910014,209.731994 L429.523991,210.667188 L420.05117,211.476111 L410.641474,212.265304 L401.24756,213.054497 L391.806302,213.768717 L382.337426,214.344828 L372.967184,214.739424 L363.545653,214.597369 L354.076777,213.330715 L345.574516,209.503128 L339.51049,202.356985 L337.324758,193.375969 L338.954193,183.988518 L342.078922,174.964095 L345.57057,166.385567 L349.515935,157.795201 L353.705913,149.200889 L357.718349,140.728902 L360.874641,131.854426 L362.101649,122.384109 L359.698922,113.537256 L353.279813,106.600249 L344.785443,102.405688 L335.565125,100.724707 L326.11203,100.199893 L316.643154,100.36957 L307.245295,101.182439 L297.859272,102.232065 L288.441686,103.194881 L279.075389,104.339211 L269.78011,105.846569 L260.461158,107.610416 L251.532797,110.522538 L244.683643,115.502346 L240.110965,124.376822 L240.900038,133.70903 L245.452989,142.263882 L250.996227,149.836189 L256.357978,157.479524 L260.607136,166.0107 L262.761305,175.173231 L262.540365,184.568574 L260.567683,193.806079 L257.036581,202.55823 L251.793191,210.45016 L244.770441,216.605866 L236.090638,220.212478 L226.712506,221.73562 L217.306756,222 L207.881279,221.921081 L198.412403,221.956594 L188.943527,221.956594 L179.474651,221.932919 L169.662529,221.948702 Z" stroke-dasharray="9.27 6.18"/>
  </g>
</svg>
