<?xml version="1.0" encoding="utf-8"?>
<!-- Generator: Adobe Illustrator 24.1.1, SVG Export Plug-In . SVG Version: 6.00 Build 0)  -->
<svg version="1.1" id="Layer_1" xmlns="http://www.w3.org/2000/svg" xmlns:xlink="http://www.w3.org/1999/xlink" x="0px" y="0px"
	 viewBox="0 0 575 414" style="enable-background:new 0 0 575 414;" xml:space="preserve">
<style type="text/css">
	.st0{fill:none;}
	.st1{fill:none;stroke:#84E29C;stroke-width:52.53;stroke-linejoin:round;}
	.st2{fill:none;stroke:#FFFFFF;stroke-width:48.41;stroke-linejoin:round;}
	.st3{fill:none;stroke:#313D46;stroke-width:42.23;stroke-linejoin:round;}
	.st4{fill:none;stroke:#FF9900;stroke-width:2.317;stroke-dasharray:9.27,6.18;}
</style>
<g transform="translate(1 1)">
	<path class="st0" d="M0,0h573v412H0V0z"/>
	<path class="st1" d="M158.9,193.3c8.5,32-25.3,123.2-16.7,143.2c15.7,36.8,124.6,47.4,124.6,47.4c1.2,0,51.9,0.2,95.8-5.7
		c33.9-4.6,63.1-11,66.4-35c2.2-16-8.1-27.9-16-34.5c-15-12.6-45.4-11.1-57.7-10.3c-10.2,0.6-43.9,2.7-72.1-8.8
		c-12.4-16.6-12.9-30.4-8.8-42.7c1.7-5.2,41.5-35.6,68.5-39.7c47.9-7.2,60.5-5.8,85-20.1c18.5-10.8,17.2-43.6,12.4-56.1
		c-17.1-43.9-28.8-82.9-71.6-98.9C332.2,18.5,283.2,44,245.6,58C228,64.6,200,59.5,191,64.7c-26.1,15.1-4.9,20.5-22.4,39.8
		c-11.7,13-23.7,8.5-31.5,27.2C131,146.1,151.7,166.2,158.9,193.3z"/>
	<path class="st2" d="M158.9,193.3c8.5,32-25.3,123.2-16.7,143.2c15.7,36.8,124.6,47.4,124.6,47.4c1.2,0,51.9,0.2,95.8-5.7
		c33.9-4.6,63.1-11,66.4-35c2.2-16-8.1-27.9-16-34.5c-15-12.6-45.4-11.1-57.7-10.3c-10.2,0.6-43.3,2.6-72.1-7.7
		c-12.9-18.5-15.5-31.9-8.8-43.8c2.6-4.7,41.5-35.6,68.5-39.7c47.9-7.2,60.5-5.8,85-20.1c18.5-10.8,17.2-43.6,12.4-56.1
		c-17.1-43.9-28.8-82.9-71.6-98.9C332.2,18.5,283.2,44,245.6,58C228,64.6,200,59.5,191,64.7c-26.1,15.1-4.9,20.5-22.4,39.8
		c-11.7,13-23.7,8.5-31.5,27.2C131,146.1,151.7,166.2,158.9,193.3z"/>
	<path class="st3" d="M158.9,193.3c8.5,32-25.3,123.2-16.7,143.2c15.7,36.8,124.6,47.4,124.6,47.4c1.2,0,51.9,0.2,95.8-5.7
		c33.9-4.6,63.1-11,66.4-35c2.2-16-8.1-27.9-16-34.5c-15-12.6-45.4-11.1-57.7-10.3c-10.2,0.6-45.3,4.6-72.6-8.2
		c-12.4-16.6-14.4-30.9-8.2-43.3c4.2-8.4,41.5-35.6,68.5-39.7c47.9-7.2,60.5-5.8,85-20.1c18.5-10.8,17.2-43.6,12.4-56.1
		c-17.1-43.9-28.8-82.9-71.6-98.9C332.2,18.5,283.2,44,245.6,58C228,64.6,200,59.5,191,64.7c-26.1,15.1-4.9,20.5-22.4,39.8
		c-11.7,13-23.7,8.5-31.5,27.2C131,146.1,151.7,166.2,158.9,193.3z"/>
	<path class="st4" d="M158.9,193.3c8.5,32-25.3,123.2-16.7,143.2c15.7,36.8,124.6,47.4,124.6,47.4c1.2,0,51.9,0.2,95.8-5.7
		c33.9-4.6,63.1-11,66.4-35c2.2-16-8.1-27.9-16-34.5c-15-12.6-45.4-11.1-57.7-10.3c-10.2,0.6-44.4,3.3-72.6-8.2
		c-12.4-16.6-17.1-28.6-8.2-43.3c2.8-4.6,41.5-35.6,68.5-39.7c47.9-7.2,60.5-5.8,85-20.1c18.5-10.8,17.2-43.6,12.4-56.1
		c-17.1-43.9-28.8-82.9-71.6-98.9C332.2,18.5,283.2,44,245.6,58C228,64.6,200,59.5,191,64.7c-26.1,15.1-4.9,20.5-22.4,39.8
		c-11.7,13-23.7,8.5-31.5,27.2C131,146.1,151.7,166.2,158.9,193.3z"/>
</g>
</svg>
