<svg xmlns="http://www.w3.org/2000/svg" width="557" height="359" viewBox="0 0 557 359">
  <g fill="none" fill-rule="evenodd" transform="translate(26 26)">
    <path stroke="#84E29C" stroke-width="52.53" d="M239.144985,2.13999987 C144.449991,5.88499963 74.5308062,-8.593711 37.4499977,11.2349993 C-14.0116883,38.753786 -3.2099998,107.534993 17.6549989,138.564991 C38.5199976,169.594989 102.719994,150.334991 126.259992,188.854988 C149.799991,227.374986 134.819992,273.919983 180.294989,300.669981 C234.329985,319.92998 227.612487,287.45127 288.364982,283.014982 C362.194977,278.734983 417.834974,301.739981 457.424971,286.759982 C497.014969,271.779983 511.994968,257.334984 498.619969,186.714988 C485.24497,116.094993 522.694967,69.0149957 492.734969,32.634998 C462.774971,-3.74499977 411.949974,7.48999953 365.939977,24.0749985 C319.92998,40.6599975 310.299981,3.2099998 239.144985,2.13999987 Z" stroke-linejoin="round"/>
    <path stroke="#FFFFFF" stroke-width="48.41" d="M239.144985,2.13999987 C144.449991,5.88499963 74.5308062,-8.593711 37.4499977,11.2349993 C-14.0116883,38.753786 -3.2099998,107.534993 17.6549989,138.564991 C38.5199976,169.594989 102.719994,150.334991 126.259992,188.854988 C149.799991,227.374986 134.819992,273.919983 180.294989,300.669981 C234.329985,319.92998 227.612487,287.45127 288.364982,283.014982 C362.194977,278.734983 417.834974,301.739981 457.424971,286.759982 C497.014969,271.779983 511.994968,257.334984 498.619969,186.714988 C485.24497,116.094993 522.694967,69.0149957 492.734969,32.634998 C462.774971,-3.74499977 411.949974,7.48999953 365.939977,24.0749985 C319.92998,40.6599975 310.299981,3.2099998 239.144985,2.13999987 Z" stroke-linejoin="round"/>
    <path stroke="#313D46" stroke-width="42.23" d="M239.144985,2.13999987 C144.449991,5.88499963 74.5308062,-8.593711 37.4499977,11.2349993 C-14.0116883,38.753786 -3.2099998,107.534993 17.6549989,138.564991 C38.5199976,169.594989 102.719994,150.334991 126.259992,188.854988 C149.799991,227.374986 134.819992,273.919983 180.294989,300.669981 C234.329985,319.92998 227.612487,287.45127 288.364982,283.014982 C362.194977,278.734983 417.834974,301.739981 457.424971,286.759982 C497.014969,271.779983 511.994968,257.334984 498.619969,186.714988 C485.24497,116.094993 522.694967,69.0149957 492.734969,32.634998 C462.774971,-3.74499977 411.949974,7.48999953 365.939977,24.0749985 C319.92998,40.6599975 310.299981,3.2099998 239.144985,2.13999987 Z" stroke-linejoin="round"/>
    <path stroke="#FF9900" stroke-width="2.317" d="M239.144985,2.13999987 C144.449991,5.88499963 74.5308062,-8.593711 37.4499977,11.2349993 C-14.0116883,38.753786 -3.2099998,107.534993 17.6549989,138.564991 C38.5199976,169.594989 102.719994,150.334991 126.259992,188.854988 C149.799991,227.374986 134.819992,273.919983 180.294989,300.669981 C234.329985,319.92998 227.612487,287.45127 288.364982,283.014982 C362.194977,278.734983 417.834974,301.739981 457.424971,286.759982 C497.014969,271.779983 511.994968,257.334984 498.619969,186.714988 C485.24497,116.094993 522.694967,69.0149957 492.734969,32.634998 C462.774971,-3.74499977 411.949974,7.48999953 365.939977,24.0749985 C319.92998,40.6599975 310.299981,3.2099998 239.144985,2.13999987 Z" stroke-dasharray="9.27 6.18"/>
  </g>
</svg>
