<svg xmlns="http://www.w3.org/2000/svg" width="557" height="332" viewBox="0 0 557 332">
  <g fill="none" fill-rule="evenodd" transform="translate(27 27)">
    <path stroke="#84E29C" stroke-width="52.53" d="M429.989637,0 C305.427558,0.684533985 161.253576,-1.36906797 69.5546837,2.05360195 C-8.36287253,12.3216117 -1.47220429,125.269719 1.70810412,187.562312 C4.88841254,249.854904 52.0629874,277.236264 88.1064827,277.236264 C263.023446,279.289866 339.350848,276.55173 435.820203,276.55173 C507.907194,266.968254 511.087502,141.014001 495.18596,62.9771266 C488.284701,29.1091733 455.53382,3.25817201 429.989637,0 Z" stroke-linejoin="round"/>
    <path stroke="#FFFFFF" stroke-width="48.41" d="M429.989637,0 C305.427558,0.684533985 161.253576,-1.36906797 69.5546837,2.05360195 C-8.36287253,12.3216117 -1.47220429,125.269719 1.70810412,187.562312 C4.88841254,249.854904 52.0629874,277.236264 88.1064827,277.236264 C263.023446,279.289866 339.350848,276.55173 435.820203,276.55173 C507.907194,266.968254 511.087502,141.014001 495.18596,62.9771266 C488.284701,29.1091733 455.53382,3.25817201 429.989637,0 Z" stroke-linejoin="round"/>
    <path stroke="#313D46" stroke-width="42.23" d="M429.989637,0 C305.427558,0.684533985 161.253576,-1.36906797 69.5546837,2.05360195 C-8.36287253,12.3216117 -1.47220429,125.269719 1.70810412,187.562312 C4.88841254,249.854904 52.0629874,277.236264 88.1064827,277.236264 C263.023446,279.289866 339.350848,276.55173 435.820203,276.55173 C507.907194,266.968254 511.087502,141.014001 495.18596,62.9771266 C488.284701,29.1091733 455.53382,3.25817201 429.989637,0 Z" stroke-linejoin="round"/>
    <path stroke="#FF9900" stroke-width="2.317" d="M429.989637,0 C305.427558,0.684533985 161.253576,-1.36906797 69.5546837,2.05360195 C-8.36287253,12.3216117 -1.47220429,125.269719 1.70810412,187.562312 C4.88841254,249.854904 52.0629874,277.236264 88.1064827,277.236264 C263.023446,279.289866 339.350848,276.55173 435.820203,276.55173 C507.907194,266.968254 511.087502,141.014001 495.18596,62.9771266 C488.284701,29.1091733 455.53382,3.25817201 429.989637,0 Z" stroke-dasharray="9.27 6.18"/>
  </g>
</svg>
