<svg xmlns="http://www.w3.org/2000/svg" width="536" height="414" viewBox="0 0 536 414">
  <g fill="none" fill-rule="evenodd" transform="translate(25 25)">
    <path stroke="#84E29C" stroke-width="49" d="M370.708893,78.389536 C376.941033,116.519978 384.731208,139.74212 393.464859,154.199607 C402.198511,168.657094 411.89295,174.370894 421.93362,177.442717 C431.97429,180.514539 442.369845,180.986321 452.505728,184.991223 C462.641611,188.996125 472.5611,196.523664 481.589047,213.748936 C488.444401,236.100903 486.851743,251.627762 479.961766,262.373899 C473.071789,273.120037 460.849871,279.095938 446.47267,282.29357 C432.09547,285.491201 415.545677,286.057339 399.965327,285.889594 C384.384978,285.72185 369.774072,284.841191 359.283303,285.428297 L142.396183,285.428297 C137.122783,286.682974 132.103233,289.176151 127.620818,292.767122 C123.150965,296.384236 119.094021,300.698845 115.554703,305.599584 C111.913712,310.602574 108.564507,315.906323 105.531345,321.472415 C102.467209,326.997503 99.6281233,332.637915 96.8755949,337.97429 C93.5374367,346.266391 88.1652843,353.106478 81.4943276,357.55847 C75.0278313,361.690133 67.8407641,363.893373 60.5301018,363.985185 C52.877408,364.157024 45.2519082,362.833018 37.9472508,360.064155 C30.7301238,357.401867 23.867637,353.493039 17.5716159,348.458326 C13.7636539,345.081641 10.4985005,340.888743 7.9377665,336.087163 C5.44817886,331.359912 3.55754079,326.20745 2.32884068,320.801437 C1.06772523,315.350425 0.318589235,309.744425 0.095657249,304.089882 C-0.134508348,298.489583 0.0508918117,292.875563 0.649625231,287.315423 C0.924932285,282.894826 1.52454485,278.512682 2.44136542,274.220861 C3.37618639,269.681273 4.5793356,265.026361 5.90366531,260.402901 C7.22799502,255.77944 8.63022647,251.239852 9.98052343,246.857525 C11.3308204,242.475197 12.6291828,238.323519 13.6765286,234.517813 C14.73253,231.100017 16.0222367,226.833014 17.4677469,222.14665 C18.9132571,217.460285 20.4453248,212.239235 21.9514253,207.143993 L26.5043496,192.172788 C27.9238926,187.47594 29.2222551,183.187969 30.2696008,179.770173 L40.6045659,145.476888 L50.9308754,111.183603 L61.2225618,76.8903188 L71.5575269,42.5970341 C76.7001773,30.5519395 84.1426855,20.1679754 93.2661472,12.3086515 C101.364447,5.355176 110.855416,1.16242337 120.748153,0.168136773 C130.479186,-0.716321162 140.208978,1.90255446 148.71488,7.69567526 C157.526433,13.6506082 165.533002,23.1386616 171.860355,36.4114523 C173.920423,42.7018745 175.73236,49.0726742 177.296166,55.5238516 C178.859971,61.9750289 180.17853,68.5065839 181.251843,75.1185165 C182.325156,81.7094811 183.141682,88.3493711 183.70142,95.0381866 C184.261159,101.727002 184.569881,108.44727 184.627586,115.19899 C183.874535,126.395941 181.952959,136.743685 180.299711,146.022058 C178.646462,155.300431 177.426002,163.540884 178.014593,170.523252 C178.401848,177.632927 181.743403,184.017895 186.886736,187.47594 C192.729367,191.742943 201.947741,194.542181 216.08258,195.684941 C218.021468,195.758329 219.735306,195.800265 221.327964,195.842201 C222.920622,195.884138 224.383444,195.905106 225.820298,195.926074 L230.148173,195.999462 L234.934803,196.093818 C239.331924,196.209143 243.7377,196.471244 248.030952,196.492212 C252.194306,196.580002 256.356079,196.229213 260.469265,195.443808 C264.365111,194.70516 268.113411,193.094643 271.522657,190.694539 C275.167516,187.993424 278.238807,184.294953 280.490014,179.895981 C281.018014,178.93145 281.528704,177.966918 282.030737,176.981419 C282.532771,175.99592 283.008837,174.989452 283.476247,173.993468 C283.943658,172.997485 284.385101,171.959565 284.817889,170.93213 C285.250676,169.904694 285.683464,168.835322 286.064317,167.786919 C289.890158,157.302882 292.772523,148.852748 295.092263,141.471986 C297.412004,134.091224 299.169122,127.842738 300.735812,121.678124 C302.302503,115.513511 303.678767,109.558578 305.254114,102.806858 C306.82946,96.0551382 308.681791,88.5275997 310.975564,79.217775 C312.957731,67.1296804 317.034589,58.2497012 322.150137,52.4310607 C326.88156,46.8938897 333.229338,43.8486132 339.807867,43.9599589 C346.558396,44.2324134 353.010819,47.3934576 358.019564,52.8818743 C363.481342,58.7005147 368.025611,67.2450048 370.708893,78.389536 Z" stroke-linejoin="round"/>
    <path stroke="#FFFFFF" stroke-width="45" d="M370.708893,78.389536 C376.941033,116.519978 384.731208,139.74212 393.464859,154.199607 C402.198511,168.657094 411.89295,174.370894 421.93362,177.442717 C431.97429,180.514539 442.369845,180.986321 452.505728,184.991223 C462.641611,188.996125 472.5611,196.523664 481.589047,213.748936 C488.444401,236.100903 486.851743,251.627762 479.961766,262.373899 C473.071789,273.120037 460.849871,279.095938 446.47267,282.29357 C432.09547,285.491201 415.545677,286.057339 399.965327,285.889594 C384.384978,285.72185 369.774072,284.841191 359.283303,285.428297 L142.396183,285.428297 C137.122783,286.682974 132.103233,289.176151 127.620818,292.767122 C123.150965,296.384236 119.094021,300.698845 115.554703,305.599584 C111.913712,310.602574 108.564507,315.906323 105.531345,321.472415 C102.467209,326.997503 99.6281233,332.637915 96.8755949,337.97429 C93.5374367,346.266391 88.1652843,353.106478 81.4943276,357.55847 C75.0278313,361.690133 67.8407641,363.893373 60.5301018,363.985185 C52.877408,364.157024 45.2519082,362.833018 37.9472508,360.064155 C30.7301238,357.401867 23.867637,353.493039 17.5716159,348.458326 C13.7636539,345.081641 10.4985005,340.888743 7.9377665,336.087163 C5.44817886,331.359912 3.55754079,326.20745 2.32884068,320.801437 C1.06772523,315.350425 0.318589235,309.744425 0.095657249,304.089882 C-0.134508348,298.489583 0.0508918117,292.875563 0.649625231,287.315423 C0.924932285,282.894826 1.52454485,278.512682 2.44136542,274.220861 C3.37618639,269.681273 4.5793356,265.026361 5.90366531,260.402901 C7.22799502,255.77944 8.63022647,251.239852 9.98052343,246.857525 C11.3308204,242.475197 12.6291828,238.323519 13.6765286,234.517813 C14.73253,231.100017 16.0222367,226.833014 17.4677469,222.14665 C18.9132571,217.460285 20.4453248,212.239235 21.9514253,207.143993 L26.5043496,192.172788 C27.9238926,187.47594 29.2222551,183.187969 30.2696008,179.770173 L40.6045659,145.476888 L50.9308754,111.183603 L61.2225618,76.8903188 L71.5575269,42.5970341 C76.7001773,30.5519395 84.1426855,20.1679754 93.2661472,12.3086515 C101.364447,5.355176 110.855416,1.16242337 120.748153,0.168136773 C130.479186,-0.716321162 140.208978,1.90255446 148.71488,7.69567526 C157.526433,13.6506082 165.533002,23.1386616 171.860355,36.4114523 C173.920423,42.7018745 175.73236,49.0726742 177.296166,55.5238516 C178.859971,61.9750289 180.17853,68.5065839 181.251843,75.1185165 C182.325156,81.7094811 183.141682,88.3493711 183.70142,95.0381866 C184.261159,101.727002 184.569881,108.44727 184.627586,115.19899 C183.874535,126.395941 181.952959,136.743685 180.299711,146.022058 C178.646462,155.300431 177.426002,163.540884 178.014593,170.523252 C178.401848,177.632927 181.743403,184.017895 186.886736,187.47594 C192.729367,191.742943 201.947741,194.542181 216.08258,195.684941 C218.021468,195.758329 219.735306,195.800265 221.327964,195.842201 C222.920622,195.884138 224.383444,195.905106 225.820298,195.926074 L230.148173,195.999462 L234.934803,196.093818 C239.331924,196.209143 243.7377,196.471244 248.030952,196.492212 C252.194306,196.580002 256.356079,196.229213 260.469265,195.443808 C264.365111,194.70516 268.113411,193.094643 271.522657,190.694539 C275.167516,187.993424 278.238807,184.294953 280.490014,179.895981 C281.018014,178.93145 281.528704,177.966918 282.030737,176.981419 C282.532771,175.99592 283.008837,174.989452 283.476247,173.993468 C283.943658,172.997485 284.385101,171.959565 284.817889,170.93213 C285.250676,169.904694 285.683464,168.835322 286.064317,167.786919 C289.890158,157.302882 292.772523,148.852748 295.092263,141.471986 C297.412004,134.091224 299.169122,127.842738 300.735812,121.678124 C302.302503,115.513511 303.678767,109.558578 305.254114,102.806858 C306.82946,96.0551382 308.681791,88.5275997 310.975564,79.217775 C312.957731,67.1296804 317.034589,58.2497012 322.150137,52.4310607 C326.88156,46.8938897 333.229338,43.8486132 339.807867,43.9599589 C346.558396,44.2324134 353.010819,47.3934576 358.019564,52.8818743 C363.481342,58.7005147 368.025611,67.2450048 370.708893,78.389536 Z" stroke-linejoin="round"/>
    <path stroke="#313D46" stroke-width="36" d="M370.708893,78.389536 C376.941033,116.519978 384.731208,139.74212 393.464859,154.199607 C402.198511,168.657094 411.89295,174.370894 421.93362,177.442717 C431.97429,180.514539 442.369845,180.986321 452.505728,184.991223 C462.641611,188.996125 472.5611,196.523664 481.589047,213.748936 C488.444401,236.100903 486.851743,251.627762 479.961766,262.373899 C473.071789,273.120037 460.849871,279.095938 446.47267,282.29357 C432.09547,285.491201 415.545677,286.057339 399.965327,285.889594 C384.384978,285.72185 369.774072,284.841191 359.283303,285.428297 L142.396183,285.428297 C137.122783,286.682974 132.103233,289.176151 127.620818,292.767122 C123.150965,296.384236 119.094021,300.698845 115.554703,305.599584 C111.913712,310.602574 108.564507,315.906323 105.531345,321.472415 C102.467209,326.997503 99.6281233,332.637915 96.8755949,337.97429 C93.5374367,346.266391 88.1652843,353.106478 81.4943276,357.55847 C75.0278313,361.690133 67.8407641,363.893373 60.5301018,363.985185 C52.877408,364.157024 45.2519082,362.833018 37.9472508,360.064155 C30.7301238,357.401867 23.867637,353.493039 17.5716159,348.458326 C13.7636539,345.081641 10.4985005,340.888743 7.9377665,336.087163 C5.44817886,331.359912 3.55754079,326.20745 2.32884068,320.801437 C1.06772523,315.350425 0.318589235,309.744425 0.095657249,304.089882 C-0.134508348,298.489583 0.0508918117,292.875563 0.649625231,287.315423 C0.924932285,282.894826 1.52454485,278.512682 2.44136542,274.220861 C3.37618639,269.681273 4.5793356,265.026361 5.90366531,260.402901 C7.22799502,255.77944 8.63022647,251.239852 9.98052343,246.857525 C11.3308204,242.475197 12.6291828,238.323519 13.6765286,234.517813 C14.73253,231.100017 16.0222367,226.833014 17.4677469,222.14665 C18.9132571,217.460285 20.4453248,212.239235 21.9514253,207.143993 L26.5043496,192.172788 C27.9238926,187.47594 29.2222551,183.187969 30.2696008,179.770173 L40.6045659,145.476888 L50.9308754,111.183603 L61.2225618,76.8903188 L71.5575269,42.5970341 C76.7001773,30.5519395 84.1426855,20.1679754 93.2661472,12.3086515 C101.364447,5.355176 110.855416,1.16242337 120.748153,0.168136773 C130.479186,-0.716321162 140.208978,1.90255446 148.71488,7.69567526 C157.526433,13.6506082 165.533002,23.1386616 171.860355,36.4114523 C173.920423,42.7018745 175.73236,49.0726742 177.296166,55.5238516 C178.859971,61.9750289 180.17853,68.5065839 181.251843,75.1185165 C182.325156,81.7094811 183.141682,88.3493711 183.70142,95.0381866 C184.261159,101.727002 184.569881,108.44727 184.627586,115.19899 C183.874535,126.395941 181.952959,136.743685 180.299711,146.022058 C178.646462,155.300431 177.426002,163.540884 178.014593,170.523252 C178.401848,177.632927 181.743403,184.017895 186.886736,187.47594 C192.729367,191.742943 201.947741,194.542181 216.08258,195.684941 C218.021468,195.758329 219.735306,195.800265 221.327964,195.842201 C222.920622,195.884138 224.383444,195.905106 225.820298,195.926074 L230.148173,195.999462 L234.934803,196.093818 C239.331924,196.209143 243.7377,196.471244 248.030952,196.492212 C252.194306,196.580002 256.356079,196.229213 260.469265,195.443808 C264.365111,194.70516 268.113411,193.094643 271.522657,190.694539 C275.167516,187.993424 278.238807,184.294953 280.490014,179.895981 C281.018014,178.93145 281.528704,177.966918 282.030737,176.981419 C282.532771,175.99592 283.008837,174.989452 283.476247,173.993468 C283.943658,172.997485 284.385101,171.959565 284.817889,170.93213 C285.250676,169.904694 285.683464,168.835322 286.064317,167.786919 C289.890158,157.302882 292.772523,148.852748 295.092263,141.471986 C297.412004,134.091224 299.169122,127.842738 300.735812,121.678124 C302.302503,115.513511 303.678767,109.558578 305.254114,102.806858 C306.82946,96.0551382 308.681791,88.5275997 310.975564,79.217775 C312.957731,67.1296804 317.034589,58.2497012 322.150137,52.4310607 C326.88156,46.8938897 333.229338,43.8486132 339.807867,43.9599589 C346.558396,44.2324134 353.010819,47.3934576 358.019564,52.8818743 C363.481342,58.7005147 368.025611,67.2450048 370.708893,78.389536 Z" stroke-linejoin="round"/>
    <path stroke="#FF9900" stroke-width="2.317" d="M370.708893,78.389536 C376.941033,116.519978 384.731208,139.74212 393.464859,154.199607 C402.198511,168.657094 411.89295,174.370894 421.93362,177.442717 C431.97429,180.514539 442.369845,180.986321 452.505728,184.991223 C462.641611,188.996125 472.5611,196.523664 481.589047,213.748936 C488.444401,236.100903 486.851743,251.627762 479.961766,262.373899 C473.071789,273.120037 460.849871,279.095938 446.47267,282.29357 C432.09547,285.491201 415.545677,286.057339 399.965327,285.889594 C384.384978,285.72185 369.774072,284.841191 359.283303,285.428297 L142.396183,285.428297 C137.122783,286.682974 132.103233,289.176151 127.620818,292.767122 C123.150965,296.384236 119.094021,300.698845 115.554703,305.599584 C111.913712,310.602574 108.564507,315.906323 105.531345,321.472415 C102.467209,326.997503 99.6281233,332.637915 96.8755949,337.97429 C93.5374367,346.266391 88.1652843,353.106478 81.4943276,357.55847 C75.0278313,361.690133 67.8407641,363.893373 60.5301018,363.985185 C52.877408,364.157024 45.2519082,362.833018 37.9472508,360.064155 C30.7301238,357.401867 23.867637,353.493039 17.5716159,348.458326 C13.7636539,345.081641 10.4985005,340.888743 7.9377665,336.087163 C5.44817886,331.359912 3.55754079,326.20745 2.32884068,320.801437 C1.06772523,315.350425 0.318589235,309.744425 0.095657249,304.089882 C-0.134508348,298.489583 0.0508918117,292.875563 0.649625231,287.315423 C0.924932285,282.894826 1.52454485,278.512682 2.44136542,274.220861 C3.37618639,269.681273 4.5793356,265.026361 5.90366531,260.402901 C7.22799502,255.77944 8.63022647,251.239852 9.98052343,246.857525 C11.3308204,242.475197 12.6291828,238.323519 13.6765286,234.517813 C14.73253,231.100017 16.0222367,226.833014 17.4677469,222.14665 C18.9132571,217.460285 20.4453248,212.239235 21.9514253,207.143993 L26.5043496,192.172788 C27.9238926,187.47594 29.2222551,183.187969 30.2696008,179.770173 L40.6045659,145.476888 L50.9308754,111.183603 L61.2225618,76.8903188 L71.5575269,42.5970341 C76.7001773,30.5519395 84.1426855,20.1679754 93.2661472,12.3086515 C101.364447,5.355176 110.855416,1.16242337 120.748153,0.168136773 C130.479186,-0.716321162 140.208978,1.90255446 148.71488,7.69567526 C157.526433,13.6506082 165.533002,23.1386616 171.860355,36.4114523 C173.920423,42.7018745 175.73236,49.0726742 177.296166,55.5238516 C178.859971,61.9750289 180.17853,68.5065839 181.251843,75.1185165 C182.325156,81.7094811 183.141682,88.3493711 183.70142,95.0381866 C184.261159,101.727002 184.569881,108.44727 184.627586,115.19899 C183.874535,126.395941 181.952959,136.743685 180.299711,146.022058 C178.646462,155.300431 177.426002,163.540884 178.014593,170.523252 C178.401848,177.632927 181.743403,184.017895 186.886736,187.47594 C192.729367,191.742943 201.947741,194.542181 216.08258,195.684941 C218.021468,195.758329 219.735306,195.800265 221.327964,195.842201 C222.920622,195.884138 224.383444,195.905106 225.820298,195.926074 L230.148173,195.999462 L234.934803,196.093818 C239.331924,196.209143 243.7377,196.471244 248.030952,196.492212 C252.194306,196.580002 256.356079,196.229213 260.469265,195.443808 C264.365111,194.70516 268.113411,193.094643 271.522657,190.694539 C275.167516,187.993424 278.238807,184.294953 280.490014,179.895981 C281.018014,178.93145 281.528704,177.966918 282.030737,176.981419 C282.532771,175.99592 283.008837,174.989452 283.476247,173.993468 C283.943658,172.997485 284.385101,171.959565 284.817889,170.93213 C285.250676,169.904694 285.683464,168.835322 286.064317,167.786919 C289.890158,157.302882 292.772523,148.852748 295.092263,141.471986 C297.412004,134.091224 299.169122,127.842738 300.735812,121.678124 C302.302503,115.513511 303.678767,109.558578 305.254114,102.806858 C306.82946,96.0551382 308.681791,88.5275997 310.975564,79.217775 C312.957731,67.1296804 317.034589,58.2497012 322.150137,52.4310607 C326.88156,46.8938897 333.229338,43.8486132 339.807867,43.9599589 C346.558396,44.2324134 353.010819,47.3934576 358.019564,52.8818743 C363.481342,58.7005147 368.025611,67.2450048 370.708893,78.389536 Z" stroke-dasharray="9 6"/>
  </g>
</svg>
