<svg xmlns="http://www.w3.org/2000/svg" width="537" height="415" viewBox="0 0 537 415">
  <g fill="none" fill-rule="evenodd" transform="translate(24.62 25.246)">
    <path stroke="#84E29C" stroke-width="49" d="M244,293.5 C240.623467,293.817805 138.795567,298.325233 135.626821,298.243511 C132.458075,298.16179 129.406209,297.971107 126.42577,297.771344 C123.445331,297.571581 120.581771,297.399058 117.770159,297.362738 C115.034836,297.297516 112.299045,297.446056 109.575574,297.807665 C106.935653,298.161062 104.326248,298.869564 101.783576,299.923337 C99.1746662,301.014337 96.6728648,302.554638 94.335724,304.508808 C91.7217784,306.708091 89.3081321,309.342388 87.1476057,312.35405 C84.5517949,316.010496 82.2202238,320.016069 80.186754,324.312595 C79.2906742,326.046901 78.4335544,327.835689 77.5894212,329.660797 C76.7452881,331.485906 75.9336216,333.347334 75.1154618,335.208763 C74.297302,337.070192 73.4921288,338.949781 72.6479957,340.80213 C71.8038626,342.654478 70.9597294,344.434186 70.050663,346.250214 C69.1415965,348.066242 68.2260367,349.718828 67.232557,351.335093 C66.2492167,352.947674 65.1883399,354.464553 64.0573177,355.875163 C62.9237945,357.306816 61.7051378,358.600872 60.4145585,359.743303 C59.0748125,360.918385 57.6570076,361.909699 56.1809062,362.703428 C54.0558595,363.557451 51.8840494,364.164854 49.6875743,364.519457 C47.3691514,364.900563 45.0345558,365.0553 42.7007493,364.982544 C37.8393049,364.826793 33.0130942,363.785922 28.3439926,361.886216 C26.0058658,360.947417 23.7187145,359.776121 21.5000209,358.381282 C19.3231241,357.016236 17.2277596,355.409987 15.2339556,353.577887 C13.2985732,351.801363 11.485611,349.776844 9.8185169,347.530514 C8.18758735,345.322516 6.73716738,342.867923 5.4939579,340.211921 C4.10067113,336.981916 2.96614948,333.547056 2.11093202,329.969522 C1.28402964,326.488908 0.703341283,322.903236 0.377212417,319.264036 C0.0515714292,315.626678 -0.0635180324,311.95849 0.0330658299,308.295227 C0.126652197,304.568407 0.386893849,300.853425 0.81226565,297.172055 C1.23433222,293.458277 1.80574542,289.75358 2.4745586,286.076123 C3.14337178,282.398666 3.91607827,278.75753 4.75371807,275.179954 C5.59135788,271.602379 6.48094434,268.070205 7.39650413,264.619751 C8.31206392,261.169298 9.24061037,257.809646 10.1431835,254.568036 L13.870356,240.294055 C15.1300623,235.451313 16.3984265,230.590411 17.6754484,225.711349 L21.5324875,210.91072 L25.4284866,196.01021 C26.727153,191.034293 28.0258194,186.067456 29.3244857,181.109699 C30.6231521,176.151943 31.9045029,171.212346 33.1685382,166.29091 C34.4672045,161.387634 35.7355687,156.523706 36.9736306,151.699124 C38.2116926,146.874543 39.4540834,142.119576 40.7008031,137.434224 C41.0968963,135.972321 41.5319496,134.328816 41.9994695,132.540028 C42.4669894,130.75124 42.9734692,128.835331 43.4994291,126.819539 C44.025389,124.803748 44.5773222,122.697156 45.1227621,120.545162 C45.6682019,118.393169 46.2461085,116.195775 46.8175217,113.989301 C47.3889349,111.782827 47.9538547,109.594513 48.5122813,107.44252 C49.0707078,105.290526 49.6096544,103.193014 50.1356142,101.177223 C50.6615741,99.1614315 51.1550673,97.2455219 51.6225872,95.4567342 L52.9212536,90.5806988 C54.284198,87.0001958 55.8566173,83.5834924 57.6224258,80.3655407 C59.3923403,77.1236432 61.3467001,74.0870475 63.4664245,71.2854003 C65.5879638,68.4973908 67.8753823,65.9670022 70.3039029,63.7216433 C72.6906466,61.5030893 75.2211809,59.6030428 77.8621412,58.0465555 C80.4535206,56.516498 83.1551605,55.3809919 85.920366,54.6596631 C88.6670847,53.9583418 91.4645916,53.7266113 94.2513107,53.9695724 C97.1143235,54.2101823 99.9408234,54.9921335 102.653682,56.2940884 C105.550703,57.6847127 108.300487,59.6149684 110.828787,62.0327371 C113.363701,63.9273949 115.732375,66.2280296 117.887039,68.8882432 C119.930909,71.427399 121.772706,74.2677905 123.380397,77.3600142 C124.977575,80.4473299 126.372778,83.7294238 127.549116,87.166566 C128.741141,90.645197 129.760831,94.2342513 130.600982,97.9083721 C131.464595,101.613069 132.178862,105.426728 132.789235,109.303948 C133.399608,113.181168 133.899595,117.094709 134.328155,121.03549 C134.756715,124.976271 135.139821,128.880731 135.464488,132.767031 C135.789154,136.653332 136.113821,140.45791 136.419008,144.171688 C136.691552,146.814316 136.808824,149.483724 136.769648,152.153131 C136.730569,154.791315 136.574429,157.423563 136.302128,160.034693 C136.035901,162.640694 135.652794,165.237614 135.282675,167.825454 C134.912555,170.413294 134.432048,172.992054 133.984008,175.579894 C133.535968,178.167734 133.068448,180.737413 132.633395,183.316173 C132.198342,185.894933 131.821729,188.491853 131.516542,191.088774 C131.199708,193.688739 130.982952,196.310621 130.867209,198.943095 C130.76217,201.591966 130.803417,204.24822 130.990582,206.888218 C131.448852,210.737122 132.460557,214.416085 133.964528,217.702665 C135.327532,220.589724 137.094619,223.060781 139.159194,224.966778 C141.313669,226.915843 143.661166,228.411868 146.126539,229.406966 C148.762289,230.479525 151.461235,231.220985 154.191257,231.622521 C157.066134,232.05807 159.955197,232.285377 162.846868,232.303531 C165.781854,232.303531 168.723333,232.23089 171.580399,232.076528 C174.437465,231.922165 177.216612,231.749643 179.820438,231.631601 C182.424264,231.513559 184.865756,231.468158 187.034529,231.631601 C188.463062,231.731482 189.898089,231.731482 191.326622,231.631601 C192.671982,231.542959 194.007614,231.266147 195.313527,230.805308 C196.632219,230.335529 197.90074,229.624148 199.086153,228.689635 C200.414325,227.624714 201.638686,226.324601 202.728912,224.821495 C204.07159,222.960119 205.280783,220.919469 206.339205,218.728721 C207.695916,215.924999 208.917215,212.997707 209.994951,209.966386 C211.235177,206.561333 212.494883,202.611472 213.800043,198.071402 C215.105203,193.531331 216.436336,188.391972 217.825909,182.571602 C218.475242,180.138124 219.124575,177.613845 219.721962,175.007845 C220.319348,172.401845 220.929721,169.786764 221.507628,167.099042 C222.085534,164.411321 222.637468,161.705439 223.182908,158.926916 C223.728347,156.148393 224.260801,153.478832 224.760787,150.700309 C225.260774,147.921786 225.773747,145.252225 226.260747,142.528182 C226.747747,139.80414 227.24124,137.18906 227.70876,134.546739 C228.17628,131.904418 228.637306,129.316578 229.09184,126.801379 C229.546373,124.28618 229.981426,121.834542 230.422973,119.482786 C231.185418,115.230529 232.363123,111.145415 233.922878,107.342638 C235.272701,104.058362 236.981626,101.089587 238.987677,98.543982 C240.792178,96.2702977 242.866512,94.4542836 245.117382,93.1776189 C249.431892,90.7664758 254.24407,90.7664758 258.558579,93.1776189 C260.875433,94.4542796 263.010627,96.2992706 264.863605,98.6257032 C266.987865,101.32342 268.79947,104.466318 270.23359,107.941927 C271.948425,112.088119 273.269061,116.529476 274.162056,121.153532 C274.973722,125.275915 275.752922,129.480021 276.512642,133.720446 C277.272362,137.960872 278.032082,142.210377 278.837255,146.432643 C279.642428,150.654908 280.512534,154.840853 281.486534,158.917836 C282.430661,162.977307 283.529609,166.963145 284.778653,170.858221 C285.999076,174.688191 287.43425,178.377155 289.070746,181.890591 C290.706974,185.398817 292.593179,188.666193 294.700464,191.642662 C296.901846,194.735937 299.353359,197.460171 302.005463,199.760308 C304.929965,202.299624 308.051719,204.365038 311.310407,205.916643 C313.258902,206.742747 315.240673,207.40676 317.245312,207.905194 C319.258245,208.422762 321.303645,208.813208 323.400991,209.067452 C325.498337,209.321696 327.595683,209.512379 329.73199,209.61226 C331.868296,209.712142 334.017589,209.721222 336.179868,209.703062 C338.342148,209.684901 340.504427,209.62134 342.6732,209.548699 L349.166532,209.330776 C351.315825,209.267215 353.452131,209.221814 355.562464,209.221814 C357.672796,209.221814 359.757156,209.285375 361.809049,209.421577 C363.347968,209.312616 364.880395,209.276295 366.406328,209.276295 C367.932261,209.276295 369.4517,209.276295 370.95166,209.376177 L375.458032,209.539619 C376.951499,209.5941 378.431978,209.63042 379.918951,209.62134 C381.405924,209.61226 382.873417,209.566859 384.334417,209.457898 C385.795417,209.348936 387.26291,209.149173 388.717416,208.876769 C390.178391,208.602865 391.628321,208.224025 393.061455,207.741751 C394.523742,207.237143 395.961658,206.603287 397.366534,205.844002 C400.792162,204.029464 404.059682,201.677832 407.106532,198.834133 C410.318566,195.847782 413.321075,192.442653 416.073823,188.664376 C418.879422,184.825991 421.428871,180.637838 423.690501,176.151943 C425.932016,171.707067 427.848515,166.958522 429.411127,161.977843 C430.924701,157.193116 432.014985,152.167936 432.657792,147.013772 C433.279644,142.052234 433.347549,136.985857 432.859086,131.995219 C432.357887,126.983684 431.204702,122.142839 429.45658,117.712158 C427.50329,112.848439 424.935909,108.519927 421.878862,104.936401 C419.91173,102.423503 417.601381,100.493087 415.086837,99.2613131 C413.151536,98.3779018 411.078652,98.2647213 409.099985,98.934428 C407.138303,99.6597642 405.298089,100.918653 403.684546,102.639125 C401.866614,104.556565 400.181744,106.708966 398.652214,109.067865 C397.015894,111.528583 395.405548,114.216304 393.782215,116.940347 C392.158882,119.664389 390.535549,122.388431 388.847283,124.93995 C387.256484,127.411217 385.518705,129.689412 383.652617,131.750056 C381.945443,133.650176 380.016827,135.124584 377.951472,136.108523 C372.419335,137.632848 366.756,138.000057 361.146729,137.19814 C356.753924,136.561363 352.500429,134.676542 348.647065,131.659254 C345.333377,129.02432 342.487827,125.377276 340.322614,120.990089 C338.212153,116.624142 336.740211,111.717473 335.991561,106.552666 C335.192753,101.031567 335.017472,95.3695428 335.472095,89.7725663 C335.952295,83.7090117 336.997943,77.7594208 338.582401,72.0753725 C340.275779,65.9717944 342.493271,60.1785793 345.186119,54.8231056 C348.024533,49.1486353 351.355035,43.9880858 355.101437,39.4595079 C356.508326,37.6434798 357.95201,35.8758792 359.432489,34.1567059 C360.912969,32.4375326 362.42808,30.7698135 363.977822,29.1535485 C365.518906,27.5433369 367.085963,25.9906329 368.678994,24.4954364 C370.272025,23.00024 371.895358,21.5746579 373.548993,20.2186903 C375.198299,18.8566692 376.867085,17.5763694 378.568338,16.3596306 C380.269591,15.1428918 381.977338,14.0169543 383.711057,12.9545779 C385.444777,11.8922015 387.20447,10.9478669 388.977149,10.0670932 C390.749829,9.18631961 392.541988,8.41450767 394.360121,7.73349714 C397.892494,6.66204056 401.66512,5.56334357 405.574105,4.52820755 C409.483091,3.49307154 413.55441,2.55781707 417.690663,1.80416541 C421.826915,1.05051375 425.989141,0.451224484 430.190326,0.17882027 C434.338475,-0.111808429 438.495443,-0.0481290594 442.638043,0.36950322 C446.638598,0.761415693 450.606416,1.6486917 454.494867,3.02090424 C458.24194,4.35705919 461.860794,6.31725272 465.273798,8.85943456 C468.672971,11.3996394 471.779156,14.641288 474.487836,18.4753033 C477.378435,22.6280161 479.788273,27.3856563 481.630501,32.5767615 C483.105896,39.3850105 484.257729,46.3222385 485.07846,53.3430427 C485.908041,60.432935 486.462948,67.5803526 486.740753,74.7540139 C487.02646,81.9727256 487.06542,89.2822387 486.90958,96.5463511 C486.75374,103.810463 486.396607,111.247098 485.89662,118.611092 C485.396634,125.975086 484.7473,133.33908 484.000567,140.666754 C483.253834,147.994427 482.429181,155.28578 481.552581,162.459091 C480.675981,169.632402 479.753928,176.842033 478.844862,183.860982 C477.935795,190.87993 477.039716,197.826238 476.202076,204.609103 C475.390409,212.318142 474.903409,219.564094 474.624196,226.337879 C474.344983,233.111664 474.176156,239.404201 473.974863,245.233651 C473.77357,251.063101 473.591756,256.411304 473.163196,261.278259 C472.828466,265.776687 472.102337,270.201164 471.000917,274.453543 C469.987547,278.295038 468.402923,281.792207 466.351691,284.714102 C463.978127,287.92702 461.15806,290.424173 458.0662,292.050855 C453.855302,294.26328 449.464993,295.7394 444.995123,296.445643 C438.714435,297.533032 432.388884,298.03355 426.060567,297.943867 L244,293.5 Z" stroke-linejoin="round"/>
    <path stroke="#FFFFFF" stroke-width="45" d="M244,293.5 C240.623467,293.817805 138.795567,298.325233 135.626821,298.243511 C132.458075,298.16179 129.406209,297.971107 126.42577,297.771344 C123.445331,297.571581 120.581771,297.399058 117.770159,297.362738 C115.034836,297.297516 112.299045,297.446056 109.575574,297.807665 C106.935653,298.161062 104.326248,298.869564 101.783576,299.923337 C99.1746662,301.014337 96.6728648,302.554638 94.335724,304.508808 C91.7217784,306.708091 89.3081321,309.342388 87.1476057,312.35405 C84.5517949,316.010496 82.2202238,320.016069 80.186754,324.312595 C79.2906742,326.046901 78.4335544,327.835689 77.5894212,329.660797 C76.7452881,331.485906 75.9336216,333.347334 75.1154618,335.208763 C74.297302,337.070192 73.4921288,338.949781 72.6479957,340.80213 C71.8038626,342.654478 70.9597294,344.434186 70.050663,346.250214 C69.1415965,348.066242 68.2260367,349.718828 67.232557,351.335093 C66.2492167,352.947674 65.1883399,354.464553 64.0573177,355.875163 C62.9237945,357.306816 61.7051378,358.600872 60.4145585,359.743303 C59.0748125,360.918385 57.6570076,361.909699 56.1809062,362.703428 C54.0558595,363.557451 51.8840494,364.164854 49.6875743,364.519457 C47.3691514,364.900563 45.0345558,365.0553 42.7007493,364.982544 C37.8393049,364.826793 33.0130942,363.785922 28.3439926,361.886216 C26.0058658,360.947417 23.7187145,359.776121 21.5000209,358.381282 C19.3231241,357.016236 17.2277596,355.409987 15.2339556,353.577887 C13.2985732,351.801363 11.485611,349.776844 9.8185169,347.530514 C8.18758735,345.322516 6.73716738,342.867923 5.4939579,340.211921 C4.10067113,336.981916 2.96614948,333.547056 2.11093202,329.969522 C1.28402964,326.488908 0.703341283,322.903236 0.377212417,319.264036 C0.0515714292,315.626678 -0.0635180324,311.95849 0.0330658299,308.295227 C0.126652197,304.568407 0.386893849,300.853425 0.81226565,297.172055 C1.23433222,293.458277 1.80574542,289.75358 2.4745586,286.076123 C3.14337178,282.398666 3.91607827,278.75753 4.75371807,275.179954 C5.59135788,271.602379 6.48094434,268.070205 7.39650413,264.619751 C8.31206392,261.169298 9.24061037,257.809646 10.1431835,254.568036 L13.870356,240.294055 C15.1300623,235.451313 16.3984265,230.590411 17.6754484,225.711349 L21.5324875,210.91072 L25.4284866,196.01021 C26.727153,191.034293 28.0258194,186.067456 29.3244857,181.109699 C30.6231521,176.151943 31.9045029,171.212346 33.1685382,166.29091 C34.4672045,161.387634 35.7355687,156.523706 36.9736306,151.699124 C38.2116926,146.874543 39.4540834,142.119576 40.7008031,137.434224 C41.0968963,135.972321 41.5319496,134.328816 41.9994695,132.540028 C42.4669894,130.75124 42.9734692,128.835331 43.4994291,126.819539 C44.025389,124.803748 44.5773222,122.697156 45.1227621,120.545162 C45.6682019,118.393169 46.2461085,116.195775 46.8175217,113.989301 C47.3889349,111.782827 47.9538547,109.594513 48.5122813,107.44252 C49.0707078,105.290526 49.6096544,103.193014 50.1356142,101.177223 C50.6615741,99.1614315 51.1550673,97.2455219 51.6225872,95.4567342 L52.9212536,90.5806988 C54.284198,87.0001958 55.8566173,83.5834924 57.6224258,80.3655407 C59.3923403,77.1236432 61.3467001,74.0870475 63.4664245,71.2854003 C65.5879638,68.4973908 67.8753823,65.9670022 70.3039029,63.7216433 C72.6906466,61.5030893 75.2211809,59.6030428 77.8621412,58.0465555 C80.4535206,56.516498 83.1551605,55.3809919 85.920366,54.6596631 C88.6670847,53.9583418 91.4645916,53.7266113 94.2513107,53.9695724 C97.1143235,54.2101823 99.9408234,54.9921335 102.653682,56.2940884 C105.550703,57.6847127 108.300487,59.6149684 110.828787,62.0327371 C113.363701,63.9273949 115.732375,66.2280296 117.887039,68.8882432 C119.930909,71.427399 121.772706,74.2677905 123.380397,77.3600142 C124.977575,80.4473299 126.372778,83.7294238 127.549116,87.166566 C128.741141,90.645197 129.760831,94.2342513 130.600982,97.9083721 C131.464595,101.613069 132.178862,105.426728 132.789235,109.303948 C133.399608,113.181168 133.899595,117.094709 134.328155,121.03549 C134.756715,124.976271 135.139821,128.880731 135.464488,132.767031 C135.789154,136.653332 136.113821,140.45791 136.419008,144.171688 C136.691552,146.814316 136.808824,149.483724 136.769648,152.153131 C136.730569,154.791315 136.574429,157.423563 136.302128,160.034693 C136.035901,162.640694 135.652794,165.237614 135.282675,167.825454 C134.912555,170.413294 134.432048,172.992054 133.984008,175.579894 C133.535968,178.167734 133.068448,180.737413 132.633395,183.316173 C132.198342,185.894933 131.821729,188.491853 131.516542,191.088774 C131.199708,193.688739 130.982952,196.310621 130.867209,198.943095 C130.76217,201.591966 130.803417,204.24822 130.990582,206.888218 C131.448852,210.737122 132.460557,214.416085 133.964528,217.702665 C135.327532,220.589724 137.094619,223.060781 139.159194,224.966778 C141.313669,226.915843 143.661166,228.411868 146.126539,229.406966 C148.762289,230.479525 151.461235,231.220985 154.191257,231.622521 C157.066134,232.05807 159.955197,232.285377 162.846868,232.303531 C165.781854,232.303531 168.723333,232.23089 171.580399,232.076528 C174.437465,231.922165 177.216612,231.749643 179.820438,231.631601 C182.424264,231.513559 184.865756,231.468158 187.034529,231.631601 C188.463062,231.731482 189.898089,231.731482 191.326622,231.631601 C192.671982,231.542959 194.007614,231.266147 195.313527,230.805308 C196.632219,230.335529 197.90074,229.624148 199.086153,228.689635 C200.414325,227.624714 201.638686,226.324601 202.728912,224.821495 C204.07159,222.960119 205.280783,220.919469 206.339205,218.728721 C207.695916,215.924999 208.917215,212.997707 209.994951,209.966386 C211.235177,206.561333 212.494883,202.611472 213.800043,198.071402 C215.105203,193.531331 216.436336,188.391972 217.825909,182.571602 C218.475242,180.138124 219.124575,177.613845 219.721962,175.007845 C220.319348,172.401845 220.929721,169.786764 221.507628,167.099042 C222.085534,164.411321 222.637468,161.705439 223.182908,158.926916 C223.728347,156.148393 224.260801,153.478832 224.760787,150.700309 C225.260774,147.921786 225.773747,145.252225 226.260747,142.528182 C226.747747,139.80414 227.24124,137.18906 227.70876,134.546739 C228.17628,131.904418 228.637306,129.316578 229.09184,126.801379 C229.546373,124.28618 229.981426,121.834542 230.422973,119.482786 C231.185418,115.230529 232.363123,111.145415 233.922878,107.342638 C235.272701,104.058362 236.981626,101.089587 238.987677,98.543982 C240.792178,96.2702977 242.866512,94.4542836 245.117382,93.1776189 C249.431892,90.7664758 254.24407,90.7664758 258.558579,93.1776189 C260.875433,94.4542796 263.010627,96.2992706 264.863605,98.6257032 C266.987865,101.32342 268.79947,104.466318 270.23359,107.941927 C271.948425,112.088119 273.269061,116.529476 274.162056,121.153532 C274.973722,125.275915 275.752922,129.480021 276.512642,133.720446 C277.272362,137.960872 278.032082,142.210377 278.837255,146.432643 C279.642428,150.654908 280.512534,154.840853 281.486534,158.917836 C282.430661,162.977307 283.529609,166.963145 284.778653,170.858221 C285.999076,174.688191 287.43425,178.377155 289.070746,181.890591 C290.706974,185.398817 292.593179,188.666193 294.700464,191.642662 C296.901846,194.735937 299.353359,197.460171 302.005463,199.760308 C304.929965,202.299624 308.051719,204.365038 311.310407,205.916643 C313.258902,206.742747 315.240673,207.40676 317.245312,207.905194 C319.258245,208.422762 321.303645,208.813208 323.400991,209.067452 C325.498337,209.321696 327.595683,209.512379 329.73199,209.61226 C331.868296,209.712142 334.017589,209.721222 336.179868,209.703062 C338.342148,209.684901 340.504427,209.62134 342.6732,209.548699 L349.166532,209.330776 C351.315825,209.267215 353.452131,209.221814 355.562464,209.221814 C357.672796,209.221814 359.757156,209.285375 361.809049,209.421577 C363.347968,209.312616 364.880395,209.276295 366.406328,209.276295 C367.932261,209.276295 369.4517,209.276295 370.95166,209.376177 L375.458032,209.539619 C376.951499,209.5941 378.431978,209.63042 379.918951,209.62134 C381.405924,209.61226 382.873417,209.566859 384.334417,209.457898 C385.795417,209.348936 387.26291,209.149173 388.717416,208.876769 C390.178391,208.602865 391.628321,208.224025 393.061455,207.741751 C394.523742,207.237143 395.961658,206.603287 397.366534,205.844002 C400.792162,204.029464 404.059682,201.677832 407.106532,198.834133 C410.318566,195.847782 413.321075,192.442653 416.073823,188.664376 C418.879422,184.825991 421.428871,180.637838 423.690501,176.151943 C425.932016,171.707067 427.848515,166.958522 429.411127,161.977843 C430.924701,157.193116 432.014985,152.167936 432.657792,147.013772 C433.279644,142.052234 433.347549,136.985857 432.859086,131.995219 C432.357887,126.983684 431.204702,122.142839 429.45658,117.712158 C427.50329,112.848439 424.935909,108.519927 421.878862,104.936401 C419.91173,102.423503 417.601381,100.493087 415.086837,99.2613131 C413.151536,98.3779018 411.078652,98.2647213 409.099985,98.934428 C407.138303,99.6597642 405.298089,100.918653 403.684546,102.639125 C401.866614,104.556565 400.181744,106.708966 398.652214,109.067865 C397.015894,111.528583 395.405548,114.216304 393.782215,116.940347 C392.158882,119.664389 390.535549,122.388431 388.847283,124.93995 C387.256484,127.411217 385.518705,129.689412 383.652617,131.750056 C381.945443,133.650176 380.016827,135.124584 377.951472,136.108523 C372.419335,137.632848 366.756,138.000057 361.146729,137.19814 C356.753924,136.561363 352.500429,134.676542 348.647065,131.659254 C345.333377,129.02432 342.487827,125.377276 340.322614,120.990089 C338.212153,116.624142 336.740211,111.717473 335.991561,106.552666 C335.192753,101.031567 335.017472,95.3695428 335.472095,89.7725663 C335.952295,83.7090117 336.997943,77.7594208 338.582401,72.0753725 C340.275779,65.9717944 342.493271,60.1785793 345.186119,54.8231056 C348.024533,49.1486353 351.355035,43.9880858 355.101437,39.4595079 C356.508326,37.6434798 357.95201,35.8758792 359.432489,34.1567059 C360.912969,32.4375326 362.42808,30.7698135 363.977822,29.1535485 C365.518906,27.5433369 367.085963,25.9906329 368.678994,24.4954364 C370.272025,23.00024 371.895358,21.5746579 373.548993,20.2186903 C375.198299,18.8566692 376.867085,17.5763694 378.568338,16.3596306 C380.269591,15.1428918 381.977338,14.0169543 383.711057,12.9545779 C385.444777,11.8922015 387.20447,10.9478669 388.977149,10.0670932 C390.749829,9.18631961 392.541988,8.41450767 394.360121,7.73349714 C397.892494,6.66204056 401.66512,5.56334357 405.574105,4.52820755 C409.483091,3.49307154 413.55441,2.55781707 417.690663,1.80416541 C421.826915,1.05051375 425.989141,0.451224484 430.190326,0.17882027 C434.338475,-0.111808429 438.495443,-0.0481290594 442.638043,0.36950322 C446.638598,0.761415693 450.606416,1.6486917 454.494867,3.02090424 C458.24194,4.35705919 461.860794,6.31725272 465.273798,8.85943456 C468.672971,11.3996394 471.779156,14.641288 474.487836,18.4753033 C477.378435,22.6280161 479.788273,27.3856563 481.630501,32.5767615 C483.105896,39.3850105 484.257729,46.3222385 485.07846,53.3430427 C485.908041,60.432935 486.462948,67.5803526 486.740753,74.7540139 C487.02646,81.9727256 487.06542,89.2822387 486.90958,96.5463511 C486.75374,103.810463 486.396607,111.247098 485.89662,118.611092 C485.396634,125.975086 484.7473,133.33908 484.000567,140.666754 C483.253834,147.994427 482.429181,155.28578 481.552581,162.459091 C480.675981,169.632402 479.753928,176.842033 478.844862,183.860982 C477.935795,190.87993 477.039716,197.826238 476.202076,204.609103 C475.390409,212.318142 474.903409,219.564094 474.624196,226.337879 C474.344983,233.111664 474.176156,239.404201 473.974863,245.233651 C473.77357,251.063101 473.591756,256.411304 473.163196,261.278259 C472.828466,265.776687 472.102337,270.201164 471.000917,274.453543 C469.987547,278.295038 468.402923,281.792207 466.351691,284.714102 C463.978127,287.92702 461.15806,290.424173 458.0662,292.050855 C453.855302,294.26328 449.464993,295.7394 444.995123,296.445643 C438.714435,297.533032 432.388884,298.03355 426.060567,297.943867 L244,293.5 Z" stroke-linejoin="round"/>
    <path stroke="#313D46" stroke-width="36" d="M244,293.5 C240.623467,293.817805 138.795567,298.325233 135.626821,298.243511 C132.458075,298.16179 129.406209,297.971107 126.42577,297.771344 C123.445331,297.571581 120.581771,297.399058 117.770159,297.362738 C115.034836,297.297516 112.299045,297.446056 109.575574,297.807665 C106.935653,298.161062 104.326248,298.869564 101.783576,299.923337 C99.1746662,301.014337 96.6728648,302.554638 94.335724,304.508808 C91.7217784,306.708091 89.3081321,309.342388 87.1476057,312.35405 C84.5517949,316.010496 82.2202238,320.016069 80.186754,324.312595 C79.2906742,326.046901 78.4335544,327.835689 77.5894212,329.660797 C76.7452881,331.485906 75.9336216,333.347334 75.1154618,335.208763 C74.297302,337.070192 73.4921288,338.949781 72.6479957,340.80213 C71.8038626,342.654478 70.9597294,344.434186 70.050663,346.250214 C69.1415965,348.066242 68.2260367,349.718828 67.232557,351.335093 C66.2492167,352.947674 65.1883399,354.464553 64.0573177,355.875163 C62.9237945,357.306816 61.7051378,358.600872 60.4145585,359.743303 C59.0748125,360.918385 57.6570076,361.909699 56.1809062,362.703428 C54.0558595,363.557451 51.8840494,364.164854 49.6875743,364.519457 C47.3691514,364.900563 45.0345558,365.0553 42.7007493,364.982544 C37.8393049,364.826793 33.0130942,363.785922 28.3439926,361.886216 C26.0058658,360.947417 23.7187145,359.776121 21.5000209,358.381282 C19.3231241,357.016236 17.2277596,355.409987 15.2339556,353.577887 C13.2985732,351.801363 11.485611,349.776844 9.8185169,347.530514 C8.18758735,345.322516 6.73716738,342.867923 5.4939579,340.211921 C4.10067113,336.981916 2.96614948,333.547056 2.11093202,329.969522 C1.28402964,326.488908 0.703341283,322.903236 0.377212417,319.264036 C0.0515714292,315.626678 -0.0635180324,311.95849 0.0330658299,308.295227 C0.126652197,304.568407 0.386893849,300.853425 0.81226565,297.172055 C1.23433222,293.458277 1.80574542,289.75358 2.4745586,286.076123 C3.14337178,282.398666 3.91607827,278.75753 4.75371807,275.179954 C5.59135788,271.602379 6.48094434,268.070205 7.39650413,264.619751 C8.31206392,261.169298 9.24061037,257.809646 10.1431835,254.568036 L13.870356,240.294055 C15.1300623,235.451313 16.3984265,230.590411 17.6754484,225.711349 L21.5324875,210.91072 L25.4284866,196.01021 C26.727153,191.034293 28.0258194,186.067456 29.3244857,181.109699 C30.6231521,176.151943 31.9045029,171.212346 33.1685382,166.29091 C34.4672045,161.387634 35.7355687,156.523706 36.9736306,151.699124 C38.2116926,146.874543 39.4540834,142.119576 40.7008031,137.434224 C41.0968963,135.972321 41.5319496,134.328816 41.9994695,132.540028 C42.4669894,130.75124 42.9734692,128.835331 43.4994291,126.819539 C44.025389,124.803748 44.5773222,122.697156 45.1227621,120.545162 C45.6682019,118.393169 46.2461085,116.195775 46.8175217,113.989301 C47.3889349,111.782827 47.9538547,109.594513 48.5122813,107.44252 C49.0707078,105.290526 49.6096544,103.193014 50.1356142,101.177223 C50.6615741,99.1614315 51.1550673,97.2455219 51.6225872,95.4567342 L52.9212536,90.5806988 C54.284198,87.0001958 55.8566173,83.5834924 57.6224258,80.3655407 C59.3923403,77.1236432 61.3467001,74.0870475 63.4664245,71.2854003 C65.5879638,68.4973908 67.8753823,65.9670022 70.3039029,63.7216433 C72.6906466,61.5030893 75.2211809,59.6030428 77.8621412,58.0465555 C80.4535206,56.516498 83.1551605,55.3809919 85.920366,54.6596631 C88.6670847,53.9583418 91.4645916,53.7266113 94.2513107,53.9695724 C97.1143235,54.2101823 99.9408234,54.9921335 102.653682,56.2940884 C105.550703,57.6847127 108.300487,59.6149684 110.828787,62.0327371 C113.363701,63.9273949 115.732375,66.2280296 117.887039,68.8882432 C119.930909,71.427399 121.772706,74.2677905 123.380397,77.3600142 C124.977575,80.4473299 126.372778,83.7294238 127.549116,87.166566 C128.741141,90.645197 129.760831,94.2342513 130.600982,97.9083721 C131.464595,101.613069 132.178862,105.426728 132.789235,109.303948 C133.399608,113.181168 133.899595,117.094709 134.328155,121.03549 C134.756715,124.976271 135.139821,128.880731 135.464488,132.767031 C135.789154,136.653332 136.113821,140.45791 136.419008,144.171688 C136.691552,146.814316 136.808824,149.483724 136.769648,152.153131 C136.730569,154.791315 136.574429,157.423563 136.302128,160.034693 C136.035901,162.640694 135.652794,165.237614 135.282675,167.825454 C134.912555,170.413294 134.432048,172.992054 133.984008,175.579894 C133.535968,178.167734 133.068448,180.737413 132.633395,183.316173 C132.198342,185.894933 131.821729,188.491853 131.516542,191.088774 C131.199708,193.688739 130.982952,196.310621 130.867209,198.943095 C130.76217,201.591966 130.803417,204.24822 130.990582,206.888218 C131.448852,210.737122 132.460557,214.416085 133.964528,217.702665 C135.327532,220.589724 137.094619,223.060781 139.159194,224.966778 C141.313669,226.915843 143.661166,228.411868 146.126539,229.406966 C148.762289,230.479525 151.461235,231.220985 154.191257,231.622521 C157.066134,232.05807 159.955197,232.285377 162.846868,232.303531 C165.781854,232.303531 168.723333,232.23089 171.580399,232.076528 C174.437465,231.922165 177.216612,231.749643 179.820438,231.631601 C182.424264,231.513559 184.865756,231.468158 187.034529,231.631601 C188.463062,231.731482 189.898089,231.731482 191.326622,231.631601 C192.671982,231.542959 194.007614,231.266147 195.313527,230.805308 C196.632219,230.335529 197.90074,229.624148 199.086153,228.689635 C200.414325,227.624714 201.638686,226.324601 202.728912,224.821495 C204.07159,222.960119 205.280783,220.919469 206.339205,218.728721 C207.695916,215.924999 208.917215,212.997707 209.994951,209.966386 C211.235177,206.561333 212.494883,202.611472 213.800043,198.071402 C215.105203,193.531331 216.436336,188.391972 217.825909,182.571602 C218.475242,180.138124 219.124575,177.613845 219.721962,175.007845 C220.319348,172.401845 220.929721,169.786764 221.507628,167.099042 C222.085534,164.411321 222.637468,161.705439 223.182908,158.926916 C223.728347,156.148393 224.260801,153.478832 224.760787,150.700309 C225.260774,147.921786 225.773747,145.252225 226.260747,142.528182 C226.747747,139.80414 227.24124,137.18906 227.70876,134.546739 C228.17628,131.904418 228.637306,129.316578 229.09184,126.801379 C229.546373,124.28618 229.981426,121.834542 230.422973,119.482786 C231.185418,115.230529 232.363123,111.145415 233.922878,107.342638 C235.272701,104.058362 236.981626,101.089587 238.987677,98.543982 C240.792178,96.2702977 242.866512,94.4542836 245.117382,93.1776189 C249.431892,90.7664758 254.24407,90.7664758 258.558579,93.1776189 C260.875433,94.4542796 263.010627,96.2992706 264.863605,98.6257032 C266.987865,101.32342 268.79947,104.466318 270.23359,107.941927 C271.948425,112.088119 273.269061,116.529476 274.162056,121.153532 C274.973722,125.275915 275.752922,129.480021 276.512642,133.720446 C277.272362,137.960872 278.032082,142.210377 278.837255,146.432643 C279.642428,150.654908 280.512534,154.840853 281.486534,158.917836 C282.430661,162.977307 283.529609,166.963145 284.778653,170.858221 C285.999076,174.688191 287.43425,178.377155 289.070746,181.890591 C290.706974,185.398817 292.593179,188.666193 294.700464,191.642662 C296.901846,194.735937 299.353359,197.460171 302.005463,199.760308 C304.929965,202.299624 308.051719,204.365038 311.310407,205.916643 C313.258902,206.742747 315.240673,207.40676 317.245312,207.905194 C319.258245,208.422762 321.303645,208.813208 323.400991,209.067452 C325.498337,209.321696 327.595683,209.512379 329.73199,209.61226 C331.868296,209.712142 334.017589,209.721222 336.179868,209.703062 C338.342148,209.684901 340.504427,209.62134 342.6732,209.548699 L349.166532,209.330776 C351.315825,209.267215 353.452131,209.221814 355.562464,209.221814 C357.672796,209.221814 359.757156,209.285375 361.809049,209.421577 C363.347968,209.312616 364.880395,209.276295 366.406328,209.276295 C367.932261,209.276295 369.4517,209.276295 370.95166,209.376177 L375.458032,209.539619 C376.951499,209.5941 378.431978,209.63042 379.918951,209.62134 C381.405924,209.61226 382.873417,209.566859 384.334417,209.457898 C385.795417,209.348936 387.26291,209.149173 388.717416,208.876769 C390.178391,208.602865 391.628321,208.224025 393.061455,207.741751 C394.523742,207.237143 395.961658,206.603287 397.366534,205.844002 C400.792162,204.029464 404.059682,201.677832 407.106532,198.834133 C410.318566,195.847782 413.321075,192.442653 416.073823,188.664376 C418.879422,184.825991 421.428871,180.637838 423.690501,176.151943 C425.932016,171.707067 427.848515,166.958522 429.411127,161.977843 C430.924701,157.193116 432.014985,152.167936 432.657792,147.013772 C433.279644,142.052234 433.347549,136.985857 432.859086,131.995219 C432.357887,126.983684 431.204702,122.142839 429.45658,117.712158 C427.50329,112.848439 424.935909,108.519927 421.878862,104.936401 C419.91173,102.423503 417.601381,100.493087 415.086837,99.2613131 C413.151536,98.3779018 411.078652,98.2647213 409.099985,98.934428 C407.138303,99.6597642 405.298089,100.918653 403.684546,102.639125 C401.866614,104.556565 400.181744,106.708966 398.652214,109.067865 C397.015894,111.528583 395.405548,114.216304 393.782215,116.940347 C392.158882,119.664389 390.535549,122.388431 388.847283,124.93995 C387.256484,127.411217 385.518705,129.689412 383.652617,131.750056 C381.945443,133.650176 380.016827,135.124584 377.951472,136.108523 C372.419335,137.632848 366.756,138.000057 361.146729,137.19814 C356.753924,136.561363 352.500429,134.676542 348.647065,131.659254 C345.333377,129.02432 342.487827,125.377276 340.322614,120.990089 C338.212153,116.624142 336.740211,111.717473 335.991561,106.552666 C335.192753,101.031567 335.017472,95.3695428 335.472095,89.7725663 C335.952295,83.7090117 336.997943,77.7594208 338.582401,72.0753725 C340.275779,65.9717944 342.493271,60.1785793 345.186119,54.8231056 C348.024533,49.1486353 351.355035,43.9880858 355.101437,39.4595079 C356.508326,37.6434798 357.95201,35.8758792 359.432489,34.1567059 C360.912969,32.4375326 362.42808,30.7698135 363.977822,29.1535485 C365.518906,27.5433369 367.085963,25.9906329 368.678994,24.4954364 C370.272025,23.00024 371.895358,21.5746579 373.548993,20.2186903 C375.198299,18.8566692 376.867085,17.5763694 378.568338,16.3596306 C380.269591,15.1428918 381.977338,14.0169543 383.711057,12.9545779 C385.444777,11.8922015 387.20447,10.9478669 388.977149,10.0670932 C390.749829,9.18631961 392.541988,8.41450767 394.360121,7.73349714 C397.892494,6.66204056 401.66512,5.56334357 405.574105,4.52820755 C409.483091,3.49307154 413.55441,2.55781707 417.690663,1.80416541 C421.826915,1.05051375 425.989141,0.451224484 430.190326,0.17882027 C434.338475,-0.111808429 438.495443,-0.0481290594 442.638043,0.36950322 C446.638598,0.761415693 450.606416,1.6486917 454.494867,3.02090424 C458.24194,4.35705919 461.860794,6.31725272 465.273798,8.85943456 C468.672971,11.3996394 471.779156,14.641288 474.487836,18.4753033 C477.378435,22.6280161 479.788273,27.3856563 481.630501,32.5767615 C483.105896,39.3850105 484.257729,46.3222385 485.07846,53.3430427 C485.908041,60.432935 486.462948,67.5803526 486.740753,74.7540139 C487.02646,81.9727256 487.06542,89.2822387 486.90958,96.5463511 C486.75374,103.810463 486.396607,111.247098 485.89662,118.611092 C485.396634,125.975086 484.7473,133.33908 484.000567,140.666754 C483.253834,147.994427 482.429181,155.28578 481.552581,162.459091 C480.675981,169.632402 479.753928,176.842033 478.844862,183.860982 C477.935795,190.87993 477.039716,197.826238 476.202076,204.609103 C475.390409,212.318142 474.903409,219.564094 474.624196,226.337879 C474.344983,233.111664 474.176156,239.404201 473.974863,245.233651 C473.77357,251.063101 473.591756,256.411304 473.163196,261.278259 C472.828466,265.776687 472.102337,270.201164 471.000917,274.453543 C469.987547,278.295038 468.402923,281.792207 466.351691,284.714102 C463.978127,287.92702 461.15806,290.424173 458.0662,292.050855 C453.855302,294.26328 449.464993,295.7394 444.995123,296.445643 C438.714435,297.533032 432.388884,298.03355 426.060567,297.943867 L244,293.5 Z" stroke-linejoin="round"/>
    <path stroke="#FF9900" stroke-width="2.317" d="M244,293.5 C240.623467,293.817805 138.795567,298.325233 135.626821,298.243511 C132.458075,298.16179 129.406209,297.971107 126.42577,297.771344 C123.445331,297.571581 120.581771,297.399058 117.770159,297.362738 C115.034836,297.297516 112.299045,297.446056 109.575574,297.807665 C106.935653,298.161062 104.326248,298.869564 101.783576,299.923337 C99.1746662,301.014337 96.6728648,302.554638 94.335724,304.508808 C91.7217784,306.708091 89.3081321,309.342388 87.1476057,312.35405 C84.5517949,316.010496 82.2202238,320.016069 80.186754,324.312595 C79.2906742,326.046901 78.4335544,327.835689 77.5894212,329.660797 C76.7452881,331.485906 75.9336216,333.347334 75.1154618,335.208763 C74.297302,337.070192 73.4921288,338.949781 72.6479957,340.80213 C71.8038626,342.654478 70.9597294,344.434186 70.050663,346.250214 C69.1415965,348.066242 68.2260367,349.718828 67.232557,351.335093 C66.2492167,352.947674 65.1883399,354.464553 64.0573177,355.875163 C62.9237945,357.306816 61.7051378,358.600872 60.4145585,359.743303 C59.0748125,360.918385 57.6570076,361.909699 56.1809062,362.703428 C54.0558595,363.557451 51.8840494,364.164854 49.6875743,364.519457 C47.3691514,364.900563 45.0345558,365.0553 42.7007493,364.982544 C37.8393049,364.826793 33.0130942,363.785922 28.3439926,361.886216 C26.0058658,360.947417 23.7187145,359.776121 21.5000209,358.381282 C19.3231241,357.016236 17.2277596,355.409987 15.2339556,353.577887 C13.2985732,351.801363 11.485611,349.776844 9.8185169,347.530514 C8.18758735,345.322516 6.73716738,342.867923 5.4939579,340.211921 C4.10067113,336.981916 2.96614948,333.547056 2.11093202,329.969522 C1.28402964,326.488908 0.703341283,322.903236 0.377212417,319.264036 C0.0515714292,315.626678 -0.0635180324,311.95849 0.0330658299,308.295227 C0.126652197,304.568407 0.386893849,300.853425 0.81226565,297.172055 C1.23433222,293.458277 1.80574542,289.75358 2.4745586,286.076123 C3.14337178,282.398666 3.91607827,278.75753 4.75371807,275.179954 C5.59135788,271.602379 6.48094434,268.070205 7.39650413,264.619751 C8.31206392,261.169298 9.24061037,257.809646 10.1431835,254.568036 L13.870356,240.294055 C15.1300623,235.451313 16.3984265,230.590411 17.6754484,225.711349 L21.5324875,210.91072 L25.4284866,196.01021 C26.727153,191.034293 28.0258194,186.067456 29.3244857,181.109699 C30.6231521,176.151943 31.9045029,171.212346 33.1685382,166.29091 C34.4672045,161.387634 35.7355687,156.523706 36.9736306,151.699124 C38.2116926,146.874543 39.4540834,142.119576 40.7008031,137.434224 C41.0968963,135.972321 41.5319496,134.328816 41.9994695,132.540028 C42.4669894,130.75124 42.9734692,128.835331 43.4994291,126.819539 C44.025389,124.803748 44.5773222,122.697156 45.1227621,120.545162 C45.6682019,118.393169 46.2461085,116.195775 46.8175217,113.989301 C47.3889349,111.782827 47.9538547,109.594513 48.5122813,107.44252 C49.0707078,105.290526 49.6096544,103.193014 50.1356142,101.177223 C50.6615741,99.1614315 51.1550673,97.2455219 51.6225872,95.4567342 L52.9212536,90.5806988 C54.284198,87.0001958 55.8566173,83.5834924 57.6224258,80.3655407 C59.3923403,77.1236432 61.3467001,74.0870475 63.4664245,71.2854003 C65.5879638,68.4973908 67.8753823,65.9670022 70.3039029,63.7216433 C72.6906466,61.5030893 75.2211809,59.6030428 77.8621412,58.0465555 C80.4535206,56.516498 83.1551605,55.3809919 85.920366,54.6596631 C88.6670847,53.9583418 91.4645916,53.7266113 94.2513107,53.9695724 C97.1143235,54.2101823 99.9408234,54.9921335 102.653682,56.2940884 C105.550703,57.6847127 108.300487,59.6149684 110.828787,62.0327371 C113.363701,63.9273949 115.732375,66.2280296 117.887039,68.8882432 C119.930909,71.427399 121.772706,74.2677905 123.380397,77.3600142 C124.977575,80.4473299 126.372778,83.7294238 127.549116,87.166566 C128.741141,90.645197 129.760831,94.2342513 130.600982,97.9083721 C131.464595,101.613069 132.178862,105.426728 132.789235,109.303948 C133.399608,113.181168 133.899595,117.094709 134.328155,121.03549 C134.756715,124.976271 135.139821,128.880731 135.464488,132.767031 C135.789154,136.653332 136.113821,140.45791 136.419008,144.171688 C136.691552,146.814316 136.808824,149.483724 136.769648,152.153131 C136.730569,154.791315 136.574429,157.423563 136.302128,160.034693 C136.035901,162.640694 135.652794,165.237614 135.282675,167.825454 C134.912555,170.413294 134.432048,172.992054 133.984008,175.579894 C133.535968,178.167734 133.068448,180.737413 132.633395,183.316173 C132.198342,185.894933 131.821729,188.491853 131.516542,191.088774 C131.199708,193.688739 130.982952,196.310621 130.867209,198.943095 C130.76217,201.591966 130.803417,204.24822 130.990582,206.888218 C131.448852,210.737122 132.460557,214.416085 133.964528,217.702665 C135.327532,220.589724 137.094619,223.060781 139.159194,224.966778 C141.313669,226.915843 143.661166,228.411868 146.126539,229.406966 C148.762289,230.479525 151.461235,231.220985 154.191257,231.622521 C157.066134,232.05807 159.955197,232.285377 162.846868,232.303531 C165.781854,232.303531 168.723333,232.23089 171.580399,232.076528 C174.437465,231.922165 177.216612,231.749643 179.820438,231.631601 C182.424264,231.513559 184.865756,231.468158 187.034529,231.631601 C188.463062,231.731482 189.898089,231.731482 191.326622,231.631601 C192.671982,231.542959 194.007614,231.266147 195.313527,230.805308 C196.632219,230.335529 197.90074,229.624148 199.086153,228.689635 C200.414325,227.624714 201.638686,226.324601 202.728912,224.821495 C204.07159,222.960119 205.280783,220.919469 206.339205,218.728721 C207.695916,215.924999 208.917215,212.997707 209.994951,209.966386 C211.235177,206.561333 212.494883,202.611472 213.800043,198.071402 C215.105203,193.531331 216.436336,188.391972 217.825909,182.571602 C218.475242,180.138124 219.124575,177.613845 219.721962,175.007845 C220.319348,172.401845 220.929721,169.786764 221.507628,167.099042 C222.085534,164.411321 222.637468,161.705439 223.182908,158.926916 C223.728347,156.148393 224.260801,153.478832 224.760787,150.700309 C225.260774,147.921786 225.773747,145.252225 226.260747,142.528182 C226.747747,139.80414 227.24124,137.18906 227.70876,134.546739 C228.17628,131.904418 228.637306,129.316578 229.09184,126.801379 C229.546373,124.28618 229.981426,121.834542 230.422973,119.482786 C231.185418,115.230529 232.363123,111.145415 233.922878,107.342638 C235.272701,104.058362 236.981626,101.089587 238.987677,98.543982 C240.792178,96.2702977 242.866512,94.4542836 245.117382,93.1776189 C249.431892,90.7664758 254.24407,90.7664758 258.558579,93.1776189 C260.875433,94.4542796 263.010627,96.2992706 264.863605,98.6257032 C266.987865,101.32342 268.79947,104.466318 270.23359,107.941927 C271.948425,112.088119 273.269061,116.529476 274.162056,121.153532 C274.973722,125.275915 275.752922,129.480021 276.512642,133.720446 C277.272362,137.960872 278.032082,142.210377 278.837255,146.432643 C279.642428,150.654908 280.512534,154.840853 281.486534,158.917836 C282.430661,162.977307 283.529609,166.963145 284.778653,170.858221 C285.999076,174.688191 287.43425,178.377155 289.070746,181.890591 C290.706974,185.398817 292.593179,188.666193 294.700464,191.642662 C296.901846,194.735937 299.353359,197.460171 302.005463,199.760308 C304.929965,202.299624 308.051719,204.365038 311.310407,205.916643 C313.258902,206.742747 315.240673,207.40676 317.245312,207.905194 C319.258245,208.422762 321.303645,208.813208 323.400991,209.067452 C325.498337,209.321696 327.595683,209.512379 329.73199,209.61226 C331.868296,209.712142 334.017589,209.721222 336.179868,209.703062 C338.342148,209.684901 340.504427,209.62134 342.6732,209.548699 L349.166532,209.330776 C351.315825,209.267215 353.452131,209.221814 355.562464,209.221814 C357.672796,209.221814 359.757156,209.285375 361.809049,209.421577 C363.347968,209.312616 364.880395,209.276295 366.406328,209.276295 C367.932261,209.276295 369.4517,209.276295 370.95166,209.376177 L375.458032,209.539619 C376.951499,209.5941 378.431978,209.63042 379.918951,209.62134 C381.405924,209.61226 382.873417,209.566859 384.334417,209.457898 C385.795417,209.348936 387.26291,209.149173 388.717416,208.876769 C390.178391,208.602865 391.628321,208.224025 393.061455,207.741751 C394.523742,207.237143 395.961658,206.603287 397.366534,205.844002 C400.792162,204.029464 404.059682,201.677832 407.106532,198.834133 C410.318566,195.847782 413.321075,192.442653 416.073823,188.664376 C418.879422,184.825991 421.428871,180.637838 423.690501,176.151943 C425.932016,171.707067 427.848515,166.958522 429.411127,161.977843 C430.924701,157.193116 432.014985,152.167936 432.657792,147.013772 C433.279644,142.052234 433.347549,136.985857 432.859086,131.995219 C432.357887,126.983684 431.204702,122.142839 429.45658,117.712158 C427.50329,112.848439 424.935909,108.519927 421.878862,104.936401 C419.91173,102.423503 417.601381,100.493087 415.086837,99.2613131 C413.151536,98.3779018 411.078652,98.2647213 409.099985,98.934428 C407.138303,99.6597642 405.298089,100.918653 403.684546,102.639125 C401.866614,104.556565 400.181744,106.708966 398.652214,109.067865 C397.015894,111.528583 395.405548,114.216304 393.782215,116.940347 C392.158882,119.664389 390.535549,122.388431 388.847283,124.93995 C387.256484,127.411217 385.518705,129.689412 383.652617,131.750056 C381.945443,133.650176 380.016827,135.124584 377.951472,136.108523 C372.419335,137.632848 366.756,138.000057 361.146729,137.19814 C356.753924,136.561363 352.500429,134.676542 348.647065,131.659254 C345.333377,129.02432 342.487827,125.377276 340.322614,120.990089 C338.212153,116.624142 336.740211,111.717473 335.991561,106.552666 C335.192753,101.031567 335.017472,95.3695428 335.472095,89.7725663 C335.952295,83.7090117 336.997943,77.7594208 338.582401,72.0753725 C340.275779,65.9717944 342.493271,60.1785793 345.186119,54.8231056 C348.024533,49.1486353 351.355035,43.9880858 355.101437,39.4595079 C356.508326,37.6434798 357.95201,35.8758792 359.432489,34.1567059 C360.912969,32.4375326 362.42808,30.7698135 363.977822,29.1535485 C365.518906,27.5433369 367.085963,25.9906329 368.678994,24.4954364 C370.272025,23.00024 371.895358,21.5746579 373.548993,20.2186903 C375.198299,18.8566692 376.867085,17.5763694 378.568338,16.3596306 C380.269591,15.1428918 381.977338,14.0169543 383.711057,12.9545779 C385.444777,11.8922015 387.20447,10.9478669 388.977149,10.0670932 C390.749829,9.18631961 392.541988,8.41450767 394.360121,7.73349714 C397.892494,6.66204056 401.66512,5.56334357 405.574105,4.52820755 C409.483091,3.49307154 413.55441,2.55781707 417.690663,1.80416541 C421.826915,1.05051375 425.989141,0.451224484 430.190326,0.17882027 C434.338475,-0.111808429 438.495443,-0.0481290594 442.638043,0.36950322 C446.638598,0.761415693 450.606416,1.6486917 454.494867,3.02090424 C458.24194,4.35705919 461.860794,6.31725272 465.273798,8.85943456 C468.672971,11.3996394 471.779156,14.641288 474.487836,18.4753033 C477.378435,22.6280161 479.788273,27.3856563 481.630501,32.5767615 C483.105896,39.3850105 484.257729,46.3222385 485.07846,53.3430427 C485.908041,60.432935 486.462948,67.5803526 486.740753,74.7540139 C487.02646,81.9727256 487.06542,89.2822387 486.90958,96.5463511 C486.75374,103.810463 486.396607,111.247098 485.89662,118.611092 C485.396634,125.975086 484.7473,133.33908 484.000567,140.666754 C483.253834,147.994427 482.429181,155.28578 481.552581,162.459091 C480.675981,169.632402 479.753928,176.842033 478.844862,183.860982 C477.935795,190.87993 477.039716,197.826238 476.202076,204.609103 C475.390409,212.318142 474.903409,219.564094 474.624196,226.337879 C474.344983,233.111664 474.176156,239.404201 473.974863,245.233651 C473.77357,251.063101 473.591756,256.411304 473.163196,261.278259 C472.828466,265.776687 472.102337,270.201164 471.000917,274.453543 C469.987547,278.295038 468.402923,281.792207 466.351691,284.714102 C463.978127,287.92702 461.15806,290.424173 458.0662,292.050855 C453.855302,294.26328 449.464993,295.7394 444.995123,296.445643 C438.714435,297.533032 432.388884,298.03355 426.060567,297.943867 L244,293.5 Z" stroke-dasharray="9 6"/>
  </g>
</svg>
