<svg xmlns="http://www.w3.org/2000/svg" width="562" height="341" viewBox="0 0 562 341">
  <g fill="none" fill-rule="evenodd" transform="translate(26 27)">
    <path stroke="#84E29C" stroke-width="52.53" d="M165.575275,1.57872036 C147.688891,-1.31466521 116.927611,0.86986352 96.1459171,0.995280375 C52.5162362,1.25858409 24.9662395,-0.171599586 9.21336004,29.5838394 C-6.53951943,59.3392784 1.04520032,78.0093578 16.2146398,141.020876 C31.3840793,204.032394 29.6337594,286.880871 89.7280773,285.130551 C149.822395,283.380231 210.500153,288.631191 303.26711,285.130551 C396.034067,281.629911 508.054543,313.13567 509.221423,211.617113 C510.388303,110.098557 373.279908,149.772475 321.35375,140.437436 C275.191642,126.8361 274.095111,107.764797 251.924392,84.4271976 C229.753673,61.0895983 205.249193,7.99656014 165.575275,1.57872036 Z" stroke-linejoin="round"/>
    <path stroke="#FFFFFF" stroke-width="48.41" d="M165.575275,1.57872036 C147.688891,-1.31466521 116.927611,0.86986352 96.1459171,0.995280375 C52.5162362,1.25858409 24.9662395,-0.171599586 9.21336004,29.5838394 C-6.53951943,59.3392784 1.04520032,78.0093578 16.2146398,141.020876 C31.3840793,204.032394 29.6337594,286.880871 89.7280773,285.130551 C149.822395,283.380231 210.500153,288.631191 303.26711,285.130551 C396.034067,281.629911 508.054543,313.13567 509.221423,211.617113 C510.388303,110.098557 373.279908,149.772475 321.35375,140.437436 C275.191642,126.8361 273.511671,107.181357 251.924392,84.4271976 C230.337113,61.6730383 205.249193,7.99656014 165.575275,1.57872036 Z" stroke-linejoin="round"/>
    <path stroke="#313D46" stroke-width="42.23" d="M165.575275,1.57872036 C147.688891,-1.31466521 116.927611,0.86986352 96.1459171,0.995280375 C52.5162362,1.25858409 24.9662395,-0.171599586 9.21336004,29.5838394 C-6.53951943,59.3392784 1.04520032,78.0093578 16.2146398,141.020876 C31.3840793,204.032394 29.6337594,286.880871 89.7280773,285.130551 C149.822395,283.380231 210.500153,288.631191 303.26711,285.130551 C396.034067,281.629911 508.054543,313.13567 509.221423,211.617113 C510.388303,110.098557 373.279908,149.772475 321.35375,140.437436 C275.191642,126.8361 273.511671,107.764797 251.924392,84.4271976 C230.337113,61.0895983 205.249193,7.99656014 165.575275,1.57872036 Z" stroke-linejoin="round"/>
    <path stroke="#FF9900" stroke-width="2.317" d="M165.575275,1.57872036 C147.688891,-1.31466521 116.927611,0.86986352 96.1459171,0.995280375 C52.5162362,1.25858409 24.9662395,-0.171599586 9.21336004,29.5838394 C-6.53951943,59.3392784 1.04520032,78.0093578 16.2146398,141.020876 C31.3840793,204.032394 29.6337594,286.880871 89.7280773,285.130551 C149.822395,283.380231 210.500153,288.631191 303.26711,285.130551 C396.034067,281.629911 508.054543,313.13567 509.221423,211.617113 C510.388303,110.098557 373.279908,149.772475 321.35375,140.437436 C275.191642,126.8361 274.678551,106.597917 251.924392,84.4271976 C229.170233,62.2564783 205.249193,7.99656014 165.575275,1.57872036 Z" stroke-dasharray="9.27 6.18"/>
  </g>
</svg>
