<svg xmlns="http://www.w3.org/2000/svg" width="530" height="408" viewBox="0 0 530 408">
  <g fill="none" fill-rule="evenodd" transform="translate(27 27)">
    <path stroke="#84E29C" stroke-width="52.53" d="M260.486536,354 C245.534609,354.028054 230.816064,350.288845 217.68734,343.126655 C206.549538,337.088868 197.063634,328.696095 189.504946,318.173811 C185.074854,312.010759 180.26933,305.547071 174.737972,300.361088 C165.602471,291.843049 155.615992,287.108022 144.25293,285.905475 C141.019359,285.554823 137.76923,285.379196 134.516739,285.379361 C130.830948,285.369385 127.149644,285.637376 123.50408,286.181059 C115.469845,287.383605 107.310466,288.761523 99.4013747,290.064282 L98.8757707,290.164494 C96.0224909,290.640503 93.1692112,291.116511 90.3409602,291.567466 C83.5081061,292.694853 74.4476916,293.972559 64.8366442,293.972559 C64.0857809,293.972559 63.3098891,293.972559 62.5590261,293.947506 C54.6999924,293.772134 47.4416493,291.968314 40.9591979,288.536046 C34.526804,285.12883 28.870302,280.143272 24.1648933,273.704637 C17.2569529,264.259635 12.1260551,253.336502 8.4217972,240.28386 C4.44222282,226.229096 1.96437463,213.351825 0.838079998,200.925509 C0.587792301,198.47031 -11.0255568,118.475902 60.7319259,111.310728 C128.935323,104.496296 120.650801,156.381176 208.051264,128.998185 C255.305581,114.191829 234.406559,60.2275465 284.764443,22.7982809 C297.454029,13.3532788 326.962949,4.28407256 344.83349,2.02929753 C355.309235,0.689550976 365.858901,0.0117759657 376.419796,0 C380.499488,0 384.579176,0.100212224 388.583778,0.325689725 C407.605645,1.35286502 422.94828,4.35923175 436.839246,9.79574491 C445.073713,13.0025361 452.03171,17.0360781 458.088671,22.0967954 C467.574577,29.988508 473.105934,40.4606854 475.083207,54.0895479 C477.110539,68.2946307 475.383551,81.6980154 473.681598,91.794397 C470.17757,112.287797 463.544945,133.507735 452.832631,158.560791 C442.020203,183.864378 428.354494,209.193018 412.185911,233.870278 C393.889877,261.829488 374.993159,285.203989 354.469567,305.321593 C340.553571,318.950456 327.914042,329.147049 314.673823,337.389505 C305.588379,343.051496 295.551843,348.638327 283.588091,351.319004 C276.011457,353.071635 268.262802,353.97078 260.486536,354 L260.486536,354 Z" stroke-linejoin="round"/>
    <path stroke="#FFFFFF" stroke-width="48.41" d="M260.486536,354 C245.534609,354.028054 230.816064,350.288845 217.68734,343.126655 C206.549538,337.088868 197.063634,328.696095 189.504946,318.173811 C185.074854,312.010759 180.26933,305.547071 174.737972,300.361088 C165.602471,291.843049 155.615992,287.108022 144.25293,285.905475 C141.019359,285.554823 137.76923,285.379196 134.516739,285.379361 C130.830948,285.369385 127.149644,285.637376 123.50408,286.181059 C115.469845,287.383605 107.310466,288.761523 99.4013747,290.064282 L98.8757707,290.164494 C96.0224909,290.640503 93.1692112,291.116511 90.3409602,291.567466 C83.5081061,292.694853 74.4476916,293.972559 64.8366442,293.972559 C64.0857809,293.972559 63.3098891,293.972559 62.5590261,293.947506 C54.6999924,293.772134 47.4416493,291.968314 40.9591979,288.536046 C34.526804,285.12883 28.870302,280.143272 24.1648933,273.704637 C17.2569529,264.259635 12.1260551,253.336502 8.4217972,240.28386 C4.44222282,226.229096 1.96437463,213.351825 0.838079998,200.925509 C0.587792301,198.47031 -11.0255568,118.475902 60.7319259,111.310728 C128.935323,104.496296 120.650801,156.381176 208.051264,128.998185 C255.305581,114.191829 234.406559,60.2275465 284.764443,22.7982809 C297.454029,13.3532788 326.962949,4.28407256 344.83349,2.02929753 C355.309235,0.689550976 365.858901,0.0117759657 376.419796,0 C380.499488,0 384.579176,0.100212224 388.583778,0.325689725 C407.605645,1.35286502 422.94828,4.35923175 436.839246,9.79574491 C445.073713,13.0025361 452.03171,17.0360781 458.088671,22.0967954 C467.574577,29.988508 473.105934,40.4606854 475.083207,54.0895479 C477.110539,68.2946307 475.383551,81.6980154 473.681598,91.794397 C470.17757,112.287797 463.544945,133.507735 452.832631,158.560791 C442.020203,183.864378 428.354494,209.193018 412.185911,233.870278 C393.889877,261.829488 374.993159,285.203989 354.469567,305.321593 C340.553571,318.950456 327.914042,329.147049 314.673823,337.389505 C305.588379,343.051496 295.551843,348.638327 283.588091,351.319004 C276.011457,353.071635 268.262802,353.97078 260.486536,354 L260.486536,354 Z" stroke-linejoin="round"/>
    <path stroke="#313D46" stroke-width="42.23" d="M260.486536,354 C245.534609,354.028054 230.816064,350.288845 217.68734,343.126655 C206.549538,337.088868 197.063634,328.696095 189.504946,318.173811 C185.074854,312.010759 180.26933,305.547071 174.737972,300.361088 C165.602471,291.843049 155.615992,287.108022 144.25293,285.905475 C141.019359,285.554823 137.76923,285.379196 134.516739,285.379361 C130.830948,285.369385 127.149644,285.637376 123.50408,286.181059 C115.469845,287.383605 107.310466,288.761523 99.4013747,290.064282 L98.8757707,290.164494 C96.0224909,290.640503 93.1692112,291.116511 90.3409602,291.567466 C83.5081061,292.694853 74.4476916,293.972559 64.8366442,293.972559 C64.0857809,293.972559 63.3098891,293.972559 62.5590261,293.947506 C54.6999924,293.772134 47.4416493,291.968314 40.9591979,288.536046 C34.526804,285.12883 28.870302,280.143272 24.1648933,273.704637 C17.2569529,264.259635 12.1260551,253.336502 8.4217972,240.28386 C4.44222282,226.229096 1.96437463,213.351825 0.838079998,200.925509 C0.587792301,198.47031 -11.0255568,118.475902 60.7319259,111.310728 C128.935323,104.496296 120.650801,156.381176 208.051264,128.998185 C255.305581,114.191829 234.406559,60.2275465 284.764443,22.7982809 C297.454029,13.3532788 326.962949,4.28407256 344.83349,2.02929753 C355.309235,0.689550976 365.858901,0.0117759657 376.419796,0 C380.499488,0 384.579176,0.100212224 388.583778,0.325689725 C407.605645,1.35286502 422.94828,4.35923175 436.839246,9.79574491 C445.073713,13.0025361 452.03171,17.0360781 458.088671,22.0967954 C467.574577,29.988508 473.105934,40.4606854 475.083207,54.0895479 C477.110539,68.2946307 475.383551,81.6980154 473.681598,91.794397 C470.17757,112.287797 463.544945,133.507735 452.832631,158.560791 C442.020203,183.864378 428.354494,209.193018 412.185911,233.870278 C393.889877,261.829488 374.993159,285.203989 354.469567,305.321593 C340.553571,318.950456 327.914042,329.147049 314.673823,337.389505 C305.588379,343.051496 295.551843,348.638327 283.588091,351.319004 C276.011457,353.071635 268.262802,353.97078 260.486536,354 L260.486536,354 Z" stroke-linejoin="round"/>
    <path stroke="#FF9900" stroke-width="2.317" d="M260.486537,354 C245.534609,354.028054 230.816064,350.288845 217.68734,343.126655 C206.549538,337.088868 197.063634,328.696095 189.504946,318.173811 C185.074854,312.010759 180.26933,305.547071 174.737972,300.361089 C165.602471,291.843049 155.615992,287.108022 144.25293,285.905475 C141.019359,285.554823 137.769231,285.379196 134.516739,285.379361 C130.830948,285.369385 127.149644,285.637376 123.50408,286.181059 C115.469845,287.383606 107.310466,288.761523 99.4013751,290.064282 L98.8757707,290.164494 C96.0224912,290.640503 93.1692113,291.116511 90.3409605,291.567466 C83.5081064,292.694853 74.4476915,293.972559 64.8366439,293.972559 C64.0857809,293.972559 63.3098892,293.972559 62.5590261,293.947506 C54.6999923,293.772135 47.4416492,291.968314 40.9591978,288.536046 C34.526804,285.12883 28.870302,280.143272 24.1648934,273.704637 C17.2569529,264.259635 12.1260551,253.336502 8.42179721,240.28386 C4.44222283,226.229096 1.96437463,213.351825 0.838079998,200.925509 C0.587792302,198.47031 -11.0255568,118.475902 60.731926,111.310728 C128.935323,104.496297 120.6508,156.381176 208.051264,128.998185 C255.305581,114.191829 234.406559,60.2275467 284.764443,22.798281 C297.454029,13.3532788 326.962949,4.28407258 344.833491,2.02929754 C355.309236,0.689550975 365.858899,0.0117759653 376.419797,0 C380.499489,0 384.579178,0.100212223 388.583781,0.325689727 C407.605646,1.35286502 422.948282,4.35923173 436.839246,9.79574489 C445.073713,13.002536 452.031712,17.0360781 458.088674,22.0967954 C467.574577,29.988508 473.105935,40.4606853 475.083207,54.0895479 C477.110538,68.2946307 475.383552,81.6980158 473.681597,91.7943972 C470.17757,112.287797 463.544946,133.507736 452.83263,158.560792 C442.020205,183.864378 428.354497,209.193018 412.185908,233.870278 C393.88988,261.829488 374.993159,285.20399 354.469567,305.321593 C340.553571,318.950456 327.914042,329.14705 314.673823,337.389505 C305.58838,343.051496 295.551843,348.638327 283.588091,351.319004 C276.011458,353.071635 268.262802,353.97078 260.486537,354 Z" stroke-dasharray="9.27 6.18"/>
  </g>
</svg>
