<svg xmlns="http://www.w3.org/2000/svg" width="504" height="395" viewBox="0 0 504 395">
  <g fill="none" fill-rule="evenodd" transform="translate(27 27)">
    <path stroke="#84E29C" stroke-width="52.53" d="M39.3553104,339.920289 C88.2856193,341.839775 152.086904,339.440417 192.382453,340.40016 C232.678001,341.359904 288.442378,340.880032 349.726976,340.880032 C382.347181,340.880032 401.010985,339.911997 404.413791,328.403369 C414.487679,294.332483 432.716617,291.933125 440.871669,281.85582 C449.02672,271.778516 449.986138,239.627116 449.986138,156.609322 C450.465847,128.776767 438.34107,112.445879 437.513706,92.3065222 C436.554288,58.2356357 455.742645,47.1985879 442.790504,19.8459044 C429.838364,-7.50677912 356.638507,-5.24060458 330.05891,18.4062895 C300.27271,44.9059819 317.10677,87.9876774 323.822694,111.021516 C330.538619,134.055355 343.011051,171.485343 310.870554,188.760722 C278.730057,206.036101 269.610282,175.353456 244.670724,179.643161 C216.602447,184.471017 225.962077,202.197128 199.578087,208.915331 C179.564277,212.269035 177.894973,195.905322 156.883994,197.398411 C134.001607,199.024488 142.400555,211.518639 118.027572,215.153662 C76.4405799,221.356008 45.1118174,201.237385 19.6872451,215.633534 C-1.41994697,228.590068 0.339103796,252.449639 0.498888672,272.738259 C0.580952932,283.158335 -0.949609876,301.180956 0.978597583,307.289017 C3.85685105,316.406578 4.96520355,335.524756 39.3553104,339.920289 Z" stroke-linejoin="round"/>
    <path stroke="#FFFFFF" stroke-width="48.41" d="M39.3553104,339.920289 C88.2856193,341.839775 152.086904,339.440417 192.382453,340.40016 C232.678001,341.359904 288.442378,340.880032 349.726976,340.880032 C382.347181,340.880032 401.010985,339.911997 404.413791,328.403369 C414.487679,294.332483 432.716617,291.933125 440.871669,281.85582 C449.02672,271.778516 449.986138,239.627116 449.986138,156.609322 C450.465847,128.776767 438.34107,112.445879 437.513706,92.3065222 C436.554288,58.2356357 455.742645,47.1985879 442.790504,19.8459044 C429.838364,-7.50677912 356.638507,-5.24060458 330.05891,18.4062895 C300.27271,44.9059819 317.10677,87.9876774 323.822694,111.021516 C330.538619,134.055355 343.011051,171.485343 310.870554,188.760722 C278.730057,206.036101 269.610282,175.353456 244.670724,179.643161 C216.602447,184.471017 225.962077,202.197128 199.578087,208.915331 C179.564277,212.269035 177.894973,195.905322 156.883994,197.398411 C134.001607,199.024488 142.400555,211.518639 118.027572,215.153662 C76.4405799,221.356008 45.1118174,201.237385 19.6872451,215.633534 C-1.41994697,228.590068 0.339103796,252.449639 0.498888672,272.738259 C0.580952932,283.158335 -0.949609876,301.180956 0.978597583,307.289017 C3.85685105,316.406578 4.96520355,335.524756 39.3553104,339.920289 Z" stroke-linejoin="round"/>
    <path stroke="#313D46" stroke-width="42.23" d="M39.3553104,339.920289 C88.2856193,341.839775 152.086904,339.440417 192.382453,340.40016 C232.678001,341.359904 288.442378,340.880032 349.726976,340.880032 C382.347181,340.880032 401.010985,339.911997 404.413791,328.403369 C414.487679,294.332483 432.716617,291.933125 440.871669,281.85582 C449.02672,271.778516 449.986138,239.627116 449.986138,156.609322 C450.465847,128.776767 438.34107,112.445879 437.513706,92.3065222 C436.554288,58.2356357 455.742645,47.1985879 442.790504,19.8459044 C429.838364,-7.50677912 356.638507,-5.24060458 330.05891,18.4062895 C300.27271,44.9059819 317.10677,87.9876774 323.822694,111.021516 C330.538619,134.055355 343.011051,171.485343 310.870554,188.760722 C278.730057,206.036101 269.610282,175.353456 244.670724,179.643161 C216.602447,184.471017 225.962077,202.197128 199.578087,208.915331 C179.564277,212.269035 177.894973,195.905322 156.883994,197.398411 C134.001607,199.024488 142.400555,211.518639 118.027572,215.153662 C76.4405799,221.356008 45.1118174,201.237385 19.6872451,215.633534 C-1.41994697,228.590068 0.339103796,252.449639 0.498888672,272.738259 C0.580952932,283.158335 -0.949609876,301.180956 0.978597583,307.289017 C3.85685105,316.406578 4.96520355,335.524756 39.3553104,339.920289 Z" stroke-linejoin="round"/>
    <path stroke="#FF9900" stroke-width="2.317" d="M39.3553104,339.920289 C88.2856193,341.839775 152.086904,339.440417 192.382453,340.40016 C232.678001,341.359904 288.442378,340.880032 349.726976,340.880032 C382.347181,340.880032 401.010985,339.911997 404.413791,328.403369 C414.487679,294.332483 432.716617,291.933125 440.871669,281.85582 C449.02672,271.778516 449.986138,239.627116 449.986138,156.609322 C450.465847,128.776767 438.34107,112.445879 437.513706,92.3065222 C436.554288,58.2356357 455.742645,47.1985879 442.790504,19.8459044 C429.838364,-7.50677912 356.638507,-5.24060458 330.05891,18.4062895 C300.27271,44.9059819 317.10677,87.9876774 323.822694,111.021516 C330.538619,134.055355 343.011051,171.485343 310.870554,188.760722 C278.730057,206.036101 269.610282,175.353456 244.670724,179.643161 C216.602447,184.471017 225.962077,202.197128 199.578087,208.915331 C179.564277,212.269035 177.894973,195.905322 156.883994,197.398411 C134.001607,199.024488 142.400555,211.518639 118.027572,215.153662 C76.4405799,221.356008 45.1118174,201.237385 19.6872451,215.633534 C-1.41994697,228.590068 0.339103796,252.449639 0.498888672,272.738259 C0.580952932,283.158335 -0.949609876,301.180956 0.978597583,307.289017 C3.85685105,316.406578 4.96520355,335.524756 39.3553104,339.920289 Z" stroke-dasharray="9.27 6.18"/>
  </g>
</svg>
