<svg xmlns="http://www.w3.org/2000/svg" width="499" height="396" viewBox="0 0 499 396">
  <g fill="none" fill-rule="evenodd" transform="translate(27 27)">
    <path stroke="#84E29C" stroke-width="52.53" d="M433.5,216.5 C449.5,171.5 440,166.5 445.5,76.5 C443,42 436.5,-4 376,0.5 C286.5,17.5 359,132.5 305,167 C283.5,182.5 222.5,175 207.5,176.5 C196.513106,177.598689 103,174 48.5,183 C28.3747568,188.618871 16.5,196 9,219 C1.5,242 -1.5,275.5 1,305.5 C10,339 39.5,342.001374 84,342.001374 C128.5,342.001374 130,289 169.5,287 C209,285 219.5,318 232,329 C244.5,340 249.5,343 309.5,338.5 C369.5,334 340.963487,293.185841 367,261 C390.713487,231.685841 420.076975,248.039991 433.5,216.5 Z" stroke-linejoin="round"/>
    <path stroke="#FFFFFF" stroke-width="48.41" d="M433.5,216.5 C449.5,171.5 440,166.5 445.5,76.5 C443,42 436.5,-4 376,0.5 C286.5,17.5 359,132.5 305,167 C283.5,182.5 222.5,175 207.5,176.5 C196.513106,177.598689 103,174 48.5,183 C28.3747568,188.618871 16.5,196 9,219 C1.5,242 -1.5,275.5 1,305.5 C10,339 39.5,342.001374 84,342.001374 C128.5,342.001374 130,289 169.5,287 C209,285 219.5,318 232,329 C244.5,340 249.5,343 309.5,338.5 C369.5,334 340.963487,293.185841 367,261 C390.713487,231.685841 420.076975,248.039991 433.5,216.5 Z" stroke-linejoin="round"/>
    <path stroke="#313D46" stroke-width="42.23" d="M433.5,216.5 C449.5,171.5 440,166.5 445.5,76.5 C443,42 436.5,-4 376,0.5 C286.5,17.5 359,132.5 305,167 C283.5,182.5 222.5,175 207.5,176.5 C196.513106,177.598689 103,174 48.5,183 C28.3747568,188.618871 16.5,196 9,219 C1.5,242 -1.5,275.5 1,305.5 C10,339 39.5,342.001374 84,342.001374 C128.5,342.001374 130,289 169.5,287 C209,285 219.5,318 232,329 C244.5,340 249.5,343 309.5,338.5 C369.5,334 340.963487,293.185841 367,261 C390.713487,231.685841 420.076975,248.039991 433.5,216.5 Z" stroke-linejoin="round"/>
    <path stroke="#FF9900" stroke-width="2.317" d="M433.5,216.5 C449.5,171.5 440,166.5 445.5,76.5 C443,42 436.5,-4 376,0.5 C286.5,17.5 359,132.5 305,167 C283.5,182.5 222.5,175 207.5,176.5 C196.513106,177.598689 103,174 48.5,183 C28.3747568,188.618871 16.5,196 9,219 C1.5,242 -1.5,275.5 1,305.5 C10,339 39.5,342.001374 84,342.001374 C128.5,342.001374 130,289 169.5,287 C209,285 219.5,318 232,329 C244.5,340 249.5,343 309.5,338.5 C369.5,334 340.963487,293.185841 367,261 C390.713487,231.685841 420.076975,248.039991 433.5,216.5 Z" stroke-dasharray="9.27 6.18"/>
  </g>
</svg>
