<svg xmlns="http://www.w3.org/2000/svg" width="569" height="370" viewBox="0 0 569 370">
  <g fill="none" fill-rule="evenodd" transform="translate(27 27)">
    <path stroke="#84E29C" stroke-width="52.53" d="M162.733655,13.0787423 C144.060232,15.0655448 26.5663964,32.367283 7.64509654,54.1393268 C-3.42675579,67.3846767 0.787158157,79.1399246 0.787158157,159.408656 C0.787158157,196.732352 -0.931605231,229.320285 0.787158157,234.193301 C19.2127035,281.62821 69.366542,312.092515 109.440037,312.092515 C153.975324,306.214891 185.125237,259.607816 260.012282,259.607816 C310.385895,263.664205 345.253967,309.29101 382.105057,316.480037 C420.195534,316.480037 420.195534,309.29101 437.216442,292.555624 C445.313767,259.607816 451.180196,248.680403 455.39411,240.070925 C475.802673,195.202303 499.020513,216.725996 514.388905,171.609023 C517.032929,137.750598 510.670746,129.720604 494.723973,113.577834 C422.013301,54.1393268 356.738948,5.87658332 325.010655,0.74401026 C304.767343,-3.72629531 277.913969,13.0787423 251.308474,21.0259522 C212.804868,25.8273915 190.90904,13.0787423 162.733655,13.0787423 Z" stroke-linejoin="round"/>
    <path stroke="#FFFFFF" stroke-width="48.41" d="M162.733655,13.0787423 C144.060232,15.0655448 26.5663964,32.367283 7.64509654,54.1393268 C-3.42675579,67.3846767 0.787158157,79.1399246 0.787158157,159.408656 C0.787158157,196.732352 -0.931605231,229.320285 0.787158157,234.193301 C19.2127035,281.62821 69.366542,312.092515 109.440037,312.092515 C153.975324,306.214891 185.125237,259.607816 260.012282,259.607816 C310.385895,263.664205 345.253967,309.29101 382.105057,316.480037 C420.195534,316.480037 420.195534,309.29101 437.216442,292.555624 C445.313767,259.607816 451.180196,248.680403 455.39411,240.070925 C475.802673,195.202303 499.020513,216.725996 514.388905,171.609023 C517.032929,137.750598 510.670746,129.720604 494.723973,113.577834 C422.013301,54.1393268 356.738948,5.87658332 325.010655,0.74401026 C304.767343,-3.72629531 277.913969,13.0787423 251.308474,21.0259522 C212.804868,25.8273915 190.90904,13.0787423 162.733655,13.0787423 Z" stroke-linejoin="round"/>
    <path stroke="#313D46" stroke-width="42.23" d="M162.733655,13.0787423 C144.060232,15.0655448 26.5663964,32.367283 7.64509654,54.1393268 C-3.42675579,67.3846767 0.787158157,79.1399246 0.787158157,159.408656 C0.787158157,196.732352 -0.931605231,229.320285 0.787158157,234.193301 C19.2127035,281.62821 69.366542,312.092515 109.440037,312.092515 C153.975324,306.214891 185.125237,259.607816 260.012282,259.607816 C310.385895,263.664205 345.253967,309.29101 382.105057,316.480037 C420.195534,316.480037 420.195534,309.29101 437.216442,292.555624 C445.313767,259.607816 451.180196,248.680403 455.39411,240.070925 C475.802673,195.202303 499.020513,216.725996 514.388905,171.609023 C517.032929,137.750598 510.670746,129.720604 494.723973,113.577834 C422.013301,54.1393268 356.738948,5.87658332 325.010655,0.74401026 C304.767343,-3.72629531 277.913969,13.0787423 251.308474,21.0259522 C212.804868,25.8273915 190.90904,13.0787423 162.733655,13.0787423 Z" stroke-linejoin="round"/>
    <path stroke="#FF9900" stroke-width="2.317" d="M162.733655,13.0787423 C144.060232,15.0655448 26.5663964,32.367283 7.64509654,54.1393268 C-3.42675579,67.3846767 0.787158157,79.1399246 0.787158157,159.408656 C0.787158157,196.732352 -0.931605231,229.320285 0.787158157,234.193301 C19.2127035,281.62821 69.366542,312.092515 109.440037,312.092515 C153.975324,306.214891 185.125237,259.607816 260.012282,259.607816 C310.385895,263.664205 345.253967,309.29101 382.105057,316.480037 C420.195534,316.480037 420.195534,309.29101 437.216442,292.555624 C445.313767,259.607816 451.180196,248.680403 455.39411,240.070925 C475.802673,195.202303 499.020513,216.725996 514.388905,171.609023 C517.032929,137.750598 510.670746,129.720604 494.723973,113.577834 C422.013301,54.1393268 356.738948,5.87658332 325.010655,0.74401026 C304.767343,-3.72629531 277.913969,13.0787423 251.308474,21.0259522 C212.804868,25.8273915 190.90904,13.0787423 162.733655,13.0787423 Z" stroke-dasharray="9.27 6.18"/>
  </g>
</svg>
