<svg xmlns="http://www.w3.org/2000/svg" width="363" height="416" viewBox="0 0 363 416">
  <g fill="none" fill-rule="evenodd" transform="rotate(-90 208 182)">
    <path stroke="#84E29C" stroke-width="52.53" d="M240.975023,214.687645 C192.089471,213.576181 187.207469,174.541288 194.610248,146.477816 C223.758641,88.6935521 318.899015,99.3155907 286.170938,29.5466793 C255.780581,-11.3792184 234.741104,-1.63495706 178.24621,13.9558611 C121.751316,29.5466793 90.5817191,12.7865498 74.6073008,49.814743 C60.9706022,84.114543 77.7242604,142.190341 54.3470629,194.419582 C41.0180337,224.199245 -6.43365056,243.920429 1.35874861,277.050918 C9.72602286,312.625569 42.0243984,308.678808 89.0232392,309.791636 C154.869012,311.350718 165.778371,309.791636 210.195046,310.181407 C230.716519,310.361489 261.653975,309.144019 289.287898,307.063243 C358.64025,291.862195 376.562768,254.834002 354.744051,221.313743 C332.925333,187.793484 309.132841,187.293957 287.729418,196.758204 C272.873049,203.32745 258.118301,215.077416 240.975023,214.687645 Z" stroke-linejoin="round"/>
    <path stroke="#FFFFFF" stroke-width="48.41" d="M240.975023,214.687645 C192.089471,213.576181 187.207469,174.541288 194.610248,146.477816 C223.758641,88.6935521 318.899015,99.3155907 286.170938,29.5466793 C255.780581,-11.3792184 234.741104,-1.63495706 178.24621,13.9558611 C121.751316,29.5466793 90.5817191,12.7865498 74.6073008,49.814743 C60.9706022,84.114543 77.7242604,142.190341 54.3470629,194.419582 C41.0180337,224.199245 -6.43365056,243.920429 1.35874861,277.050918 C9.72602286,312.625569 42.0243984,308.678808 89.0232392,309.791636 C154.869012,311.350718 165.778371,309.791636 210.195046,310.181407 C230.716519,310.361489 261.653975,309.144019 289.287898,307.063243 C358.64025,291.862195 376.562768,254.834002 354.744051,221.313743 C332.925333,187.793484 309.132841,187.293957 287.729418,196.758204 C272.873049,203.32745 258.118301,215.077416 240.975023,214.687645 Z" stroke-linejoin="round"/>
    <path stroke="#313D46" stroke-width="42.23" d="M240.975023,214.687645 C192.089471,213.576181 187.207469,174.541288 194.610248,146.477816 C223.758641,88.6935521 318.899015,99.3155907 286.170938,29.5466793 C255.780581,-11.3792184 234.741104,-1.63495706 178.24621,13.9558611 C121.751316,29.5466793 90.5817191,12.7865498 74.6073008,49.814743 C60.9706022,84.114543 77.7242604,142.190341 54.3470629,194.419582 C41.0180337,224.199245 -6.43365056,243.920429 1.35874861,277.050918 C9.72602286,312.625569 42.0243984,308.678808 89.0232392,309.791636 C154.869012,311.350718 165.778371,309.791636 210.195046,310.181407 C230.716519,310.361489 261.653975,309.144019 289.287898,307.063243 C358.64025,291.862195 376.562768,254.834002 354.744051,221.313743 C332.925333,187.793484 309.132841,187.293957 287.729418,196.758204 C272.873049,203.32745 258.118301,215.077416 240.975023,214.687645 Z" stroke-linejoin="round"/>
    <path stroke="#FF9900" stroke-width="2.317" d="M240.975023,214.687645 C192.089471,213.576181 187.207469,174.541288 194.610248,146.477816 C223.758641,88.6935521 318.899015,99.3155907 286.170938,29.5466793 C255.780581,-11.3792184 234.741104,-1.63495706 178.24621,13.9558611 C121.751316,29.5466793 90.5817191,12.7865498 74.6073008,49.814743 C60.9706022,84.114543 77.7242604,142.190341 54.3470629,194.419582 C41.0180337,224.199245 -6.43365056,243.920429 1.35874861,277.050918 C9.72602286,312.625569 42.0243984,308.678808 89.0232392,309.791636 C154.869012,311.350718 165.778371,309.791636 210.195046,310.181407 C230.716519,310.361489 261.653975,309.144019 289.287898,307.063243 C358.64025,291.862195 376.562768,254.834002 354.744051,221.313743 C332.925333,187.793484 309.132841,187.293957 287.729418,196.758204 C272.873049,203.32745 258.118301,215.077416 240.975023,214.687645 Z" stroke-dasharray="9.27 6.18"/>
  </g>
</svg>
