<?xml version="1.0" encoding="UTF-8"?><svg id="a" xmlns="http://www.w3.org/2000/svg" viewBox="0 0 648 482"><defs><style>.b{stroke:#84e29c;stroke-width:48px;}.b,.c,.d,.e{fill:none;stroke-miterlimit:10;}.c{stroke:#f90;stroke-dasharray:0 0 9.95 6.96;stroke-width:2px;}.d{stroke:#313d46;stroke-width:36px;}.e{stroke:#fff;stroke-width:44px;}</style></defs><path class="b" d="M540,278c-11.8-3.46-23.69-10.21-33.72-14.45-10.7-4.52-18.98-6.76-21.8-.9-2.35,6.14-4.28,12.79-6.08,19.54-2.04,7.67-3.9,15.46-5.97,22.76-2,8.4-5.79,17.14-3.06,25.72,3.28,11.55,15.98,18.53,16.55,31.28,1.9,18.72-9.58,16.89-23.85,14.24-16.09-2.81-32.11-5.98-48.08-9.4-47.24-10.59-94.59-21.31-141.07-34.84-.17-.05-.33-.1-.49-.17-26.18-10.36-51.53-22.87-77.24-34.36-21.27-9.75-42.43-19.76-64.06-28.69-22.33-8.57-44.15-20.57-56.55-41.81-.06-.1-.12-.19-.18-.28-12.12-17.09-12.12-30.58-7.3-50.41,.02-.09,.04-.18,.06-.28,2.77-15.34,6.26-37.04,27.18-28.14,49.66,19.2,100.6,34.92,149.58,55.89,.09,.04,.18,.07,.27,.11,29.12,10.13,71.07,39.91,95.28,6.73,.18-.25,.34-.51,.48-.78,5.52-10.93,7.17-24.69,16.3-33.43,22.49-19.7,35.32-2,52.48-3.65,1.15-.11,2.26-.59,3.06-1.43,4.45-4.65,5.2-12.58,7.94-18.33,.06-.12,.11-.25,.16-.37,4.99-13.66,9.9-27.33,14.81-41.01,1.63-6.57,6.03-9.21,12.28-5.97,16.67,6.44,33.35,12.97,49.93,19.62,7.81,3.68,17.01,5.27,23.35,11.42,.12,.11,.23,.23,.33,.35,12.43,14.22,25.18,28.34,36.06,43.81,.07,.11,.15,.21,.21,.32,3.56,5.74,27.8,50.78,25.15,73.92-.99,8.65-5.64,14.41-11.6,18.11-10.31,6.4-24.51,6.62-30.4,4.89Z"/><path class="e" d="M540,278c-11.8-3.46-23.69-10.21-33.72-14.45-10.7-4.52-18.98-6.76-21.8-.9-2.35,6.14-4.28,12.79-6.08,19.54-2.04,7.67-3.9,15.46-5.97,22.76-2,8.4-5.79,17.14-3.06,25.72,3.28,11.55,15.98,18.53,16.55,31.28,1.9,18.72-9.58,16.89-23.85,14.24-16.09-2.81-32.11-5.98-48.08-9.4-47.24-10.59-94.59-21.31-141.07-34.84-.17-.05-.33-.1-.49-.17-26.18-10.36-51.53-22.87-77.24-34.36-21.27-9.75-42.43-19.76-64.06-28.69-22.33-8.57-44.15-20.57-56.55-41.81-.06-.1-.12-.19-.18-.28-12.12-17.09-12.12-30.58-7.3-50.41,.02-.09,.04-.18,.06-.28,2.77-15.34,6.26-37.04,27.18-28.14,49.66,19.2,100.6,34.92,149.58,55.89,.09,.04,.18,.07,.27,.11,29.12,10.13,71.07,39.91,95.28,6.73,.18-.25,.34-.51,.48-.78,5.52-10.93,7.17-24.69,16.3-33.43,22.49-19.7,35.32-2,52.48-3.65,1.15-.11,2.26-.59,3.06-1.43,4.45-4.65,5.2-12.58,7.94-18.33,.06-.12,.11-.25,.16-.37,4.99-13.66,9.9-27.33,14.81-41.01,1.63-6.57,6.03-9.21,12.28-5.97,16.67,6.44,33.35,12.97,49.93,19.62,7.81,3.68,17.01,5.27,23.35,11.42,.12,.11,.23,.23,.33,.35,12.43,14.22,25.18,28.34,36.06,43.81,.07,.11,.15,.21,.21,.32,3.56,5.74,27.8,50.78,25.15,73.92-.99,8.65-5.64,14.41-11.6,18.11-10.31,6.4-24.51,6.62-30.4,4.89Z"/><path class="d" d="M540,278c-11.8-3.46-23.69-10.21-33.72-14.45-10.7-4.52-18.98-6.76-21.8-.9-2.35,6.14-4.28,12.79-6.08,19.54-2.04,7.67-3.9,15.46-5.97,22.76-2,8.4-5.79,17.14-3.06,25.72,3.28,11.55,15.98,18.53,16.55,31.28,1.9,18.72-9.58,16.89-23.85,14.24-16.09-2.81-32.11-5.98-48.08-9.4-47.24-10.59-94.59-21.31-141.07-34.84-.17-.05-.33-.1-.49-.17-26.18-10.36-51.53-22.87-77.24-34.36-21.27-9.75-42.43-19.76-64.06-28.69-22.33-8.57-44.15-20.57-56.55-41.81-.06-.1-.12-.19-.18-.28-12.12-17.09-12.12-30.58-7.3-50.41,.02-.09,.04-.18,.06-.28,2.77-15.34,6.26-37.04,27.18-28.14,49.66,19.2,100.6,34.92,149.58,55.89,.09,.04,.18,.07,.27,.11,29.12,10.13,71.07,39.91,95.28,6.73,.18-.25,.34-.51,.48-.78,5.52-10.93,7.17-24.69,16.3-33.43,22.49-19.7,35.32-2,52.48-3.65,1.15-.11,2.26-.59,3.06-1.43,4.45-4.65,5.2-12.58,7.94-18.33,.06-.12,.11-.25,.16-.37,4.99-13.66,9.9-27.33,14.81-41.01,1.63-6.57,6.03-9.21,12.28-5.97,16.67,6.44,33.35,12.97,49.93,19.62,7.81,3.68,17.01,5.27,23.35,11.42,.12,.11,.23,.23,.33,.35,12.43,14.22,25.18,28.34,36.06,43.81,.07,.11,.15,.21,.21,.32,3.56,5.74,27.8,50.78,25.15,73.92-.99,8.65-5.64,14.41-11.6,18.11-10.31,6.4-24.51,6.62-30.4,4.89Z"/><path class="c" d="M540,278c-11.8-3.46-23.69-10.21-33.72-14.45-10.7-4.52-18.98-6.76-21.8-.9-5.06,13.26-8.17,28.69-12.05,42.3-2,8.4-5.79,17.14-3.06,25.72,3.28,11.55,15.98,18.53,16.55,31.28,1.9,18.72-9.58,16.89-23.85,14.24-16.09-2.81-32.11-5.98-48.08-9.4-47.4-10.65-94.95-21.34-141.56-35.01-26.18-10.36-51.53-22.87-77.24-34.36-21.27-9.75-42.43-19.76-64.06-28.69-22.45-8.6-44.33-20.71-56.73-42.09-12.12-17.09-12.12-30.58-7.3-50.41,2.8-15.37,6.18-37.36,27.24-28.42,49.66,19.2,100.6,34.92,149.58,55.89,29.2,10.11,71.26,40.09,95.55,6.84,6.05-11,7.36-25.27,16.78-34.22,22.49-19.7,35.32-2,52.48-3.65,6.95-1.08,8.1-14.35,11-19.76,5.09-13.76,9.99-27.58,14.97-41.38,1.63-6.57,6.03-9.21,12.28-5.97,16.67,6.44,33.35,12.97,49.93,19.62,7.94,3.75,17.39,5.32,23.69,11.77,12.51,14.33,25.37,28.53,36.27,44.13,3.56,5.74,27.8,50.78,25.15,73.92-.99,8.65-5.64,14.41-11.6,18.11-10.31,6.4-24.51,6.62-30.4,4.89h0Z"/></svg>