<svg xmlns="http://www.w3.org/2000/svg" width="354" height="160" viewBox="0 0 354 160"><title>Shanghai Sudu</title><line x1="20.55" y1="140.52" x2="207.55" y2="140.52" style="fill:none;stroke:#232f3e;stroke-miterlimit:10;stroke-width:2px"/><line x1="178.55" y1="122.52" x2="209.55" y2="122.52" style="fill:none;stroke:#232f3e;stroke-miterlimit:10;stroke-width:2px;stroke-dasharray:6,6"/><line x1="20.55" y1="122.52" x2="62.55" y2="122.52" style="fill:none;stroke:#232f3e;stroke-miterlimit:10;stroke-width:2px;stroke-dasharray:6,6"/><line x1="20.55" y1="100.52" x2="59.55" y2="100.52" style="fill:none;stroke:#232f3e;stroke-miterlimit:10;stroke-width:2px"/><line x1="176.55" y1="100.52" x2="205.55" y2="100.52" style="fill:none;stroke:#232f3e;stroke-miterlimit:10;stroke-width:2px"/><circle cx="154.05" cy="82.02" r="0.5" style="fill:none;stroke:#232f3e;stroke-linejoin:round;stroke-width:2px"/><line x1="109.55" y1="59.52" x2="92.55" y2="59.52" style="fill:none;stroke:#232f3e;stroke-miterlimit:10;stroke-width:2px"/><line x1="99.55" y1="67.52" x2="84.55" y2="67.52" style="fill:none;stroke:#232f3e;stroke-miterlimit:10;stroke-width:2px"/><line x1="93.55" y1="75.52" x2="67.55" y2="75.52" style="fill:none;stroke:#232f3e;stroke-miterlimit:10;stroke-width:2px"/><path d="M123.85,91.82a3.1,3.1,0,0,0-1.3-.6c-4.9-1.4-11.1,5.2-14,14.8s-1.2,18.6,3.7,20c3.1.9,6.8-2.2,8.7-4.4a27.55,27.55,0,0,0,5.2-10.4,29.39,29.39,0,0,0,1.1-12.5c.9,3.9,1,9.5-.2,17.4a5.56,5.56,0,0,0,5.5,6.4h26.2c3.9,0,6.7-2.8,5.9-6.6l-.1-2.9m-4-52.5-8.5-2.2c-38.6-9.3-51.5,6.2-55.5,12.7l-3.9,6.9c-2,2.4-5.3,4.6-10.9,4.5-7.3.5-11,4.6-12.8,9.1a21.88,21.88,0,0,0-1.1,3.9l-.1.1a26.79,26.79,0,0,0-.5,7.1c1.8-1.6,3.5-3,5-4.2a32.23,32.23,0,0,0-3.6,7.7c-1.7,5.3-3.9,17.3,3.1,20,3.4,1.3,7.2-1.2,9.5-3.5a27.85,27.85,0,0,0,6.3-11.3c2.1-6.8,1.9-13.2-.3-16.9m45.2,8.4c1.2,4.2,1.9,8.1,2.5,9.7v0h8.4l.4-1c1-1.9,5.1-3,5.1-3h9.7s2.7,1.7,1.9,3.2l-.3,1.8h5.7l2.1-5.1,1.5-4.2a50.94,50.94,0,0,0,2.5-10.4l2-15.7a16.16,16.16,0,0,0-3.3-12.1,14.06,14.06,0,0,0-10.7-5.4h-.1l-7.1-.1a13.89,13.89,0,0,0-11.4,5.6M81.85,100c-3.2-.3-7.1,3.5-8.8,8.9-1.5,4.7-.9,9.2,1.1,11.2m48.1-21.7c-3.4-.4-7.3,3.9-9.1,9.9-1.5,5.2-1,10.2,1.2,12.4m48.3-44.2L161,89.62a6.05,6.05,0,0,1-6,5.4h-.2a5.88,5.88,0,0,1-4.6-2.1,6.46,6.46,0,0,1-1.6-5l1.7-13.1a6.05,6.05,0,0,1,6-5.4,6.29,6.29,0,0,1,4.8,2.1A6.21,6.21,0,0,1,162.65,76.52Z" style="fill:none;stroke:#232f3e;stroke-linejoin:round;stroke-width:2px"/><path d="M159.75,124.92l-1.5,1.2h4.3c5.7,0,8.9-2.5,10.4-6,2.2-5.3.2-13.1-2.3-18.6" style="fill:none;stroke:#232f3e;stroke-linejoin:round;stroke-width:2px"/><path d="M127.45,85.72s-10.7-16.5-26.5,10.5" style="fill:none;stroke:#232f3e;stroke-linejoin:round;stroke-width:2px"/><line x1="84.55" y1="118.52" x2="101.55" y2="118.52" style="fill:none;stroke:#232f3e;stroke-linejoin:round;stroke-width:2px"/><circle cx="154.55" cy="81.52" r="4" style="fill:none;stroke:#232f3e;stroke-linejoin:round;stroke-width:2px"/><line x1="177.55" y1="66.62" x2="216.55" y2="66.62" style="fill:none;stroke:#813194;stroke-linejoin:round;stroke-width:2.5511999130249023px"/><path d="M159,47.42a13.94,13.94,0,0,0-3.1,4.5" style="fill:none;stroke:#813194;stroke-linejoin:round;stroke-width:2.5511999130249023px"/><path d="M162.05,45a11.8,11.8,0,0,0-1.8,1.3" style="fill:none;stroke:#813194;stroke-linejoin:round;stroke-width:2.5511999130249023px"/><path d="M183.75,51.52a15.55,15.55,0,0,0-13.9-8.7,16,16,0,0,0-6.2,1.3" style="fill:none;stroke:#813194;stroke-linejoin:round;stroke-width:2.5511999130249023px"/><path d="M242.55,42.52c2-15-13-23-21.1-21.6a24.62,24.62,0,0,1-2.6.2,17.34,17.34,0,0,0-14.4-7.9,17.09,17.09,0,0,0-17.1,17.1v.1c-4.8-.9-10.8,3.1-10.8,10.1" style="fill:none;stroke:#813194;stroke-linejoin:round;stroke-width:2.5511999130249023px"/><path d="M48.65,28.12l-4.2,12.4H30.75L41.85,49l-4.2,13,11-8.1,11,8.1-4.2-13,11.1-7.5H52.85Z" style="fill:#813194;stroke:#813194;stroke-miterlimit:10;fill-rule:evenodd"/><polygon points="72.25 28.72 73.65 31.92 74.35 28.52 77.85 28.12 74.85 26.42 75.55 23.02 72.95 25.32 69.95 23.62 71.35 26.82 68.75 29.12 72.25 28.72" style="fill:#813194;stroke:#813194;stroke-miterlimit:10;fill-rule:evenodd"/><polygon points="83.35 43.92 85.55 41.22 88.75 42.42 86.85 39.52 89.05 36.82 85.75 37.72 83.85 34.82 83.65 38.32 80.25 39.22 83.55 40.42 83.35 43.92" style="fill:#813194;stroke:#813194;stroke-miterlimit:10;fill-rule:evenodd"/><polygon points="89.75 55.22 86.25 55.42 85.05 52.12 84.15 55.52 80.65 55.62 83.55 57.52 82.65 60.92 85.35 58.72 88.25 60.62 87.05 57.42 89.75 55.22" style="fill:#813194;stroke:#813194;stroke-miterlimit:10;fill-rule:evenodd"/><polygon points="74.85 64.12 72.75 66.92 69.45 65.72 71.45 68.62 69.25 71.42 72.65 70.42 74.65 73.22 74.65 69.72 78.05 68.82 74.75 67.62 74.85 64.12" style="fill:#813194;stroke:#813194;stroke-miterlimit:10;fill-rule:evenodd"/><path d="M100.35,54.72c.1-1.2.2-2.5.2-3.7a37.5,37.5,0,1,0-37.5,37.5" style="fill:none;stroke:#813194;stroke-linejoin:round;stroke-width:2.5511999130249023px"/><line x1="335.6" y1="101.52" x2="335.6" y2="89.52" style="fill:none;stroke:#232f3e;stroke-linejoin:round;stroke-width:2px"/><line x1="218.6" y1="89.52" x2="218.6" y2="101.52" style="fill:none;stroke:#232f3e;stroke-linejoin:round;stroke-width:2px"/><line x1="321.6" y1="69.52" x2="321.6" y2="61.52" style="fill:none;stroke:#232f3e;stroke-linejoin:round;stroke-width:2px"/><line x1="233.6" y1="61.52" x2="233.6" y2="69.52" style="fill:none;stroke:#232f3e;stroke-linejoin:round;stroke-width:2px"/><path d="M247,101.12c0-4.2-3.8-8.4-10.2-8.4-6.1,0-10.2,3.3-10.2,8.4" style="fill:none;stroke:#813194;stroke-linejoin:round;stroke-width:2.5511999130249023px"/><path d="M274.2,101.12c0-4.2-3.8-8.4-10.2-8.4-6.1,0-10.2,3.3-10.2,8.4" style="fill:none;stroke:#813194;stroke-linejoin:round;stroke-width:2.5511999130249023px"/><path d="M344.6,152.52h-133v-43.4a4.59,4.59,0,0,1,4.6-4.6H340a4.59,4.59,0,0,1,4.6,4.6v43.4Z" style="fill:none;stroke:#232f3e;stroke-linejoin:round;stroke-width:2px"/><path d="M236.1,126.52H222.2a2.58,2.58,0,0,1-2.6-2.6V114a2.58,2.58,0,0,1,2.6-2.6h13.9a2.58,2.58,0,0,1,2.6,2.6v9.9A2.65,2.65,0,0,1,236.1,126.52Z" style="fill:none;stroke:#813194;stroke-linejoin:round;stroke-width:2.5511999130249023px"/><path d="M262.1,126.52H248.2a2.58,2.58,0,0,1-2.6-2.6V114a2.58,2.58,0,0,1,2.6-2.6h13.9a2.58,2.58,0,0,1,2.6,2.6v9.9A2.65,2.65,0,0,1,262.1,126.52Z" style="fill:none;stroke:#813194;stroke-linejoin:round;stroke-width:2.5511999130249023px"/><path d="M307.1,126.52H293.2a2.58,2.58,0,0,1-2.6-2.6V114a2.58,2.58,0,0,1,2.6-2.6h13.9a2.58,2.58,0,0,1,2.6,2.6v9.9A2.65,2.65,0,0,1,307.1,126.52Z" style="fill:none;stroke:#813194;stroke-linejoin:round;stroke-width:2.5511999130249023px"/><path d="M333.1,126.52H319.2a2.58,2.58,0,0,1-2.6-2.6V114a2.58,2.58,0,0,1,2.6-2.6h13.9a2.58,2.58,0,0,1,2.6,2.6v9.9A2.65,2.65,0,0,1,333.1,126.52Z" style="fill:none;stroke:#813194;stroke-linejoin:round;stroke-width:2.5511999130249023px"/><polyline points="284.6 151.52 284.6 133.52 270.6 133.52 270.6 151.52" style="fill:none;stroke:#232f3e;stroke-linejoin:round;stroke-width:2px"/><path d="M287.6,72.52h49.5a2.15,2.15,0,0,1,2.1,1.9c.7,3.6,3.6,6.9,7.8,8.8l8.7,3.3H199.4l6.3-2.6c4.7-1.9,7.8-5.3,8.6-9.2.2-1.1,1-2.3,2.1-2.3h47.2" style="fill:none;stroke:#232f3e;stroke-linejoin:round;stroke-width:2px"/><circle cx="275.6" cy="72.52" r="7" style="fill:none;stroke:#813194;stroke-linejoin:round;stroke-width:2.5511999130249023px"/><path d="M325.6,46.52c1.7,0,1.3.3,1.4.8.4,3.4,3.1,6.6,7.5,8.4l6.6,2.8H214.2l5.9-2.2c4.7-1.8,7.8-5.1,8.2-8.7,0-.5.9-1.1,1.4-1.1Z" style="fill:none;stroke:#232f3e;stroke-linejoin:round;stroke-width:2px"/><path d="M299.7,101.12c0-4.2-3.8-8.4-10.2-8.4-6.1,0-10.2,3.3-10.2,8.4" style="fill:none;stroke:#813194;stroke-linejoin:round;stroke-width:2.5511999130249023px"/><path d="M326.9,101.12c0-4.2-3.8-8.4-10.2-8.4-6.1,0-10.2,3.3-10.2,8.4" style="fill:none;stroke:#813194;stroke-linejoin:round;stroke-width:2.5511999130249023px"/></svg>