<svg xmlns="http://www.w3.org/2000/svg" width="528" height="380" viewBox="0 0 528 380">
  <g fill="none" fill-rule="evenodd" transform="translate(26.7 27.204)">
    <path stroke="#84E29C" stroke-width="52.53" d="M254.299534,139.295767 C265.799534,142.295767 307.299534,145.795767 320.799534,145.295767 C334.299534,144.795767 383.299534,149.295767 379.299534,118.295767 C375.299534,87.2957673 355.09417,53.2372012 356.299534,34.2957673 C357.504898,15.3543333 366.799534,3.79576728 381.799534,0.295767282 C396.799534,-3.20423272 440.299534,25.2957673 446.299534,36.2957673 C452.299534,47.2957673 456.643512,91.7271668 461.799534,121.295767 C467.96168,156.634261 476.477323,195.001255 474.299534,207.795767 C470.299534,231.295767 462.299534,239.295767 453.799534,243.795767 C445.299534,248.295767 426.299534,251.295767 396.799534,250.795767 C367.299534,250.295767 360.799534,217.795767 339.799534,214.295767 C318.799534,210.795767 308.299534,212.295767 296.799534,225.795767 C285.299534,239.295767 286.299534,262.295767 252.299534,259.795767 C218.299534,257.295767 220.299534,239.795767 196.799534,223.795767 C173.299534,207.795767 161.299534,203.295767 141.299534,196.795767 C121.299534,190.295767 108.299534,209.795767 109.299534,238.295767 C110.299534,266.795767 122.275395,282.355225 119.799534,297.295767 C117.323672,312.23631 112.904824,322.507093 96.2995335,325.295767 C79.694243,328.084442 52.2995335,302.795767 45.7995335,299.795767 C39.2995335,296.795767 27.2995335,262.295767 17.7995335,256.795767 C8.29953353,251.295767 -8.20046647,230.295767 4.79953353,200.795767 C17.7995335,171.295767 30.2995335,149.295767 38.2995335,131.795767 C46.2995335,114.295767 49.6678651,107.795767 67.7995335,107.795767 C85.9312019,107.795767 94.7995335,129.795767 115.799534,128.795767 C136.799534,127.795767 144.799534,89.7957673 165.799534,90.7957673 C186.799534,91.7957673 242.799534,136.295767 254.299534,139.295767 Z" stroke-linejoin="round"/>
    <path stroke="#FFFFFF" stroke-width="46" d="M254.299534,139.295767 C265.799534,142.295767 307.299534,145.795767 320.799534,145.295767 C334.299534,144.795767 383.299534,149.295767 379.299534,118.295767 C375.299534,87.2957673 355.09417,53.2372012 356.299534,34.2957673 C357.504898,15.3543333 366.799534,3.79576728 381.799534,0.295767282 C396.799534,-3.20423272 440.299534,25.2957673 446.299534,36.2957673 C452.299534,47.2957673 456.643512,91.7271668 461.799534,121.295767 C467.96168,156.634261 476.477323,195.001255 474.299534,207.795767 C470.299534,231.295767 462.299534,239.295767 453.799534,243.795767 C445.299534,248.295767 426.299534,251.295767 396.799534,250.795767 C367.299534,250.295767 360.799534,217.795767 339.799534,214.295767 C318.799534,210.795767 308.299534,212.295767 296.799534,225.795767 C285.299534,239.295767 286.299534,262.295767 252.299534,259.795767 C218.299534,257.295767 220.299534,239.795767 196.799534,223.795767 C173.299534,207.795767 161.299534,203.295767 141.299534,196.795767 C121.299534,190.295767 108.299534,209.795767 109.299534,238.295767 C110.299534,266.795767 122.275395,282.355225 119.799534,297.295767 C117.323672,312.23631 112.904824,322.507093 96.2995335,325.295767 C79.694243,328.084442 52.2995335,302.795767 45.7995335,299.795767 C39.2995335,296.795767 27.2995335,262.295767 17.7995335,256.795767 C8.29953353,251.295767 -8.20046647,230.295767 4.79953353,200.795767 C17.7995335,171.295767 30.2995335,149.295767 38.2995335,131.795767 C46.2995335,114.295767 49.6678651,107.795767 67.7995335,107.795767 C85.9312019,107.795767 94.7995335,129.795767 115.799534,128.795767 C136.799534,127.795767 144.799534,89.7957673 165.799534,90.7957673 C186.799534,91.7957673 242.799534,136.295767 254.299534,139.295767 Z" stroke-linejoin="round"/>
    <path stroke="#313D46" stroke-width="42.23" d="M254.299534,139.295767 C265.799534,142.295767 307.299534,145.795767 320.799534,145.295767 C334.299534,144.795767 383.299534,149.295767 379.299534,118.295767 C375.299534,87.2957673 355.09417,53.2372012 356.299534,34.2957673 C357.504898,15.3543333 366.799534,3.79576728 381.799534,0.295767282 C396.799534,-3.20423272 440.299534,25.2957673 446.299534,36.2957673 C452.299534,47.2957673 456.643512,91.7271668 461.799534,121.295767 C467.96168,156.634261 476.477323,195.001255 474.299534,207.795767 C470.299534,231.295767 462.299534,239.295767 453.799534,243.795767 C445.299534,248.295767 426.299534,251.295767 396.799534,250.795767 C367.299534,250.295767 360.799534,217.795767 339.799534,214.295767 C318.799534,210.795767 308.299534,212.295767 296.799534,225.795767 C285.299534,239.295767 286.299534,262.295767 252.299534,259.795767 C218.299534,257.295767 220.299534,239.795767 196.799534,223.795767 C173.299534,207.795767 161.299534,203.295767 141.299534,196.795767 C121.299534,190.295767 108.299534,209.795767 109.299534,238.295767 C110.299534,266.795767 122.275395,282.355225 119.799534,297.295767 C117.323672,312.23631 112.904824,322.507093 96.2995335,325.295767 C79.694243,328.084442 52.2995335,302.795767 45.7995335,299.795767 C39.2995335,296.795767 27.2995335,262.295767 17.7995335,256.795767 C8.29953353,251.295767 -8.20046647,230.295767 4.79953353,200.795767 C17.7995335,171.295767 30.2995335,149.295767 38.2995335,131.795767 C46.2995335,114.295767 49.6678651,107.795767 67.7995335,107.795767 C85.9312019,107.795767 94.7995335,129.795767 115.799534,128.795767 C136.799534,127.795767 144.799534,89.7957673 165.799534,90.7957673 C186.799534,91.7957673 242.799534,136.295767 254.299534,139.295767 Z" stroke-linejoin="round"/>
    <path stroke="#FF9900" stroke-width="2.317" d="M254.299534,139.295767 C265.799534,142.295767 307.299534,145.795767 320.799534,145.295767 C334.299534,144.795767 383.299534,149.295767 379.299534,118.295767 C375.299534,87.2957673 355.09417,53.2372012 356.299534,34.2957673 C357.504898,15.3543333 366.799534,3.79576728 381.799534,0.295767282 C396.799534,-3.20423272 440.299534,25.2957673 446.299534,36.2957673 C452.299534,47.2957673 456.643512,91.7271668 461.799534,121.295767 C467.96168,156.634261 476.477323,195.001255 474.299534,207.795767 C470.299534,231.295767 462.299534,239.295767 453.799534,243.795767 C445.299534,248.295767 426.299534,251.295767 396.799534,250.795767 C367.299534,250.295767 360.799534,217.795767 339.799534,214.295767 C318.799534,210.795767 308.299534,212.295767 296.799534,225.795767 C285.299534,239.295767 286.299534,262.295767 252.299534,259.795767 C218.299534,257.295767 220.299534,239.795767 196.799534,223.795767 C173.299534,207.795767 161.299534,203.295767 141.299534,196.795767 C121.299534,190.295767 108.299534,209.795767 109.299534,238.295767 C110.299534,266.795767 122.275395,282.355225 119.799534,297.295767 C117.323672,312.23631 112.904824,322.507093 96.2995335,325.295767 C79.694243,328.084442 52.2995335,302.795767 45.7995335,299.795767 C39.2995335,296.795767 27.2995335,262.295767 17.7995335,256.795767 C8.29953353,251.295767 -8.20046647,230.295767 4.79953353,200.795767 C17.7995335,171.295767 30.2995335,149.295767 38.2995335,131.795767 C46.2995335,114.295767 49.6678651,107.795767 67.7995335,107.795767 C85.9312019,107.795767 94.7995335,129.795767 115.799534,128.795767 C136.799534,127.795767 144.799534,89.7957673 165.799534,90.7957673 C186.799534,91.7957673 242.799534,136.295767 254.299534,139.295767 Z" stroke-dasharray="9 6"/>
  </g>
</svg>
