<svg xmlns="http://www.w3.org/2000/svg" width="553" height="402" viewBox="0 0 553 402">
  <g fill="none" fill-rule="evenodd" transform="translate(27.072 27)">
    <path stroke="#84E29C" stroke-width="52.53" d="M71.6843841,347.869697 C70.0583926,347.869697 67.8046928,347.79792 65.0216004,347.707254 C62.238508,347.616588 58.9222417,347.507033 55.190024,347.435256 C51.4578064,347.363479 47.2491354,347.325701 42.7417358,347.37859 C38.2343362,347.431478 33.3677059,347.57881 28.274193,347.869697 C21.6719113,348.270139 16.6729329,347.714809 12.8839946,346.653262 C9.09505633,345.591714 6.51993959,344.031503 4.76916272,342.418403 C3.38248819,341.16771 2.29997281,339.617204 1.6041514,337.885103 C1.32846457,337.208004 1.14776997,336.496089 1.06719607,335.769563 C1.06719607,335.769563 0.915941053,332.479142 0.730653652,326.702962 C0.545366251,320.926781 0.314702344,312.725285 0.167228698,302.84269 C0.0197550522,292.960095 -0.059653834,281.437956 0.053787432,269.084712 C0.167228698,256.731468 0.465957365,243.550897 1.06719607,230.358992 C1.66843478,217.167088 4.22086327,203.842962 7.98333192,190.99861 C11.7112194,178.450665 16.4561541,166.226989 22.1710529,154.448875 C27.1796001,144.048788 32.8769129,133.994026 39.2250566,124.351537 C44.8971198,115.794932 50.28558,108.915649 54.6795383,104.32946 C59.0734967,99.7432706 63.0779734,95.9352981 66.6022154,92.8224318 C70.1264574,89.7095654 73.1780274,87.2918051 75.6775167,85.4444852 C78.1770059,83.5971652 80.131977,82.3240633 81.4592399,81.5118469 C82.7865027,80.6996306 83.4898385,80.3520776 83.4898385,80.3520776 C85.194786,79.8374433 86.9316311,79.4348815 88.6892299,79.1469752 C92.7807177,78.428792 96.9457491,78.2219457 101.08836,78.5312019 C105.886926,78.9089769 111.086317,80.1518568 115.884883,82.9776141 C120.683448,85.8033714 125.081188,90.2195617 128.280232,96.9552908 C136.224724,113.323029 149.096718,126.796935 165.091922,135.488345 C165.091922,135.488345 167.360748,136.436561 170.843395,137.498108 C175.155461,138.827596 179.588688,139.727311 184.078209,140.184089 C189.077187,140.633641 194.329518,140.357866 198.825574,138.521879 C203.321629,136.685892 207.080316,133.289694 209.076883,127.494625 C211.073449,121.699556 212.858258,117.555364 214.446436,114.58983 C216.034614,111.624296 217.361876,109.848753 218.458475,108.790983 C219.555074,107.733213 220.39454,107.408326 220.965527,107.340327 C221.261627,107.283494 221.568268,107.32878 221.835244,107.46877 C222.880788,107.873435 223.961929,108.179507 225.064538,108.382986 C227.962018,108.927633 230.922648,109.05485 233.856236,108.760761 C238.377105,108.296622 242.783976,107.05698 246.883075,105.096343 C251.798863,102.829693 257.160854,99.2597185 262.802666,93.8613131 C268.444478,88.4629078 274.101416,85.6182617 279.41803,84.3791595 C284.217152,83.2865168 289.207859,83.352564 293.976326,84.5718248 C297.602828,85.4852409 301.079326,86.913946 304.299481,88.8142386 C305.675024,89.5918453 306.987403,90.4760313 308.224549,91.4586639 C309.000991,92.9319865 309.84802,94.3637539 310.765633,95.7539661 C313.007015,99.1911224 315.537056,102.431526 318.328384,105.440118 C322.012259,109.432433 326.232062,112.895558 330.867426,115.73071 C336.184409,118.967882 342.126246,121.045725 348.303348,121.828 C354.31531,122.564085 360.415,121.685153 365.973716,119.281796 C371.116387,117.094478 375.487657,113.875835 379.034587,110.555192 C382.03931,107.726412 384.751603,104.60286 387.130512,101.231704 C388.135908,99.8350012 389.062525,98.3833486 389.906042,96.8835135 C389.906042,96.8835135 390.556438,94.3486429 391.705977,90.0420074 C392.855515,85.7353719 394.504195,79.6607492 396.500761,72.5888004 C398.497327,65.5168516 400.849343,57.4437989 403.401771,49.1403034 C405.9542,40.836808 408.695697,32.3066475 411.501478,24.3167053 C414.307258,16.3267631 418.553743,10.6299154 423.722883,6.76905448 C428.892024,2.90819353 434.991382,0.887097047 441.495348,0.237323971 C447.999314,-0.412449105 454.88898,0.309101229 461.665205,1.94864492 C468.393743,3.60664656 474.914623,6.01430946 481.105257,9.12637076 C487.113863,12.1259046 491.167497,16.7272046 493.871181,21.9480558 C496.574864,27.1689069 497.921034,33.0055313 498.518491,38.4643807 C499.013134,43.2056484 499.059978,47.9829053 498.658402,52.7329441 C498.355892,56.4540283 497.902127,58.8075668 497.902127,58.8075668 C497.902127,58.8075668 496.900063,63.4050891 495.145504,70.7754802 C493.390946,78.1458713 490.887675,88.2853535 487.885263,99.3768288 C484.882851,110.468304 481.373735,122.507995 477.62261,133.671247 C473.871486,144.8345 469.874572,155.109981 465.873876,162.707037 C463.983189,166.273234 461.899651,169.884763 459.657295,173.458515 C457.414939,177.032267 455.032673,180.609797 452.582341,184.100438 C450.13201,187.591079 447.621177,191.006166 445.121687,194.300364 C442.622198,197.594562 440.134053,200.72254 437.736661,203.699407 C425.967978,218.111757 408.423429,226.588679 389.807726,226.857017 L333.968154,227.714567 L278.128581,228.575894 L222.289009,229.437221 L166.449436,230.287215 C159.854717,230.385436 154.55701,231.080542 150.318088,232.074091 C146.920277,232.821543 143.637011,234.01697 140.554577,235.628954 C138.787442,236.556998 137.164665,237.736647 135.737104,239.130929 C135.245581,239.601055 134.812636,240.128717 134.447655,240.702473 C134.447655,240.702473 133.422902,243.569785 131.585154,248.522416 C129.747405,253.475047 127.104224,260.516774 123.859804,268.873158 C120.615383,277.229542 116.773506,286.893027 112.549709,297.092954 C108.325913,307.29288 103.723979,318.033024 98.9367576,328.527615 C98.5124802,329.574334 98.0211443,330.592658 97.4658025,331.57626 C96.1558462,333.979614 94.5805346,336.228806 92.7693341,338.281767 C90.3835939,340.991818 87.5235408,343.244895 84.3293039,344.930607 C80.4224709,346.939913 76.0777863,347.949759 71.6843841,347.869697 Z" stroke-linejoin="round"/>
    <path stroke="#FFFFFF" stroke-width="48.41" d="M71.6843841,347.869697 C70.0583926,347.869697 67.8046928,347.79792 65.0216004,347.707254 C62.238508,347.616588 58.9222417,347.507033 55.190024,347.435256 C51.4578064,347.363479 47.2491354,347.325701 42.7417358,347.37859 C38.2343362,347.431478 33.3677059,347.57881 28.274193,347.869697 C21.6719113,348.270139 16.6729329,347.714809 12.8839946,346.653262 C9.09505633,345.591714 6.51993959,344.031503 4.76916272,342.418403 C3.38248819,341.16771 2.29997281,339.617204 1.6041514,337.885103 C1.32846457,337.208004 1.14776997,336.496089 1.06719607,335.769563 C1.06719607,335.769563 0.915941053,332.479142 0.730653652,326.702962 C0.545366251,320.926781 0.314702344,312.725285 0.167228698,302.84269 C0.0197550522,292.960095 -0.059653834,281.437956 0.053787432,269.084712 C0.167228698,256.731468 0.465957365,243.550897 1.06719607,230.358992 C1.66843478,217.167088 4.22086327,203.842962 7.98333192,190.99861 C11.7112194,178.450665 16.4561541,166.226989 22.1710529,154.448875 C27.1796001,144.048788 32.8769129,133.994026 39.2250566,124.351537 C44.8971198,115.794932 50.28558,108.915649 54.6795383,104.32946 C59.0734967,99.7432706 63.0779734,95.9352981 66.6022154,92.8224318 C70.1264574,89.7095654 73.1780274,87.2918051 75.6775167,85.4444852 C78.1770059,83.5971652 80.131977,82.3240633 81.4592399,81.5118469 C82.7865027,80.6996306 83.4898385,80.3520776 83.4898385,80.3520776 C85.194786,79.8374433 86.9316311,79.4348815 88.6892299,79.1469752 C92.7807177,78.428792 96.9457491,78.2219457 101.08836,78.5312019 C105.886926,78.9089769 111.086317,80.1518568 115.884883,82.9776141 C120.683448,85.8033714 125.081188,90.2195617 128.280232,96.9552908 C136.224724,113.323029 149.096718,126.796935 165.091922,135.488345 C165.091922,135.488345 167.360748,136.436561 170.843395,137.498108 C175.155461,138.827596 179.588688,139.727311 184.078209,140.184089 C189.077187,140.633641 194.329518,140.357866 198.825574,138.521879 C203.321629,136.685892 207.080316,133.289694 209.076883,127.494625 C211.073449,121.699556 212.858258,117.555364 214.446436,114.58983 C216.034614,111.624296 217.361876,109.848753 218.458475,108.790983 C219.555074,107.733213 220.39454,107.408326 220.965527,107.340327 C221.261627,107.283494 221.568268,107.32878 221.835244,107.46877 C222.880788,107.873435 223.961929,108.179507 225.064538,108.382986 C227.962018,108.927633 230.922648,109.05485 233.856236,108.760761 C238.377105,108.296622 242.783976,107.05698 246.883075,105.096343 C251.798863,102.829693 257.160854,99.2597185 262.802666,93.8613131 C268.444478,88.4629078 274.101416,85.6182617 279.41803,84.3791595 C284.217152,83.2865168 289.207859,83.352564 293.976326,84.5718248 C297.602828,85.4852409 301.079326,86.913946 304.299481,88.8142386 C305.675024,89.5918453 306.987403,90.4760313 308.224549,91.4586639 C309.000991,92.9319865 309.84802,94.3637539 310.765633,95.7539661 C313.007015,99.1911224 315.537056,102.431526 318.328384,105.440118 C322.012259,109.432433 326.232062,112.895558 330.867426,115.73071 C336.184409,118.967882 342.126246,121.045725 348.303348,121.828 C354.31531,122.564085 360.415,121.685153 365.973716,119.281796 C371.116387,117.094478 375.487657,113.875835 379.034587,110.555192 C382.03931,107.726412 384.751603,104.60286 387.130512,101.231704 C388.135908,99.8350012 389.062525,98.3833486 389.906042,96.8835135 C389.906042,96.8835135 390.556438,94.3486429 391.705977,90.0420074 C392.855515,85.7353719 394.504195,79.6607492 396.500761,72.5888004 C398.497327,65.5168516 400.849343,57.4437989 403.401771,49.1403034 C405.9542,40.836808 408.695697,32.3066475 411.501478,24.3167053 C414.307258,16.3267631 418.553743,10.6299154 423.722883,6.76905448 C428.892024,2.90819353 434.991382,0.887097047 441.495348,0.237323971 C447.999314,-0.412449105 454.88898,0.309101229 461.665205,1.94864492 C468.393743,3.60664656 474.914623,6.01430946 481.105257,9.12637076 C487.113863,12.1259046 491.167497,16.7272046 493.871181,21.9480558 C496.574864,27.1689069 497.921034,33.0055313 498.518491,38.4643807 C499.013134,43.2056484 499.059978,47.9829053 498.658402,52.7329441 C498.355892,56.4540283 497.902127,58.8075668 497.902127,58.8075668 C497.902127,58.8075668 496.900063,63.4050891 495.145504,70.7754802 C493.390946,78.1458713 490.887675,88.2853535 487.885263,99.3768288 C484.882851,110.468304 481.373735,122.507995 477.62261,133.671247 C473.871486,144.8345 469.874572,155.109981 465.873876,162.707037 C463.983189,166.273234 461.899651,169.884763 459.657295,173.458515 C457.414939,177.032267 455.032673,180.609797 452.582341,184.100438 C450.13201,187.591079 447.621177,191.006166 445.121687,194.300364 C442.622198,197.594562 440.134053,200.72254 437.736661,203.699407 C425.967978,218.111757 408.423429,226.588679 389.807726,226.857017 L333.968154,227.714567 L278.128581,228.575894 L222.289009,229.437221 L166.449436,230.287215 C159.854717,230.385436 154.55701,231.080542 150.318088,232.074091 C146.920277,232.821543 143.637011,234.01697 140.554577,235.628954 C138.787442,236.556998 137.164665,237.736647 135.737104,239.130929 C135.245581,239.601055 134.812636,240.128717 134.447655,240.702473 C134.447655,240.702473 133.422902,243.569785 131.585154,248.522416 C129.747405,253.475047 127.104224,260.516774 123.859804,268.873158 C120.615383,277.229542 116.773506,286.893027 112.549709,297.092954 C108.325913,307.29288 103.723979,318.033024 98.9367576,328.527615 C98.5124802,329.574334 98.0211443,330.592658 97.4658025,331.57626 C96.1558462,333.979614 94.5805346,336.228806 92.7693341,338.281767 C90.3835939,340.991818 87.5235408,343.244895 84.3293039,344.930607 C80.4224709,346.939913 76.0777863,347.949759 71.6843841,347.869697 Z" stroke-linejoin="round"/>
    <path stroke="#313D46" stroke-width="42.23" d="M71.6843841,347.869697 C70.0583926,347.869697 67.8046928,347.79792 65.0216004,347.707254 C62.238508,347.616588 58.9222417,347.507033 55.190024,347.435256 C51.4578064,347.363479 47.2491354,347.325701 42.7417358,347.37859 C38.2343362,347.431478 33.3677059,347.57881 28.274193,347.869697 C21.6719113,348.270139 16.6729329,347.714809 12.8839946,346.653262 C9.09505633,345.591714 6.51993959,344.031503 4.76916272,342.418403 C3.38248819,341.16771 2.29997281,339.617204 1.6041514,337.885103 C1.32846457,337.208004 1.14776997,336.496089 1.06719607,335.769563 C1.06719607,335.769563 0.915941053,332.479142 0.730653652,326.702962 C0.545366251,320.926781 0.314702344,312.725285 0.167228698,302.84269 C0.0197550522,292.960095 -0.059653834,281.437956 0.053787432,269.084712 C0.167228698,256.731468 0.465957365,243.550897 1.06719607,230.358992 C1.66843478,217.167088 4.22086327,203.842962 7.98333192,190.99861 C11.7112194,178.450665 16.4561541,166.226989 22.1710529,154.448875 C27.1796001,144.048788 32.8769129,133.994026 39.2250566,124.351537 C44.8971198,115.794932 50.28558,108.915649 54.6795383,104.32946 C59.0734967,99.7432706 63.0779734,95.9352981 66.6022154,92.8224318 C70.1264574,89.7095654 73.1780274,87.2918051 75.6775167,85.4444852 C78.1770059,83.5971652 80.131977,82.3240633 81.4592399,81.5118469 C82.7865027,80.6996306 83.4898385,80.3520776 83.4898385,80.3520776 C85.194786,79.8374433 86.9316311,79.4348815 88.6892299,79.1469752 C92.7807177,78.428792 96.9457491,78.2219457 101.08836,78.5312019 C105.886926,78.9089769 111.086317,80.1518568 115.884883,82.9776141 C120.683448,85.8033714 125.081188,90.2195617 128.280232,96.9552908 C136.224724,113.323029 149.096718,126.796935 165.091922,135.488345 C165.091922,135.488345 167.360748,136.436561 170.843395,137.498108 C175.155461,138.827596 179.588688,139.727311 184.078209,140.184089 C189.077187,140.633641 194.329518,140.357866 198.825574,138.521879 C203.321629,136.685892 207.080316,133.289694 209.076883,127.494625 C211.073449,121.699556 212.858258,117.555364 214.446436,114.58983 C216.034614,111.624296 217.361876,109.848753 218.458475,108.790983 C219.555074,107.733213 220.39454,107.408326 220.965527,107.340327 C221.261627,107.283494 221.568268,107.32878 221.835244,107.46877 C222.880788,107.873435 223.961929,108.179507 225.064538,108.382986 C227.962018,108.927633 230.922648,109.05485 233.856236,108.760761 C238.377105,108.296622 242.783976,107.05698 246.883075,105.096343 C251.798863,102.829693 257.160854,99.2597185 262.802666,93.8613131 C268.444478,88.4629078 274.101416,85.6182617 279.41803,84.3791595 C284.217152,83.2865168 289.207859,83.352564 293.976326,84.5718248 C297.602828,85.4852409 301.079326,86.913946 304.299481,88.8142386 C305.675024,89.5918453 306.987403,90.4760313 308.224549,91.4586639 C309.000991,92.9319865 309.84802,94.3637539 310.765633,95.7539661 C313.007015,99.1911224 315.537056,102.431526 318.328384,105.440118 C322.012259,109.432433 326.232062,112.895558 330.867426,115.73071 C336.184409,118.967882 342.126246,121.045725 348.303348,121.828 C354.31531,122.564085 360.415,121.685153 365.973716,119.281796 C371.116387,117.094478 375.487657,113.875835 379.034587,110.555192 C382.03931,107.726412 384.751603,104.60286 387.130512,101.231704 C388.135908,99.8350012 389.062525,98.3833486 389.906042,96.8835135 C389.906042,96.8835135 390.556438,94.3486429 391.705977,90.0420074 C392.855515,85.7353719 394.504195,79.6607492 396.500761,72.5888004 C398.497327,65.5168516 400.849343,57.4437989 403.401771,49.1403034 C405.9542,40.836808 408.695697,32.3066475 411.501478,24.3167053 C414.307258,16.3267631 418.553743,10.6299154 423.722883,6.76905448 C428.892024,2.90819353 434.991382,0.887097047 441.495348,0.237323971 C447.999314,-0.412449105 454.88898,0.309101229 461.665205,1.94864492 C468.393743,3.60664656 474.914623,6.01430946 481.105257,9.12637076 C487.113863,12.1259046 491.167497,16.7272046 493.871181,21.9480558 C496.574864,27.1689069 497.921034,33.0055313 498.518491,38.4643807 C499.013134,43.2056484 499.059978,47.9829053 498.658402,52.7329441 C498.355892,56.4540283 497.902127,58.8075668 497.902127,58.8075668 C497.902127,58.8075668 496.900063,63.4050891 495.145504,70.7754802 C493.390946,78.1458713 490.887675,88.2853535 487.885263,99.3768288 C484.882851,110.468304 481.373735,122.507995 477.62261,133.671247 C473.871486,144.8345 469.874572,155.109981 465.873876,162.707037 C463.983189,166.273234 461.899651,169.884763 459.657295,173.458515 C457.414939,177.032267 455.032673,180.609797 452.582341,184.100438 C450.13201,187.591079 447.621177,191.006166 445.121687,194.300364 C442.622198,197.594562 440.134053,200.72254 437.736661,203.699407 C425.967978,218.111757 408.423429,226.588679 389.807726,226.857017 L333.968154,227.714567 L278.128581,228.575894 L222.289009,229.437221 L166.449436,230.287215 C159.854717,230.385436 154.55701,231.080542 150.318088,232.074091 C146.920277,232.821543 143.637011,234.01697 140.554577,235.628954 C138.787442,236.556998 137.164665,237.736647 135.737104,239.130929 C135.245581,239.601055 134.812636,240.128717 134.447655,240.702473 C134.447655,240.702473 133.422902,243.569785 131.585154,248.522416 C129.747405,253.475047 127.104224,260.516774 123.859804,268.873158 C120.615383,277.229542 116.773506,286.893027 112.549709,297.092954 C108.325913,307.29288 103.723979,318.033024 98.9367576,328.527615 C98.5124802,329.574334 98.0211443,330.592658 97.4658025,331.57626 C96.1558462,333.979614 94.5805346,336.228806 92.7693341,338.281767 C90.3835939,340.991818 87.5235408,343.244895 84.3293039,344.930607 C80.4224709,346.939913 76.0777863,347.949759 71.6843841,347.869697 Z" stroke-linejoin="round"/>
    <path stroke="#FF9900" stroke-width="2.317" d="M71.6843841,347.869697 C70.0583926,347.869697 67.8046928,347.79792 65.0216004,347.707254 C62.238508,347.616588 58.9222417,347.507033 55.190024,347.435256 C51.4578064,347.363479 47.2491354,347.325701 42.7417358,347.37859 C38.2343362,347.431478 33.3677059,347.57881 28.274193,347.869697 C21.6719113,348.270139 16.6729329,347.714809 12.8839946,346.653262 C9.09505633,345.591714 6.51993959,344.031503 4.76916272,342.418403 C3.38248819,341.16771 2.29997281,339.617204 1.6041514,337.885103 C1.32846457,337.208004 1.14776997,336.496089 1.06719607,335.769563 C1.06719607,335.769563 0.915941053,332.479142 0.730653652,326.702962 C0.545366251,320.926781 0.314702344,312.725285 0.167228698,302.84269 C0.0197550522,292.960095 -0.059653834,281.437956 0.053787432,269.084712 C0.167228698,256.731468 0.465957365,243.550897 1.06719607,230.358992 C1.66843478,217.167088 4.22086327,203.842962 7.98333192,190.99861 C11.7112194,178.450665 16.4561541,166.226989 22.1710529,154.448875 C27.1796001,144.048788 32.8769129,133.994026 39.2250566,124.351537 C44.8971198,115.794932 50.28558,108.915649 54.6795383,104.32946 C59.0734967,99.7432706 63.0779734,95.9352981 66.6022154,92.8224318 C70.1264574,89.7095654 73.1780274,87.2918051 75.6775167,85.4444852 C78.1770059,83.5971652 80.131977,82.3240633 81.4592399,81.5118469 C82.7865027,80.6996306 83.4898385,80.3520776 83.4898385,80.3520776 C85.194786,79.8374433 86.9316311,79.4348815 88.6892299,79.1469752 C92.7807177,78.428792 96.9457491,78.2219457 101.08836,78.5312019 C105.886926,78.9089769 111.086317,80.1518568 115.884883,82.9776141 C120.683448,85.8033714 125.081188,90.2195617 128.280232,96.9552908 C136.224724,113.323029 149.096718,126.796935 165.091922,135.488345 C165.091922,135.488345 167.360748,136.436561 170.843395,137.498108 C175.155461,138.827596 179.588688,139.727311 184.078209,140.184089 C189.077187,140.633641 194.329518,140.357866 198.825574,138.521879 C203.321629,136.685892 207.080316,133.289694 209.076883,127.494625 C211.073449,121.699556 212.858258,117.555364 214.446436,114.58983 C216.034614,111.624296 217.361876,109.848753 218.458475,108.790983 C219.555074,107.733213 220.39454,107.408326 220.965527,107.340327 C221.261627,107.283494 221.568268,107.32878 221.835244,107.46877 C222.880788,107.873435 223.961929,108.179507 225.064538,108.382986 C227.962018,108.927633 230.922648,109.05485 233.856236,108.760761 C238.377105,108.296622 242.783976,107.05698 246.883075,105.096343 C251.798863,102.829693 257.160854,99.2597185 262.802666,93.8613131 C268.444478,88.4629078 274.101416,85.6182617 279.41803,84.3791595 C284.217152,83.2865168 289.207859,83.352564 293.976326,84.5718248 C297.602828,85.4852409 301.079326,86.913946 304.299481,88.8142386 C305.675024,89.5918453 306.987403,90.4760313 308.224549,91.4586639 C309.000991,92.9319865 309.84802,94.3637539 310.765633,95.7539661 C313.007015,99.1911224 315.537056,102.431526 318.328384,105.440118 C322.012259,109.432433 326.232062,112.895558 330.867426,115.73071 C336.184409,118.967882 342.126246,121.045725 348.303348,121.828 C354.31531,122.564085 360.415,121.685153 365.973716,119.281796 C371.116387,117.094478 375.487657,113.875835 379.034587,110.555192 C382.03931,107.726412 384.751603,104.60286 387.130512,101.231704 C388.135908,99.8350012 389.062525,98.3833486 389.906042,96.8835135 C389.906042,96.8835135 390.556438,94.3486429 391.705977,90.0420074 C392.855515,85.7353719 394.504195,79.6607492 396.500761,72.5888004 C398.497327,65.5168516 400.849343,57.4437989 403.401771,49.1403034 C405.9542,40.836808 408.695697,32.3066475 411.501478,24.3167053 C414.307258,16.3267631 418.553743,10.6299154 423.722883,6.76905448 C428.892024,2.90819353 434.991382,0.887097047 441.495348,0.237323971 C447.999314,-0.412449105 454.88898,0.309101229 461.665205,1.94864492 C468.393743,3.60664656 474.914623,6.01430946 481.105257,9.12637076 C487.113863,12.1259046 491.167497,16.7272046 493.871181,21.9480558 C496.574864,27.1689069 497.921034,33.0055313 498.518491,38.4643807 C499.013134,43.2056484 499.059978,47.9829053 498.658402,52.7329441 C498.355892,56.4540283 497.902127,58.8075668 497.902127,58.8075668 C497.902127,58.8075668 496.900063,63.4050891 495.145504,70.7754802 C493.390946,78.1458713 490.887675,88.2853535 487.885263,99.3768288 C484.882851,110.468304 481.373735,122.507995 477.62261,133.671247 C473.871486,144.8345 469.874572,155.109981 465.873876,162.707037 C463.983189,166.273234 461.899651,169.884763 459.657295,173.458515 C457.414939,177.032267 455.032673,180.609797 452.582341,184.100438 C450.13201,187.591079 447.621177,191.006166 445.121687,194.300364 C442.622198,197.594562 440.134053,200.72254 437.736661,203.699407 C425.967978,218.111757 408.423429,226.588679 389.807726,226.857017 L333.968154,227.714567 L278.128581,228.575894 L222.289009,229.437221 L166.449436,230.287215 C159.854717,230.385436 154.55701,231.080542 150.318088,232.074091 C146.920277,232.821543 143.637011,234.01697 140.554577,235.628954 C138.787442,236.556998 137.164665,237.736647 135.737104,239.130929 C135.245581,239.601055 134.812636,240.128717 134.447655,240.702473 C134.447655,240.702473 133.422902,243.569785 131.585154,248.522416 C129.747405,253.475047 127.104224,260.516774 123.859804,268.873158 C120.615383,277.229542 116.773506,286.893027 112.549709,297.092954 C108.325913,307.29288 103.723979,318.033024 98.9367576,328.527615 C98.5124802,329.574334 98.0211443,330.592658 97.4658025,331.57626 C96.1558462,333.979614 94.5805346,336.228806 92.7693341,338.281767 C90.3835939,340.991818 87.5235408,343.244895 84.3293039,344.930607 C80.4224709,346.939913 76.0777863,347.949759 71.6843841,347.869697 Z" stroke-dasharray="9.27 6.18"/>
  </g>
</svg>
