<?xml version="1.0" encoding="UTF-8"?><svg id="a" xmlns="http://www.w3.org/2000/svg" viewBox="0 0 648 482"><defs><style>.b{stroke:#f90;stroke-dasharray:0 0 9.98 6.98;stroke-width:2px;}.b,.c,.d,.e{fill:none;stroke-miterlimit:10;}.c{stroke:#84e29c;stroke-width:48px;}.d{stroke:#313d46;stroke-width:36px;}.e{stroke:#fff;stroke-width:44px;}</style></defs><path class="c" d="M486.54,93.11c-26.11-1.27-52.21-2.77-78.3-4.26-20.3-.13-42.25-5.85-61.31,3.27-32.27,17.35-40.53,63.25-23.36,93.96,11.94,22.78,35.58,38.3,61.55,39.61,8.23,.31,17.87-.51,26.11,1.8,30.8,7.95-2.79,56.14-20.18,63.77-33.36,18.79-74.07,6.38-110.06,1.66-37.62-6.8-68.55-22.13-58.75-65.81,2.02-23.2,7.6-44.14,12.37-67.09,1.91-13.59,3.72-27.11-1.14-39.89-8.37-20.2-23.09-40.77-46.01-44.87-30.3-6.24-63.34,8.41-79.27,34.87-9.26,14.39-11.22,31.87-15.3,48.19-6.97,30.28-13.89,60.57-20.89,90.83-5.6,25.15-17.22,56.23,3.84,77.23,17.36,16.96,43.59,17.75,66,24.83,44.07,11.4,88.82,22.23,132.66,34.02,41.34,13.33,83.38,24.64,127.26,22.93,10.44-.04,21-.35,31.37-.9,10.56-.71,21.21,.28,30.32-5.69,20.12-11.91,29.27-34.82,39.51-54.3,11.23-21.37,22.96-42.09,34.11-63.3,7.96-15.11,15.48-30.23,22.13-45.96,6.57-11.64,14.69-28.59,19.09-43.64,11.79-36.14,7.04-65.17-13.7-82.53-2.03-1.7-10.05-7.42-19.58-10.83-7.16-2.56-19.52-4.61-33-6-10.14-1.05-22.35-1.74-25.46-1.89Z"/><path class="e" d="M486.54,93.11c-26.11-1.27-52.21-2.77-78.3-4.26-20.3-.13-42.25-5.85-61.31,3.27-32.27,17.35-40.53,63.25-23.36,93.96,11.94,22.78,35.58,38.3,61.55,39.61,8.23,.31,17.87-.51,26.11,1.8,30.8,7.95-2.79,56.14-20.18,63.77-33.36,18.79-74.07,6.38-110.06,1.66-37.62-6.8-68.55-22.13-58.75-65.81,2.02-23.2,7.6-44.14,12.37-67.09,1.91-13.59,3.72-27.11-1.14-39.89-8.37-20.2-23.09-40.77-46.01-44.87-30.3-6.24-63.34,8.41-79.27,34.87-9.26,14.39-11.22,31.87-15.3,48.19-6.97,30.28-13.89,60.57-20.89,90.83-5.6,25.15-17.22,56.23,3.84,77.23,17.36,16.96,43.59,17.75,66,24.83,44.07,11.4,88.82,22.23,132.66,34.02,41.34,13.33,83.38,24.64,127.26,22.93,10.44-.04,21-.35,31.37-.9,10.56-.71,21.21,.28,30.32-5.69,20.12-11.91,29.27-34.82,39.51-54.3,11.23-21.37,22.96-42.09,34.11-63.3,7.96-15.11,15.48-30.23,22.13-45.96,6.57-11.64,14.69-28.59,19.09-43.64,11.79-36.14,7.04-65.17-13.7-82.53-2.03-1.7-10.05-7.42-19.58-10.83-7.16-2.56-19.52-4.61-33-6-10.14-1.05-22.35-1.74-25.46-1.89Z"/><path class="d" d="M486.54,93.11c-26.11-1.27-52.21-2.77-78.3-4.26-20.3-.13-42.25-5.85-61.31,3.27-32.27,17.35-40.53,63.25-23.36,93.96,11.94,22.78,35.58,38.3,61.55,39.61,8.23,.31,17.87-.51,26.11,1.8,30.8,7.95-2.79,56.14-20.18,63.77-33.36,18.79-74.07,6.38-110.06,1.66-37.62-6.8-68.55-22.13-58.75-65.81,2.02-23.2,7.6-44.14,12.37-67.09,1.91-13.59,3.72-27.11-1.14-39.89-8.37-20.2-23.09-40.77-46.01-44.87-30.3-6.24-63.34,8.41-79.27,34.87-9.26,14.39-11.22,31.87-15.3,48.19-6.97,30.28-13.89,60.57-20.89,90.83-5.6,25.15-17.22,56.23,3.84,77.23,17.36,16.96,43.59,17.75,66,24.83,44.07,11.4,88.82,22.23,132.66,34.02,41.34,13.33,83.38,24.64,127.26,22.93,10.44-.04,21-.35,31.37-.9,10.56-.71,21.21,.28,30.32-5.69,20.12-11.91,29.27-34.82,39.51-54.3,11.23-21.37,22.96-42.09,34.11-63.3,7.96-15.11,15.48-30.23,22.13-45.96,6.57-11.64,14.69-28.59,19.09-43.64,11.79-36.14,7.04-65.17-13.7-82.53-2.03-1.7-10.05-7.42-19.58-10.83-7.16-2.56-19.52-4.61-33-6-10.14-1.05-22.35-1.74-25.46-1.89Z"/><path class="b" d="M486.54,93.11c-26.11-1.27-52.21-2.77-78.3-4.26-20.3-.13-42.25-5.85-61.31,3.27-32.27,17.35-40.53,63.25-23.36,93.96,11.94,22.78,35.58,38.3,61.55,39.61,8.23,.31,17.87-.51,26.11,1.8,30.8,7.95-2.79,56.14-20.18,63.77-33.36,18.79-74.07,6.38-110.06,1.66-37.62-6.8-68.55-22.13-58.75-65.81,2.02-23.2,7.6-44.14,12.37-67.09,1.91-13.59,3.72-27.11-1.14-39.89-8.37-20.2-23.09-40.77-46.01-44.87-30.3-6.24-63.34,8.41-79.27,34.87-9.26,14.39-11.22,31.87-15.3,48.19-6.97,30.28-13.89,60.57-20.89,90.83-5.6,25.15-17.22,56.23,3.84,77.23,17.36,16.96,43.59,17.75,66,24.83,44.07,11.4,88.82,22.23,132.66,34.02,41.34,13.33,83.38,24.64,127.26,22.93,10.44-.04,21-.35,31.37-.9,10.56-.71,21.21,.28,30.32-5.69,20.12-11.91,29.27-34.82,39.51-54.3,19.09-36.45,40.18-71.42,56.24-109.26,6.57-11.64,14.69-28.59,19.09-43.64,14.12-45.11,5.31-78.53-33.28-93.36-10.12-4.3-47.22-7.63-58.46-7.89h0Z"/></svg>