<svg xmlns="http://www.w3.org/2000/svg" width="575" height="241" viewBox="0 0 575 241">
  <g fill="none" fill-rule="evenodd" transform="translate(27 27)">
    <path stroke="#84E29C" stroke-width="52.53" d="M216.446093,185.403428 C234.522963,185.403428 455.698783,186.465174 485.472451,186.996047 C515.24612,187.52692 538.639716,134.439622 503.017649,115.328195 C467.395582,96.216768 403.594864,76.0435949 385.517994,69.1422462 C367.441124,62.2408974 325.970658,41.0059783 317.463896,59.0556596 C308.957133,77.1053408 304.703752,98.3402599 288.2219,100.994625 C271.740048,103.64899 251.004815,103.118117 237.712999,99.9328789 C224.421183,96.747641 205.25151,44.3628857 197.305878,34.6355026 C189.360246,24.9081195 174.443954,20.8328052 157.962102,18.7093133 C141.48025,16.5858214 134.036833,53.2160568 121.27669,61.1791515 C108.516546,69.1422462 97.8830932,68.0805002 88.3129856,55.8704217 C78.742878,43.6603432 75.0211695,23.4871701 73.4261515,9.15359968 C71.8311336,-5.17997071 25.0439408,-1.99473285 11.7521247,13.9314565 C-1.53969143,29.8576458 -3.13470936,35.1663756 4.84038031,56.4012947 C12.81547,77.6362138 13.367688,78.3350862 31.4240126,107.365101 C43.4615623,126.718443 61.8928806,144.945082 86.7179677,162.045017 C98.0603174,169.123324 107.630425,169.300281 115.42829,162.57589 C127.125089,152.489304 135.631851,132.31613 157.430429,138.686606 C179.229008,145.057082 195.95686,150.4573 197.83755,157.798033 C199.718241,165.138767 198.369223,185.403428 216.446093,185.403428 Z" stroke-linejoin="round"/>
    <path stroke="#FFFFFF" stroke-width="48.41" d="M216.446093,185.403428 C234.522963,185.403428 455.698783,186.465174 485.472451,186.996047 C515.24612,187.52692 538.639716,134.439622 503.017649,115.328195 C467.395582,96.216768 403.594864,76.0435949 385.517994,69.1422462 C367.441124,62.2408974 325.970658,41.0059783 317.463896,59.0556596 C308.957133,77.1053408 304.703752,98.3402599 288.2219,100.994625 C271.740048,103.64899 251.004815,103.118117 237.712999,99.9328789 C224.421183,96.747641 205.25151,44.3628857 197.305878,34.6355026 C189.360246,24.9081195 174.443954,20.8328052 157.962102,18.7093133 C141.48025,16.5858214 134.036833,53.2160568 121.27669,61.1791515 C108.516546,69.1422462 97.8830932,68.0805002 88.3129856,55.8704217 C78.742878,43.6603432 75.0211695,23.4871701 73.4261515,9.15359968 C71.8311336,-5.17997071 25.0439408,-1.99473285 11.7521247,13.9314565 C-1.53969143,29.8576458 -3.13470936,35.1663756 4.84038031,56.4012947 C12.81547,77.6362138 13.367688,78.3350862 31.4240126,107.365101 C43.4615623,126.718443 61.8928806,144.945082 86.7179677,162.045017 C98.0603174,169.123324 107.630425,169.300281 115.42829,162.57589 C127.125089,152.489304 135.631851,132.31613 157.430429,138.686606 C179.229008,145.057082 195.95686,150.4573 197.83755,157.798033 C199.718241,165.138767 198.369223,185.403428 216.446093,185.403428 Z" stroke-linejoin="round"/>
    <path stroke="#313D46" stroke-width="42.23" d="M216.446093,185.403428 C234.522963,185.403428 455.698783,186.465174 485.472451,186.996047 C515.24612,187.52692 538.639716,134.439622 503.017649,115.328195 C467.395582,96.216768 403.594864,76.0435949 385.517994,69.1422462 C367.441124,62.2408974 325.970658,41.0059783 317.463896,59.0556596 C308.957133,77.1053408 304.703752,98.3402599 288.2219,100.994625 C271.740048,103.64899 251.004815,103.118117 237.712999,99.9328789 C224.421183,96.747641 205.25151,44.3628857 197.305878,34.6355026 C189.360246,24.9081195 174.443954,20.8328052 157.962102,18.7093133 C141.48025,16.5858214 134.036833,53.2160568 121.27669,61.1791515 C108.516546,69.1422462 97.8830932,68.0805002 88.3129856,55.8704217 C78.742878,43.6603432 75.0211695,23.4871701 73.4261515,9.15359968 C71.8311336,-5.17997071 25.0439408,-1.99473285 11.7521247,13.9314565 C-1.53969143,29.8576458 -3.13470936,35.1663756 4.84038031,56.4012947 C12.81547,77.6362138 13.367688,78.3350862 31.4240126,107.365101 C43.4615623,126.718443 61.8928806,144.945082 86.7179677,162.045017 C98.0603174,169.123324 107.630425,169.300281 115.42829,162.57589 C127.125089,152.489304 135.631851,132.31613 157.430429,138.686606 C179.229008,145.057082 195.95686,150.4573 197.83755,157.798033 C199.718241,165.138767 198.369223,185.403428 216.446093,185.403428 Z" stroke-linejoin="round"/>
    <path stroke="#FF9900" stroke-width="2.317" d="M216.446093,185.403428 C234.522963,185.403428 455.698783,186.465174 485.472451,186.996047 C515.24612,187.52692 538.639716,134.439622 503.017649,115.328195 C467.395582,96.216768 403.594864,76.0435949 385.517994,69.1422462 C367.441124,62.2408974 325.970658,41.0059783 317.463896,59.0556596 C308.957133,77.1053408 304.703752,98.3402599 288.2219,100.994625 C271.740048,103.64899 251.004815,103.118117 237.712999,99.9328789 C224.421183,96.747641 205.25151,44.3628857 197.305878,34.6355026 C189.360246,24.9081195 174.443954,20.8328052 157.962102,18.7093133 C141.48025,16.5858214 134.036833,53.2160568 121.27669,61.1791515 C108.516546,69.1422462 97.8830932,68.0805002 88.3129856,55.8704217 C78.742878,43.6603432 75.0211695,23.4871701 73.4261515,9.15359968 C71.8311336,-5.17997071 25.0439408,-1.99473285 11.7521247,13.9314565 C-1.53969143,29.8576458 -3.13470936,35.1663756 4.84038031,56.4012947 C12.81547,77.6362138 13.367688,78.3350862 31.4240126,107.365101 C43.4615623,126.718443 61.8928806,144.945082 86.7179677,162.045017 C98.0603174,169.123324 107.630425,169.300281 115.42829,162.57589 C127.125089,152.489304 135.631851,132.31613 157.430429,138.686606 C179.229008,145.057082 195.95686,150.4573 197.83755,157.798033 C199.718241,165.138767 198.369223,185.403428 216.446093,185.403428 Z" stroke-dasharray="9 6"/>
  </g>
</svg>
