<svg id="Layer_1" data-name="Layer 1" xmlns="http://www.w3.org/2000/svg" viewBox="0 0 648 482"><defs><style>.cls-1,.cls-2,.cls-3,.cls-4{fill:none;stroke-miterlimit:10;}.cls-1{stroke:#84e29c;stroke-width:48px;}.cls-2{stroke:#fff;stroke-width:44px;}.cls-3{stroke:#313d46;stroke-width:36px;}.cls-4{stroke:#f90;stroke-width:2px;stroke-dasharray:10 7;}</style></defs><path class="cls-1" d="M143.28,139a31.88,31.88,0,0,0,1.78,8.93,22.23,22.23,0,0,0,6.16,9.14c13.08,11.67,38.26,8.05,46,24.2,5,10.4,1.47,20.65-5,32.22-6.92,12.42-17.22,26.35-24.09,43.61-6.49,16.35-15.89,41.66-21,67.38-5.61,28.4-6,57.31,8.62,75.25,40,49.16,66.65,3.74,74.13-14.56C242,355.5,210.53,300.71,262.23,270.4a30,30,0,0,1,4.95-2.35,25.89,25.89,0,0,1,14.42-1c13.46,2.84,25.14,15.32,32,25.57,12.81,19.24,10.81,40.88-4.54,84.6-20.69,58.92,48.86,47.41,60.37,29.06,9.18-14.55,31.81-34.6,61.82-5.48,14.16,13.76,12.56,25.77,52.1,21.19,8.1-.94,13.59-3.74,17.12-7.78,7-8,6.27-20.87,2.85-33.82-2.63-10-6.87-20.06-10.4-28-20-44.75-26.91-25-53.55-41.5a87.87,87.87,0,0,1-9.21-6.61A172.17,172.17,0,0,1,410,284.56l-34.77-39.34C338.8,204,329.76,193.9,326.68,190.53c-5.6-6.13,8.53,10.12-86.64-97.56-8.43-9.53-16.11-18.06-25.4-24.09a54.59,54.59,0,0,0-22.06-8.41c-33.76-5.16-47.22,2.47-49.89,35.94-.74,9.38-.64,20.78.1,34.5Q143,134.83,143.28,139Z"/><path class="cls-2" d="M143.28,139a31.88,31.88,0,0,0,1.78,8.93,22.23,22.23,0,0,0,6.16,9.14c13.08,11.67,38.26,8.05,46,24.2,5,10.4,1.47,20.65-5,32.22-6.92,12.42-17.22,26.35-24.09,43.61-6.49,16.35-15.89,41.66-21,67.38-5.61,28.4-6,57.31,8.62,75.25,40,49.16,66.65,3.74,74.13-14.56C242,355.5,210.53,300.71,262.23,270.4a30,30,0,0,1,4.95-2.35,25.89,25.89,0,0,1,14.42-1c13.46,2.84,25.14,15.32,32,25.57,12.81,19.24,10.81,40.88-4.54,84.6-20.69,58.92,48.86,47.41,60.37,29.06,9.18-14.55,31.81-34.6,61.82-5.48,14.16,13.76,12.56,25.77,52.1,21.19,8.1-.94,13.59-3.74,17.12-7.78,7-8,6.27-20.87,2.85-33.82-2.63-10-6.87-20.06-10.4-28-20-44.75-26.91-25-53.55-41.5a87.87,87.87,0,0,1-9.21-6.61A172.17,172.17,0,0,1,410,284.56l-34.77-39.34C338.8,204,329.76,193.9,326.68,190.53c-5.6-6.13,8.53,10.12-86.64-97.56-8.43-9.53-16.11-18.06-25.4-24.09a54.59,54.59,0,0,0-22.06-8.41c-33.76-5.16-47.22,2.47-49.89,35.94-.74,9.38-.64,20.78.1,34.5Q143,134.83,143.28,139Z"/><path class="cls-3" d="M143.28,139a31.88,31.88,0,0,0,1.78,8.93,22.23,22.23,0,0,0,6.16,9.14c13.08,11.67,38.26,8.05,46,24.2,5,10.4,1.47,20.65-5,32.22-6.92,12.42-17.22,26.35-24.09,43.61-6.49,16.35-15.89,41.66-21,67.38-5.61,28.4-6,57.31,8.62,75.25,40,49.16,66.65,3.74,74.13-14.56C242,355.5,210.53,300.71,262.23,270.4a30,30,0,0,1,4.95-2.35,25.89,25.89,0,0,1,14.42-1c13.46,2.84,25.14,15.32,32,25.57,12.81,19.24,10.81,40.88-4.54,84.6-20.69,58.92,48.86,47.41,60.37,29.06,9.18-14.55,31.81-34.6,61.82-5.48,14.16,13.76,12.56,25.77,52.1,21.19,8.1-.94,13.59-3.74,17.12-7.78,7-8,6.27-20.87,2.85-33.82-2.63-10-6.87-20.06-10.4-28-20-44.75-26.91-25-53.55-41.5a87.87,87.87,0,0,1-9.21-6.61A172.17,172.17,0,0,1,410,284.56l-34.77-39.34C338.8,204,329.76,193.9,326.68,190.53c-5.6-6.13,8.53,10.12-86.64-97.56-8.43-9.53-16.11-18.06-25.4-24.09a54.59,54.59,0,0,0-22.06-8.41c-33.76-5.16-47.22,2.47-49.89,35.94-.74,9.38-.64,20.78.1,34.5Q143,134.83,143.28,139Z"/><path class="cls-4" d="M143.28,139c2.05,34.11,42.59,20.35,53.94,42.27,5,10.4,1.47,20.65-5,32.22-6.92,12.42-17.22,26.35-24.09,43.61-6.49,16.35-15.89,41.66-21,67.38-5.61,28.4-6,57.31,8.62,75.25,40,49.16,66.65,3.74,74.13-14.56,11.41-29.57-19.32-92,37.27-117.11,19-7,37.2,10.7,46.39,24.59,12.81,19.24,10.81,40.88-4.54,84.6-20.69,58.92,48.86,47.41,60.37,29.06,9.18-14.55,31.81-34.6,61.82-5.48,14.16,13.76,12.56,25.77,52.1,21.19,22.94-2.36,25.61-21.14,20-41.6-2.63-10-6.87-20.06-10.4-28-20-44.75-26.91-25-53.55-41.5-11.2-7.22-18.33-14.21-29.36-26.4-21.12-23.91-83.19-94.11-83.31-94-5.6-6.13,8.53,10.12-86.64-97.56-8.43-9.53-16.11-18.06-25.4-24.09a54.59,54.59,0,0,0-22.06-8.41c-33.76-5.16-47.22,2.47-49.89,35.94-1,10.78-.39,28.22.59,42.58Z"/></svg>