<?xml version="1.0" encoding="UTF-8"?>
<svg width="648px" height="481px" viewBox="0 0 648 481" version="1.1" xmlns="http://www.w3.org/2000/svg" xmlns:xlink="http://www.w3.org/1999/xlink">
    <title>img_console_environment_training_oct_open</title>
    <g id="Training-tracks" stroke="none" stroke-width="1" fill="none" fill-rule="evenodd">
        <g id="Track-creation-Copy" transform="translate(-8443.000000, -6011.000000)">
            <g id="OCT_OPEN" transform="translate(4236.000000, 2704.000000)">
                <g id="img_console_environment_training_oct_open" transform="translate(4207.000000, 3307.000000)">
                    <g id="Group-42" transform="translate(64.000000, 84.000000)">
                        <path d="M243.155193,-20.7567192 C243.046059,-27.7023221 243.725921,-34.6370716 245.219976,-41.420559 C252.374691,-73.6407832 280.033184,-140.642203 383.44842,-75.6095301 C424.03982,-49.9998139 414.356146,15.2729503 414.356146,15.2729503 L392.924015,269.289323 C392.145276,277.955492 392.086385,286.671308 392.747948,295.347209 C393.900385,309.288498 388.234235,383.492651 359.023153,405.917159 C327.427165,430.182365 298.872332,405.452983 268.204697,386.229689 C261.402116,381.972074 165.093577,309.320511 136.954901,282.190217 C119.220173,265.079726 113.81012,263.687197 106.975527,240.030222 C106.057846,236.893032 105.246871,233.65447 104.542604,230.314536 C99.228588,205.104972 134.345911,188.058504 148.799395,188.81079 C161.828338,189.499051 218.233738,191.739901 221.274892,174.405324 C224.892264,153.853527 194.176611,122.897783 181.931965,106.011376 C172.952559,93.6386818 161.268126,87.94052 151.008233,70.4138705 C128.519701,31.9992962 173.416735,24.4924481 189.422807,24.4924481 C189.422807,24.4924481 243.866176,24.4924481 243.155193,-20.7567192 Z" id="Path" stroke="#84E29C" stroke-width="49" transform="translate(259.683252, 156.500000) rotate(90.000000) translate(-259.683252, -156.500000) "></path>
                        <path d="M243.155193,-20.7567192 C243.046059,-27.7023221 243.725921,-34.6370716 245.219976,-41.420559 C252.374691,-73.6407832 280.033184,-140.642203 383.44842,-75.6095301 C424.03982,-49.9998139 414.356146,15.2729503 414.356146,15.2729503 L392.924015,269.289323 C392.145276,277.955492 392.086385,286.671308 392.747948,295.347209 C393.900385,309.288498 388.234235,383.492651 359.023153,405.917159 C327.427165,430.182365 298.872332,405.452983 268.204697,386.229689 C261.402116,381.972074 165.093577,309.320511 136.954901,282.190217 C119.220173,265.079726 113.81012,263.687197 106.975527,240.030222 C106.057846,236.893032 105.246871,233.65447 104.542604,230.314536 C99.228588,205.104972 134.345911,188.058504 148.799395,188.81079 C161.828338,189.499051 218.233738,191.739901 221.274892,174.405324 C224.892264,153.853527 194.176611,122.897783 181.931965,106.011376 C172.952559,93.6386818 161.268126,87.94052 151.008233,70.4138705 C128.519701,31.9992962 173.416735,24.4924481 189.422807,24.4924481 C189.422807,24.4924481 243.866176,24.4924481 243.155193,-20.7567192 Z" id="Path" stroke="#FFFFFF" stroke-width="45" transform="translate(259.683252, 156.500000) rotate(90.000000) translate(-259.683252, -156.500000) "></path>
                        <path d="M243.155193,-20.7567192 C243.046059,-27.7023221 243.725921,-34.6370716 245.219976,-41.420559 C252.374691,-73.6407832 280.033184,-140.642203 383.44842,-75.6095301 C424.03982,-49.9998139 414.356146,15.2729503 414.356146,15.2729503 L392.924015,269.289323 C392.145276,277.955492 392.086385,286.671308 392.747948,295.347209 C393.900385,309.288498 388.234235,383.492651 359.023153,405.917159 C327.427165,430.182365 298.872332,405.452983 268.204697,386.229689 C261.402116,381.972074 165.093577,309.320511 136.954901,282.190217 C119.220173,265.079726 113.81012,263.687197 106.975527,240.030222 C106.057846,236.893032 105.246871,233.65447 104.542604,230.314536 C99.228588,205.104972 134.345911,188.058504 148.799395,188.81079 C161.828338,189.499051 218.233738,191.739901 221.274892,174.405324 C224.892264,153.853527 194.176611,122.897783 181.931965,106.011376 C172.952559,93.6386818 161.268126,87.94052 151.008233,70.4138705 C128.519701,31.9992962 173.416735,24.4924481 189.422807,24.4924481 C189.422807,24.4924481 243.866176,24.4924481 243.155193,-20.7567192 Z" id="Path" stroke="#313D46" stroke-width="36" transform="translate(259.683252, 156.500000) rotate(90.000000) translate(-259.683252, -156.500000) "></path>
                        <path d="M243.155193,-20.7567192 C243.046059,-27.7023221 243.725921,-34.6370716 245.219976,-41.420559 C252.374691,-73.6407832 280.033184,-140.642203 383.44842,-75.6095301 C424.03982,-49.9998139 414.356146,15.2729503 414.356146,15.2729503 L392.924015,269.289323 C392.145276,277.955492 392.086385,286.671308 392.747948,295.347209 C393.900385,309.288498 388.234235,383.492651 359.023153,405.917159 C327.427165,430.182365 298.872332,405.452983 268.204697,386.229689 C261.402116,381.972074 165.093577,309.320511 136.954901,282.190217 C119.220173,265.079726 113.81012,263.687197 106.975527,240.030222 C106.057846,236.893032 105.246871,233.65447 104.542604,230.314536 C99.228588,205.104972 134.345911,188.058504 148.799395,188.81079 C161.828338,189.499051 218.233738,191.739901 221.274892,174.405324 C224.892264,153.853527 194.176611,122.897783 181.931965,106.011376 C172.952559,93.6386818 161.268126,87.94052 151.008233,70.4138705 C128.519701,31.9992962 173.416735,24.4924481 189.422807,24.4924481 C189.422807,24.4924481 243.866176,24.4924481 243.155193,-20.7567192 Z" id="Path" stroke="#FF9900" stroke-width="2.32" stroke-dasharray="9,6" transform="translate(259.683252, 156.500000) rotate(90.000000) translate(-259.683252, -156.500000) "></path>
                    </g>
                    <rect id="Rectangle-Copy" x="0" y="0" width="648" height="481.00207"></rect>
                </g>
            </g>
        </g>
    </g>
</svg>