<?xml version="1.0" encoding="UTF-8"?><svg id="a" xmlns="http://www.w3.org/2000/svg" viewBox="0 0 648 482"><defs><style>.b{stroke:#84e29c;stroke-width:48px;}.b,.c,.d,.e{fill:none;stroke-miterlimit:10;}.c{stroke:#313d46;stroke-width:36px;}.d{stroke:#f90;stroke-dasharray:0 0 9.99 6.99;stroke-width:2px;}.e{stroke:#fff;stroke-width:44px;}</style></defs><path class="b" d="M301.96,305.59c-21.04,20.14-39.15,43.44-46.1,46.47-28.79,14.1-68.96,31.77-101.27,25.55-28.34-6.53-70.23-18.48-83.35-46.82-6.62-17.13-7.4-35.91-8.24-54.09-.45-19.88-1.71-39.96-.9-59.92,1.23-28.36,3.61-62.21,27.14-80.36,16.09-12.41,37.59-16.17,57.87-16.34,35.68,.93,82.34,10.52,51.25,54.81-17.79,24.09-78.77,56.83-36.67,87.2,24.09,12.41,62.19-16.44,82.81-28.68,19.28-11.17,38.99-21.75,55.31-37.21,12.84-11.92,26-23.98,36.28-38.25,13.58-20.34,21.66-30.44,45.96-38.72,44.87-17.25,157.89-56.11,192.94-11.63,5.57,8.27,8.02,19.95,8.76,31.92,.75,11.97-.21,24.23-1.42,33.65-2.8,18.48-10.17,33.35-20.59,44.68-9.53,10.36-21.6,17.77-35.03,22.28-8.47,2.84-31.53,6.03-47.57,4.46-8.11-.8-21.82-6.95-30.87-8.09-10.29-1.29-30.8,17.68-40.43,22.79-.72,.38-13.6-.68-26.46,0-27.93,1.47-58.35,26.17-79.39,46.31Z"/><path class="e" d="M301.96,305.59c-21.04,20.14-39.15,43.44-46.1,46.47-28.79,14.1-68.96,31.77-101.27,25.55-28.34-6.53-70.23-18.48-83.35-46.82-6.62-17.13-7.4-35.91-8.24-54.09-.45-19.88-1.71-39.96-.9-59.92,1.23-28.36,3.61-62.21,27.14-80.36,16.09-12.41,37.59-16.17,57.87-16.34,35.68,.93,82.34,10.52,51.25,54.81-17.79,24.09-78.77,56.83-36.67,87.2,24.09,12.41,62.19-16.44,82.81-28.68,19.28-11.17,38.99-21.75,55.31-37.21,12.84-11.92,26-23.98,36.28-38.25,13.58-20.34,21.66-30.44,45.96-38.72,44.87-17.25,157.89-56.11,192.94-11.63,5.57,8.27,8.02,19.95,8.76,31.92,.75,11.97-.21,24.23-1.42,33.65-2.8,18.48-10.17,33.35-20.59,44.68-9.53,10.36-21.6,17.77-35.03,22.28-8.47,2.84-31.53,6.03-47.57,4.46-8.11-.8-21.82-6.95-30.87-8.09-10.29-1.29-30.8,17.68-40.43,22.79-.72,.38-13.6-.68-26.46,0-27.93,1.47-58.35,26.17-79.39,46.31Z"/><path class="c" d="M301.96,305.59c-21.04,20.14-39.15,43.44-46.1,46.47-28.79,14.1-68.96,31.77-101.27,25.55-28.34-6.53-70.23-18.48-83.35-46.82-6.62-17.13-7.4-35.91-8.24-54.09-.45-19.88-1.71-39.96-.9-59.92,1.23-28.36,3.61-62.21,27.14-80.36,16.09-12.41,37.59-16.17,57.87-16.34,35.68,.93,82.34,10.52,51.25,54.81-17.79,24.09-78.77,56.83-36.67,87.2,24.09,12.41,62.19-16.44,82.81-28.68,19.28-11.17,38.99-21.75,55.31-37.21,12.84-11.92,26-23.98,36.28-38.25,13.58-20.34,21.66-30.44,45.96-38.72,44.87-17.25,157.89-56.11,192.94-11.63,5.57,8.27,8.02,19.95,8.76,31.92,.75,11.97-.21,24.23-1.42,33.65-2.8,18.48-10.17,33.35-20.59,44.68-9.53,10.36-21.6,17.77-35.03,22.28-8.47,2.84-31.53,6.03-47.57,4.46-8.11-.8-21.82-6.95-30.87-8.09-10.29-1.29-30.8,17.68-40.43,22.79-.72,.38-13.6-.68-26.46,0-27.93,1.47-58.35,26.17-79.39,46.31Z"/><path class="d" d="M301.96,305.59c-21.04,20.14-39.15,43.44-46.1,46.47-28.79,14.1-68.96,31.77-101.27,25.55-28.34-6.53-70.23-18.48-83.35-46.82-6.62-17.13-7.4-35.91-8.24-54.09,0-41.67-9.68-111.95,26.24-140.29,16.09-12.41,37.59-16.17,57.87-16.34,35.68,.93,82.34,10.52,51.25,54.81-17.79,24.09-78.77,56.83-36.67,87.2,24.09,12.41,62.19-16.44,82.81-28.68,19.28-11.17,38.99-21.75,55.31-37.21,12.84-11.92,26-23.98,36.28-38.25,13.58-20.34,21.66-30.44,45.96-38.72,50.89-18.93,199.74-72.21,201.7,20.29,.75,11.97-.21,24.23-1.42,33.66-5.02,33.38-25.41,56.72-55.63,66.96-8.47,2.84-31.53,6.03-47.57,4.46-8.11-.8-21.82-6.95-30.87-8.09-10.29-1.29-30.8,17.68-40.43,22.79-.72,.38-13.6-.68-26.46,0-27.93,1.47-58.35,26.17-79.39,46.31h0Z"/></svg>