<svg xmlns="http://www.w3.org/2000/svg" width="325" height="415" viewBox="0 0 325 415">
  <g fill="none" fill-rule="evenodd" transform="rotate(-90 207.5 180.5)">
    <path stroke="#84E29C" stroke-width="52.53" d="M330.549988,149.877484 C330.549988,182.314446 349.822828,186.175989 334.019099,215.90987 C302.963986,252.271213 259.240481,285.803799 220.694802,264.179158 C207.524799,256.790611 204.505616,231.356042 210.672925,210.50371 C216.840234,189.651377 222.622086,177.29444 213.756579,162.234422 C204.891073,147.174404 193.825582,149.437558 177.909097,140.995935 C164.803566,134.045158 166.73085,119.371294 142.447072,112.806671 C129.683054,109.356179 97.9203547,113.243196 69.2102809,112.420517 C43.2989134,111.678033 20.6427246,107.014356 14.0899591,95.0435729 C0.728034624,70.6336191 -10.5792758,57.5866054 16.7881567,19.7434836 C33.1855575,-2.93050438 63.397627,-0.253033237 110.068701,1.20807702 C126.125921,1.71077315 151.276467,11.3713825 164.803566,13.1788604 C182.449659,15.5367143 186.00369,11.6342432 219.152974,3.13884854 C250.760432,-0.722694494 281.596975,-1.88115741 303.182556,4.68346576 C324.768136,11.2480889 316.673544,23.6050266 344.81189,47.1604392 C361.386532,60.2896855 363.313816,68.3989259 359.073791,90.0235669 C354.833766,111.648208 335.181639,126.226209 330.549988,149.877484 Z" stroke-linejoin="round"/>
    <path stroke="#FFFFFF" stroke-width="48.41" d="M330.549988,149.877484 C330.549988,182.314446 349.822828,186.175989 334.019099,215.90987 C302.963986,252.271213 259.240481,285.803799 220.694802,264.179158 C207.524799,256.790611 204.505616,231.356042 210.672925,210.50371 C216.840234,189.651377 222.622086,177.29444 213.756579,162.234422 C204.891073,147.174404 193.825582,149.437558 177.909097,140.995935 C164.803566,134.045158 166.73085,119.371294 142.447072,112.806671 C129.683054,109.356179 97.9203547,113.243196 69.2102809,112.420517 C43.2989134,111.678033 20.6427246,107.014356 14.0899591,95.0435729 C0.728034624,70.6336191 -10.5792758,57.5866054 16.7881567,19.7434836 C33.1855575,-2.93050438 63.397627,-0.253033237 110.068701,1.20807702 C126.125921,1.71077315 151.276467,11.3713825 164.803566,13.1788604 C182.449659,15.5367143 186.00369,11.6342432 219.152974,3.13884854 C250.760432,-0.722694494 281.596975,-1.88115741 303.182556,4.68346576 C324.768136,11.2480889 316.673544,23.6050266 344.81189,47.1604392 C361.386532,60.2896855 363.313816,68.3989259 359.073791,90.0235669 C354.833766,111.648208 335.181639,126.226209 330.549988,149.877484 Z" stroke-linejoin="round"/>
    <path stroke="#313D46" stroke-width="42.23" d="M330.549988,149.877484 C330.549988,182.314446 349.822828,186.175989 334.019099,215.90987 C302.963986,252.271213 259.240481,285.803799 220.694802,264.179158 C207.524799,256.790611 204.505616,231.356042 210.672925,210.50371 C216.840234,189.651377 222.622086,177.29444 213.756579,162.234422 C204.891073,147.174404 193.825582,149.437558 177.909097,140.995935 C164.803566,134.045158 166.73085,119.371294 142.447072,112.806671 C129.683054,109.356179 97.9203547,113.243196 69.2102809,112.420517 C43.2989134,111.678033 20.6427246,107.014356 14.0899591,95.0435729 C0.728034624,70.6336191 -10.5792758,57.5866054 16.7881567,19.7434836 C33.1855575,-2.93050438 63.397627,-0.253033237 110.068701,1.20807702 C126.125921,1.71077315 151.276467,11.3713825 164.803566,13.1788604 C182.449659,15.5367143 186.00369,11.6342432 219.152974,3.13884854 C250.760432,-0.722694494 281.596975,-1.88115741 303.182556,4.68346576 C324.768136,11.2480889 316.673544,23.6050266 344.81189,47.1604392 C361.386532,60.2896855 363.313816,68.3989259 359.073791,90.0235669 C354.833766,111.648208 335.181639,126.226209 330.549988,149.877484 Z" stroke-linejoin="round"/>
    <path stroke="#FF9900" stroke-width="2.317" d="M330.549988,149.877484 C330.549988,182.314446 349.822828,186.175989 334.019099,215.90987 C302.963986,252.271213 259.240481,285.803799 220.694802,264.179158 C207.524799,256.790611 204.505616,231.356042 210.672925,210.50371 C216.840234,189.651377 222.622086,177.29444 213.756579,162.234422 C204.891073,147.174404 193.825582,149.437558 177.909097,140.995935 C164.803566,134.045158 166.73085,119.371294 142.447072,112.806671 C129.683054,109.356179 97.9203547,113.243196 69.2102809,112.420517 C43.2989134,111.678033 20.6427246,107.014356 14.0899591,95.0435729 C0.728034624,70.6336191 -10.5792758,57.5866054 16.7881567,19.7434836 C33.1855575,-2.93050438 63.397627,-0.253033237 110.068701,1.20807702 C126.125921,1.71077315 151.276467,11.3713825 164.803566,13.1788604 C182.449659,15.5367143 186.00369,11.6342432 219.152974,3.13884854 C250.760432,-0.722694494 281.596975,-1.88115741 303.182556,4.68346576 C324.768136,11.2480889 316.673544,23.6050266 344.81189,47.1604392 C361.386532,60.2896855 363.313816,68.3989259 359.073791,90.0235669 C354.833766,111.648208 335.181639,126.226209 330.549988,149.877484 Z" stroke-dasharray="9.27 6.18"/>
  </g>
</svg>
