<svg xmlns="http://www.w3.org/2000/svg" width="579" height="259" viewBox="0 0 579 259">
  <g fill="none" fill-rule="evenodd" transform="translate(22 23)">
    <path stroke="#84E29C" stroke-width="45" d="M176.446347,0.230324373 C153.551949,-0.271778427 138.905061,0.198819048 121.934767,0.230324373 C108.655548,0.254977223 93.6276026,-0.293534779 74.2743691,0.230324373 C30.1885012,1.42365393 16.4861368,22.6052535 13.2094844,26.7819069 C9.93283207,30.9585604 -9.13132706,65.8634498 8.14556715,97.7850153 C25.4224614,129.706581 40.7933713,112.745095 60.5720048,136.866558 C80.3506383,160.988022 53.7208226,208.167999 116.87085,209.957993 C180.020877,211.747988 237.511232,211.449655 261.341431,211.449655 C285.17163,211.449655 462.706612,216.819638 491.600728,207.571334 C520.494844,198.32303 530.026923,177.439763 533.601453,141.938209 C537.175983,106.436655 515.728804,114.491629 508.281867,92.4150323 C500.83493,70.3384356 519.899089,60.7917992 508.877622,44.9801826 C497.856155,29.168566 481.770771,27.9752365 463.302366,18.1302677 C444.833962,8.28529885 418.918621,14.8486114 419.514376,40.8035292 C420.110131,66.7584469 454.068164,71.5317651 456.153307,99.873342 C458.238449,128.214919 432.918863,135.971561 416.535601,127.319922 C405.953665,121.731834 381.515269,95.3160364 362.619776,75.1117538 C352.260717,64.0351783 342.82901,55.116659 339.981087,51.8418275 C331.938395,42.5935235 318.236031,21.7102563 296.788852,20.5169268 C275.341673,19.3235972 262.235063,48.8585036 255.979636,58.1068077 C252.556758,63.1673442 243.996604,79.3920743 236.319722,98.6800125 C228.64284,117.967951 224.629264,133.827172 219.638583,140.446547 C208.617116,155.064834 187.765691,154.169837 164.23337,152.08151 C140.701049,149.993183 126.402929,125.529927 116.87085,111.508305 C107.33877,97.4866829 109.126035,81.3767339 125.807174,74.2167566 C142.488314,67.0567793 169.575772,80.9163188 192.829609,64.6701202 C216.083445,48.4239217 217.255563,1.12532154 176.446347,0.230324373 Z" stroke-linejoin="round"/>
    <path stroke="#FFFFFF" stroke-width="41" d="M176.446347,0.230324373 C153.551949,-0.271778427 138.905061,0.198819048 121.934767,0.230324373 C108.655548,0.254977223 93.6276026,-0.293534779 74.2743691,0.230324373 C30.1885012,1.42365393 16.4861368,22.6052535 13.2094844,26.7819069 C9.93283207,30.9585604 -9.13132706,65.8634498 8.14556715,97.7850153 C25.4224614,129.706581 40.7933713,112.745095 60.5720048,136.866558 C80.3506383,160.988022 53.7208226,208.167999 116.87085,209.957993 C180.020877,211.747988 237.511232,211.449655 261.341431,211.449655 C285.17163,211.449655 462.706612,216.819638 491.600728,207.571334 C520.494844,198.32303 530.026923,177.439763 533.601453,141.938209 C537.175983,106.436655 515.728804,114.491629 508.281867,92.4150323 C500.83493,70.3384356 519.899089,60.7917992 508.877622,44.9801826 C497.856155,29.168566 481.770771,27.9752365 463.302366,18.1302677 C444.833962,8.28529885 418.918621,14.8486114 419.514376,40.8035292 C420.110131,66.7584469 454.068164,71.5317651 456.153307,99.873342 C458.238449,128.214919 432.918863,135.971561 416.535601,127.319922 C405.953665,121.731834 381.515269,95.3160364 362.619776,75.1117538 C352.260717,64.0351783 342.82901,55.116659 339.981087,51.8418275 C331.938395,42.5935235 318.236031,21.7102563 296.788852,20.5169268 C275.341673,19.3235972 262.235063,48.8585036 255.979636,58.1068077 C252.556758,63.1673442 243.996604,79.3920743 236.319722,98.6800125 C228.64284,117.967951 224.629264,133.827172 219.638583,140.446547 C208.617116,155.064834 187.765691,154.169837 164.23337,152.08151 C140.701049,149.993183 126.402929,125.529927 116.87085,111.508305 C107.33877,97.4866829 109.126035,81.3767339 125.807174,74.2167566 C142.488314,67.0567793 169.575772,80.9163188 192.829609,64.6701202 C216.083445,48.4239217 217.255563,1.12532154 176.446347,0.230324373 Z" stroke-linejoin="round"/>
    <path stroke="#313D46" stroke-width="36" d="M176.446347,0.230324373 C153.551949,-0.271778427 138.905061,0.198819048 121.934767,0.230324373 C108.655548,0.254977223 93.6276026,-0.293534779 74.2743691,0.230324373 C30.1885012,1.42365393 16.4861368,22.6052535 13.2094844,26.7819069 C9.93283207,30.9585604 -9.13132706,65.8634498 8.14556715,97.7850153 C25.4224614,129.706581 40.7933713,112.745095 60.5720048,136.866558 C80.3506383,160.988022 53.7208226,208.167999 116.87085,209.957993 C180.020877,211.747988 237.511232,211.449655 261.341431,211.449655 C285.17163,211.449655 462.706612,216.819638 491.600728,207.571334 C520.494844,198.32303 530.026923,177.439763 533.601453,141.938209 C537.175983,106.436655 515.728804,114.491629 508.281867,92.4150323 C500.83493,70.3384356 519.899089,60.7917992 508.877622,44.9801826 C497.856155,29.168566 481.770771,27.9752365 463.302366,18.1302677 C444.833962,8.28529885 418.918621,14.8486114 419.514376,40.8035292 C420.110131,66.7584469 454.068164,71.5317651 456.153307,99.873342 C458.238449,128.214919 432.918863,135.971561 416.535601,127.319922 C405.953665,121.731834 381.515269,95.3160364 362.619776,75.1117538 C352.260717,64.0351783 342.82901,55.116659 339.981087,51.8418275 C331.938395,42.5935235 318.236031,21.7102563 296.788852,20.5169268 C275.341673,19.3235972 262.235063,48.8585036 255.979636,58.1068077 C252.556758,63.1673442 243.996604,79.3920743 236.319722,98.6800125 C228.64284,117.967951 224.629264,133.827172 219.638583,140.446547 C208.617116,155.064834 187.765691,154.169837 164.23337,152.08151 C140.701049,149.993183 126.402929,125.529927 116.87085,111.508305 C107.33877,97.4866829 109.126035,81.3767339 125.807174,74.2167566 C142.488314,67.0567793 169.575772,80.9163188 192.829609,64.6701202 C216.083445,48.4239217 217.255563,1.12532154 176.446347,0.230324373 Z" stroke-linejoin="round"/>
    <path stroke="#FF9900" stroke-width="1.5" d="M175.446347,0.230324373 C152.551949,-0.271778427 137.905061,0.198819048 120.934767,0.230324373 C107.655548,0.254977223 92.6276026,-0.293534779 73.2743691,0.230324373 C29.1885012,1.42365393 15.4861368,22.6052535 12.2094844,26.7819069 C8.93283207,30.9585604 -10.1313271,65.8634498 7.14556715,97.7850153 C24.4224614,129.706581 39.7933713,112.745095 59.5720048,136.866558 C79.3506383,160.988022 52.7208226,208.167999 115.87085,209.957993 C179.020877,211.747988 236.511232,211.449655 260.341431,211.449655 C284.17163,211.449655 461.706612,216.819638 490.600728,207.571334 C519.494844,198.32303 529.026923,177.439763 532.601453,141.938209 C536.175983,106.436655 514.728804,114.491629 507.281867,92.4150323 C499.83493,70.3384356 518.899089,60.7917992 507.877622,44.9801826 C496.856155,29.168566 480.770771,27.9752365 462.302366,18.1302677 C443.833962,8.28529885 417.918621,14.8486114 418.514376,40.8035292 C419.110131,66.7584469 453.068164,71.5317651 455.153307,99.873342 C457.238449,128.214919 431.918863,135.971561 415.535601,127.319922 C404.953665,121.731834 380.515269,95.3160364 361.619776,75.1117538 C351.260717,64.0351783 341.82901,55.116659 338.981087,51.8418275 C330.938395,42.5935235 317.236031,21.7102563 295.788852,20.5169268 C274.341673,19.3235972 261.235063,48.8585036 254.979636,58.1068077 C251.556758,63.1673442 242.996604,79.3920743 235.319722,98.6800125 C227.64284,117.967951 223.629264,133.827172 218.638583,140.446547 C207.617116,155.064834 186.765691,154.169837 163.23337,152.08151 C139.701049,149.993183 125.402929,125.529927 115.87085,111.508305 C106.33877,97.4866829 108.126035,81.3767339 124.807174,74.2167566 C141.488314,67.0567793 168.575772,80.9163188 191.829609,64.6701202 C215.083445,48.4239217 216.255563,1.12532154 175.446347,0.230324373 Z" stroke-dasharray="8.27 5.18"/>
  </g>
</svg>
