<?xml version="1.0" encoding="UTF-8"?>
<svg width="648px" height="481px" viewBox="0 0 648 481" version="1.1" xmlns="http://www.w3.org/2000/svg" xmlns:xlink="http://www.w3.org/1999/xlink">
    <title>img_console_environment_training_oct_pro</title>
    <g id="Training-tracks" stroke="none" stroke-width="1" fill="none" fill-rule="evenodd">
        <g id="Track-creation-Copy" transform="translate(-9145.000000, -6011.000000)">
            <g id="OCT_PRO" transform="translate(4602.000000, 2704.000000)">
                <g id="img_console_environment_training_oct_pro" transform="translate(4543.000000, 3307.000000)">
                    <g id="Group-41" transform="translate(104.000000, 64.000000)">
                        <path d="M426.288789,283.901079 C425.904844,278.865919 425.939022,273.807595 426.390972,268.778083 L438.78291,121.393904 C438.78291,121.393904 442.591527,86.0945292 420.845254,68.6492066 C411.778888,61.4035454 410.924272,54.3343811 413.023656,48.5657201 C416.78423,38.6352118 412.771636,27.4440508 403.55785,22.1655035 C383.502231,10.9068608 353.841467,-3.09212814 336.024572,0.605016905 C312.801299,5.42616836 132.663016,64.3110992 63.6991846,86.9955922 C41.3695516,94.2627842 23.129068,110.591557 13.444022,131.983716 C4.66562485,151.537712 -8.85031999,204.356724 8.13982648,223.576305 C14.7631039,231.091356 60.8845239,242.06203 60.8845239,242.06203 C60.8845239,242.06203 108.733755,255.652289 117.976618,298.615344 C123.32726,323.464246 144.85059,326.539008 161.404138,321.922221 C200.084822,311.118755 196.285494,272.688882 190.414651,265.350328 C170.294007,240.343508 179.360373,220.575858 187.033342,214.872222 C191.891651,211.26797 206.605917,196.386497 184.859644,181.709388 C169.85741,171.574752 145.166426,188.769263 136.462343,191.834735 C129.51394,194.287113 108.380762,195.550459 96.2303453,191.834735 C78.2834,186.40049 77.7353308,151.249744 103.83829,138.207554 C116.936215,131.705037 290.897108,72.4113768 290.897108,72.4113768 C290.897108,72.4113768 336.024572,66.4290617 339.28512,97.4181971 C342.545667,128.407332 303.400518,126.781703 303.400518,126.781703 C294.7504,126.781703 272.950163,131.138389 286.001642,153.432731 C291.95609,163.604525 298.737285,166.911519 303.948588,174.092155 C311.054909,183.892376 328.881093,201.8579 326.78171,213.785373 C325.016741,223.827116 292.281215,222.526613 284.719718,222.145751 C276.359339,221.709154 255.922859,231.602268 259.034778,246.23293 C259.443507,248.171299 259.914166,250.050836 260.446753,251.871541 C264.413288,265.60114 267.553074,266.409309 277.845629,276.339581 C294.129788,292.057092 350.023561,334.221266 354.017964,336.720091 C371.853438,347.867262 388.388408,362.237823 406.762662,348.145941 C423.678494,335.057304 426.95762,291.992067 426.288789,283.901079 Z" id="Path" stroke="#84E29C" stroke-width="49"></path>
                        <path d="M426.288789,283.901079 C425.904844,278.865919 425.939022,273.807595 426.390972,268.778083 L438.78291,121.393904 C438.78291,121.393904 442.591527,86.0945292 420.845254,68.6492066 C411.778888,61.4035454 410.924272,54.3343811 413.023656,48.5657201 C416.78423,38.6352118 412.771636,27.4440508 403.55785,22.1655035 C383.502231,10.9068608 353.841467,-3.09212814 336.024572,0.605016905 C312.801299,5.42616836 132.663016,64.3110992 63.6991846,86.9955922 C41.3695516,94.2627842 23.129068,110.591557 13.444022,131.983716 C4.66562485,151.537712 -8.85031999,204.356724 8.13982648,223.576305 C14.7631039,231.091356 60.8845239,242.06203 60.8845239,242.06203 C60.8845239,242.06203 108.733755,255.652289 117.976618,298.615344 C123.32726,323.464246 144.85059,326.539008 161.404138,321.922221 C200.084822,311.118755 196.285494,272.688882 190.414651,265.350328 C170.294007,240.343508 179.360373,220.575858 187.033342,214.872222 C191.891651,211.26797 206.605917,196.386497 184.859644,181.709388 C169.85741,171.574752 145.166426,188.769263 136.462343,191.834735 C129.51394,194.287113 108.380762,195.550459 96.2303453,191.834735 C78.2834,186.40049 77.7353308,151.249744 103.83829,138.207554 C116.936215,131.705037 290.897108,72.4113768 290.897108,72.4113768 C290.897108,72.4113768 336.024572,66.4290617 339.28512,97.4181971 C342.545667,128.407332 303.400518,126.781703 303.400518,126.781703 C294.7504,126.781703 272.950163,131.138389 286.001642,153.432731 C291.95609,163.604525 298.737285,166.911519 303.948588,174.092155 C311.054909,183.892376 328.881093,201.8579 326.78171,213.785373 C325.016741,223.827116 292.281215,222.526613 284.719718,222.145751 C276.359339,221.709154 255.922859,231.602268 259.034778,246.23293 C259.443507,248.171299 259.914166,250.050836 260.446753,251.871541 C264.413288,265.60114 267.553074,266.409309 277.845629,276.339581 C294.129788,292.057092 350.023561,334.221266 354.017964,336.720091 C371.853438,347.867262 388.388408,362.237823 406.762662,348.145941 C423.678494,335.057304 426.95762,291.992067 426.288789,283.901079 Z" id="Path" stroke="#FFFFFF" stroke-width="45"></path>
                        <path d="M426.288789,283.901079 C425.904844,278.865919 425.939022,273.807595 426.390972,268.778083 L438.78291,121.393904 C438.78291,121.393904 442.591527,86.0945292 420.845254,68.6492066 C411.778888,61.4035454 410.924272,54.3343811 413.023656,48.5657201 C416.78423,38.6352118 412.771636,27.4440508 403.55785,22.1655035 C383.502231,10.9068608 353.841467,-3.09212814 336.024572,0.605016905 C312.801299,5.42616836 132.663016,64.3110992 63.6991846,86.9955922 C41.3695516,94.2627842 23.129068,110.591557 13.444022,131.983716 C4.66562485,151.537712 -8.85031999,204.356724 8.13982648,223.576305 C14.7631039,231.091356 60.8845239,242.06203 60.8845239,242.06203 C60.8845239,242.06203 108.733755,255.652289 117.976618,298.615344 C123.32726,323.464246 144.85059,326.539008 161.404138,321.922221 C200.084822,311.118755 196.285494,272.688882 190.414651,265.350328 C170.294007,240.343508 179.360373,220.575858 187.033342,214.872222 C191.891651,211.26797 206.605917,196.386497 184.859644,181.709388 C169.85741,171.574752 145.166426,188.769263 136.462343,191.834735 C129.51394,194.287113 108.380762,195.550459 96.2303453,191.834735 C78.2834,186.40049 77.7353308,151.249744 103.83829,138.207554 C116.936215,131.705037 290.897108,72.4113768 290.897108,72.4113768 C290.897108,72.4113768 336.024572,66.4290617 339.28512,97.4181971 C342.545667,128.407332 303.400518,126.781703 303.400518,126.781703 C294.7504,126.781703 272.950163,131.138389 286.001642,153.432731 C291.95609,163.604525 298.737285,166.911519 303.948588,174.092155 C311.054909,183.892376 328.881093,201.8579 326.78171,213.785373 C325.016741,223.827116 292.281215,222.526613 284.719718,222.145751 C276.359339,221.709154 255.922859,231.602268 259.034778,246.23293 C259.443507,248.171299 259.914166,250.050836 260.446753,251.871541 C264.413288,265.60114 267.553074,266.409309 277.845629,276.339581 C294.129788,292.057092 350.023561,334.221266 354.017964,336.720091 C371.853438,347.867262 388.388408,362.237823 406.762662,348.145941 C423.678494,335.057304 426.95762,291.992067 426.288789,283.901079 Z" id="Path" stroke="#313D46" stroke-width="36"></path>
                        <path d="M426.288789,283.901079 C425.904844,278.865919 425.939022,273.807595 426.390972,268.778083 L438.78291,121.393904 C438.78291,121.393904 442.591527,86.0945292 420.845254,68.6492066 C411.778888,61.4035454 410.924272,54.3343811 413.023656,48.5657201 C416.78423,38.6352118 412.771636,27.4440508 403.55785,22.1655035 C383.502231,10.9068608 353.841467,-3.09212814 336.024572,0.605016905 C312.801299,5.42616836 132.663016,64.3110992 63.6991846,86.9955922 C41.3695516,94.2627842 23.129068,110.591557 13.444022,131.983716 C4.66562485,151.537712 -8.85031999,204.356724 8.13982648,223.576305 C14.7631039,231.091356 60.8845239,242.06203 60.8845239,242.06203 C60.8845239,242.06203 108.733755,255.652289 117.976618,298.615344 C123.32726,323.464246 144.85059,326.539008 161.404138,321.922221 C200.084822,311.118755 196.285494,272.688882 190.414651,265.350328 C170.294007,240.343508 179.360373,220.575858 187.033342,214.872222 C191.891651,211.26797 206.605917,196.386497 184.859644,181.709388 C169.85741,171.574752 145.166426,188.769263 136.462343,191.834735 C129.51394,194.287113 108.380762,195.550459 96.2303453,191.834735 C78.2834,186.40049 77.7353308,151.249744 103.83829,138.207554 C116.936215,131.705037 290.897108,72.4113768 290.897108,72.4113768 C290.897108,72.4113768 336.024572,66.4290617 339.28512,97.4181971 C342.545667,128.407332 303.400518,126.781703 303.400518,126.781703 C294.7504,126.781703 272.950163,131.138389 286.001642,153.432731 C291.95609,163.604525 298.737285,166.911519 303.948588,174.092155 C311.054909,183.892376 328.881093,201.8579 326.78171,213.785373 C325.016741,223.827116 292.281215,222.526613 284.719718,222.145751 C276.359339,221.709154 255.922859,231.602268 259.034778,246.23293 C259.443507,248.171299 259.914166,250.050836 260.446753,251.871541 C264.413288,265.60114 267.553074,266.409309 277.845629,276.339581 C294.129788,292.057092 350.023561,334.221266 354.017964,336.720091 C371.853438,347.867262 388.388408,362.237823 406.762662,348.145941 C423.678494,335.057304 426.95762,291.992067 426.288789,283.901079 Z" id="Path" stroke="#FF9900" stroke-width="2.32" stroke-dasharray="9,6"></path>
                    </g>
                    <rect id="Rectangle-Copy" x="0" y="0" width="648" height="481.00207"></rect>
                </g>
            </g>
        </g>
    </g>
</svg>