<?xml version="1.0" encoding="UTF-8"?>
<svg width="649px" height="482px" viewBox="0 0 649 482" version="1.1" xmlns="http://www.w3.org/2000/svg" xmlns:xlink="http://www.w3.org/1999/xlink">
    <title>img_console_environemnt_training_may_pro</title>
    <g id="Training-tracks" stroke="none" stroke-width="1" fill="none" fill-rule="evenodd">
        <g id="Track-creation-Copy" transform="translate(-2125.000000, -6012.000000)">
            <g id="MAY-PRO" transform="translate(1098.048470, 2704.000000)">
                <g id="img_console_environemnt_training_may_pro" transform="translate(1026.951530, 3308.000000)">
                    <path d="M210.486777,58.2937853 L266.073166,70.2349247 C266.073166,70.2349247 286.918062,77.2005894 350.445365,106.058343 C413.972667,134.916096 438.788019,153.822901 472.536899,189.646319 C506.285778,225.469737 525.145446,272.2392 531.10113,281.195054 C537.056815,290.150909 573.783537,341.895846 573.783537,341.895846 C573.783537,341.895846 607.532416,401.601543 531.10113,401.601543 L148.944703,401.601543 C148.944703,401.601543 60.602048,403.641488 57.6242057,389.710158 C54.6463634,375.778829 68.5429608,369.808259 68.5429608,369.808259 L93.8049895,349.259549 C111.672043,344.463191 80.4543299,303.087143 94.3509273,283.185244 C108.247525,263.283345 154.672086,238.764205 181.700968,272.2392 C201.55325,296.827996 205.523706,305.077333 205.523706,305.077333 C205.523706,305.077333 223.39076,335.925276 245.22827,325.974327 C267.06578,316.023377 285.925448,304.082238 283.94022,290.150909 C281.954992,276.219579 269.507611,273.234295 255.611014,261.671291 C241.714416,250.108288 234.309515,214.842123 250.191341,209.140229 C267.482678,203.030346 294.858975,209.140229 294.858975,209.140229 C294.858975,209.140229 316.696485,213.120609 321.659556,206.154944 C326.622626,199.189279 322.65217,165.76404 302.799888,161.78366 C282.947606,157.80328 132.070263,145.862141 132.070263,145.862141 C132.070263,145.862141 90.3804709,140.886666 93.3583132,111.033818 C93.7662636,106.853584 94.4493472,102.704949 95.4030982,98.6150327 C99.410073,82.093552 113.001576,69.6523899 129.777324,67.1501304 C152.915159,63.5976414 190.684126,58.2937853 210.486777,58.2937853 Z" id="may-pro" stroke="#84E29C" stroke-width="49"></path>
                    <path d="M210.486777,58.2937853 L266.073166,70.2349247 C266.073166,70.2349247 286.918062,77.2005894 350.445365,106.058343 C413.972667,134.916096 438.788019,153.822901 472.536899,189.646319 C506.285778,225.469737 525.145446,272.2392 531.10113,281.195054 C537.056815,290.150909 573.783537,341.895846 573.783537,341.895846 C573.783537,341.895846 607.532416,401.601543 531.10113,401.601543 L148.944703,401.601543 C148.944703,401.601543 60.602048,403.641488 57.6242057,389.710158 C54.6463634,375.778829 68.5429608,369.808259 68.5429608,369.808259 L93.8049895,349.259549 C111.672043,344.463191 80.4543299,303.087143 94.3509273,283.185244 C108.247525,263.283345 154.672086,238.764205 181.700968,272.2392 C201.55325,296.827996 205.523706,305.077333 205.523706,305.077333 C205.523706,305.077333 223.39076,335.925276 245.22827,325.974327 C267.06578,316.023377 285.925448,304.082238 283.94022,290.150909 C281.954992,276.219579 269.507611,273.234295 255.611014,261.671291 C241.714416,250.108288 234.309515,214.842123 250.191341,209.140229 C267.482678,203.030346 294.858975,209.140229 294.858975,209.140229 C294.858975,209.140229 316.696485,213.120609 321.659556,206.154944 C326.622626,199.189279 322.65217,165.76404 302.799888,161.78366 C282.947606,157.80328 132.070263,145.862141 132.070263,145.862141 C132.070263,145.862141 90.3804709,140.886666 93.3583132,111.033818 C93.7662636,106.853584 94.4493472,102.704949 95.4030982,98.6150327 C99.410073,82.093552 113.001576,69.6523899 129.777324,67.1501304 C152.915159,63.5976414 190.684126,58.2937853 210.486777,58.2937853 Z" id="may-pro" stroke="#FFFFFF" stroke-width="45"></path>
                    <path d="M210.486777,58.2937853 L266.073166,70.2349247 C266.073166,70.2349247 286.918062,77.2005894 350.445365,106.058343 C413.972667,134.916096 438.788019,153.822901 472.536899,189.646319 C506.285778,225.469737 525.145446,272.2392 531.10113,281.195054 C537.056815,290.150909 573.783537,341.895846 573.783537,341.895846 C573.783537,341.895846 607.532416,401.601543 531.10113,401.601543 L148.944703,401.601543 C148.944703,401.601543 60.602048,403.641488 57.6242057,389.710158 C54.6463634,375.778829 68.5429608,369.808259 68.5429608,369.808259 L93.8049895,349.259549 C111.672043,344.463191 80.4543299,303.087143 94.3509273,283.185244 C108.247525,263.283345 154.672086,238.764205 181.700968,272.2392 C201.55325,296.827996 205.523706,305.077333 205.523706,305.077333 C205.523706,305.077333 223.39076,335.925276 245.22827,325.974327 C267.06578,316.023377 285.925448,304.082238 283.94022,290.150909 C281.954992,276.219579 269.507611,273.234295 255.611014,261.671291 C241.714416,250.108288 234.309515,214.842123 250.191341,209.140229 C267.482678,203.030346 294.858975,209.140229 294.858975,209.140229 C294.858975,209.140229 316.696485,213.120609 321.659556,206.154944 C326.622626,199.189279 322.65217,165.76404 302.799888,161.78366 C282.947606,157.80328 132.070263,145.862141 132.070263,145.862141 C132.070263,145.862141 90.3804709,140.886666 93.3583132,111.033818 C93.7662636,106.853584 94.4493472,102.704949 95.4030982,98.6150327 C99.410073,82.093552 113.001576,69.6523899 129.777324,67.1501304 C152.915159,63.5976414 190.684126,58.2937853 210.486777,58.2937853 Z" id="may-pro" stroke="#313D46" stroke-width="36"></path>
                    <path d="M210.486777,58.2937853 L266.073166,70.2349247 C266.073166,70.2349247 286.918062,77.2005894 350.445365,106.058343 C413.972667,134.916096 438.788019,153.822901 472.536899,189.646319 C506.285778,225.469737 525.145446,272.2392 531.10113,281.195054 C537.056815,290.150909 573.783537,341.895846 573.783537,341.895846 C573.783537,341.895846 607.532416,401.601543 531.10113,401.601543 L148.944703,401.601543 C148.944703,401.601543 60.602048,403.641488 57.6242057,389.710158 C54.6463634,375.778829 68.5429608,369.808259 68.5429608,369.808259 L93.8049895,349.259549 C111.672043,344.463191 80.4543299,303.087143 94.3509273,283.185244 C108.247525,263.283345 154.672086,238.764205 181.700968,272.2392 C201.55325,296.827996 205.523706,305.077333 205.523706,305.077333 C205.523706,305.077333 223.39076,335.925276 245.22827,325.974327 C267.06578,316.023377 285.925448,304.082238 283.94022,290.150909 C281.954992,276.219579 269.507611,273.234295 255.611014,261.671291 C241.714416,250.108288 234.309515,214.842123 250.191341,209.140229 C267.482678,203.030346 294.858975,209.140229 294.858975,209.140229 C294.858975,209.140229 316.696485,213.120609 321.659556,206.154944 C326.622626,199.189279 322.65217,165.76404 302.799888,161.78366 C282.947606,157.80328 132.070263,145.862141 132.070263,145.862141 C132.070263,145.862141 90.3804709,140.886666 93.3583132,111.033818 C93.7662636,106.853584 94.4493472,102.704949 95.4030982,98.6150327 C99.410073,82.093552 113.001576,69.6523899 129.777324,67.1501304 C152.915159,63.5976414 190.684126,58.2937853 210.486777,58.2937853 Z" id="may-pro" stroke="#FF9900" stroke-width="2.32" stroke-dasharray="9,6"></path>
                    <rect id="Rectangle-Copy" x="0.705882353" y="0.204491957" width="648" height="481.00207"></rect>
                </g>
            </g>
        </g>
    </g>
</svg>