<?xml version="1.0" encoding="UTF-8"?>
<svg width="648px" height="482px" viewBox="0 0 648 482" version="1.1" xmlns="http://www.w3.org/2000/svg" xmlns:xlink="http://www.w3.org/1999/xlink">
    <title>img_console_environemnt_training_june_pro</title>
    <g id="Training-tracks" stroke="none" stroke-width="1" fill="none" fill-rule="evenodd">
        <g id="Track-creation-Copy" transform="translate(-3530.000000, -6011.000000)">
            <g id="JUNE_PRO" transform="translate(1803.000000, 2703.228495)">
                <g id="img_console_environemnt_training_june_pro" transform="translate(1727.000000, 3307.771505)">
                    <path d="M250.573846,411.328087 L555.421507,411.328087 C555.421507,411.328087 577.432168,415.717251 578.532701,389.382266 C579.633234,363.047281 578.444658,334.517714 578.444658,334.517714 C578.713825,331.048592 578.340775,327.559694 577.344125,324.225124 C574.922953,316.379493 566.779008,313.186376 563.037195,311.474602 C550.623182,305.81258 520.468576,300.710177 480.266103,298.80089 C458.607612,293.917945 470.823529,298.98743 460.258412,293.160814 C447.877415,286.324691 444.70788,271.357641 416.391164,248.929012 C416.534233,248.533988 371.082217,214.814234 364.666109,254.415468 C362.35499,272.235474 361.265462,288.859433 360.737206,300.644339 C360.290734,310.44248 352.013285,318.054293 342.182219,317.707215 C337.515959,317.542621 332.420491,317.31219 327.523118,316.961057 C312.115655,315.863766 234.803207,330.12855 261.392086,267.451285 C270.020265,247.118482 281.025596,214.91299 263.417067,206.134662 C242.903131,195.907909 242.782072,164.437602 246.083671,156.756565 C249.38527,149.075527 257.089002,131.518871 263.6922,121.643251 C270.295399,111.767632 277.99913,86.5299379 253.787403,74.4597364 C229.575675,62.389535 191.057018,51.4166245 191.057018,51.4166245 C191.057018,51.4166245 152.53836,43.7355872 133.829298,75.5570275 C121.552717,96.8458825 110.528761,118.828845 100.813306,141.39449 C100.813306,141.39449 83.2047767,165.534893 75.5010452,169.924057 C67.7973137,174.313221 47.3494093,212.444085 64.9579384,216.833249 C82.5664675,221.222414 105.402529,238.51572 120.809992,236.584488 C136.217455,234.653256 154.926517,237.681779 159.328649,260.724891 C163.730781,283.768003 173.173355,279.653162 165.469624,304.890856 C157.765892,330.12855 183.441329,411.328087 250.573846,411.328087 Z" id="Path" stroke="#84E29C" stroke-width="49"></path>
                    <path d="M250.573846,411.328087 L555.421507,411.328087 C555.421507,411.328087 577.432168,415.717251 578.532701,389.382266 C579.633234,363.047281 578.444658,334.517714 578.444658,334.517714 C578.713825,331.048592 578.340775,327.559694 577.344125,324.225124 C574.922953,316.379493 566.779008,313.186376 563.037195,311.474602 C550.623182,305.81258 520.468576,300.710177 480.266103,298.80089 C458.607612,293.917945 470.823529,298.98743 460.258412,293.160814 C447.877415,286.324691 444.70788,271.357641 416.391164,248.929012 C416.534233,248.533988 371.082217,214.814234 364.666109,254.415468 C362.35499,272.235474 361.265462,288.859433 360.737206,300.644339 C360.290734,310.44248 352.013285,318.054293 342.182219,317.707215 C337.515959,317.542621 332.420491,317.31219 327.523118,316.961057 C312.115655,315.863766 234.803207,330.12855 261.392086,267.451285 C270.020265,247.118482 281.025596,214.91299 263.417067,206.134662 C242.903131,195.907909 242.782072,164.437602 246.083671,156.756565 C249.38527,149.075527 257.089002,131.518871 263.6922,121.643251 C270.295399,111.767632 277.99913,86.5299379 253.787403,74.4597364 C229.575675,62.389535 191.057018,51.4166245 191.057018,51.4166245 C191.057018,51.4166245 152.53836,43.7355872 133.829298,75.5570275 C121.552717,96.8458825 110.528761,118.828845 100.813306,141.39449 C100.813306,141.39449 83.2047767,165.534893 75.5010452,169.924057 C67.7973137,174.313221 47.3494093,212.444085 64.9579384,216.833249 C82.5664675,221.222414 105.402529,238.51572 120.809992,236.584488 C136.217455,234.653256 154.926517,237.681779 159.328649,260.724891 C163.730781,283.768003 173.173355,279.653162 165.469624,304.890856 C157.765892,330.12855 183.441329,411.328087 250.573846,411.328087 Z" id="Path" stroke="#FFFFFF" stroke-width="45"></path>
                    <path d="M250.573846,411.328087 L555.421507,411.328087 C555.421507,411.328087 577.432168,415.717251 578.532701,389.382266 C579.633234,363.047281 578.444658,334.517714 578.444658,334.517714 C578.713825,331.048592 578.340775,327.559694 577.344125,324.225124 C574.922953,316.379493 566.779008,313.186376 563.037195,311.474602 C550.623182,305.81258 520.468576,300.710177 480.266103,298.80089 C458.607612,293.917945 470.823529,298.98743 460.258412,293.160814 C447.877415,286.324691 444.70788,271.357641 416.391164,248.929012 C416.534233,248.533988 371.082217,214.814234 364.666109,254.415468 C362.35499,272.235474 361.265462,288.859433 360.737206,300.644339 C360.290734,310.44248 352.013285,318.054293 342.182219,317.707215 C337.515959,317.542621 332.420491,317.31219 327.523118,316.961057 C312.115655,315.863766 234.803207,330.12855 261.392086,267.451285 C270.020265,247.118482 281.025596,214.91299 263.417067,206.134662 C242.903131,195.907909 242.782072,164.437602 246.083671,156.756565 C249.38527,149.075527 257.089002,131.518871 263.6922,121.643251 C270.295399,111.767632 277.99913,86.5299379 253.787403,74.4597364 C229.575675,62.389535 191.057018,51.4166245 191.057018,51.4166245 C191.057018,51.4166245 152.53836,43.7355872 133.829298,75.5570275 C121.552717,96.8458825 110.528761,118.828845 100.813306,141.39449 C100.813306,141.39449 83.2047767,165.534893 75.5010452,169.924057 C67.7973137,174.313221 47.3494093,212.444085 64.9579384,216.833249 C82.5664675,221.222414 105.402529,238.51572 120.809992,236.584488 C136.217455,234.653256 154.926517,237.681779 159.328649,260.724891 C163.730781,283.768003 173.173355,279.653162 165.469624,304.890856 C157.765892,330.12855 183.441329,411.328087 250.573846,411.328087 Z" id="Path" stroke="#313D46" stroke-width="36"></path>
                    <path d="M250.573846,411.328087 L555.421507,411.328087 C555.421507,411.328087 577.432168,415.717251 578.532701,389.382266 C579.633234,363.047281 578.444658,334.517714 578.444658,334.517714 C578.713825,331.048592 578.340775,327.559694 577.344125,324.225124 C574.922953,316.379493 566.779008,313.186376 563.037195,311.474602 C550.623182,305.81258 520.468576,300.710177 480.266103,298.80089 C458.607612,293.917945 470.823529,298.98743 460.258412,293.160814 C447.877415,286.324691 444.70788,271.357641 416.391164,248.929012 C416.534233,248.533988 371.082217,214.814234 364.666109,254.415468 C362.35499,272.235474 361.265462,288.859433 360.737206,300.644339 C360.290734,310.44248 352.013285,318.054293 342.182219,317.707215 C337.515959,317.542621 332.420491,317.31219 327.523118,316.961057 C312.115655,315.863766 234.803207,330.12855 261.392086,267.451285 C270.020265,247.118482 281.025596,214.91299 263.417067,206.134662 C242.903131,195.907909 242.782072,164.437602 246.083671,156.756565 C249.38527,149.075527 257.089002,131.518871 263.6922,121.643251 C270.295399,111.767632 277.99913,86.5299379 253.787403,74.4597364 C229.575675,62.389535 191.057018,51.4166245 191.057018,51.4166245 C191.057018,51.4166245 152.53836,43.7355872 133.829298,75.5570275 C121.552717,96.8458825 110.528761,118.828845 100.813306,141.39449 C100.813306,141.39449 83.2047767,165.534893 75.5010452,169.924057 C67.7973137,174.313221 47.3494093,212.444085 64.9579384,216.833249 C82.5664675,221.222414 105.402529,238.51572 120.809992,236.584488 C136.217455,234.653256 154.926517,237.681779 159.328649,260.724891 C163.730781,283.768003 173.173355,279.653162 165.469624,304.890856 C157.765892,330.12855 183.441329,411.328087 250.573846,411.328087 Z" id="Path" stroke="#FF9900" stroke-width="2.32" stroke-dasharray="9,6"></path>
                    <circle id="Oval" fill="#313D46" cx="399.5" cy="249.5" r="5.5"></circle>
                    <rect id="Rectangle-Copy" x="0" y="0.602409639" width="648" height="481.00207"></rect>
                </g>
            </g>
        </g>
    </g>
</svg>
