<svg xmlns="http://www.w3.org/2000/svg" width="354" height="160" viewBox="0 0 354 160"><title>empire city</title><line x1="15.64" y1="139.52" x2="210.64" y2="139.52" style="fill:none;stroke:#232f3e;stroke-miterlimit:10;stroke-width:2px"/><line x1="183.64" y1="121.52" x2="207.64" y2="121.52" style="fill:none;stroke:#232f3e;stroke-miterlimit:10;stroke-width:2px;stroke-dasharray:6,6"/><line x1="15.64" y1="121.52" x2="67.64" y2="121.52" style="fill:none;stroke:#232f3e;stroke-miterlimit:10;stroke-width:2px;stroke-dasharray:6,6"/><line x1="15.64" y1="99.52" x2="66.64" y2="99.52" style="fill:none;stroke:#232f3e;stroke-miterlimit:10;stroke-width:2px"/><line x1="183.64" y1="99.52" x2="205.64" y2="99.52" style="fill:none;stroke:#232f3e;stroke-miterlimit:10;stroke-width:2px"/><circle cx="160.14" cy="81.02" r="0.5" style="fill:none;stroke:#232f3e;stroke-linejoin:round;stroke-width:2px"/><line x1="115.64" y1="58.52" x2="80.64" y2="58.52" style="fill:none;stroke:#232f3e;stroke-miterlimit:10;stroke-width:2px"/><line x1="105.64" y1="66.52" x2="90.64" y2="66.52" style="fill:none;stroke:#232f3e;stroke-miterlimit:10;stroke-width:2px"/><line x1="99.64" y1="74.52" x2="73.64" y2="74.52" style="fill:none;stroke:#232f3e;stroke-miterlimit:10;stroke-width:2px"/><path d="M129.94,90.82a5.17,5.17,0,0,0-1.3-.6c-4.9-1.4-11.1,5.2-14,14.8s-1.2,18.6,3.7,20c3.1.9,6.8-2.2,8.7-4.4a27.55,27.55,0,0,0,5.2-10.4,29.73,29.73,0,0,0,1.1-12.6c.9,3.9,1,9.5-.2,17.4a5.56,5.56,0,0,0,5.5,6.4h26.2c3.9,0,6.7-2.8,5.9-6.6l-.1-2.9m-7-52.4-5.5-2.2c-38.6-9.3-51.5,6.2-55.5,12.7l-3.9,6.9c-2,2.4-5.3,4.6-10.9,4.5-7.3.5-11,4.6-12.8,9.1a21.88,21.88,0,0,0-1.1,3.9l-.1.1a26.79,26.79,0,0,0-.5,7.1c1.8-1.6,3.5-3,5-4.2a32.23,32.23,0,0,0-3.6,7.7c-1.7,5.3-3.9,17.3,3.1,20,3.4,1.3,7.2-1.2,9.5-3.5a27.85,27.85,0,0,0,6.3-11.3c2.1-6.8,1.9-13.2-.3-16.9m45.2,8.4c1.2,4.2,1.9,8.1,2.5,9.7v0h8.4l.4-1c1-1.9,5.1-3,5.1-3h9.7s2.7,1.7,1.9,3.2l-.3,1.8h5.7l2.1-5.1,1.5-4.2a50.94,50.94,0,0,0,2.5-10.4l2-15.7a16.16,16.16,0,0,0-3.3-12.1,14.06,14.06,0,0,0-10.7-5.4h-.1s-13.6-.7-18.5,5.5M87.94,99c-3.2-.3-7.1,3.5-8.8,8.9-1.5,4.7-.9,9.2,1.1,11.2m48.1-21.7c-3.4-.4-7.3,3.9-9.1,9.9-1.5,5.2-1,10.2,1.2,12.4m48.3-44.2L167,88.62a6.05,6.05,0,0,1-6,5.4h-.2a5.88,5.88,0,0,1-4.6-2.1,6.46,6.46,0,0,1-1.6-5l1.7-13.1a6.05,6.05,0,0,1,6-5.4,6.29,6.29,0,0,1,4.8,2.1A6.21,6.21,0,0,1,168.74,75.52Z" style="fill:none;stroke:#232f3e;stroke-linejoin:round;stroke-width:2px"/><path d="M165.84,123.92l-1.5,1.2h4.3c5.7,0,8.9-2.5,10.4-6,2.1-4.9-.4-12.9-2.8-18.5" style="fill:none;stroke:#232f3e;stroke-linejoin:round;stroke-width:2px"/><path d="M133.54,84.72s-10.7-16.5-26.5,10.5" style="fill:none;stroke:#232f3e;stroke-linejoin:round;stroke-width:2px"/><line x1="90.64" y1="117.52" x2="107.64" y2="117.52" style="fill:none;stroke:#232f3e;stroke-linejoin:round;stroke-width:2px"/><circle cx="160.64" cy="80.52" r="4" style="fill:none;stroke:#232f3e;stroke-linejoin:round;stroke-width:2px"/><path d="M299.64,109.52v-60h-6v-14h-6v-9h-4v-9h-1.5l-1.5-7.5a1.61,1.61,0,0,0-1.5-1.5h0a1.61,1.61,0,0,0-1.5,1.5l-1.5,7.5h-1.5v9h-4v9h-6v14h-6v24" style="fill:none;stroke:#232f3e;stroke-miterlimit:10;stroke-width:2px"/><line x1="261.64" y1="96.52" x2="261.64" y2="109.52" style="fill:none;stroke:#232f3e;stroke-miterlimit:10;stroke-width:2px"/><line x1="216.64" y1="138.52" x2="216.64" y2="96.72" style="fill:none;stroke:#232f3e;stroke-miterlimit:10;stroke-width:2px"/><rect x="222.64" y="99.52" width="7" height="7" style="fill:none;stroke:#232f3e;stroke-miterlimit:10;stroke-width:2px"/><rect x="248.64" y="99.52" width="7" height="7" style="fill:none;stroke:#232f3e;stroke-miterlimit:10;stroke-width:2px"/><rect x="235.64" y="99.52" width="7" height="7" style="fill:none;stroke:#232f3e;stroke-miterlimit:10;stroke-width:2px"/><rect x="222.64" y="125.52" width="7" height="7" style="fill:none;stroke:#232f3e;stroke-miterlimit:10;stroke-width:2px"/><rect x="235.64" y="125.52" width="7" height="7" style="fill:none;stroke:#232f3e;stroke-miterlimit:10;stroke-width:2px"/><rect x="222.64" y="112.52" width="7" height="7" style="fill:none;stroke:#232f3e;stroke-miterlimit:10;stroke-width:2px"/><rect x="235.64" y="112.52" width="7" height="7" style="fill:none;stroke:#232f3e;stroke-miterlimit:10;stroke-width:2px"/><polyline points="251.64 119.52 248.64 119.52 248.64 112.52 256.64 112.52" style="fill:none;stroke:#232f3e;stroke-miterlimit:10;stroke-width:2px"/><polyline points="255.64 128.52 255.64 132.52 248.64 132.52 248.64 125.52 252.64 125.52" style="fill:none;stroke:#232f3e;stroke-miterlimit:10;stroke-width:2px"/><polygon points="256.64 84.52 256.64 77.52 220.64 77.52 220.64 84.52 214.64 84.52 214.64 93.52 262.64 93.52 262.64 84.52 256.64 84.52" style="fill:none;stroke:#232f3e;stroke-miterlimit:10;stroke-width:2px"/><line x1="248.64" y1="84.52" x2="258.64" y2="84.52" style="fill:none;stroke:#232f3e;stroke-miterlimit:10;stroke-width:2px"/><line x1="220.64" y1="84.52" x2="243.64" y2="84.52" style="fill:none;stroke:#232f3e;stroke-miterlimit:10;stroke-width:2px"/><polyline points="260.64 150.52 215.64 150.52 215.64 141.52 260.64 141.52" style="fill:none;stroke:#232f3e;stroke-miterlimit:10;stroke-width:2px"/><line x1="270.64" y1="62.52" x2="270.64" y2="109.52" style="fill:none;stroke:#232f3e;stroke-miterlimit:10;stroke-width:2px"/><line x1="287.64" y1="62.52" x2="287.64" y2="109.52" style="fill:none;stroke:#232f3e;stroke-miterlimit:10;stroke-width:2px"/><line x1="261.64" y1="58.52" x2="296.64" y2="58.52" style="fill:none;stroke:#232f3e;stroke-miterlimit:10;stroke-width:2px"/><line x1="267.64" y1="42.52" x2="290.64" y2="42.52" style="fill:none;stroke:#232f3e;stroke-miterlimit:10;stroke-width:2px"/><line x1="272.64" y1="35.52" x2="284.64" y2="35.52" style="fill:none;stroke:#232f3e;stroke-miterlimit:10;stroke-width:2px"/><line x1="277.64" y1="26.52" x2="280.64" y2="26.52" style="fill:none;stroke:#232f3e;stroke-miterlimit:10;stroke-width:2px"/><line x1="267.64" y1="49.52" x2="290.64" y2="49.52" style="fill:none;stroke:#232f3e;stroke-miterlimit:10;stroke-width:2px"/><path d="M263.64,131.52v19h59v-19" style="fill:none;stroke:#813194;stroke-linejoin:round;stroke-width:2.5511999130249023px"/><path d="M303.34,122.82v-.5h0a4.44,4.44,0,0,0,4.4,4.4" style="fill:none;stroke:#813194;stroke-linejoin:round;stroke-width:2.5511999130249023px"/><path d="M296,122.82v-.5h0a4.44,4.44,0,0,0,4.4,4.4" style="fill:none;stroke:#813194;stroke-linejoin:round;stroke-width:2.5511999130249023px"/><path d="M288.54,122.82v-.5h0a4.44,4.44,0,0,0,4.4,4.4" style="fill:none;stroke:#813194;stroke-linejoin:round;stroke-width:2.5511999130249023px"/><path d="M280.84,122.82v-.5h0a4.44,4.44,0,0,0,4.4,4.4" style="fill:none;stroke:#813194;stroke-linejoin:round;stroke-width:2.5511999130249023px"/><path d="M273.84,122.82v-.5h0a4.44,4.44,0,0,0,4.4,4.4" style="fill:none;stroke:#813194;stroke-linejoin:round;stroke-width:2.5511999130249023px"/><path d="M265.64,122.82v-.5h0a4.44,4.44,0,0,0,4.4,4.4" style="fill:none;stroke:#813194;stroke-linejoin:round;stroke-width:2.5511999130249023px"/><path d="M311.24,122.82v-.5h0a4.44,4.44,0,0,0,4.4,4.4" style="fill:none;stroke:#813194;stroke-linejoin:round;stroke-width:2.5511999130249023px"/><path d="M319.94,122.62a4.32,4.32,0,0,0,5.6,4.2,4.21,4.21,0,0,0,3.1-4.2v-.1h0v-2.9l-5.8-7.2h-59.4l-5.8,7.2v2.9c0,2.4,1.6,4.4,5.7,4.4" style="fill:none;stroke:#813194;stroke-linejoin:round;stroke-width:2.5511999130249023px"/><line x1="264.64" y1="118.52" x2="320.64" y2="118.52" style="fill:none;stroke:#813194;stroke-linejoin:round;stroke-width:2.5511999130249023px"/><polyline points="272.64 146.52 272.64 133.52 285.64 133.52 285.64 146.52" style="fill:none;stroke:#813194;stroke-linejoin:round;stroke-width:2.5511999130249023px"/><rect x="294.64" y="133.52" width="19" height="10" style="fill:none;stroke:#813194;stroke-linejoin:round;stroke-width:2.5511999130249023px"/><polyline points="299.64 45.52 299.64 27.52 339.64 27.52 339.64 150.52 325.84 150.52" style="fill:none;stroke:#232f3e;stroke-miterlimit:10;stroke-width:2px"/><rect x="306.64" y="39.52" width="10" height="10" style="fill:none;stroke:#232f3e;stroke-miterlimit:10;stroke-width:2px"/><rect x="322.64" y="39.52" width="10" height="10" style="fill:none;stroke:#232f3e;stroke-miterlimit:10;stroke-width:2px"/><rect x="306.64" y="55.52" width="10" height="10" style="fill:none;stroke:#232f3e;stroke-miterlimit:10;stroke-width:2px"/><rect x="322.64" y="55.52" width="10" height="10" style="fill:none;stroke:#232f3e;stroke-miterlimit:10;stroke-width:2px"/><rect x="306.64" y="71.52" width="10" height="10" style="fill:none;stroke:#232f3e;stroke-miterlimit:10;stroke-width:2px"/><rect x="322.64" y="71.52" width="10" height="10" style="fill:none;stroke:#232f3e;stroke-miterlimit:10;stroke-width:2px"/><rect x="306.64" y="87.52" width="10" height="10" style="fill:none;stroke:#232f3e;stroke-miterlimit:10;stroke-width:2px"/><rect x="322.64" y="87.52" width="10" height="10" style="fill:none;stroke:#232f3e;stroke-miterlimit:10;stroke-width:2px"/><polyline points="316.64 109.52 316.64 103.52 306.64 103.52 306.64 109.52" style="fill:none;stroke:#232f3e;stroke-miterlimit:10;stroke-width:2px"/><polyline points="327.64 113.52 332.64 113.52 332.64 103.52 322.64 103.52 322.64 109.52" style="fill:none;stroke:#232f3e;stroke-miterlimit:10;stroke-width:2px"/><polyline points="331.64 149.52 331.64 131.52 325.64 131.52" style="fill:none;stroke:#232f3e;stroke-miterlimit:10;stroke-width:2px"/><path d="M188.74,29.92a6.14,6.14,0,0,1,6.4-2.9,6.29,6.29,0,0,1-1.1,12.5h-47.4" style="fill:none;stroke:#813194;stroke-linejoin:round;stroke-width:2.5511999130249023px"/><path d="M214.74,33.32a10.09,10.09,0,1,1,7.2,17.2h-54.2" style="fill:none;stroke:#813194;stroke-linejoin:round;stroke-width:2.5511999130249023px"/><path d="M203.74,68.72a4.73,4.73,0,0,0,3.5.8,5,5,0,0,0-.7-10h-26.8" style="fill:none;stroke:#813194;stroke-linejoin:round;stroke-width:2.5511999130249023px"/><path d="M133.64,47.52a9.52,9.52,0,0,0-18.6-1.1" style="fill:none;stroke:#813194;stroke-linejoin:round;stroke-width:2.5511999130249023px"/><path d="M23,44.12a12.34,12.34,0,0,0-.3,4.3,11.7,11.7,0,0,0,11.8,10h18.9" style="fill:none;stroke:#813194;stroke-linejoin:round;stroke-width:2.5511999130249023px"/><path d="M26,38.42a9.76,9.76,0,0,0-2.3,3.4" style="fill:none;stroke:#813194;stroke-linejoin:round;stroke-width:2.5511999130249023px"/><path d="M28.34,36.62a12.13,12.13,0,0,0-1.4,1" style="fill:none;stroke:#813194;stroke-linejoin:round;stroke-width:2.5511999130249023px"/><path d="M44.54,41.52A11.61,11.61,0,0,0,34.24,35a10.3,10.3,0,0,0-4.6,1" style="fill:none;stroke:#813194;stroke-linejoin:round;stroke-width:2.5511999130249023px"/><path d="M95.74,28.62a18.67,18.67,0,0,0-16.5-9.9,19.42,19.42,0,0,0-2.4.2,15.79,15.79,0,0,0-29.1,8.5h0a11.62,11.62,0,0,0-10,8.1" style="fill:none;stroke:#813194;stroke-linejoin:round;stroke-width:2.5511999130249023px"/><path d="M84.84,41.52a13,13,0,0,1,24.9-5.2c.3,0,.7-.1,1-.1a7.08,7.08,0,0,1,6.8,5.3" style="fill:none;stroke:#813194;stroke-linejoin:round;stroke-width:2.5511999130249023px"/><line x1="56.64" y1="58.52" x2="62.64" y2="58.52" style="fill:none;stroke:#813194;stroke-linejoin:round;stroke-width:2.5511999130249023px"/><line x1="64.64" y1="58.52" x2="75.64" y2="58.52" style="fill:none;stroke:#813194;stroke-linejoin:round;stroke-width:2.5511999130249023px"/><line x1="165.64" y1="50.52" x2="158.64" y2="50.52" style="fill:none;stroke:#813194;stroke-linejoin:round;stroke-width:2.5511999130249023px"/></svg>