<svg xmlns="http://www.w3.org/2000/svg" width="555" height="345" viewBox="0 0 555 345">
  <g fill="none" fill-rule="evenodd" transform="translate(37 36)">
    <path stroke="#84E29C" stroke-width="72.758" d="M155.989586,2.2047998 C139.091577,-0.528701563 110.03012,1.53511335 90.3967918,1.65359985 C49.1780225,1.9023538 23.1503979,0.55119995 8.26799925,28.6623974 C-6.6143994,56.7735949 0.55119995,74.4119933 14.8823987,133.941588 C29.2135974,193.471182 27.5599975,271.741575 84.3335924,270.087976 C141.107187,268.434376 198.431982,273.395175 286.072774,270.087976 C373.713566,266.780776 479.543957,296.545573 480.646356,200.636782 C481.748756,104.727991 352.216768,142.209587 303.159973,133.390388 C259.548714,120.540642 259.063977,101.420791 237.567178,80.4751927 C216.07038,59.5295946 193.471182,8.26799925 155.989586,2.2047998 Z" stroke-linejoin="round"/>
    <path stroke="#FFFFFF" stroke-width="68.349" d="M155.989586,2.2047998 C139.091577,-0.528701563 110.03012,1.53511335 90.3967918,1.65359985 C49.1780225,1.9023538 23.1503979,0.55119995 8.26799925,28.6623974 C-6.6143994,56.7735949 0.55119995,74.4119933 14.8823987,133.941588 C29.2135974,193.471182 27.5599975,271.741575 84.3335924,270.087976 C141.107187,268.434376 198.431982,273.395175 286.072774,270.087976 C373.713566,266.780776 479.543957,296.545573 480.646356,200.636782 C481.748756,104.727991 352.216768,142.209587 303.159973,133.390388 C259.548714,120.540642 259.063977,101.420791 237.567178,80.4751927 C216.07038,59.5295946 193.471182,8.26799925 155.989586,2.2047998 Z" stroke-linejoin="round"/>
    <path stroke="#313D46" stroke-width="63.939" d="M155.989586,2.2047998 C139.091577,-0.528701563 110.03012,1.53511335 90.3967918,1.65359985 C49.1780225,1.9023538 23.1503979,0.55119995 8.26799925,28.6623974 C-6.6143994,56.7735949 0.55119995,74.4119933 14.8823987,133.941588 C29.2135974,193.471182 27.5599975,271.741575 84.3335924,270.087976 C141.107187,268.434376 198.431982,273.395175 286.072774,270.087976 C373.713566,266.780776 479.543957,296.545573 480.646356,200.636782 C481.748756,104.727991 352.216768,142.209587 303.159973,133.390388 C259.548714,120.540642 259.063977,101.420791 237.567178,80.4751927 C216.07038,59.5295946 193.471182,8.26799925 155.989586,2.2047998 Z" stroke-linejoin="round"/>
    <path stroke="#FF9900" stroke-width="2.555" d="M155.989586,2.2047998 C139.091577,-0.528701563 110.03012,1.53511335 90.3967918,1.65359985 C49.1780225,1.9023538 23.1503979,0.55119995 8.26799925,28.6623974 C-6.6143994,56.7735949 0.55119995,74.4119933 14.8823987,133.941588 C29.2135974,193.471182 27.5599975,271.741575 84.3335924,270.087976 C141.107187,268.434376 198.431982,273.395175 286.072774,270.087976 C373.713566,266.780776 479.543957,296.545573 480.646356,200.636782 C481.748756,104.727991 352.216768,142.209587 303.159973,133.390388 C259.548714,120.540642 259.063977,101.420791 237.567178,80.4751927 C216.07038,59.5295946 193.471182,8.26799925 155.989586,2.2047998 Z" stroke-dasharray="10.219 6.813"/>
  </g>
</svg>
