<?xml version="1.0" encoding="UTF-8"?><svg id="a" xmlns="http://www.w3.org/2000/svg" viewBox="0 0 648 482"><defs><style>.b{stroke:#84e29c;stroke-width:48px;}.b,.c,.d,.e{fill:none;stroke-miterlimit:10;}.c{stroke:#313d46;stroke-width:36px;}.d{stroke:#f90;stroke-dasharray:0 0 9.98 6.99;stroke-width:2px;}.e{stroke:#fff;stroke-width:44px;}</style></defs><path class="b" d="M202.9,308.1c39.01,0,78.06,1.34,117.01-.71,71.7-5.57,67-104.65-3.28-108.16-10.64-.47-21.3,.28-31.95,.02-12.46-.3-24.94-.57-37.35-1.81-47.31-3.27-77.78-30.76-59.95-78.11,12.34-32.76,49.18-51.66,82.58-57.19,2.27-.38,4.57-.6,6.88-.72,42.75-2.22,85.62-.76,128.42,.03,36.87-.22,85.46,18.7,88.62,60.66,1.01,92.31,1.01,148.31,.01,234.87,.69,33.78-29.36,63.31-62.97,62.94-75.21,2.33-150.48,.43-225.72,.43-69.22,0-68.22-112.25-2.32-112.25Z"/><path class="e" d="M202.9,308.1c39.01,0,78.06,1.34,117.01-.71,71.7-5.57,67-104.65-3.28-108.16-10.64-.47-21.3,.28-31.95,.02-12.46-.3-24.94-.57-37.35-1.81-47.31-3.27-77.78-30.76-59.95-78.11,12.34-32.76,49.18-51.66,82.58-57.19,2.27-.38,4.57-.6,6.88-.72,42.75-2.22,85.62-.76,128.42,.03,36.87-.22,85.46,18.7,88.62,60.66,1.01,92.31,1.01,148.31,.01,234.87,.69,33.78-29.36,63.31-62.97,62.94-75.21,2.33-150.48,.43-225.72,.43-69.22,0-68.22-112.25-2.32-112.25Z"/><path class="c" d="M202.9,308.1c39.01,0,78.06,1.34,117.01-.71,71.7-5.57,67-104.65-3.28-108.16-10.64-.47-21.3,.28-31.95,.02-12.46-.3-24.94-.57-37.35-1.81-47.31-3.27-77.78-30.76-59.95-78.11,12.34-32.76,49.18-51.66,82.58-57.19,2.27-.38,4.57-.6,6.88-.72,42.75-2.22,85.62-.76,128.42,.03,36.87-.22,85.46,18.7,88.62,60.66,1.01,92.31,1.01,148.31,.01,234.87,.69,33.78-29.36,63.31-62.97,62.94-75.21,2.33-150.48,.43-225.72,.43-69.22,0-68.22-112.25-2.32-112.25Z"/><path class="d" d="M202.9,308.1c39.01,0,78.06,1.34,117.01-.71,71.7-5.57,67-104.65-3.28-108.16-10.64-.47-21.3,.28-31.95,.02-12.46-.3-24.94-.57-37.35-1.81-47.31-3.27-77.78-30.76-59.95-78.11,13.32-34.73,53.69-54.43,89.46-57.91,42.75-2.22,85.62-.76,128.42,.03,36.87-.22,85.46,18.7,88.62,60.66,1.01,92.31,1.01,148.31,.01,234.87,.69,33.78-29.36,63.31-62.97,62.94-75.21,2.33-150.48,.43-225.72,.43-69.22,0-68.22-112.25-2.32-112.25h0Z"/></svg>