<?xml version="1.0" encoding="UTF-8"?><svg id="a" xmlns="http://www.w3.org/2000/svg" viewBox="0 0 648 482"><defs><style>.b{stroke:#84e29c;stroke-width:48px;}.b,.c,.d,.e{fill:none;stroke-miterlimit:10;}.c{stroke:#313d46;stroke-width:36px;}.d{stroke:#f90;stroke-dasharray:0 0 9.97 6.98;stroke-width:2px;}.e{stroke:#fff;stroke-width:44px;}</style></defs><path class="b" d="M576.84,250.99c-2.18,9.23-7.09,24.41-10.28,36.51-2.93,13.21-9.68,26.88-4.46,40.32,5.33,12.39,18.62,20.84,19.36,35.32,1.18,12.48-2.63,22.18-17.21,19-11.93-1.45-23.69-3.9-35.52-6.03-44.59-8.4-88.66-19.29-132.75-29.94-41.21-9.4-82.05-20.25-120-39.26-38.73-17.52-77.02-35.97-116.1-52.73-22.32-9.75-46.37-17.58-63.78-35.41-18.35-18.57-35.59-44.17-27.76-71.34,4.5-17.01,3.17-52.14,29.04-47.46,19.8,5.95,38.83,14.47,58.4,21.2,63.43,20.95,125.11,46.49,186.91,71.73,18.37,7.02,41.93,5.29,56.08-9.46,9.82-11.48,10.75-28.11,19.22-40.51,9.22-15.42,29.72-21.09,46.4-15.65,53.9,13.48,113.59,34.77,116.28,95.45,.27,6-2.18,21.31-3.82,28.24Z"/><path class="e" d="M576.84,250.99c-2.18,9.23-7.09,24.41-10.28,36.51-2.93,13.21-9.68,26.88-4.46,40.32,5.33,12.39,18.62,20.84,19.36,35.32,1.18,12.48-2.63,22.18-17.21,19-11.93-1.45-23.69-3.9-35.52-6.03-44.59-8.4-88.66-19.29-132.75-29.94-41.21-9.4-82.05-20.25-120-39.26-38.73-17.52-77.02-35.97-116.1-52.73-22.32-9.75-46.37-17.58-63.78-35.41-18.35-18.57-35.59-44.17-27.76-71.34,4.5-17.01,3.17-52.14,29.04-47.46,19.8,5.95,38.83,14.47,58.4,21.2,63.43,20.95,125.11,46.49,186.91,71.73,18.37,7.02,41.93,5.29,56.08-9.46,9.82-11.48,10.75-28.11,19.22-40.51,9.22-15.42,29.72-21.09,46.4-15.65,53.9,13.48,113.59,34.77,116.28,95.45,.27,6-2.18,21.31-3.82,28.24Z"/><path class="c" d="M576.84,250.99c-2.18,9.23-7.09,24.41-10.28,36.51-2.93,13.21-9.68,26.88-4.46,40.32,5.33,12.39,18.62,20.84,19.36,35.32,1.18,12.48-2.63,22.18-17.21,19-11.93-1.45-23.69-3.9-35.52-6.03-44.59-8.4-88.66-19.29-132.75-29.94-41.21-9.4-82.05-20.25-120-39.26-38.73-17.52-77.02-35.97-116.1-52.73-22.32-9.75-46.37-17.58-63.78-35.41-18.35-18.57-35.59-44.17-27.76-71.34,4.5-17.01,3.17-52.14,29.04-47.46,19.8,5.95,38.83,14.47,58.4,21.2,63.43,20.95,125.11,46.49,186.91,71.73,18.37,7.02,41.93,5.29,56.08-9.46,9.82-11.48,10.75-28.11,19.22-40.51,9.22-15.42,29.72-21.09,46.4-15.65,53.9,13.48,113.59,34.77,116.28,95.45,.27,6-2.18,21.31-3.82,28.24Z"/><path class="d" d="M576.84,250.99c-2.18,9.23-7.09,24.41-10.28,36.51-2.93,13.21-9.68,26.88-4.46,40.32,5.33,12.39,18.62,20.84,19.36,35.32,1.18,12.48-2.63,22.18-17.21,19-11.93-1.45-23.69-3.9-35.52-6.03-44.59-8.4-88.66-19.29-132.75-29.94-41.21-9.4-82.05-20.25-120-39.26-38.73-17.52-77.02-35.97-116.1-52.73-22.32-9.75-46.37-17.58-63.78-35.41-18.35-18.57-35.59-44.17-27.76-71.34,4.5-17.01,3.17-52.14,29.04-47.46,82.55,28.81,164.67,59.04,245.3,92.94,18.37,7.02,41.93,5.29,56.08-9.46,9.82-11.48,10.75-28.11,19.22-40.51,9.22-15.42,29.72-21.09,46.4-15.65,65.73,15.14,132.93,47.26,112.46,123.7h0Z"/></svg>