<?xml version="1.0" encoding="utf-8"?>
<!-- Generator: Adobe Illustrator 26.0.2, SVG Export Plug-In . SVG Version: 6.00 Build 0)  -->
<svg version="1.1" id="Layer_1" xmlns="http://www.w3.org/2000/svg" xmlns:xlink="http://www.w3.org/1999/xlink" x="0px" y="0px"
	 viewBox="0 0 5484.9 2390.2" style="enable-background:new 0 0 5484.9 2390.2;" xml:space="preserve">
<style type="text/css">
	.st0{fill:none;stroke:#8FCD97;stroke-width:490.3347;stroke-miterlimit:10;}
	.st1{fill:none;stroke:#FFFFFF;stroke-width:469.9041;stroke-miterlimit:10;}
	.st2{fill:none;stroke:#313D46;stroke-width:388.1817;stroke-miterlimit:10;}
	.st3{fill:#F8991D;}
	.st4{display:none;}
	.st5{display:inline;fill:none;stroke:#0DE8F9;stroke-width:3.0709;stroke-miterlimit:10;}
	.st6{display:inline;fill:none;stroke:#F7410F;stroke-width:4.1575;stroke-miterlimit:10;}
	.st7{display:inline;fill:#0DE8F9;}
	.st8{display:inline;fill:#F7410F;}
	.st9{display:inline;fill:none;stroke:#0DE8F9;stroke-width:3.643;stroke-miterlimit:10;}
	.st10{font-family:'ArialMT';}
	.st11{font-size:12px;}
</style>
<g id="Layer_1_00000019645213104183217300000015663602947550761623_">
	<path class="st0" d="M4714.8,1934.6c-33.9,0.8-58.6-0.5-101-2.6c-41.7-2.1-72.5-4.8-79.8-5.4c-10.3-0.9-47.2-4.2-95.9-10.5
		c-15.3-2-6.6-1-83.2-12.3c-51.2-7.6-63-11-84-14.8c-19.4-3.5-38.1-10.4-56-19.6c-9.6-4.9-41.1-20.9-72.3-53.6
		c-21.9-23-34.8-44.7-40.8-55.9c-15.2-28-15.5-41.1-26-70.7c-11.1-31.1-29.3-82.2-73.7-120.4c-29-25-58.9-35.5-76.9-41.9
		c-18.6-6.6-29.2-8.1-93.7-17.7c-36.2-5.4-72.5-10.9-108.7-16.2c-25.9-3.8-63.5-9.4-109.5-16.7c-35.1-1.1-84.2-1.1-142.6,4.1
		c-51.1,4.6-83.7,7.5-126.4,19.3c-49.5,13.7-106.3,33.8-161.4,79.1c-29.5,24.2-49.4,56.9-77.2,84.3c-29.7,29.4-52.6,47.1-58.5,51.8
		c-17.8,14-46.1,36.2-87.2,58.6c-22.4,12.2-50.5,27.2-90.2,38c-13.4,3.6-27.4,6.9-46.5,9c-27.9,3.1-55.9-3.6-81.6-6.9
		c-52.7-7.8-100.7-21.9-148.6-43.1c-70.5-31.3-70.3-41.8-125.1-64.8c-54.8-22.9-99.3-30.2-115.4-32.5c-46.6-6.6-82.6-4.2-93.7-3.3
		c-8.8,0.7-60.4,5.1-111.5,24.5c-4.3,1.6-65.7,27-85.6,32.7c-38,10.9-69.9,17.7-113.1,23.4c-21.8,2.8-47,6.1-80.8,6.6
		c-16.1,0.2-26.9-0.3-113-7.9c-38.4-3.4-59.7-5.3-91.9-8.4c-42.1-4-23.1-2.5-92.9-9.4c0,0-35.9-3.6-82.3-9.9
		c-4-0.5-69.1-11.6-83.8-14.7c-18.6-3.4-33.7-12.2-53-18c-40.2-13.4-84.6-27.6-125.2-40.7c-67.8-21.8-101.9-31.9-129-38.2
		c-24.1-5.6-65.8-14.3-118.3-20.3c-63.3-7.3-62.5-0.3-129.7-9.5c-36.9-5.1-75.1-13.3-112.3-20.3c-17.1-3.6-34-7.3-48.9-13.9
		c-35.1-8.1-65.3-15.7-97.2-24.4c-27.5-7.4-50-16.6-75.7-27.8c-18.2-7-34-14-47.6-20.8c-27.1-13.7-43.6-23-58.2-40.8
		c-19.8-24-24.2-50.1-26.8-65.5c-1.5-9-3.6-25.9,4.5-83.4c2.5-18,5.2-33.8,14.3-81.2c8.5-44,15.6-79.5,20.5-103.4
		c2-10,7.8-38.4,18.5-89.9c12.3-59.3,18.5-89,24.6-117.7c0,0,12.5-58.3,28.4-135c0.9-4.4,8-47.3,11.7-67.9
		c6.1-30.7,12.9-64.8,22.4-96.9c13.8-46.8,21.1-73.4,38.1-106.3c20.3-39.3,40.3-78.2,84.7-103c32.6-18.2,63.5-20.5,75.4-21.3
		c12.3-0.8,50-2,91.3,17.2c18.6,8.6,26.8,9.2,78.5,60.9c65.5,65.5,95.9,74.7,185.7,87.8c35.6,5.2,66,9.3,94,11.8
		c75.6,6.7,135.2,7.1,157.9,7.1c74.5,0,77-4.6,182-6.9c40.3-0.9,69.2-0.8,123.7-0.7c70.9,0.1,80.6,0.9,169.3,1.7
		c57.1,0.5,50.7,0.1,204.9,0.8c0.4,0,64,0.3,129.5,0.6c107.6,0.5,161.4,0.7,193.4,0.7c49.1,0,81.6-0.1,106.6-0.2
		c47.2-0.3,68.1-0.7,125.6-0.1c94.5,0.9,92.7,2.4,155,2.3c37.6-0.1,68.7-0.2,95.5-0.5c50.2-0.7,85.4-2.3,120.8-6.9
		c65.2-8.4,92.1-3.6,139.3-16.6c26.1-7.1,58.4-19.7,106.8-42.9c30.1-14.4,63.2-22,96.7-24.5s67.5,0.3,99.4,6.5
		c25.7,5.2,50.1,12.9,74.3,21.3c28.1,9.8,55.9,20.4,85.3,29.1c33.3,10.2,67.4,17.6,104.2,22.8c34.8,8.7,70.8,10,106.5,9.5
		c57.8-0.3,115.7-2.5,173.5-2.6c61.6-0.1,123.2,2.4,184.8,2.3c61.9-0.1,60.6-1.2,152.4-1.9c71.8-0.6,69.8,0.2,157.6-0.2
		c92.9-0.4,122.2-1.3,184.9,0c99.7,2.1,126.6,6.6,155.9,16.3c33.5,11.1,72.3,23.9,103.8,59.9c28.1,32,37.3,67.4,53.2,128.5
		c6.2,23.9,10.1,45.7,17.7,89.3c6.7,38,6.3,41.9,14.7,91.3c9.3,54.6,10.7,55.8,14.7,85.2c3,22.8,2.4,23.7,7.9,78.6
		c3.3,32.3,6,56.2,8.6,79.2c4.9,43.7,5.7,47.8,12.4,105.3c0.8,7.2,3.5,31.2,9,79.3c7.5,66.3,8.2,72.9,9.3,83.5
		c4.7,45.9,3.9,45.4,7.3,75.1c4.8,41.8,6.9,46.6,9.9,76.7c3.5,34.8,5.3,54.2,4.4,78.9c-1.5,43.9-9.7,85.6-30.3,123.1
		c-16.5,30.1-37.1,48.5-50,60.3c-27.5,25.2-53,38.5-69.4,47c-44.7,23-82.6,30.7-92.8,32.6
		C4768.1,1933.4,4750.3,1933.8,4714.8,1934.6z"/>
	<path class="st1" d="M4714.8,1934.6c-33.9,0.8-58.6-0.5-101-2.6c-41.7-2.1-72.5-4.8-79.8-5.4c-10.3-0.9-47.2-4.2-95.9-10.5
		c-15.3-2-6.6-1-83.2-12.3c-51.2-7.6-63-11-84-14.8c-19.4-3.5-38.1-10.4-56-19.6c-9.6-4.9-41.1-20.9-72.3-53.6
		c-21.9-23-34.8-44.7-40.8-55.9c-15.2-28-15.5-41.1-26-70.7c-11.1-31.1-29.3-82.2-73.7-120.4c-29-25-58.9-35.5-76.9-41.9
		c-18.6-6.6-29.2-8.1-93.7-17.7c-36.2-5.4-72.5-10.9-108.7-16.2c-25.9-3.8-63.5-9.4-109.5-16.7c-35.1-1.1-84.2-1.1-142.6,4.1
		c-51.1,4.6-83.7,7.5-126.4,19.3c-49.5,13.7-106.3,33.8-161.4,79.1c-29.5,24.2-49.4,56.9-77.2,84.3c-29.7,29.4-52.6,47.1-58.5,51.8
		c-17.8,14-46.1,36.2-87.2,58.6c-22.4,12.2-50.5,27.2-90.2,38c-13.4,3.6-27.4,6.9-46.5,9c-27.9,3.1-55.9-3.6-81.6-6.9
		c-52.7-7.8-100.7-21.9-148.6-43.1c-70.5-31.3-70.3-41.8-125.1-64.8c-54.8-22.9-99.3-30.2-115.4-32.5c-46.6-6.6-82.6-4.2-93.7-3.3
		c-8.8,0.7-60.4,5.1-111.5,24.5c-4.3,1.6-65.7,27-85.6,32.7c-38,10.9-69.9,17.7-113.1,23.4c-21.8,2.8-47,6.1-80.8,6.6
		c-16.1,0.2-26.9-0.3-113-7.9c-38.4-3.4-59.7-5.3-91.9-8.4c-42.1-4-23.1-2.5-92.9-9.4c0,0-35.9-3.6-82.3-9.9
		c-4-0.5-69.1-11.6-83.8-14.7c-18.6-3.4-33.7-12.2-53-18c-40.2-13.4-84.6-27.6-125.2-40.7c-67.8-21.8-101.9-31.9-129-38.2
		c-24.1-5.6-65.8-14.3-118.3-20.3c-63.3-7.3-62.5-0.3-129.7-9.5c-36.9-5.1-75.1-13.3-112.3-20.3c-17.1-3.6-34-7.3-48.9-13.9
		c-35.1-8.1-65.3-15.7-97.2-24.4c-27.5-7.4-50-16.6-75.7-27.8c-18.2-7-34-14-47.6-20.8c-27.1-13.7-43.6-23-58.2-40.8
		c-19.8-24-24.2-50.1-26.8-65.5c-1.5-9-3.6-25.9,4.5-83.4c2.5-18,5.2-33.8,14.3-81.2c8.5-44,15.6-79.5,20.5-103.4
		c2-10,7.8-38.4,18.5-89.9c12.3-59.3,18.5-89,24.6-117.7c0,0,12.5-58.3,28.4-135c0.9-4.4,8-47.3,11.7-67.9
		c6.1-30.7,12.9-64.8,22.4-96.9c13.8-46.8,21.1-73.4,38.1-106.3c20.3-39.3,40.3-78.2,84.7-103c32.6-18.2,63.5-20.5,75.4-21.3
		c12.3-0.8,50-2,91.3,17.2c18.6,8.6,26.8,9.2,78.5,60.9c65.5,65.5,95.9,74.7,185.7,87.8c35.6,5.2,66,9.3,94,11.8
		c75.6,6.7,135.2,7.1,157.9,7.1c74.5,0,77-4.6,182-6.9c40.3-0.9,69.2-0.8,123.7-0.7c70.9,0.1,80.6,0.9,169.3,1.7
		c57.1,0.5,50.7,0.1,204.9,0.8c0.4,0,64,0.3,129.5,0.6c107.6,0.5,161.4,0.7,193.4,0.7c49.1,0,81.6-0.1,106.6-0.2
		c47.2-0.3,68.1-0.7,125.6-0.1c94.5,0.9,92.7,2.4,155,2.3c37.6-0.1,68.7-0.2,95.5-0.5c50.2-0.7,85.4-2.3,120.8-6.9
		c65.2-8.4,92.1-3.6,139.3-16.6c26.1-7.1,58.4-19.7,106.8-42.9c30.1-14.4,63.2-22,96.7-24.5s67.5,0.3,99.4,6.5
		c25.7,5.2,50.1,12.9,74.3,21.3c28.1,9.8,55.9,20.4,85.3,29.1c33.3,10.2,67.4,17.6,104.2,22.8c34.8,8.7,70.8,10,106.5,9.5
		c57.8-0.3,115.7-2.5,173.5-2.6c61.6-0.1,123.2,2.4,184.8,2.3c61.9-0.1,60.6-1.2,152.4-1.9c71.8-0.6,69.8,0.2,157.6-0.2
		c92.9-0.4,122.2-1.3,184.9,0c99.7,2.1,126.6,6.6,155.9,16.3c33.5,11.1,72.3,23.9,103.8,59.9c28.1,32,37.3,67.4,53.2,128.5
		c6.2,23.9,10.1,45.7,17.7,89.3c6.7,38,6.3,41.9,14.7,91.3c9.3,54.6,10.7,55.8,14.7,85.2c3,22.8,2.4,23.7,7.9,78.6
		c3.3,32.3,6,56.2,8.6,79.2c4.9,43.7,5.7,47.8,12.4,105.3c0.8,7.2,3.5,31.2,9,79.3c7.5,66.3,8.2,72.9,9.3,83.5
		c4.7,45.9,3.9,45.4,7.3,75.1c4.8,41.8,6.9,46.6,9.9,76.7c3.5,34.8,5.3,54.2,4.4,78.9c-1.5,43.9-9.7,85.6-30.3,123.1
		c-16.5,30.1-37.1,48.5-50,60.3c-27.5,25.2-53,38.5-69.4,47c-44.7,23-82.6,30.7-92.8,32.6
		C4768.1,1933.4,4750.3,1933.8,4714.8,1934.6z"/>
	<path class="st2" d="M4714.8,1934.6c-33.9,0.8-58.6-0.5-101-2.6c-41.7-2.1-72.5-4.8-79.8-5.4c-10.3-0.9-47.2-4.2-95.9-10.5
		c-15.3-2-6.6-1-83.2-12.3c-51.2-7.6-63-11-84-14.8c-19.4-3.5-38.1-10.4-56-19.6c-9.6-4.9-41.1-20.9-72.3-53.6
		c-21.9-23-34.8-44.7-40.8-55.9c-15.2-28-15.5-41.1-26-70.7c-11.1-31.1-29.3-82.2-73.7-120.4c-29-25-58.9-35.5-76.9-41.9
		c-18.6-6.6-29.2-8.1-93.7-17.7c-36.2-5.4-72.5-10.9-108.7-16.2c-25.9-3.8-63.5-9.4-109.5-16.7c-35.1-1.1-84.2-1.1-142.6,4.1
		c-51.1,4.6-83.7,7.5-126.4,19.3c-49.5,13.7-106.3,33.8-161.4,79.1c-29.5,24.2-49.4,56.9-77.2,84.3c-29.7,29.4-52.6,47.1-58.5,51.8
		c-17.8,14-46.1,36.2-87.2,58.6c-22.4,12.2-50.5,27.2-90.2,38c-13.4,3.6-27.4,6.9-46.5,9c-27.9,3.1-55.9-3.6-81.6-6.9
		c-52.7-7.8-100.7-21.9-148.6-43.1c-70.5-31.3-70.3-41.8-125.1-64.8c-54.8-22.9-99.3-30.2-115.4-32.5c-46.6-6.6-82.6-4.2-93.7-3.3
		c-8.8,0.7-60.4,5.1-111.5,24.5c-4.3,1.6-65.7,27-85.6,32.7c-38,10.9-69.9,17.7-113.1,23.4c-21.8,2.8-47,6.1-80.8,6.6
		c-16.1,0.2-26.9-0.3-113-7.9c-38.4-3.4-59.7-5.3-91.9-8.4c-42.1-4-23.1-2.5-92.9-9.4c0,0-35.9-3.6-82.3-9.9
		c-4-0.5-69.1-11.6-83.8-14.7c-18.6-3.4-33.7-12.2-53-18c-40.2-13.4-84.6-27.6-125.2-40.7c-67.8-21.8-101.9-31.9-129-38.2
		c-24.1-5.6-65.8-14.3-118.3-20.3c-63.3-7.3-62.5-0.3-129.7-9.5c-36.9-5.1-75.1-13.3-112.3-20.3c-17.1-3.6-34-7.3-48.9-13.9
		c-35.1-8.1-65.3-15.7-97.2-24.4c-27.5-7.4-50-16.6-75.7-27.8c-18.2-7-34-14-47.6-20.8c-27.1-13.7-43.6-23-58.2-40.8
		c-19.8-24-24.2-50.1-26.8-65.5c-1.5-9-3.6-25.9,4.5-83.4c2.5-18,5.2-33.8,14.3-81.2c8.5-44,15.6-79.5,20.5-103.4
		c2-10,7.8-38.4,18.5-89.9c12.3-59.3,18.5-89,24.6-117.7c0,0,12.5-58.3,28.4-135c0.9-4.4,8-47.3,11.7-67.9
		c6.1-30.7,12.9-64.8,22.4-96.9c13.8-46.8,21.1-73.4,38.1-106.3c20.3-39.3,40.3-78.2,84.7-103c32.6-18.2,63.5-20.5,75.4-21.3
		c12.3-0.8,50-2,91.3,17.2c18.6,8.6,26.8,9.2,78.5,60.9c65.5,65.5,95.9,74.7,185.7,87.8c35.6,5.2,66,9.3,94,11.8
		c75.6,6.7,135.2,7.1,157.9,7.1c74.5,0,77-4.6,182-6.9c40.3-0.9,69.2-0.8,123.7-0.7c70.9,0.1,80.6,0.9,169.3,1.7
		c57.1,0.5,50.7,0.1,204.9,0.8c0.4,0,64,0.3,129.5,0.6c107.6,0.5,161.4,0.7,193.4,0.7c49.1,0,81.6-0.1,106.6-0.2
		c47.2-0.3,68.1-0.7,125.6-0.1c94.5,0.9,92.7,2.4,155,2.3c37.6-0.1,68.7-0.2,95.5-0.5c50.2-0.7,85.4-2.3,120.8-6.9
		c65.2-8.4,92.1-3.6,139.3-16.6c26.1-7.1,58.4-19.7,106.8-42.9c30.1-14.4,63.2-22,96.7-24.5s67.5,0.3,99.4,6.5
		c25.7,5.2,50.1,12.9,74.3,21.3c28.1,9.8,55.9,20.4,85.3,29.1c33.3,10.2,67.4,17.6,104.2,22.8c34.8,8.7,70.8,10,106.5,9.5
		c57.8-0.3,115.7-2.5,173.5-2.6c61.6-0.1,123.2,2.4,184.8,2.3c61.9-0.1,60.6-1.2,152.4-1.9c71.8-0.6,69.8,0.2,157.6-0.2
		c92.9-0.4,122.2-1.3,184.9,0c99.7,2.1,126.6,6.6,155.9,16.3c33.5,11.1,72.3,23.9,103.8,59.9c28.1,32,37.3,67.4,53.2,128.5
		c6.2,23.9,10.1,45.7,17.7,89.3c6.7,38,6.3,41.9,14.7,91.3c9.3,54.6,10.7,55.8,14.7,85.2c3,22.8,2.4,23.7,7.9,78.6
		c3.3,32.3,6,56.2,8.6,79.2c4.9,43.7,5.7,47.8,12.4,105.3c0.8,7.2,3.5,31.2,9,79.3c7.5,66.3,8.2,72.9,9.3,83.5
		c4.7,45.9,3.9,45.4,7.3,75.1c4.8,41.8,6.9,46.6,9.9,76.7c3.5,34.8,5.3,54.2,4.4,78.9c-1.5,43.9-9.7,85.6-30.3,123.1
		c-16.5,30.1-37.1,48.5-50,60.3c-27.5,25.2-53,38.5-69.4,47c-44.7,23-82.6,30.7-92.8,32.6
		C4768.1,1933.4,4750.3,1933.8,4714.8,1934.6z"/>
	<g>
		<path class="st3" d="M4695,1945.1c-12.8,0-25.8-0.3-42.3-1l0.8-20.4c24.5,1,41.3,1.2,61,0.7c23.5-0.5,38.9-0.9,53.1-2.3l2,20.3
			c-15,1.5-30.7,1.8-54.6,2.4C4708.2,1945,4701.6,1945.1,4695,1945.1z M4590.9,1941c-27.3-1.6-47.8-3.4-55.5-4l-2.2-0.2
			c-1.1-0.1-2.5-0.2-4.1-0.4l1.8-20.3c1.6,0.1,3,0.3,4,0.4l2.2,0.2c8.4,0.7,28,2.3,55,4L4590.9,1941z M4467.4,1930
			c-10.2-1.2-20.4-2.5-30.6-3.8c-7.8-1-9.5-1.3-18.8-2.7c-3-0.5-6.8-1-11.9-1.8l3-20.2c5.1,0.8,8.9,1.3,12,1.8
			c9.2,1.4,10.8,1.6,18.4,2.6c10.1,1.3,20.3,2.6,30.3,3.7L4467.4,1930z M4832,1929l-6.3-19.4c18.3-5.9,36.2-13.3,53.3-22.1l2-1
			l9.4,18.1l-2.1,1.1C4870.3,1914.9,4851.3,1922.8,4832,1929z M4345.1,1912.7c-31.3-4.8-46.3-7.8-59.6-10.4l-1.6-0.3l4-20l1.6,0.3
			c13,2.6,27.8,5.6,58.7,10.3L4345.1,1912.7z M4222.6,1884.4c-4.1-1.8-8.2-3.8-12.4-5.9l-0.1-0.1c-6.9-3.5-23-11.7-42.5-26.6
			l12.4-16.3c18.1,13.8,33.1,21.4,39.4,24.7l0.1,0.1c3.8,2,7.6,3.8,11.4,5.5L4222.6,1884.4z M4944.1,1870.5l-12.7-16
			c5-4,10-8.2,14.7-12.6l1.1-1c7.7-7,17.2-15.8,27.1-27.6l15.7,13c-10.7,13-21.3,22.6-29,29.7l-1.1,1
			C4954.9,1861.7,4949.5,1866.3,4944.1,1870.5z M2785.9,1830.2c-9.3-1-18.4-2.4-27.2-3.8c-6.4-1-12.4-1.9-18.3-2.7l-0.2,0
			c-5.4-0.8-10.7-1.7-16-2.6l3.5-20.1c5,0.9,10.2,1.7,15.3,2.5c6.2,0.8,12.6,1.8,18.8,2.8c8.6,1.3,17.4,2.7,26.2,3.7L2785.9,1830.2z
			 M2850.4,1826.6l-4-20c8.1-1.6,15.1-3.4,20.8-5c12.5-3.4,24.4-7.4,36.4-12.2l7.6,19c-12.7,5.1-25.4,9.3-38.7,12.9
			C2866.7,1822.9,2859,1824.9,2850.4,1826.6z M4121.6,1807.4c-14-17.1-23.4-32.6-28.8-42.7c-2.1-3.9-4-7.6-5.7-11.3l18.5-8.7
			c1.6,3.3,3.3,6.7,5.2,10.3c5,9.3,13.6,23.6,26.6,39.4L4121.6,1807.4z M2663,1807c-20-5.8-39.4-12.6-59.2-20.8l7.8-18.9
			c19.1,7.9,37.8,14.4,57.1,20.1L2663,1807z M2967.7,1780.9l-9.9-17.9c17.7-9.8,34.5-20.3,51.3-32.2l11.8,16.7
			C3003.5,1759.8,2986.1,1770.7,2967.7,1780.9z M5023.1,1770.9l-18.9-7.8c7.2-17.5,12.2-36.2,15.4-57.1l20.2,3.1
			C5036.4,1731.7,5030.9,1751.9,5023.1,1770.9z M1839.1,1766.4c-12.4-0.8-30.9-2.3-61.7-5l1.8-20.4c30.7,2.7,49,4.1,61.2,4.9
			L1839.1,1766.4z M1902.1,1765.8l-1.5-20.4c17.4-1.3,32.4-3.2,45.7-4.9l1-0.1c4.7-0.6,9.4-1.3,13.8-1.9l3,20.2
			c-4.5,0.7-9.2,1.3-14.1,2l-1.1,0.1C1935.4,1762.5,1920,1764.5,1902.1,1765.8z M2547.1,1759.6c-11.8-6.3-20.5-11.6-29-16.7
			c-7.9-4.7-15.3-9.2-24.3-14l9.5-18.1c9.6,5,17.2,9.7,25.4,14.6c8.2,5,16.8,10.1,28.1,16.1L2547.1,1759.6z M1716,1756
			c-19.5-1.8-35.1-3.2-54-5c-2.7-0.3-5.2-0.5-7.5-0.7l2-20.3c2.3,0.2,4.7,0.5,7.5,0.7c18.8,1.8,34.4,3.3,53.9,5L1716,1756z
			 M2025.6,1747.1l-4.7-19.9c12-2.8,24.5-6.1,38.1-10c4.2-1.2,10.9-3.5,20-6.9l7.1,19.2c-9.6,3.6-16.7,6-21.4,7.4
			C2050.7,1740.9,2037.9,1744.3,2025.6,1747.1z M1593.4,1744c-6.7-0.7-14.6-1.5-24.3-2.4c-0.2,0-14.9-1.5-37.3-4.2l2.4-20.3
			c22.2,2.6,36.7,4.1,36.9,4.1c9.7,1,17.6,1.7,24.3,2.4L1593.4,1744z M1470.1,1729c-19.3-3.3-46.7-8-61.1-10.8l3.8-20.1
			c14.3,2.7,41.5,7.4,60.7,10.7L1470.1,1729z M3070.4,1709.2l-13.1-15.6c13.8-11.6,27.7-24.3,41.3-37.7c1.1-1.1,2.3-2.2,3.4-3.4
			l14.6,14.3c-1.2,1.2-2.4,2.4-3.6,3.6C3098.9,1684.2,3084.6,1697.2,3070.4,1709.2z M2143.9,1706.8l-7.7-18.9
			c4.6-1.9,6.8-2.7,7.6-3.1c16.2-6.1,34-11.4,52.9-15.6l4.5,19.9c-18,4-34.8,9-50.2,14.8C2150.3,1704.2,2146.9,1705.6,2143.9,1706.8
			z M2438.5,1705.3c-19.2-6.8-38.8-12.4-58.1-16.6l4.4-20c20.1,4.4,40.5,10.2,60.5,17.3L2438.5,1705.3z M1349.3,1699
			c-0.4-0.1-0.8-0.3-1.3-0.4l-0.3-0.1c-16.4-5.5-34.6-11.4-57.2-18.8l6.3-19.4c22.6,7.3,40.8,13.3,57.2,18.8
			c0.4,0.1,0.9,0.3,1.3,0.4L1349.3,1699z M4066.7,1694.2c-0.2-0.5-0.4-1-0.6-1.6l0-0.1c-5.4-15.1-12.1-33.9-22.6-53.9l18.1-9.5
			c11.1,21.2,18.4,41.6,23.7,56.5l0,0.1c0.2,0.6,0.4,1.1,0.6,1.7L4066.7,1694.2z M2320.9,1680.1c-20.7-1.5-41.8-1.5-60.1-0.1
			l-1.6-20.4c19.3-1.5,41.5-1.5,63.2,0.1L2320.9,1680.1z M1231.8,1660.8l-9.2-3c-19.4-6.2-35.6-11.4-49.5-15.7l6.1-19.5
			c14,4.4,30.3,9.5,49.7,15.8l9.2,3L1231.8,1660.8z M5023.3,1646.3c-0.4-16.2-1.9-32.8-4.5-58.1l-0.3-2.5l20.3-2.1l0.3,2.6
			c2.6,25.8,4.2,42.7,4.6,59.7L5023.3,1646.3z M1114.4,1624.8c-7.1-1.9-13.6-3.5-19.9-5c-12.8-3-26.2-5.8-39.6-8.3l3.8-20.1
			c13.7,2.6,27.3,5.5,40.4,8.5c6.5,1.5,13.2,3.2,20.5,5.1L1114.4,1624.8z M3157.2,1619.5l-15.6-13.2c9.4-11.1,20.9-24,34.8-35.4
			c3.7-3,7.4-6,11.2-8.8l12.4,16.3c-3.5,2.7-7.1,5.5-10.6,8.4C3176.7,1597.1,3166,1609.1,3157.2,1619.5z M994.6,1601.9
			c-5.7-0.7-11.5-1.5-17.2-2.1c-16.6-1.9-29.9-3-43.2-3.5l0.8-20.4c13.8,0.5,27.6,1.6,44.7,3.6c5.8,0.7,11.7,1.4,17.5,2.2
			L994.6,1601.9z M872,1593.2c-7.6-0.8-15.6-1.8-24.6-3c-11.2-1.6-23.4-3.5-37.1-5.9l3.6-20.1c13.5,2.4,25.4,4.3,36.3,5.8
			c8.8,1.2,16.6,2.2,24,2.9L872,1593.2z M4009.9,1590.5c-4.6-4.9-9.5-9.6-14.5-13.9c-9.5-8.2-20.1-15.6-31.5-21.8l9.9-17.9
			c12.6,7,24.3,15.1,34.9,24.2c5.6,4.8,11,10,16.1,15.5L4009.9,1590.5z M749.5,1572.7c-5-1-10-1.9-14.9-2.9l-0.2,0
			c-17.1-3.6-32.3-7-46.5-12.7l7.6-19c12.6,5,26.9,8.3,43,11.6c5,0.9,9.9,1.9,14.9,2.9L749.5,1572.7z M3250.5,1546.2l-9.5-18.1
			c18-9.4,37-17.6,58-25l6.8,19.3C3285.7,1529.4,3267.6,1537.2,3250.5,1546.2z M629.5,1542.4c-13.8-3.5-27.4-7.1-41.7-11
			c-6.2-1.7-12.2-3.4-18.4-5.4l6.2-19.5c5.8,1.9,11.6,3.6,17.5,5.1c14.2,3.9,27.8,7.4,41.4,10.9L629.5,1542.4z M3909.2,1532.6
			c-11.5-3-27-5.5-59.6-10.4l3-20.2c34.1,5.1,49.3,7.5,61.8,10.8L3909.2,1532.6z M5010.5,1524.8c-0.5-4-1-8.3-1.6-13.2
			c-1.8-15.5-2.4-22.8-3.3-32.8c-0.4-4.4-0.8-9.3-1.4-15.6l20.3-1.9c0.6,6.4,1,11.3,1.4,15.7c0.9,9.9,1.5,17,3.2,32.2
			c0.5,4.8,1.1,9.1,1.5,13L5010.5,1524.8z M3788.6,1513.1c-19.5-2.9-40.3-6-61-9.1l3-20.2c20.7,3,41.5,6.2,61.1,9.1L3788.6,1513.1z
			 M3363.9,1505.2l-4.7-19.9c19.3-4.5,37.8-7.7,62-10.4l2.3,20.3C3400.2,1497.9,3382.3,1500.9,3363.9,1505.2z M511,1503.2
			c0,0-0.1,0-0.1,0l0,0l-0.1,0c-17.5-6.7-33.7-13.8-48.3-21.1c-3-1.5-5.8-2.9-8.5-4.3l9.4-18.1c2.6,1.4,5.4,2.8,8.3,4.2
			c14,7,29.7,13.9,46.7,20.4l0.7,0.3l-7.1,16.4L511,1503.2z M3666.5,1494.9c-18.1-2.8-36.3-5.6-54.2-8.4c-1.8-0.1-3.7-0.1-5.6-0.2
			l0.5-20.4c2.2,0.1,4.3,0.1,6.3,0.2l0.6,0l0.6,0.1c18.1,2.9,36.5,5.7,54.7,8.5L3666.5,1494.9z M3484.5,1489.5l-1.6-20.4
			c20.6-1.6,41.5-2.7,62.1-3.2l0.5,20.4C3525.3,1486.9,3504.8,1487.9,3484.5,1489.5z M401.4,1439.1l-0.4-0.5
			c-17.8-21.6-24-44.4-27-59.6l20-4c2.6,13.1,7.9,32.5,22.8,50.6l0.4,0.4L401.4,1439.1z M4997.9,1402.2c-1.3-11.2-3-26.8-5.5-49.2
			l-1.4-12.1l20.3-2.3l1.4,12.1c2.5,22.4,4.3,38,5.5,49.2L4997.9,1402.2z M392.8,1316.6l-20.3-2c1-9.7,2.3-20.8,4-32.8
			c1.4-9.8,2.7-18.2,4.6-29l20.1,3.5c-1.8,10.5-3.1,18.7-4.5,28.3C395.1,1296.4,393.7,1307.2,392.8,1316.6z M4984,1279.6l-0.7-5.9
			c-3-25.6-4.8-40.3-6.3-53.3l-0.2-1.9l20.3-2.4l0.2,1.9c1.5,12.3,3.3,27.7,6.3,53.4l0.7,5.9L4984,1279.6z M412.5,1195.9l-20.1-3.9
			c4.1-21.1,8.1-41.5,11.9-60.6l20,4C420.6,1154.5,416.6,1174.8,412.5,1195.9z M4969.7,1157.3c-2-17.6-4.2-37.2-6.7-61.4l20.3-2.1
			c2.5,24.1,4.7,43.7,6.6,61.2L4969.7,1157.3z M436.6,1075l-20-4.1c3.4-16.6,7.6-37,12.5-60.4l20,4.2
			C444.3,1037.7,440,1058.6,436.6,1075z M4957.1,1034.4c-0.7-7.7-1.3-13.4-2.7-23.6c-2.2-16.2-3.6-23.8-6-36.4l20.1-3.8
			c2.4,12.9,3.9,20.7,6.2,37.4c1.4,10.5,2,16.4,2.8,24.4L4957.1,1034.4z M461.7,954.2l-20-4.2c5.2-24.7,9-42.8,12.7-60.4l20,4.2
			C470.6,911.5,466.8,929.5,461.7,954.2z M4937.7,913.5c-2.8-17.1-4.5-28-5.9-37.6c-1.1-7.4-2.2-14.4-3.6-23.3l20.2-3.3
			c1.5,9,2.5,16.1,3.7,23.6c1.4,9.5,3,20.3,5.9,37.3L4937.7,913.5z M487.1,833.5l-20-4.2c4.3-20.2,8.5-40.5,12.6-60.4l20,4.2
			C495.7,792.9,491.4,813.3,487.1,833.5z M4917.6,792.2c-3.5-19.1-6.4-32.4-9.9-45.9l-0.5-1.7c-1-4-2.1-7.9-3.1-11.8l19.8-5.2
			c1,3.8,2,7.7,3.1,11.8l0.5,1.7c3.6,14,6.6,27.8,10.3,47.3L4917.6,792.2z M510.8,711.9l-20.1-3.4c1.6-9.6,2.9-16.9,3.9-22.1l0-0.2
			c2.3-11.8,5-25.2,7.9-38.7l20,4.3c-2.9,13.3-5.5,26.6-7.8,38.3C513.7,695.2,512.5,702.3,510.8,711.9z M4886.8,674.6
			c-7.7-20.8-16.4-36.4-28.3-50.4l15.6-13.2c13.5,16,23.3,33.4,31.8,56.5L4886.8,674.6z M537.2,592.6l-19.6-5.8l2.2-7.6
			c6-20.5,10.8-36.6,16-51.8l19.3,6.7c-5.1,14.7-9.8,30.7-15.7,50.9L537.2,592.6z M4813.9,587.9c-18.7-10.3-38.2-16.8-55.4-22.5
			l6.4-19.4c17.1,5.7,38.4,12.7,58.8,23.9L4813.9,587.9z M1335.5,555.6l0-20.4c28.6,0,46.2-0.8,61-1.7l1.2,20.4
			C1382.6,554.8,1364.6,555.6,1335.5,555.6z M1273.5,554.6c-20.6-0.7-41.4-1.8-62-3.2l1.4-20.4c20.3,1.4,41,2.4,61.3,3.1
			L1273.5,554.6z M2716.8,553.8c-9.4,0-17.7,0-25.4-0.1l0.2-20.4c7.7,0.1,15.9,0.1,25.2,0.1l5.8,0c10.7,0,20.8-0.1,30.5-0.1
			l0.1,20.4c-9.7,0-19.9,0.1-30.5,0.1L2716.8,553.8z M4700.5,553.7c-15.6-1.5-35.6-2.7-60.9-3.5l0.7-20.4c26.1,0.9,45.9,2,62.2,3.6
			L4700.5,553.7z M2814.9,553.4l-0.2-20.4l3.2,0c23.5-0.3,41.9-0.8,58-1.6l1,20.4c-16.4,0.8-35,1.3-58.7,1.6L2814.9,553.4z
			 M2629.7,552.4c-18.2-0.4-37.8-0.7-61.5-0.9l0.2-20.4c23.8,0.2,43.4,0.5,61.7,0.9L2629.7,552.4z M2334.5,551.8c-4,0-8.2,0-12.9,0
			l0-20.4c5,0,9.6,0,13.8,0c18,0,33.9,0,47.9,0l0,20.4c-14,0-29.8,0-47.9,0C2335.1,551.8,2334.8,551.8,2334.5,551.8z M2259.9,551.6
			c-17.5-0.1-37.9-0.2-61.7-0.3l0.1-20.4c23.8,0.1,44.2,0.2,61.7,0.3L2259.9,551.6z M2445,551.6l-0.1-20.4
			c7.8-0.1,14.8-0.1,21.5-0.2c14.3-0.1,26.7-0.2,40.2-0.2l0,20.4c-13.5,0-25.8,0.1-40.1,0.2C2459.9,551.5,2452.8,551.5,2445,551.6z
			 M3776.8,551.4l-0.3-20.4c19.1-0.3,38.5-0.7,57.2-1l4.4-0.1l0.4,20.4l-4.4,0.1C3815.3,550.7,3795.9,551.1,3776.8,551.4z
			 M3714.5,551.3c-23.5-0.9-44.1-3.3-63-7.3l4.3-20c17.7,3.8,37.1,6,59.5,6.9L3714.5,551.3z M4085,551.2c-20.6-0.2-41-0.5-61.8-0.9
			l0.4-20.4c20.7,0.4,41,0.8,61.6,0.9L4085,551.2z M2136.5,551.1l-61.7-0.3l0.1-20.4l61.7,0.3L2136.5,551.1z M4146.8,551.1
			l-0.3-20.4c10-0.1,18.3-0.3,27.9-0.5c9.3-0.2,19.8-0.4,33.6-0.6l0.3,20.4c-13.7,0.2-24.2,0.4-33.5,0.6
			C4165.3,550.8,4156.9,550.9,4146.8,551.1z M2013,550.5l-0.5,0c-24-0.1-44.1-0.2-61.1-0.3l0.1-20.4c17.1,0.1,37.1,0.1,61.1,0.3
			l0.5,0L2013,550.5z M1459,550.5l-0.9-20.4c17-0.7,35.4-1.3,56.3-1.8c1.9,0,3.7-0.1,5.6-0.1l0.4,20.4c-1.8,0-3.7,0.1-5.5,0.1
			C1494.1,549.2,1475.8,549.7,1459,550.5z M1889.8,550.1l-16.3,0c-17.7,0-29.5-0.1-45.3-0.2l0.1-20.4c15.8,0.1,27.5,0.1,45.2,0.2
			l16.3,0L1889.8,550.1z M4270,549.4l-0.2-20.4c15.5-0.1,28.5-0.2,40.8-0.2c7.5,0,14.2,0,21,0l-0.1,20.4c-6.8,0-13.4,0-20.9,0
			C4298.3,549.2,4285.4,549.2,4270,549.4z M4393.3,549.3l0-20.4c7.8,0,16.6,0,26.4-0.1c12.9-0.1,24.5-0.1,35.2-0.2l0.1,20.4
			c-10.7,0.1-22.4,0.1-35.2,0.2C4409.9,549.3,4401.1,549.3,4393.3,549.3z M1766.6,549.3c-15.5-0.2-27.9-0.4-39.2-0.5
			c-7.8-0.1-15.1-0.2-22.4-0.3l0.3-20.4c7.3,0.1,14.6,0.2,22.4,0.3c11.3,0.2,23.7,0.3,39.2,0.5L1766.6,549.3z M3961.6,549.2
			c-12-0.1-22.8-0.2-33.1-0.2l-3.6,0c-7.9,0-16,0.1-24.8,0.2l-0.2-20.4c8.9-0.1,17-0.1,25-0.2l3.6,0c10.3,0,21.2,0.1,33.3,0.2
			L3961.6,549.2z M4578.2,548.8c-12.3-0.2-24.1-0.2-37.1-0.2c-7.9,0-15.9,0-24.4,0.1l-0.1-20.4c8.5,0,16.6-0.1,24.5-0.1
			c13.1,0,24.9,0.1,37.3,0.2L4578.2,548.8z M1643.5,548l-12.4,0c-19,0-34.8-0.1-49.2,0l0-20.4c14.5,0,30.3,0,49.3,0l12.4,0
			L1643.5,548z M2939.2,546.5l-2.6-20.3l0.9-0.1c24-3.1,42.6-4.4,61.1-5.6l1.3,20.4c-18.2,1.2-36.4,2.5-59.8,5.5L2939.2,546.5z
			 M1149.6,546c-17-1.9-36-4.4-61.5-8.1l2.9-20.2c25.3,3.6,44,6.1,60.9,8L1149.6,546z M3062.6,533.9l-4.1-20
			c5.6-1.2,11.2-2.5,17-4.1c12.2-3.3,25.3-7.8,40.2-13.6l7.4,19c-15.5,6.1-29.3,10.7-42.2,14.2
			C3074.7,531.2,3068.7,532.6,3062.6,533.9z M3590.9,532.7c-18.3-3.9-35.7-8.5-53.2-13.8c-2.4-0.7-4.8-1.4-7.3-2.2l6-19.5
			c2.4,0.7,4.7,1.4,7.1,2.2c17,5.2,33.9,9.6,51.6,13.4L3590.9,532.7z M1026.6,527.7c-24.7-5.2-43.5-11.5-60.8-20.3l9.3-18.2
			c15.7,8,32.8,13.7,55.7,18.5L1026.6,527.7z M3471.6,496.6c-6.2-2.2-12.9-4.6-19.6-6.9c-14.8-5.1-27-9.1-38.3-12.3l5.7-19.6
			c11.7,3.4,24.2,7.4,39.4,12.7c6.8,2.4,13.5,4.8,19.8,7L3471.6,496.6z M3180.3,490.3l-8.7-18.5c2.9-1.4,5.9-2.8,9-4.3
			c15.7-7.5,32.7-13.5,50.7-17.8l4.8,19.9c-16.6,4-32.3,9.5-46.6,16.4C3186.3,487.4,3183.3,488.9,3180.3,490.3z M579.6,479.2
			l-18.1-9.5c8.8-16.9,19.4-36.4,33.5-54l16,12.7C598,444.7,588,463.1,579.6,479.2z M913.5,470.4c-7.9-7-16.3-15-25.8-24.4
			c-6.9-6.9-13.3-13.1-18.9-18.5l14.1-14.8c5.8,5.5,12.3,11.8,19.3,18.9c9.2,9.2,17.3,16.9,24.9,23.6L913.5,470.4z M3354.9,464.8
			c-20.4-2.7-40.6-3.7-59.9-3.1l-0.7-20.4c20.4-0.7,41.7,0.4,63.2,3.2L3354.9,464.8z M822.9,391.9c-1.8-0.8-3.5-1.6-5.4-2.5
			c-1.7-0.7-3.4-1.5-5.2-2.4c-14.1-6.6-29.3-11.3-44.9-14l3.5-20.1c17.5,3,34.3,8.2,50.1,15.6c1.7,0.8,3.4,1.5,5,2.2
			c2,0.9,3.9,1.7,5.8,2.6L822.9,391.9z M654.4,391l-10-17.8l0.4-0.2c18.6-10.4,39.2-17.3,61.2-20.6l3,20.2
			c-19.6,2.9-37.8,9.1-54.3,18.3L654.4,391z"/>
	</g>
</g>
<g id="measurements" class="st4">
	<circle class="st5" cx="3062.4" cy="1271.6" r="97.5"/>
	<circle class="st6" cx="3134.4" cy="1419.1" r="132"/>
	<circle class="st7" cx="3061.4" cy="1272.1" r="3"/>
	<circle class="st8" cx="3134.9" cy="1418.6" r="2.5"/>
	<ellipse class="st9" cx="3855.2" cy="1510.7" rx="115.8" ry="115.5"/>
	<circle class="st7" cx="3855.4" cy="1511.1" r="3"/>
	<ellipse class="st6" cx="3795.5" cy="1413" rx="115.8" ry="115.5"/>
	<circle class="st6" cx="3795.7" cy="1413.5" r="3"/>
	<text transform="matrix(1 0 0 1 2934.157 1195.6943)" class="st7 st10 st11">r41.275” actual</text>
	<text transform="matrix(1 0 0 1 3260.7048 1353.5475)" class="st8 st10 st11">r49.08 effective</text>
	<text transform="matrix(1 0 0 1 3600.543 1369.5477)" class="st8 st10 st11">r55.86” effective</text>
	<text transform="matrix(1 0 0 1 3930.5427 1616.5474)" class="st7 st10 st11">r55.86” actual</text>
</g>
</svg>
