<?xml version="1.0" encoding="UTF-8"?><svg id="a" xmlns="http://www.w3.org/2000/svg" viewBox="0 0 648 482"><defs><style>.b{stroke:#84e29c;stroke-width:48px;}.b,.c,.d,.e{fill:none;stroke-miterlimit:10;}.c{stroke:#f90;stroke-dasharray:0 0 9.97 6.98;stroke-width:2px;}.d{stroke:#313d46;stroke-width:36px;}.e{stroke:#fff;stroke-width:44px;}</style></defs><path class="b" d="M514.37,155.65c.03,7.52,.03,15.06,.03,22.58s-.03,15.06-.05,22.58c-.03,7.52-.05,15.06-.08,22.58-.03,7.52-.05,15.06-.08,22.58-.03,7.52-.03,15.06-.03,22.58s0,15.06,.03,22.58c.03,7.52,.05,15.06,.11,22.58,.05,7.52,.13,15.06,.24,22.58-.13,2.35-.21,4.72-.24,7.1s-.03,4.75,0,7.15c.03,2.4,.08,4.77,.13,7.17,.05,2.4,.11,4.8,.13,7.17,.03,2.4,.05,4.77,.03,7.17-.03,2.37-.08,4.77-.21,7.15-.13,2.37-.29,4.75-.55,7.1s-.61,4.7-1.03,7.02c-.69,3.64-1.85,6.88-3.38,9.79s-3.46,5.43-5.62,7.65c-2.16,2.22-4.59,4.09-7.17,5.64-2.59,1.56-5.3,2.82-8.05,3.82-2.77,.98-5.54,1.69-8.26,2.14-2.72,.45-5.35,.66-7.78,.63-2.45-.03-4.7-.26-6.65-.71-1.95-.45-3.59-1.11-4.83-1.93-2.82-1.45-5.01-3.19-6.65-5.17s-2.77-4.19-3.48-6.59c-.74-2.4-1.08-4.99-1.21-7.7-.13-2.72,0-5.59,.21-8.55s.53-6.01,.76-9.1,.45-6.23,.45-9.36-.18-6.28-.71-9.36c-.53-3.09-1.4-6.12-2.74-9.05-.9-1.95-1.95-3.77-3.06-5.49s-2.32-3.35-3.51-4.96c-1.19-1.61-2.4-3.19-3.51-4.85-1.13-1.64-2.16-3.32-3.06-5.14-.9-1.79-1.64-3.72-2.16-5.83-.53-2.11-.82-4.41-.82-6.94s.32-5.35,.98-8.47c.69-3.11,1.74-6.57,3.24-10.39,.18-.5,.37-1.03,.5-1.61,.16-.58,.26-1.19,.37-1.82s.18-1.32,.24-2,.08-1.42,.08-2.16,0-1.5-.05-2.27c-.03-.76-.08-1.56-.16-2.37-.08-.79-.18-1.61-.29-2.43s-.26-1.64-.42-2.48c-.34-1.87-.95-3.59-1.71-5.17s-1.74-3.03-2.88-4.3c-1.13-1.27-2.4-2.4-3.77-3.32-1.37-.95-2.88-1.71-4.46-2.27-1.56-.58-3.19-.95-4.88-1.13-1.66-.18-3.38-.16-5.04,.08-1.69,.24-3.35,.71-4.99,1.4-1.64,.69-3.19,1.64-4.67,2.82-.11,.08-.24,.18-.34,.29-.13,.11-.24,.18-.37,.29s-.26,.21-.42,.32c-.13,.11-.29,.21-.45,.34s-.32,.24-.47,.37-.34,.24-.5,.37c-.18,.13-.34,.26-.55,.4-.18,.13-.37,.29-.58,.42-2.48,1.82-4.62,3.32-6.46,4.51-1.85,1.21-3.43,2.14-4.83,2.85-1.4,.71-2.64,1.21-3.8,1.53-1.16,.34-2.24,.53-3.35,.63s-2.27,.11-3.53,.08c-1.27-.03-2.69-.08-4.3-.08s-3.51,0-5.7,.13-4.72,.34-7.68,.74c-1.93,.16-3.8,.42-5.65,.79-1.85,.34-3.67,.79-5.43,1.32s-3.53,1.13-5.22,1.82c-1.69,.69-3.38,1.45-5.01,2.32-1.64,.87-3.22,1.77-4.77,2.77-1.56,1-3.06,2.08-4.51,3.22-1.48,1.13-2.88,2.35-4.27,3.61-1.37,1.27-2.72,2.61-4.01,4.01-4.01,3.85-7.33,7.33-10.16,10.53-2.82,3.19-5.14,6.09-7.17,8.76s-3.8,5.09-5.46,7.36c-1.66,2.27-3.27,4.35-4.99,6.36-1.71,2-3.56,3.88-5.75,5.72s-4.7,3.64-7.78,5.46c-3.06,1.82-6.67,3.67-11.05,5.59-4.35,1.93-9.47,3.96-15.56,6.12-1.32,.45-2.66,.92-3.98,1.37-1.35,.45-2.66,.92-4.01,1.37s-2.69,.9-4.04,1.35c-1.35,.45-2.69,.9-4.04,1.32-1.35,.42-2.69,.87-4.06,1.27-1.35,.42-2.72,.82-4.06,1.21-1.35,.4-2.72,.79-4.06,1.16-1.37,.37-2.72,.71-4.09,1.06-2.53,.47-5.54,.61-8.89,.45-3.35-.16-7.07-.63-10.97-1.35-3.9-.71-7.99-1.69-12.16-2.9-4.17-1.21-8.36-2.61-12.48-4.19-4.12-1.58-8.12-3.35-11.92-5.25-3.77-1.9-7.31-3.93-10.47-6.04s-5.91-4.33-8.15-6.59c-2.24-2.27-3.93-4.59-4.96-6.91-1.29-3.03-2.37-6.49-3.27-10.23s-1.66-7.83-2.24-12.11c-.61-4.27-1.06-8.76-1.4-13.35s-.55-9.29-.69-13.98-.18-9.39-.16-14.01c.03-4.59,.11-9.1,.21-13.4,.11-4.3,.26-8.39,.42-12.19,.16-3.8,.32-7.28,.45-10.34,.4-2.08,.79-4.3,1.21-6.57,.42-2.29,.87-4.64,1.37-7.04,.5-2.37,1.08-4.8,1.74-7.2,.66-2.4,1.42-4.77,2.29-7.07,.9-2.29,1.9-4.54,3.06-6.65,1.16-2.11,2.51-4.12,4.01-5.94,1.53-1.82,3.24-3.48,5.17-4.93s4.12-2.69,6.52-3.64c2.16-1,4.35-1.93,6.59-2.74,2.24-.84,4.51-1.58,6.81-2.24s4.64-1.21,6.96-1.69,4.72-.84,7.1-1.11,4.75-.45,7.15-.5c2.37-.05,4.77-.03,7.15,.13s4.75,.42,7.12,.79,4.7,.87,7.02,1.48c1.21,.29,2.48,.58,3.8,.87s2.64,.63,3.98,1,2.69,.76,3.98,1.24c1.32,.47,2.59,.98,3.8,1.58s2.37,1.27,3.43,2.03c1.06,.76,2,1.64,2.85,2.61,.84,.98,1.53,2.08,2.08,3.32s.92,2.61,1.13,4.12c.37,4.01-.4,7.81-1.9,11.47-1.53,3.64-3.82,7.15-6.62,10.55-2.77,3.4-6.01,6.67-9.39,9.89s-6.88,6.38-10.23,9.52-6.49,6.28-9.15,9.44-4.83,6.36-6.17,9.63-1.87,6.62-1.24,10.08c.61,3.46,2.37,7.07,5.59,10.82,2.16,2.53,4.8,4.14,7.76,5.04,2.95,.87,6.23,1,9.73,.58,3.51-.42,7.2-1.42,11.03-2.82,3.82-1.4,7.73-3.17,11.63-5.17,3.9-2,7.78-4.19,11.53-6.44,3.75-2.24,7.36-4.54,10.74-6.67,3.38-2.14,6.49-4.14,9.26-5.83,2.77-1.69,5.17-3.06,7.1-3.96,2.61-1.37,4.96-2.64,7.04-3.88,2.11-1.24,3.96-2.43,5.67-3.59s3.27-2.32,4.72-3.48c1.45-1.16,2.82-2.32,4.14-3.53,1.35-1.21,2.64-2.45,3.98-3.75,1.35-1.29,2.74-2.66,4.25-4.14,1.5-1.45,3.11-3.01,4.88-4.7s3.75-3.48,5.94-5.41c1.77-1.45,3.43-3.03,4.96-4.7,1.56-1.66,2.98-3.4,4.38-5.22s2.72-3.64,4.01-5.51c1.32-1.85,2.59-3.72,3.9-5.57,1.29-1.85,2.61-3.64,4.01-5.38,1.37-1.74,2.82-3.43,4.33-4.99,1.53-1.58,3.14-3.03,4.91-4.35s3.64-2.51,5.7-3.51c2.32-1.13,4.7-1.74,7.07-1.95s4.77-.03,7.12,.45c2.37,.47,4.7,1.27,6.99,2.24,2.27,.98,4.51,2.16,6.62,3.46,2.14,1.27,4.17,2.66,6.09,4.04,1.93,1.37,3.69,2.74,5.33,3.98,1.64,1.27,3.11,2.4,4.38,3.35,1.29,.95,2.37,1.66,3.22,2.08,1.24,.61,2.51,1,3.75,1.19,1.24,.21,2.48,.21,3.69,.08s2.4-.42,3.53-.82,2.24-.9,3.27-1.48,2-1.21,2.88-1.9c.9-.69,1.69-1.4,2.4-2.11s1.29-1.42,1.79-2.11c.47-.69,.84-1.32,1.08-1.87,.42-.9,.74-1.87,.98-2.9s.37-2.14,.42-3.24,.05-2.29-.03-3.46c-.08-1.16-.24-2.35-.42-3.53-.18-1.19-.45-2.35-.74-3.48-.29-1.13-.61-2.22-.95-3.27-.34-1.03-.71-2.03-1.11-2.93-.37-.9-.76-1.74-1.16-2.45-1.19-2-2.22-3.72-3.11-5.22-.9-1.5-1.71-2.8-2.43-3.96s-1.35-2.16-1.95-3.09c-.61-.95-1.16-1.79-1.71-2.66s-1.13-1.74-1.74-2.66c-.61-.92-1.24-1.93-1.98-3.09-.74-1.13-1.53-2.43-2.45-3.93-.92-1.5-1.98-3.19-3.17-5.2-1.4-2.24-3.01-4.62-4.7-7.1-1.69-2.48-3.48-5.04-5.22-7.68-1.74-2.64-3.48-5.35-5.04-8.07-1.58-2.74-2.98-5.51-4.14-8.31-1.16-2.77-2.03-5.57-2.53-8.34-.5-2.77-.61-5.49-.18-8.15,.42-2.66,1.32-5.28,2.85-7.81s3.69-4.93,6.62-7.25c2.22-1.37,4.46-2.69,6.78-3.93,2.32-1.27,4.67-2.45,7.07-3.59,2.4-1.13,4.85-2.19,7.33-3.19s4.99-1.93,7.52-2.74,5.09-1.61,7.68-2.27c2.59-.66,5.17-1.24,7.76-1.74,2.61-.47,5.2-.87,7.81-1.16,2.61-.29,5.22-.45,7.81-.53,2.14,.03,4.43,.18,6.83,.5,2.4,.32,4.88,.74,7.44,1.32,2.53,.58,5.12,1.27,7.68,2.08,2.56,.82,5.12,1.77,7.6,2.82,2.48,1.06,4.91,2.24,7.2,3.53,2.29,1.29,4.46,2.69,6.44,4.22,1.98,1.5,3.8,3.11,5.35,4.83,1.56,1.71,2.9,3.53,3.96,5.43,1.69,2.72,3.09,5.49,4.25,8.31,1.16,2.82,2.08,5.7,2.8,8.63,.71,2.93,1.24,5.88,1.64,8.89,.37,3.01,.61,6.04,.74,9.07,.13,3.06,.16,6.12,.16,9.21-.03,3.09-.08,6.17-.16,9.26-.08,3.09-.13,6.17-.16,9.23,.13,3.24,.16,6.28,.26,9.31Z"/><path class="e" d="M514.37,155.65c.03,7.52,.03,15.06,.03,22.58s-.03,15.06-.05,22.58c-.03,7.52-.05,15.06-.08,22.58-.03,7.52-.05,15.06-.08,22.58-.03,7.52-.03,15.06-.03,22.58s0,15.06,.03,22.58c.03,7.52,.05,15.06,.11,22.58,.05,7.52,.13,15.06,.24,22.58-.13,2.35-.21,4.72-.24,7.1s-.03,4.75,0,7.15c.03,2.4,.08,4.77,.13,7.17,.05,2.4,.11,4.8,.13,7.17,.03,2.4,.05,4.77,.03,7.17-.03,2.37-.08,4.77-.21,7.15-.13,2.37-.29,4.75-.55,7.1s-.61,4.7-1.03,7.02c-.69,3.64-1.85,6.88-3.38,9.79s-3.46,5.43-5.62,7.65c-2.16,2.22-4.59,4.09-7.17,5.64-2.59,1.56-5.3,2.82-8.05,3.82-2.77,.98-5.54,1.69-8.26,2.14-2.72,.45-5.35,.66-7.78,.63-2.45-.03-4.7-.26-6.65-.71-1.95-.45-3.59-1.11-4.83-1.93-2.82-1.45-5.01-3.19-6.65-5.17s-2.77-4.19-3.48-6.59c-.74-2.4-1.08-4.99-1.21-7.7-.13-2.72,0-5.59,.21-8.55s.53-6.01,.76-9.1,.45-6.23,.45-9.36-.18-6.28-.71-9.36c-.53-3.09-1.4-6.12-2.74-9.05-.9-1.95-1.95-3.77-3.06-5.49s-2.32-3.35-3.51-4.96c-1.19-1.61-2.4-3.19-3.51-4.85-1.13-1.64-2.16-3.32-3.06-5.14-.9-1.79-1.64-3.72-2.16-5.83-.53-2.11-.82-4.41-.82-6.94s.32-5.35,.98-8.47c.69-3.11,1.74-6.57,3.24-10.39,.18-.5,.37-1.03,.5-1.61,.16-.58,.26-1.19,.37-1.82s.18-1.32,.24-2,.08-1.42,.08-2.16,0-1.5-.05-2.27c-.03-.76-.08-1.56-.16-2.37-.08-.79-.18-1.61-.29-2.43s-.26-1.64-.42-2.48c-.34-1.87-.95-3.59-1.71-5.17s-1.74-3.03-2.88-4.3c-1.13-1.27-2.4-2.4-3.77-3.32-1.37-.95-2.88-1.71-4.46-2.27-1.56-.58-3.19-.95-4.88-1.13-1.66-.18-3.38-.16-5.04,.08-1.69,.24-3.35,.71-4.99,1.4-1.64,.69-3.19,1.64-4.67,2.82-.11,.08-.24,.18-.34,.29-.13,.11-.24,.18-.37,.29s-.26,.21-.42,.32c-.13,.11-.29,.21-.45,.34s-.32,.24-.47,.37-.34,.24-.5,.37c-.18,.13-.34,.26-.55,.4-.18,.13-.37,.29-.58,.42-2.48,1.82-4.62,3.32-6.46,4.51-1.85,1.21-3.43,2.14-4.83,2.85-1.4,.71-2.64,1.21-3.8,1.53-1.16,.34-2.24,.53-3.35,.63s-2.27,.11-3.53,.08c-1.27-.03-2.69-.08-4.3-.08s-3.51,0-5.7,.13-4.72,.34-7.68,.74c-1.93,.16-3.8,.42-5.65,.79-1.85,.34-3.67,.79-5.43,1.32s-3.53,1.13-5.22,1.82c-1.69,.69-3.38,1.45-5.01,2.32-1.64,.87-3.22,1.77-4.77,2.77-1.56,1-3.06,2.08-4.51,3.22-1.48,1.13-2.88,2.35-4.27,3.61-1.37,1.27-2.72,2.61-4.01,4.01-4.01,3.85-7.33,7.33-10.16,10.53-2.82,3.19-5.14,6.09-7.17,8.76s-3.8,5.09-5.46,7.36c-1.66,2.27-3.27,4.35-4.99,6.36-1.71,2-3.56,3.88-5.75,5.72s-4.7,3.64-7.78,5.46c-3.06,1.82-6.67,3.67-11.05,5.59-4.35,1.93-9.47,3.96-15.56,6.12-1.32,.45-2.66,.92-3.98,1.37-1.35,.45-2.66,.92-4.01,1.37s-2.69,.9-4.04,1.35c-1.35,.45-2.69,.9-4.04,1.32-1.35,.42-2.69,.87-4.06,1.27-1.35,.42-2.72,.82-4.06,1.21-1.35,.4-2.72,.79-4.06,1.16-1.37,.37-2.72,.71-4.09,1.06-2.53,.47-5.54,.61-8.89,.45-3.35-.16-7.07-.63-10.97-1.35-3.9-.71-7.99-1.69-12.16-2.9-4.17-1.21-8.36-2.61-12.48-4.19-4.12-1.58-8.12-3.35-11.92-5.25-3.77-1.9-7.31-3.93-10.47-6.04s-5.91-4.33-8.15-6.59c-2.24-2.27-3.93-4.59-4.96-6.91-1.29-3.03-2.37-6.49-3.27-10.23s-1.66-7.83-2.24-12.11c-.61-4.27-1.06-8.76-1.4-13.35s-.55-9.29-.69-13.98-.18-9.39-.16-14.01c.03-4.59,.11-9.1,.21-13.4,.11-4.3,.26-8.39,.42-12.19,.16-3.8,.32-7.28,.45-10.34,.4-2.08,.79-4.3,1.21-6.57,.42-2.29,.87-4.64,1.37-7.04,.5-2.37,1.08-4.8,1.74-7.2,.66-2.4,1.42-4.77,2.29-7.07,.9-2.29,1.9-4.54,3.06-6.65,1.16-2.11,2.51-4.12,4.01-5.94,1.53-1.82,3.24-3.48,5.17-4.93s4.12-2.69,6.52-3.64c2.16-1,4.35-1.93,6.59-2.74,2.24-.84,4.51-1.58,6.81-2.24s4.64-1.21,6.96-1.69,4.72-.84,7.1-1.11,4.75-.45,7.15-.5c2.37-.05,4.77-.03,7.15,.13s4.75,.42,7.12,.79,4.7,.87,7.02,1.48c1.21,.29,2.48,.58,3.8,.87s2.64,.63,3.98,1,2.69,.76,3.98,1.24c1.32,.47,2.59,.98,3.8,1.58s2.37,1.27,3.43,2.03c1.06,.76,2,1.64,2.85,2.61,.84,.98,1.53,2.08,2.08,3.32s.92,2.61,1.13,4.12c.37,4.01-.4,7.81-1.9,11.47-1.53,3.64-3.82,7.15-6.62,10.55-2.77,3.4-6.01,6.67-9.39,9.89s-6.88,6.38-10.23,9.52-6.49,6.28-9.15,9.44-4.83,6.36-6.17,9.63-1.87,6.62-1.24,10.08c.61,3.46,2.37,7.07,5.59,10.82,2.16,2.53,4.8,4.14,7.76,5.04,2.95,.87,6.23,1,9.73,.58,3.51-.42,7.2-1.42,11.03-2.82,3.82-1.4,7.73-3.17,11.63-5.17,3.9-2,7.78-4.19,11.53-6.44,3.75-2.24,7.36-4.54,10.74-6.67,3.38-2.14,6.49-4.14,9.26-5.83,2.77-1.69,5.17-3.06,7.1-3.96,2.61-1.37,4.96-2.64,7.04-3.88,2.11-1.24,3.96-2.43,5.67-3.59s3.27-2.32,4.72-3.48c1.45-1.16,2.82-2.32,4.14-3.53,1.35-1.21,2.64-2.45,3.98-3.75,1.35-1.29,2.74-2.66,4.25-4.14,1.5-1.45,3.11-3.01,4.88-4.7s3.75-3.48,5.94-5.41c1.77-1.45,3.43-3.03,4.96-4.7,1.56-1.66,2.98-3.4,4.38-5.22s2.72-3.64,4.01-5.51c1.32-1.85,2.59-3.72,3.9-5.57,1.29-1.85,2.61-3.64,4.01-5.38,1.37-1.74,2.82-3.43,4.33-4.99,1.53-1.58,3.14-3.03,4.91-4.35s3.64-2.51,5.7-3.51c2.32-1.13,4.7-1.74,7.07-1.95s4.77-.03,7.12,.45c2.37,.47,4.7,1.27,6.99,2.24,2.27,.98,4.51,2.16,6.62,3.46,2.14,1.27,4.17,2.66,6.09,4.04,1.93,1.37,3.69,2.74,5.33,3.98,1.64,1.27,3.11,2.4,4.38,3.35,1.29,.95,2.37,1.66,3.22,2.08,1.24,.61,2.51,1,3.75,1.19,1.24,.21,2.48,.21,3.69,.08s2.4-.42,3.53-.82,2.24-.9,3.27-1.48,2-1.21,2.88-1.9c.9-.69,1.69-1.4,2.4-2.11s1.29-1.42,1.79-2.11c.47-.69,.84-1.32,1.08-1.87,.42-.9,.74-1.87,.98-2.9s.37-2.14,.42-3.24,.05-2.29-.03-3.46c-.08-1.16-.24-2.35-.42-3.53-.18-1.19-.45-2.35-.74-3.48-.29-1.13-.61-2.22-.95-3.27-.34-1.03-.71-2.03-1.11-2.93-.37-.9-.76-1.74-1.16-2.45-1.19-2-2.22-3.72-3.11-5.22-.9-1.5-1.71-2.8-2.43-3.96s-1.35-2.16-1.95-3.09c-.61-.95-1.16-1.79-1.71-2.66s-1.13-1.74-1.74-2.66c-.61-.92-1.24-1.93-1.98-3.09-.74-1.13-1.53-2.43-2.45-3.93-.92-1.5-1.98-3.19-3.17-5.2-1.4-2.24-3.01-4.62-4.7-7.1-1.69-2.48-3.48-5.04-5.22-7.68-1.74-2.64-3.48-5.35-5.04-8.07-1.58-2.74-2.98-5.51-4.14-8.31-1.16-2.77-2.03-5.57-2.53-8.34-.5-2.77-.61-5.49-.18-8.15,.42-2.66,1.32-5.28,2.85-7.81s3.69-4.93,6.62-7.25c2.22-1.37,4.46-2.69,6.78-3.93,2.32-1.27,4.67-2.45,7.07-3.59,2.4-1.13,4.85-2.19,7.33-3.19s4.99-1.93,7.52-2.74,5.09-1.61,7.68-2.27c2.59-.66,5.17-1.24,7.76-1.74,2.61-.47,5.2-.87,7.81-1.16,2.61-.29,5.22-.45,7.81-.53,2.14,.03,4.43,.18,6.83,.5,2.4,.32,4.88,.74,7.44,1.32,2.53,.58,5.12,1.27,7.68,2.08,2.56,.82,5.12,1.77,7.6,2.82,2.48,1.06,4.91,2.24,7.2,3.53,2.29,1.29,4.46,2.69,6.44,4.22,1.98,1.5,3.8,3.11,5.35,4.83,1.56,1.71,2.9,3.53,3.96,5.43,1.69,2.72,3.09,5.49,4.25,8.31,1.16,2.82,2.08,5.7,2.8,8.63,.71,2.93,1.24,5.88,1.64,8.89,.37,3.01,.61,6.04,.74,9.07,.13,3.06,.16,6.12,.16,9.21-.03,3.09-.08,6.17-.16,9.26-.08,3.09-.13,6.17-.16,9.23,.13,3.24,.16,6.28,.26,9.31Z"/><path class="d" d="M514.37,155.65c.03,7.52,.03,15.06,.03,22.58s-.03,15.06-.05,22.58c-.03,7.52-.05,15.06-.08,22.58-.03,7.52-.05,15.06-.08,22.58-.03,7.52-.03,15.06-.03,22.58s0,15.06,.03,22.58c.03,7.52,.05,15.06,.11,22.58,.05,7.52,.13,15.06,.24,22.58-.13,2.35-.21,4.72-.24,7.1s-.03,4.75,0,7.15c.03,2.4,.08,4.77,.13,7.17,.05,2.4,.11,4.8,.13,7.17,.03,2.4,.05,4.77,.03,7.17-.03,2.37-.08,4.77-.21,7.15-.13,2.37-.29,4.75-.55,7.1s-.61,4.7-1.03,7.02c-.69,3.64-1.85,6.88-3.38,9.79s-3.46,5.43-5.62,7.65c-2.16,2.22-4.59,4.09-7.17,5.64-2.59,1.56-5.3,2.82-8.05,3.82-2.77,.98-5.54,1.69-8.26,2.14-2.72,.45-5.35,.66-7.78,.63-2.45-.03-4.7-.26-6.65-.71-1.95-.45-3.59-1.11-4.83-1.93-2.82-1.45-5.01-3.19-6.65-5.17s-2.77-4.19-3.48-6.59c-.74-2.4-1.08-4.99-1.21-7.7-.13-2.72,0-5.59,.21-8.55s.53-6.01,.76-9.1,.45-6.23,.45-9.36-.18-6.28-.71-9.36c-.53-3.09-1.4-6.12-2.74-9.05-.9-1.95-1.95-3.77-3.06-5.49s-2.32-3.35-3.51-4.96c-1.19-1.61-2.4-3.19-3.51-4.85-1.13-1.64-2.16-3.32-3.06-5.14-.9-1.79-1.64-3.72-2.16-5.83-.53-2.11-.82-4.41-.82-6.94s.32-5.35,.98-8.47c.69-3.11,1.74-6.57,3.24-10.39,.18-.5,.37-1.03,.5-1.61,.16-.58,.26-1.19,.37-1.82s.18-1.32,.24-2,.08-1.42,.08-2.16,0-1.5-.05-2.27c-.03-.76-.08-1.56-.16-2.37-.08-.79-.18-1.61-.29-2.43s-.26-1.64-.42-2.48c-.34-1.87-.95-3.59-1.71-5.17s-1.74-3.03-2.88-4.3c-1.13-1.27-2.4-2.4-3.77-3.32-1.37-.95-2.88-1.71-4.46-2.27-1.56-.58-3.19-.95-4.88-1.13-1.66-.18-3.38-.16-5.04,.08-1.69,.24-3.35,.71-4.99,1.4-1.64,.69-3.19,1.64-4.67,2.82-.11,.08-.24,.18-.34,.29-.13,.11-.24,.18-.37,.29s-.26,.21-.42,.32c-.13,.11-.29,.21-.45,.34s-.32,.24-.47,.37-.34,.24-.5,.37c-.18,.13-.34,.26-.55,.4-.18,.13-.37,.29-.58,.42-2.48,1.82-4.62,3.32-6.46,4.51-1.85,1.21-3.43,2.14-4.83,2.85-1.4,.71-2.64,1.21-3.8,1.53-1.16,.34-2.24,.53-3.35,.63s-2.27,.11-3.53,.08c-1.27-.03-2.69-.08-4.3-.08s-3.51,0-5.7,.13-4.72,.34-7.68,.74c-1.93,.16-3.8,.42-5.65,.79-1.85,.34-3.67,.79-5.43,1.32s-3.53,1.13-5.22,1.82c-1.69,.69-3.38,1.45-5.01,2.32-1.64,.87-3.22,1.77-4.77,2.77-1.56,1-3.06,2.08-4.51,3.22-1.48,1.13-2.88,2.35-4.27,3.61-1.37,1.27-2.72,2.61-4.01,4.01-4.01,3.85-7.33,7.33-10.16,10.53-2.82,3.19-5.14,6.09-7.17,8.76s-3.8,5.09-5.46,7.36c-1.66,2.27-3.27,4.35-4.99,6.36-1.71,2-3.56,3.88-5.75,5.72s-4.7,3.64-7.78,5.46c-3.06,1.82-6.67,3.67-11.05,5.59-4.35,1.93-9.47,3.96-15.56,6.12-1.32,.45-2.66,.92-3.98,1.37-1.35,.45-2.66,.92-4.01,1.37s-2.69,.9-4.04,1.35c-1.35,.45-2.69,.9-4.04,1.32-1.35,.42-2.69,.87-4.06,1.27-1.35,.42-2.72,.82-4.06,1.21-1.35,.4-2.72,.79-4.06,1.16-1.37,.37-2.72,.71-4.09,1.06-2.53,.47-5.54,.61-8.89,.45-3.35-.16-7.07-.63-10.97-1.35-3.9-.71-7.99-1.69-12.16-2.9-4.17-1.21-8.36-2.61-12.48-4.19-4.12-1.58-8.12-3.35-11.92-5.25-3.77-1.9-7.31-3.93-10.47-6.04s-5.91-4.33-8.15-6.59c-2.24-2.27-3.93-4.59-4.96-6.91-1.29-3.03-2.37-6.49-3.27-10.23s-1.66-7.83-2.24-12.11c-.61-4.27-1.06-8.76-1.4-13.35s-.55-9.29-.69-13.98-.18-9.39-.16-14.01c.03-4.59,.11-9.1,.21-13.4,.11-4.3,.26-8.39,.42-12.19,.16-3.8,.32-7.28,.45-10.34,.4-2.08,.79-4.3,1.21-6.57,.42-2.29,.87-4.64,1.37-7.04,.5-2.37,1.08-4.8,1.74-7.2,.66-2.4,1.42-4.77,2.29-7.07,.9-2.29,1.9-4.54,3.06-6.65,1.16-2.11,2.51-4.12,4.01-5.94,1.53-1.82,3.24-3.48,5.17-4.93s4.12-2.69,6.52-3.64c2.16-1,4.35-1.93,6.59-2.74,2.24-.84,4.51-1.58,6.81-2.24s4.64-1.21,6.96-1.69,4.72-.84,7.1-1.11,4.75-.45,7.15-.5c2.37-.05,4.77-.03,7.15,.13s4.75,.42,7.12,.79,4.7,.87,7.02,1.48c1.21,.29,2.48,.58,3.8,.87s2.64,.63,3.98,1,2.69,.76,3.98,1.24c1.32,.47,2.59,.98,3.8,1.58s2.37,1.27,3.43,2.03c1.06,.76,2,1.64,2.85,2.61,.84,.98,1.53,2.08,2.08,3.32s.92,2.61,1.13,4.12c.37,4.01-.4,7.81-1.9,11.47-1.53,3.64-3.82,7.15-6.62,10.55-2.77,3.4-6.01,6.67-9.39,9.89s-6.88,6.38-10.23,9.52-6.49,6.28-9.15,9.44-4.83,6.36-6.17,9.63-1.87,6.62-1.24,10.08c.61,3.46,2.37,7.07,5.59,10.82,2.16,2.53,4.8,4.14,7.76,5.04,2.95,.87,6.23,1,9.73,.58,3.51-.42,7.2-1.42,11.03-2.82,3.82-1.4,7.73-3.17,11.63-5.17,3.9-2,7.78-4.19,11.53-6.44,3.75-2.24,7.36-4.54,10.74-6.67,3.38-2.14,6.49-4.14,9.26-5.83,2.77-1.69,5.17-3.06,7.1-3.96,2.61-1.37,4.96-2.64,7.04-3.88,2.11-1.24,3.96-2.43,5.67-3.59s3.27-2.32,4.72-3.48c1.45-1.16,2.82-2.32,4.14-3.53,1.35-1.21,2.64-2.45,3.98-3.75,1.35-1.29,2.74-2.66,4.25-4.14,1.5-1.45,3.11-3.01,4.88-4.7s3.75-3.48,5.94-5.41c1.77-1.45,3.43-3.03,4.96-4.7,1.56-1.66,2.98-3.4,4.38-5.22s2.72-3.64,4.01-5.51c1.32-1.85,2.59-3.72,3.9-5.57,1.29-1.85,2.61-3.64,4.01-5.38,1.37-1.74,2.82-3.43,4.33-4.99,1.53-1.58,3.14-3.03,4.91-4.35s3.64-2.51,5.7-3.51c2.32-1.13,4.7-1.74,7.07-1.95s4.77-.03,7.12,.45c2.37,.47,4.7,1.27,6.99,2.24,2.27,.98,4.51,2.16,6.62,3.46,2.14,1.27,4.17,2.66,6.09,4.04,1.93,1.37,3.69,2.74,5.33,3.98,1.64,1.27,3.11,2.4,4.38,3.35,1.29,.95,2.37,1.66,3.22,2.08,1.24,.61,2.51,1,3.75,1.19,1.24,.21,2.48,.21,3.69,.08s2.4-.42,3.53-.82,2.24-.9,3.27-1.48,2-1.21,2.88-1.9c.9-.69,1.69-1.4,2.4-2.11s1.29-1.42,1.79-2.11c.47-.69,.84-1.32,1.08-1.87,.42-.9,.74-1.87,.98-2.9s.37-2.14,.42-3.24,.05-2.29-.03-3.46c-.08-1.16-.24-2.35-.42-3.53-.18-1.19-.45-2.35-.74-3.48-.29-1.13-.61-2.22-.95-3.27-.34-1.03-.71-2.03-1.11-2.93-.37-.9-.76-1.74-1.16-2.45-1.19-2-2.22-3.72-3.11-5.22-.9-1.5-1.71-2.8-2.43-3.96s-1.35-2.16-1.95-3.09c-.61-.95-1.16-1.79-1.71-2.66s-1.13-1.74-1.74-2.66c-.61-.92-1.24-1.93-1.98-3.09-.74-1.13-1.53-2.43-2.45-3.93-.92-1.5-1.98-3.19-3.17-5.2-1.4-2.24-3.01-4.62-4.7-7.1-1.69-2.48-3.48-5.04-5.22-7.68-1.74-2.64-3.48-5.35-5.04-8.07-1.58-2.74-2.98-5.51-4.14-8.31-1.16-2.77-2.03-5.57-2.53-8.34-.5-2.77-.61-5.49-.18-8.15,.42-2.66,1.32-5.28,2.85-7.81s3.69-4.93,6.62-7.25c2.22-1.37,4.46-2.69,6.78-3.93,2.32-1.27,4.67-2.45,7.07-3.59,2.4-1.13,4.85-2.19,7.33-3.19s4.99-1.93,7.52-2.74,5.09-1.61,7.68-2.27c2.59-.66,5.17-1.24,7.76-1.74,2.61-.47,5.2-.87,7.81-1.16,2.61-.29,5.22-.45,7.81-.53,2.14,.03,4.43,.18,6.83,.5,2.4,.32,4.88,.74,7.44,1.32,2.53,.58,5.12,1.27,7.68,2.08,2.56,.82,5.12,1.77,7.6,2.82,2.48,1.06,4.91,2.24,7.2,3.53,2.29,1.29,4.46,2.69,6.44,4.22,1.98,1.5,3.8,3.11,5.35,4.83,1.56,1.71,2.9,3.53,3.96,5.43,1.69,2.72,3.09,5.49,4.25,8.31,1.16,2.82,2.08,5.7,2.8,8.63,.71,2.93,1.24,5.88,1.64,8.89,.37,3.01,.61,6.04,.74,9.07,.13,3.06,.16,6.12,.16,9.21-.03,3.09-.08,6.17-.16,9.26-.08,3.09-.13,6.17-.16,9.23,.13,3.24,.16,6.28,.26,9.31Z"/><path class="c" d="M514.37,155.65c.13,37.63-.23,75.27-.21,112.9-.21,24.95,.53,49.9,.13,74.84-.17,11.93,.69,23.9,.08,35.82-.48,7.98-1.19,16.89-4.96,23.9-6.97,13.22-22.58,19.91-36.88,19.89-2.45-.03-4.7-.26-6.65-.71-4.6-1.1-8.76-3.96-11.47-7.1-3.39-4.1-4.43-9.02-4.7-14.3-.33-8.86,1.47-18.02,1.42-27.01,.15-8.35-1.71-16.94-6.52-23.9-4.45-6.78-10.29-12.64-12.24-20.79-1.25-5.01-.98-9.9,.16-15.41,.69-3.11,1.74-6.57,3.24-10.39,.4-1.08,.69-2.24,.87-3.43,.57-3.7,.31-7.51-.18-11.24-.35-2.59-.98-5.39-2.14-7.65-4.46-9.41-16.52-13.74-26.01-9.55-2.87,1.1-5.25,3.41-7.78,5.2-7.27,5.12-13.64,10.65-22.55,10.02-9.16-.28-19.56,.28-28.75,2.9-7.08,2.08-13.72,5.58-19.52,10.13-6.39,5.11-13.4,12.66-18.44,18.15-6.87,7.61-11.43,15.05-17.62,22.47-6.62,7.77-14.63,12.36-24.58,16.78-6.28,2.85-15.95,6.33-23.56,8.86-5.37,1.81-10.75,3.58-16.2,5.14-5.8,1.73-10.53,3.16-17.04,2.66-19.41-1.34-41.64-9.14-58.01-19.73-5.5-3.66-10.52-8.01-13.11-13.51-1.29-3.03-2.37-6.49-3.27-10.23-2.96-12.58-3.95-26.28-4.33-39.44-.39-13.1-.05-26.78,.47-39.59,.24-6.42,.31-11,1.66-16.91,1.3-7.1,2.81-14.5,5.41-21.31,3.41-9.1,9.39-17.55,18.76-21.16,10.84-5.01,22.65-7.97,34.61-8.28,8.53-.34,16.84,1.17,25.09,3.27,8.76,1.96,20.11,5.47,21.26,15.91,1.66,24.94-34.51,39.68-43.47,60.51-3.05,7.56-1.36,14.21,4.35,20.89,2.16,2.53,4.8,4.14,7.76,5.04,14.09,3.71,31.76-6.87,43.92-13.85,6.73-4.04,13.76-8.67,19.99-12.5,7.13-4.33,13.51-6.97,19.81-11.42,8.38-5.66,14.57-12.67,21.97-19.6,5-4.73,11.16-9.52,15.27-15.33,12.19-16.4,23.8-39.35,48.04-28.57,6.49,2.78,12.58,7.28,18.04,11.47,3.83,2.8,6.89,5.99,11.34,6.62,6.78,1.01,13.6-3.14,17.57-8.34,3.65-5.42,2.71-12.46,1.29-18.49-1.02-4.92-3.81-9.93-6.33-13.88-3.33-5.58-6.38-10.07-9.81-15.46-3.31-5.16-6.52-10.87-10.31-16.22-8.85-13.4-23.84-31.99-14.27-48.35,1.53-2.53,3.69-4.93,6.62-7.25,2.22-1.37,4.46-2.69,6.78-3.93,4.66-2.54,9.46-4.8,14.4-6.78,12.26-4.9,25.36-8.08,38.57-8.44,7.25,.13,14.87,1.66,21.95,3.9,9.73,3.16,19.58,7.9,26.59,15.4,5.55,6.43,8.94,14.29,11,22.37,4.39,17.94,1.51,36.77,2.48,54.97h0Z"/></svg>