<?xml version="1.0" encoding="UTF-8"?>
<svg width="648px" height="481px" viewBox="0 0 648 481" version="1.1" xmlns="http://www.w3.org/2000/svg" xmlns:xlink="http://www.w3.org/1999/xlink">
    <title>img_console_environment_training_sept_pro</title>
    <g id="Training-tracks" stroke="none" stroke-width="1" fill="none" fill-rule="evenodd">
        <g id="Track-creation-Copy" transform="translate(-7742.000000, -6011.000000)">
            <g id="SEPT_PRO" transform="translate(3897.000000, 2704.000000)">
                <g id="img_console_environment_training_sept_pro" transform="translate(3845.000000, 3307.000000)">
                    <g id="Group-38" transform="translate(63.000000, 81.000000)" stroke-linejoin="round">
                        <path d="M334.408602,284.296527 L58.2056251,287.341775 C58.2056251,287.341775 46.6378391,293.421878 32.0455915,271.523114 C17.453344,249.624349 19.2306049,254.488431 19.2306049,254.488431 C19.2306049,254.488431 13.067355,242.827105 29.5719769,230.760439 C45.3906384,219.192653 56.3452174,209.464488 56.3452174,209.464488 C56.3452174,209.464488 99.5399332,174.781917 74.0138933,134.019242 C48.4878534,93.2565678 3.43273002,38.5044595 3.43273002,38.5044595 C3.43273002,38.5044595 -6.908642,19.6405497 8.30720588,15.3896741 C23.5230538,11.1387986 49.672694,23.2990049 49.672694,23.2990049 C49.672694,23.2990049 112.32374,47.5986308 145.738324,17.5099152 L167.200568,5.65111576 C167.200568,5.65111576 177.438007,-4.69025627 189.598213,2.60586752 C201.758419,9.9019913 189.598213,26.9470668 189.598213,26.9470668 L167.200568,78.6643203 C167.200568,78.6643203 157.971283,90.2217129 173.176738,98.7338573 C188.382193,107.246002 254.702087,144.059207 254.702087,144.059207 C254.702087,144.059207 305.806133,174.937817 357.523387,171.747062 C409.24064,168.556307 404.366164,168.857714 404.366164,168.857714 C404.366164,168.857714 445.575753,165.874825 476.152955,201.555157 C483.428292,210.067302 516.312816,271.523114 516.312816,271.523114 C516.312816,271.523114 536.860447,313.356302 505.919477,315.93385 C476.724589,318.365891 395.19924,319.581912 395.19924,319.581912 C395.19924,319.581912 388.50593,319.581912 368.425999,299.501981 C348.346069,279.422051 334.408602,284.296527 334.408602,284.296527 Z" id="Path" stroke="#84E29C" stroke-width="49"></path>
                        <path d="M334.408602,284.296527 L58.2056251,287.341775 C58.2056251,287.341775 46.6378391,293.421878 32.0455915,271.523114 C17.453344,249.624349 19.2306049,254.488431 19.2306049,254.488431 C19.2306049,254.488431 13.067355,242.827105 29.5719769,230.760439 C45.3906384,219.192653 56.3452174,209.464488 56.3452174,209.464488 C56.3452174,209.464488 99.5399332,174.781917 74.0138933,134.019242 C48.4878534,93.2565678 3.43273002,38.5044595 3.43273002,38.5044595 C3.43273002,38.5044595 -6.908642,19.6405497 8.30720588,15.3896741 C23.5230538,11.1387986 49.672694,23.2990049 49.672694,23.2990049 C49.672694,23.2990049 112.32374,47.5986308 145.738324,17.5099152 L167.200568,5.65111576 C167.200568,5.65111576 177.438007,-4.69025627 189.598213,2.60586752 C201.758419,9.9019913 189.598213,26.9470668 189.598213,26.9470668 L167.200568,78.6643203 C167.200568,78.6643203 157.971283,90.2217129 173.176738,98.7338573 C188.382193,107.246002 254.702087,144.059207 254.702087,144.059207 C254.702087,144.059207 305.806133,174.937817 357.523387,171.747062 C409.24064,168.556307 404.366164,168.857714 404.366164,168.857714 C404.366164,168.857714 445.575753,165.874825 476.152955,201.555157 C483.428292,210.067302 516.312816,271.523114 516.312816,271.523114 C516.312816,271.523114 536.860447,313.356302 505.919477,315.93385 C476.724589,318.365891 395.19924,319.581912 395.19924,319.581912 C395.19924,319.581912 388.50593,319.581912 368.425999,299.501981 C348.346069,279.422051 334.408602,284.296527 334.408602,284.296527 Z" id="Path" stroke="#FFFFFF" stroke-width="45"></path>
                        <path d="M334.408602,284.296527 L58.2056251,287.341775 C58.2056251,287.341775 46.6378391,293.421878 32.0455915,271.523114 C17.453344,249.624349 19.2306049,254.488431 19.2306049,254.488431 C19.2306049,254.488431 13.067355,242.827105 29.5719769,230.760439 C45.3906384,219.192653 56.3452174,209.464488 56.3452174,209.464488 C56.3452174,209.464488 99.5399332,174.781917 74.0138933,134.019242 C48.4878534,93.2565678 3.43273002,38.5044595 3.43273002,38.5044595 C3.43273002,38.5044595 -6.908642,19.6405497 8.30720588,15.3896741 C23.5230538,11.1387986 49.672694,23.2990049 49.672694,23.2990049 C49.672694,23.2990049 112.32374,47.5986308 145.738324,17.5099152 L167.200568,5.65111576 C167.200568,5.65111576 177.438007,-4.69025627 189.598213,2.60586752 C201.758419,9.9019913 189.598213,26.9470668 189.598213,26.9470668 L167.200568,78.6643203 C167.200568,78.6643203 157.971283,90.2217129 173.176738,98.7338573 C188.382193,107.246002 254.702087,144.059207 254.702087,144.059207 C254.702087,144.059207 305.806133,174.937817 357.523387,171.747062 C409.24064,168.556307 404.366164,168.857714 404.366164,168.857714 C404.366164,168.857714 445.575753,165.874825 476.152955,201.555157 C483.428292,210.067302 516.312816,271.523114 516.312816,271.523114 C516.312816,271.523114 536.860447,313.356302 505.919477,315.93385 C476.724589,318.365891 395.19924,319.581912 395.19924,319.581912 C395.19924,319.581912 388.50593,319.581912 368.425999,299.501981 C348.346069,279.422051 334.408602,284.296527 334.408602,284.296527 Z" id="Path" stroke="#313D46" stroke-width="36"></path>
                        <path d="M334.408602,284.296527 L58.2056251,287.341775 C58.2056251,287.341775 46.6378391,293.421878 32.0455915,271.523114 C17.453344,249.624349 19.2306049,254.488431 19.2306049,254.488431 C19.2306049,254.488431 13.067355,242.827105 29.5719769,230.760439 C45.3906384,219.192653 56.3452174,209.464488 56.3452174,209.464488 C56.3452174,209.464488 99.5399332,174.781917 74.0138933,134.019242 C48.4878534,93.2565678 3.43273002,38.5044595 3.43273002,38.5044595 C3.43273002,38.5044595 -6.908642,19.6405497 8.30720588,15.3896741 C23.5230538,11.1387986 49.672694,23.2990049 49.672694,23.2990049 C49.672694,23.2990049 112.32374,47.5986308 145.738324,17.5099152 L167.200568,5.65111576 C167.200568,5.65111576 177.438007,-4.69025627 189.598213,2.60586752 C201.758419,9.9019913 189.598213,26.9470668 189.598213,26.9470668 L167.200568,78.6643203 C167.200568,78.6643203 157.971283,90.2217129 173.176738,98.7338573 C188.382193,107.246002 254.702087,144.059207 254.702087,144.059207 C254.702087,144.059207 305.806133,174.937817 357.523387,171.747062 C409.24064,168.556307 404.366164,168.857714 404.366164,168.857714 C404.366164,168.857714 445.575753,165.874825 476.152955,201.555157 C483.428292,210.067302 516.312816,271.523114 516.312816,271.523114 C516.312816,271.523114 536.860447,313.356302 505.919477,315.93385 C476.724589,318.365891 395.19924,319.581912 395.19924,319.581912 C395.19924,319.581912 388.50593,319.581912 368.425999,299.501981 C348.346069,279.422051 334.408602,284.296527 334.408602,284.296527 Z" id="Path" stroke="#FF9900" stroke-width="2.32" stroke-dasharray="9,6"></path>
                    </g>
                    <rect id="Rectangle-Copy" x="0" y="0" width="648" height="481.00207"></rect>
                </g>
            </g>
        </g>
    </g>
</svg>