<?xml version="1.0" encoding="UTF-8"?><svg id="a" xmlns="http://www.w3.org/2000/svg" viewBox="0 0 648 482"><defs><style>.b{stroke:#84e29c;stroke-width:48px;}.b,.c,.d,.e{fill:none;stroke-miterlimit:10;}.c{stroke:#313d46;stroke-width:36px;}.d{stroke:#f90;stroke-dasharray:0 0 9.95 6.97;stroke-width:2px;}.e{stroke:#fff;stroke-width:44px;}</style></defs><path class="b" d="M281.17,349.73c-37.17-.73-61.16-8.4-91.1-17.14-33.33-8.6-69.58-17.6-102.88-26.27-29.36-7.02-29.2-31.86-21.52-56.17,3.72-15.66,7.3-31.36,10.94-47.05,4.4-15.61,5.38-33.06,13.63-47.2,13.18-22.62,48.61-32.81,68.75-13.63,13.72,13.6,17.71,31.76,12.64,50.53-3.19,17.89-15.31,54.4-1.82,67.64,11.27,11.61,30.39,14.16,46.8,16.62,22.15,3.43,47.35,7.27,64.34-7.92,9.03-8.11,24.2-31.83,6.57-36.87-14.04-2.03-29.62-.15-41.01-9.13-27.19-16.73-30.15-62.68-.89-78.89,14.45-6.41,27.59-1.86,44.46-2.07,9.8,.43,20.1,.9,29.54,1.3,47.56,2.34,90.39,.53,139.39,1.53,21.88,.45,55.8-5.62,60.18,20.98,.79,6.4-2.11,13.79-5.3,19.58-12.45,19.64,6.51,35.4,18.22,49.48,9.77,11.51,19.58,23.13,29.32,34.65,12.42,15.22,34.65,34.82,21.8,55.74-7.03,11.26-21.54,11.69-33.79,11.9-11.56,.54-23.12,1.02-34.68,1.51-16.66,1.08-45.81,1.32-64.22,1.79-14.43-.24-19.38,1.75-30.46-1.17-34.17-15.43,4.2-57.47,15.94-76.46,3.89-6.29-11.98-29.64-26-30-8.33-.22-32.67,17.53-49,42-12.09,18.12-24.13,51.01-43,67-11.12,9.42-31.91,7.83-36.83,7.73Z"/><path class="e" d="M281.17,349.73c-37.17-.73-61.16-8.4-91.1-17.14-33.33-8.6-69.58-17.6-102.88-26.27-29.36-7.02-29.2-31.86-21.52-56.17,3.72-15.66,7.3-31.36,10.94-47.05,4.4-15.61,5.38-33.06,13.63-47.2,13.18-22.62,48.61-32.81,68.75-13.63,13.72,13.6,17.71,31.76,12.64,50.53-3.19,17.89-15.31,54.4-1.82,67.64,11.27,11.61,30.39,14.16,46.8,16.62,22.15,3.43,47.35,7.27,64.34-7.92,9.03-8.11,24.2-31.83,6.57-36.87-14.04-2.03-29.62-.15-41.01-9.13-27.19-16.73-30.15-62.68-.89-78.89,14.45-6.41,27.59-1.86,44.46-2.07,9.8,.43,20.1,.9,29.54,1.3,47.56,2.34,90.39,.53,139.39,1.53,21.88,.45,55.8-5.62,60.18,20.98,.79,6.4-2.11,13.79-5.3,19.58-12.45,19.64,6.51,35.4,18.22,49.48,9.77,11.51,19.58,23.13,29.32,34.65,12.42,15.22,34.65,34.82,21.8,55.74-7.03,11.26-21.54,11.69-33.79,11.9-11.56,.54-23.12,1.02-34.68,1.51-16.66,1.08-45.81,1.32-64.22,1.79-14.43-.24-19.38,1.75-30.46-1.17-34.17-15.43,4.2-57.47,15.94-76.46,3.89-6.29-11.98-29.64-26-30-8.33-.22-32.67,17.53-49,42-12.09,18.12-24.13,51.01-43,67-11.12,9.42-31.91,7.83-36.83,7.73Z"/><path class="c" d="M281.17,349.73c-37.17-.73-61.16-8.4-91.1-17.14-33.33-8.6-69.58-17.6-102.88-26.27-29.36-7.02-29.2-31.86-21.52-56.17,3.72-15.66,7.3-31.36,10.94-47.05,4.4-15.61,5.38-33.06,13.63-47.2,13.18-22.62,48.61-32.81,68.75-13.63,13.72,13.6,17.71,31.76,12.64,50.53-3.19,17.89-15.31,54.4-1.82,67.64,11.27,11.61,30.39,14.16,46.8,16.62,22.15,3.43,47.35,7.27,64.34-7.92,9.03-8.11,24.2-31.83,6.57-36.87-14.04-2.03-29.62-.15-41.01-9.13-27.19-16.73-30.15-62.68-.89-78.89,14.45-6.41,27.59-1.86,44.46-2.07,9.8,.43,20.1,.9,29.54,1.3,47.56,2.34,90.39,.53,139.39,1.53,21.88,.45,55.8-5.62,60.18,20.98,.79,6.4-2.11,13.79-5.3,19.58-12.45,19.64,6.51,35.4,18.22,49.48,9.77,11.51,19.58,23.13,29.32,34.65,12.42,15.22,34.65,34.82,21.8,55.74-7.03,11.26-21.54,11.69-33.79,11.9-11.56,.54-23.12,1.02-34.68,1.51-16.66,1.08-45.81,1.32-64.22,1.79-14.43-.24-19.38,1.75-30.46-1.17-34.17-15.43,4.2-57.47,15.94-76.46,3.89-6.29-11.98-29.64-26-30-8.33-.22-32.67,17.53-49,42-12.09,18.12-24.13,51.01-43,67-11.12,9.42-31.91,7.83-36.83,7.73Z"/><path class="d" d="M281.17,349.73c-37.17-.73-61.16-8.4-91.1-17.14-33.33-8.6-69.58-17.6-102.88-26.27-29.36-7.02-29.2-31.86-21.52-56.17,3.72-15.66,7.3-31.36,10.94-47.05,4.4-15.61,5.38-33.06,13.63-47.2,13.18-22.62,48.61-32.81,68.75-13.63,13.72,13.6,17.71,31.76,12.64,50.53-11.99,54.61-19.65,76.29,44.98,84.26,22.14,3.43,47.35,7.27,64.34-7.92,9.03-8.11,24.2-31.83,6.57-36.87-14.04-2.03-29.62-.15-41.01-9.13-27.19-16.73-30.15-62.68-.89-78.89,14.45-6.41,27.59-1.86,44.46-2.07,57.62,3.52,110.18,2.05,168.92,2.82,21.88,.45,55.8-5.62,60.18,20.98,.79,6.4-2.11,13.79-5.3,19.58-12.45,19.64,6.51,35.4,18.22,49.48,9.77,11.51,19.58,23.13,29.32,34.65,12.42,15.22,34.65,34.82,21.8,55.74-7.03,11.26-21.54,11.69-33.79,11.9-31.61,1.61-65.98,2.83-98.9,3.3-14.43-.24-19.38,1.75-30.46-1.17-34.17-15.43,4.2-57.47,15.94-76.46,3.89-6.29-11.98-29.64-26-30-8.33-.22-32.67,17.53-49,42-12.09,18.12-24.13,51.01-43,67-11.12,9.42-31.91,7.83-36.83,7.73h0Z"/></svg>