<svg xmlns="http://www.w3.org/2000/svg" width="567" height="361" viewBox="0 0 567 361">
  <g fill="none" fill-rule="evenodd" transform="translate(27 27)">
    <path stroke="#84E29C" stroke-width="52.53" d="M260.135939,72.8810729 C166.085937,73.4310729 169.935937,-3.56892874 88.5359351,1.93107138 C7.13593334,7.4310715 -2.76406687,82.7810731 0.535933202,187.281075 C1.21318073,208.727247 1.63593323,298.381078 89.0859351,306.631078 C162.235937,312.131078 168.285937,234.581076 257.935939,236.231076 C349.266478,237.912007 346.485941,308.831078 419.635942,306.631078 C492.785944,304.431078 510.385944,251.631077 512.035944,186.731075 C512.035944,115.422242 527.985945,26.1310719 441.085943,3.58107142 C354.185941,-18.9689291 354.185941,72.3310729 260.135939,72.8810729 Z" stroke-linejoin="round"/>
    <path stroke="#FFFFFF" stroke-width="48.41" d="M260.135939,72.8810729 C166.085937,73.4310729 169.935937,-3.56892874 88.5359351,1.93107138 C7.13593334,7.4310715 -2.76406687,82.7810731 0.535933202,187.281075 C1.21318073,208.727247 1.63593323,298.381078 89.0859351,306.631078 C162.235937,312.131078 168.285937,234.581076 257.935939,236.231076 C349.266478,237.912007 346.485941,308.831078 419.635942,306.631078 C492.785944,304.431078 510.385944,251.631077 512.035944,186.731075 C512.035944,115.422242 527.985945,26.1310719 441.085943,3.58107142 C354.185941,-18.9689291 354.185941,72.3310729 260.135939,72.8810729 Z" stroke-linejoin="round"/>
    <path stroke="#313D46" stroke-width="42.23" d="M260.135939,72.8810729 C166.085937,73.4310729 169.935937,-3.56892874 88.5359351,1.93107138 C7.13593334,7.4310715 -2.76406687,82.7810731 0.535933202,187.281075 C1.21318073,208.727247 1.63593323,298.381078 89.0859351,306.631078 C162.235937,312.131078 168.285937,234.581076 257.935939,236.231076 C349.266478,237.912007 346.485941,308.831078 419.635942,306.631078 C492.785944,304.431078 510.385944,251.631077 512.035944,186.731075 C512.035944,115.422242 527.985945,26.1310719 441.085943,3.58107142 C354.185941,-18.9689291 354.185941,72.3310729 260.135939,72.8810729 Z" stroke-linejoin="round"/>
    <path stroke="#FF9900" stroke-width="2.317" d="M260.135939,72.8810729 C166.085937,73.4310729 169.935937,-3.56892874 88.5359351,1.93107138 C7.13593334,7.4310715 -2.76406687,82.7810731 0.535933202,187.281075 C1.21318073,208.727247 1.63593323,298.381078 89.0859351,306.631078 C162.235937,312.131078 168.285937,234.581076 257.935939,236.231076 C349.266478,237.912007 346.485941,308.831078 419.635942,306.631078 C492.785944,304.431078 510.385944,251.631077 512.035944,186.731075 C512.035944,115.422242 527.985945,26.1310719 441.085943,3.58107142 C354.185941,-18.9689291 354.185941,72.3310729 260.135939,72.8810729 Z" stroke-dasharray="9.27 6.18"/>
  </g>
</svg>
