<svg xmlns="http://www.w3.org/2000/svg" width="354" height="160" viewBox="0 0 354 160"><title>Toronto Turnpike</title><line x1="58.45" y1="28.48" x2="58.45" y2="42.08" style="fill:none;stroke:#232f3e;stroke-linejoin:round;stroke-width:2px"/><path d="M58.55,30.08c0-3.3-.1-4.8,0-8.1-12.3,11.4-24.7-11.7-37-.4v23c12.3-11.3,24.7,12.9,37,1.5v-5" style="fill:none;stroke:#232f3e;stroke-miterlimit:10;stroke-width:2px"/><line x1="21.55" y1="31.08" x2="21.55" y2="100.08" style="fill:none;stroke:#232f3e;stroke-miterlimit:10;stroke-width:2px"/><line x1="283.55" y1="140.08" x2="345.55" y2="140.08" style="fill:none;stroke:#232f3e;stroke-miterlimit:10;stroke-width:2px"/><line x1="9.55" y1="140.08" x2="275.55" y2="140.08" style="fill:none;stroke:#232f3e;stroke-miterlimit:10;stroke-width:2px"/><line x1="167.55" y1="122.08" x2="235.55" y2="122.08" style="fill:none;stroke:#232f3e;stroke-miterlimit:10;stroke-width:2px;stroke-dasharray:6,6"/><line x1="9.55" y1="122.08" x2="51.55" y2="122.08" style="fill:none;stroke:#232f3e;stroke-miterlimit:10;stroke-width:2px;stroke-dasharray:6,6"/><line x1="9.55" y1="100.08" x2="48.55" y2="100.08" style="fill:none;stroke:#232f3e;stroke-miterlimit:10;stroke-width:2px"/><line x1="165.55" y1="100.08" x2="221.55" y2="100.08" style="fill:none;stroke:#232f3e;stroke-miterlimit:10;stroke-width:2px"/><circle cx="143.05" cy="81.58" r="0.5" style="fill:none;stroke:#232f3e;stroke-linejoin:round;stroke-width:2px"/><line x1="98.55" y1="59.08" x2="63.55" y2="59.08" style="fill:none;stroke:#232f3e;stroke-miterlimit:10;stroke-width:2px"/><line x1="88.55" y1="67.08" x2="73.55" y2="67.08" style="fill:none;stroke:#232f3e;stroke-miterlimit:10;stroke-width:2px"/><line x1="82.55" y1="75.08" x2="56.55" y2="75.08" style="fill:none;stroke:#232f3e;stroke-miterlimit:10;stroke-width:2px"/><path d="M112.85,91.38a3.1,3.1,0,0,0-1.3-.6c-4.9-1.4-11.1,5.2-14,14.8s-1.2,18.6,3.7,20c3.1.9,6.8-2.2,8.7-4.4a27.55,27.55,0,0,0,5.2-10.4,29.39,29.39,0,0,0,1.1-12.5c.9,3.9,1,9.5-.2,17.4a5.56,5.56,0,0,0,5.5,6.4h26.2c3.9,0,6.7-2.8,5.9-6.6l-.1-2.9m-5-52.5-7.5-2.2c-38.6-9.3-51.5,6.2-55.5,12.7l-3.9,6.9c-2,2.4-5.3,4.6-10.9,4.5-7.3.5-11,4.6-12.8,9.1a21.88,21.88,0,0,0-1.1,3.9l-.1.1a26.79,26.79,0,0,0-.5,7.1c1.8-1.6,3.5-3,5-4.2a32.23,32.23,0,0,0-3.6,7.7c-1.7,5.3-3.9,17.3,3.1,20,3.4,1.3,7.2-1.2,9.5-3.5a27.85,27.85,0,0,0,6.3-11.3c2.1-6.8,1.9-13.2-.3-16.9m45.2,8.4c1.2,4.2,1.9,8.1,2.5,9.7v0h8.4l.4-1c1-1.9,5.1-3,5.1-3h9.7s2.7,1.7,1.9,3.2l-.3,1.8h5.7L157,108l1.5-4.2a50.94,50.94,0,0,0,2.5-10.4l2-15.7a16.16,16.16,0,0,0-3.3-12.1,14.06,14.06,0,0,0-10.7-5.4h-.1l-7.1-.1a13.89,13.89,0,0,0-11.4,5.6m-59.5,33.9c-3.2-.3-7.1,3.5-8.8,8.9-1.5,4.7-.9,9.2,1.1,11.2M111.25,98c-3.4-.4-7.3,3.9-9.1,9.9-1.5,5.2-1,10.2,1.2,12.4m48.3-44.2L150,89.18a6.05,6.05,0,0,1-6,5.4h-.2a5.88,5.88,0,0,1-4.6-2.1,6.46,6.46,0,0,1-1.6-5l1.7-13.1a6.05,6.05,0,0,1,6-5.4,6.29,6.29,0,0,1,4.8,2.1A6.21,6.21,0,0,1,151.65,76.08Z" style="fill:none;stroke:#232f3e;stroke-linejoin:round;stroke-width:2px"/><path d="M148.75,124.48l-1.5,1.2h4.3c5.7,0,8.9-2.5,10.4-6,2.2-5.3.2-13.1-2.3-18.6" style="fill:none;stroke:#232f3e;stroke-linejoin:round;stroke-width:2px"/><path d="M116.45,85.28s-10.7-16.5-26.5,10.5" style="fill:none;stroke:#232f3e;stroke-linejoin:round;stroke-width:2px"/><line x1="73.55" y1="118.08" x2="90.55" y2="118.08" style="fill:none;stroke:#232f3e;stroke-linejoin:round;stroke-width:2px"/><circle cx="143.55" cy="81.08" r="4" style="fill:none;stroke:#232f3e;stroke-linejoin:round;stroke-width:2px"/><path d="M282.65,121h.9l28.5,2.9a.94.94,0,0,0,1-1.3c-.9-2.7-2.6-8.3-2.4-9.5.3-1.6,32.9-28.5,32.9-28.5s-8.6-3.3-9.2-4.7,6.4-22.2,6.4-22.2-17.5,4.5-19.7,3.6-3.8-10.2-3.8-10.2-14.7,19.6-18.2,17.9,5.5-39,5.5-39-9.4,7.2-11.4,6.3S279,17.52,279,17.52,268.05,35.38,266,36.28s-11.4-6.3-11.4-6.3,8.9,37.3,5.5,39-18.2-17.9-18.2-17.9-1.6,9.2-3.8,10.2-19.7-3.6-19.7-3.6,7,20.8,6.4,22.2-9.2,4.7-9.2,4.7,32.6,26.9,32.9,28.5c.2,1.2-1.5,6.8-2.4,9.5a1,1,0,0,0,1,1.3l28.5-2.9h.8" style="fill:none;stroke:#232f3e;stroke-miterlimit:10;stroke-width:2px"/><polyline points="279.55 152.09 279.55 57.28 279.55 48.09" style="fill:none;stroke:#813194;stroke-linejoin:round;stroke-width:2.5511999130249023px"/><line x1="269.55" y1="51.08" x2="279.55" y2="63.08" style="fill:none;stroke:#813194;stroke-linejoin:round;stroke-width:2.5511999130249023px"/><line x1="264.55" y1="86.08" x2="279.55" y2="104.08" style="fill:none;stroke:#813194;stroke-linejoin:round;stroke-width:2.5511999130249023px"/><line x1="289.55" y1="51.08" x2="279.55" y2="63.08" style="fill:none;stroke:#813194;stroke-linejoin:round;stroke-width:2.5511999130249023px"/><line x1="294.55" y1="86.08" x2="279.55" y2="104.08" style="fill:none;stroke:#813194;stroke-linejoin:round;stroke-width:2.5511999130249023px"/><path d="M206.15,50.28c-.2-.6,6.7-15.6,6.7-15.6s-3.6.3-4-.1-1.5-8.9-1.5-8.9-5.4,4.6-6.3,4.6-3.1-2.9-3.1-2.9-1.8,9.4-3.3,9.4-4.7-14.6-4.7-14.6-2.1,4.1-2.9,4.2-8.9-6.2-8.9-6.2-.1,10.1-.7,10.8-5.1-.3-5.1-.3,9.5,11.6,8.6,12.8-9.4-3.2-9.4-3.2,1,3.5.4,4.2-7.5,2.1-7.5,2.1,6,6.1,6.1,6.7-2.4,3.2-2.4,3.2,16,3.9,16.4,4.4,3.9,7.6,3.9,7.6l7.9-9.9,1-.5,12.7-.1C209.75,58,206.25,50.68,206.15,50.28Z" style="fill:none;stroke:#813194;stroke-linejoin:round;stroke-width:2.5511999130249023px"/><line x1="196.35" y1="57.88" x2="201.15" y2="67.78" style="fill:none;stroke:#813194;stroke-linejoin:round;stroke-width:2.5511999130249023px"/><line x1="29.55" y1="19.08" x2="29.55" y2="41.08" style="fill:none;stroke:#222f3e;stroke-miterlimit:10;stroke-width:2px"/><line x1="51.55" y1="25.08" x2="51.55" y2="49.08" style="fill:none;stroke:#222f3e;stroke-miterlimit:10;stroke-width:2px"/><path d="M40.55,24.58a.52.52,0,0,1,.4.2l1.7,2.7h1.6a.47.47,0,0,1,.5.5v3h2.7a.47.47,0,0,1,.5.5.37.37,0,0,1-.1.3l-1.7,2.6,1.2,1.6a.49.49,0,0,1-.1.7.1.1,0,0,0-.1.1l-2.4.9v1.8a.47.47,0,0,1-.5.5h-.2l-2.9-1.3h-1.4L36.85,40a.48.48,0,0,1-.6-.2v-2l-2.4-.9a.45.45,0,0,1-.3-.6.1.1,0,0,1,.1-.1l1.2-1.6L33.15,32a.62.62,0,0,1,.1-.7.37.37,0,0,1,.3-.1h2.7v-3a.47.47,0,0,1,.5-.5h1.6l1.7-2.7C40.25,24.58,40.45,24.58,40.55,24.58Z" style="fill:none;stroke:#813194;stroke-linejoin:round;stroke-width:2.5511999130249023px"/><line x1="40.55" y1="38.08" x2="40.55" y2="42.08" style="fill:none;stroke:#813194;stroke-linejoin:round;stroke-width:2.5511999130249023px"/></svg>