<?xml version="1.0" encoding="UTF-8"?><svg id="a" xmlns="http://www.w3.org/2000/svg" viewBox="0 0 648 482"><defs><style>.b{stroke:#f90;stroke-dasharray:0 0 9.97 6.98;stroke-width:2px;}.b,.c,.d,.e{fill:none;stroke-miterlimit:10;}.c{stroke:#84e29c;stroke-width:48px;}.d{stroke:#313d46;stroke-width:36px;}.e{stroke:#fff;stroke-width:44px;}</style></defs><path class="c" d="M163.95,405.93c1.99,1.27,3.92,2.44,5.78,3.51,1.86,1.1,3.68,2.06,5.43,2.96s3.51,1.65,5.23,2.27c1.72,.62,3.4,1.13,5.12,1.48,1.68,.34,3.4,.55,5.12,.55,1.72,.03,3.47-.1,5.29-.45,1.79-.34,3.64-.86,5.54-1.58,1.89-.72,3.88-1.65,5.95-2.82,4.88-2.75,10.25-5.84,15.95-9.18,5.71-3.33,11.76-6.94,18.05-10.73,6.29-3.78,12.79-7.7,19.42-11.76,6.64-4.02,13.37-8.15,20.15-12.24,6.77-4.09,13.51-8.22,20.15-12.24s13.17-7.94,19.46-11.69c6.29-3.75,12.38-7.32,18.08-10.62,5.71-3.3,11.1-6.36,15.99-9.08,4.13-2.27,8.11-3.95,11.96-5.19,3.85-1.24,7.56-1.99,11.14-2.37,3.58-.38,6.98-.34,10.21-.03,3.23,.31,6.29,.96,9.14,1.82,2.85,.86,5.54,1.96,7.98,3.2,2.44,1.24,4.68,2.61,6.7,4.06,2.03,1.44,3.78,2.92,5.29,4.43,1.51,1.48,2.78,2.96,3.78,4.3,1.13,1.55,1.99,3.71,2.61,6.26,.62,2.58,1.03,5.57,1.27,8.87,.24,3.3,.34,6.88,.38,10.62s0,7.6-.07,11.48c-.03,3.88-.1,7.77-.07,11.48,.03,3.75,.14,7.32,.41,10.62,.28,3.3,.65,6.29,1.31,8.87,.62,2.58,1.48,4.71,2.65,6.26,1.41,1.89,3.16,3.54,5.12,4.99,1.99,1.44,4.23,2.65,6.64,3.68,2.44,1.03,5.05,1.86,7.8,2.54s5.67,1.2,8.66,1.62,6.05,.69,9.18,.86c3.09,.17,6.22,.28,9.35,.31,3.09,.03,6.19,0,9.18-.07s5.91-.14,8.66-.24c1.44-.03,2.92-.07,4.43-.1,1.51-.03,3.09-.1,4.74-.24,1.65-.14,3.4-.34,5.26-.69,1.86-.34,3.85-.79,5.98-1.41,2.13-.62,4.4-1.41,6.88-2.41s5.12-2.23,8.01-3.71c2.89-1.48,5.98-3.23,9.32-5.29,3.33-2.06,6.94-4.43,10.83-7.19,2.48-1.75,4.68-3.3,6.64-4.74,1.96-1.44,3.71-2.75,5.29-4.02,1.55-1.27,2.92-2.48,4.16-3.68,1.24-1.2,2.3-2.41,3.27-3.68s1.82-2.58,2.61-4.02,1.48-2.99,2.17-4.71,1.31-3.64,1.96-5.78c.65-2.13,1.27-4.5,1.96-7.19,.76-2.99,1.44-5.74,1.99-8.29s1.03-4.88,1.44-7.05c.38-2.17,.72-4.16,.96-5.98,.24-1.82,.45-3.51,.58-5.05,.14-1.55,.24-2.99,.31-4.33,.07-1.34,.1-2.58,.14-3.71,.03-1.17,.03-2.23,.03-3.3s0-2.03,.03-3.03c.1-5.12-.07-10.42-.45-15.85-.41-5.43-1.03-10.97-1.82-16.57-.79-5.6-1.82-11.17-2.96-16.71-1.13-5.54-2.41-11.04-3.82-16.36-1.38-5.33-2.85-10.52-4.4-15.44-1.55-4.95-3.13-9.63-4.74-13.99s-3.23-8.39-4.81-12-3.16-6.81-4.64-9.49c-1.93-3.44-3.88-6.57-5.98-9.35-2.06-2.82-4.23-5.29-6.46-7.46-2.23-2.17-4.57-4.02-7.01-5.57-2.44-1.55-4.99-2.78-7.6-3.68-2.65-.93-5.4-1.51-8.25-1.82s-5.84-.28-8.9,.03-6.29,.93-9.63,1.89c-3.33,.93-6.81,2.17-10.42,3.71-4.95,2.13-11.04,4.64-17.91,7.43-6.88,2.78-14.61,5.88-22.86,9.18-8.25,3.3-17.09,6.77-26.16,10.35-9.08,3.58-18.46,7.25-27.81,10.93s-18.7,7.36-27.81,10.97c-9.08,3.61-17.88,7.08-26.13,10.42-8.25,3.3-15.95,6.43-22.83,9.28-6.88,2.85-12.93,5.4-17.88,7.56-1.72,.76-3.23,1.44-4.64,2.1s-2.72,1.31-3.92,1.89c-1.2,.62-2.34,1.17-3.44,1.75-1.1,.55-2.13,1.1-3.2,1.65-1.07,.55-2.1,1.1-3.2,1.65-1.1,.55-2.23,1.13-3.44,1.72s-2.51,1.2-3.92,1.86-2.96,1.34-4.68,2.06c-5.09,2.2-10.14,4.19-15.06,5.98-4.92,1.79-9.73,3.4-14.37,4.78s-9.11,2.54-13.37,3.51c-4.26,.93-8.29,1.65-12.03,2.13-3.75,.48-7.22,.72-10.35,.69-3.13-.03-5.91-.31-8.32-.83-2.41-.55-4.4-1.34-5.98-2.44s-2.68-2.48-3.3-4.13c-.31-.83-1-2.17-1.93-4.06s-2.1-4.3-3.3-7.22-2.48-6.36-3.64-10.28c-1.17-3.92-2.17-8.35-2.89-13.24s-1.17-10.28-1.1-16.12,.55-12.14,1.72-18.87,2.96-13.92,5.6-21.56c2.65-7.63,6.09-15.68,10.55-24.13,.31-.62,.69-1.41,1.1-2.37s.86-2.06,1.41-3.23c.52-1.17,1.1-2.44,1.75-3.75s1.38-2.61,2.17-3.88,1.65-2.54,2.61-3.68c.96-1.17,1.99-2.2,3.13-3.13s2.37-1.65,3.68-2.2,2.75-.86,4.3-.89c2.61-.07,5.16,.14,7.56,.55s4.71,1.1,6.88,1.93c2.2,.83,4.26,1.86,6.22,3.03,1.96,1.17,3.85,2.44,5.6,3.82s3.44,2.82,4.99,4.33,3.03,3.03,4.4,4.57c1.38,1.51,2.65,3.03,3.82,4.5s2.27,2.85,3.27,4.16c1.51,1.96,2.82,3.75,3.99,5.4,1.17,1.65,2.2,3.16,3.09,4.57s1.75,2.61,2.51,3.75,1.48,2.1,2.2,2.92c.72,.86,1.41,1.55,2.13,2.13s1.51,1.03,2.37,1.38,1.79,.55,2.85,.62c1.07,.1,2.27,.07,3.64-.1,1.24-.14,2.44-.28,3.61-.48,1.13-.17,2.27-.41,3.33-.69s2.13-.62,3.16-1.07c1.03-.41,2.06-.93,3.06-1.55,1.03-.62,2.03-1.34,3.06-2.2s2.06-1.86,3.09-2.99c1.07-1.13,2.13-2.44,3.23-3.92s2.27-3.13,3.47-4.99c.55-.83,1.07-2.17,1.55-3.92s.89-3.88,1.24-6.33,.62-5.16,.76-8.08c.14-2.89,.17-5.98,.07-9.14s-.34-6.36-.79-9.52-1.03-6.29-1.82-9.28-1.82-5.78-3.06-8.32c-1.24-2.54-2.72-4.81-4.47-6.74-1.96-2.13-3.99-4.26-6.05-6.39s-4.19-4.26-6.36-6.39-4.37-4.26-6.6-6.36-4.5-4.19-6.81-6.29c-2.3-2.06-4.61-4.13-6.91-6.15-2.3-2.03-4.64-4.02-6.98-5.95-2.34-1.96-4.64-3.85-6.98-5.74-2.3-1.86-4.61-3.68-6.91-5.47-3.44-2.65-7.84-4.43-12.93-5.43-5.09-1-10.86-1.24-17.09-.86-6.22,.41-12.86,1.48-19.63,3.06-6.81,1.58-13.75,3.71-20.63,6.26s-13.61,5.47-20.01,8.73c-6.39,3.23-12.41,6.77-17.81,10.49-5.4,3.71-10.14,7.6-13.99,11.55s-6.81,7.98-8.63,11.93c-.93,2.03-2.13,5.43-3.51,9.83-1.38,4.4-2.99,9.76-4.68,15.78-1.68,6.02-3.51,12.62-5.33,19.49s-3.68,13.99-5.47,20.97-3.54,13.86-5.12,20.22c-1.58,6.36-3.06,12.24-4.3,17.22-1.24,4.99-2.23,9.11-2.92,11.96s-1.1,4.5-1.1,4.5c-.48,2.1-1,4.19-1.51,6.22s-1.07,4.06-1.62,6.02c-.55,1.99-1.13,3.95-1.72,5.88s-1.17,3.85-1.79,5.74-1.24,3.78-1.86,5.64c-.62,1.86-1.27,3.71-1.93,5.57-.65,1.86-1.31,3.68-1.96,5.54s-1.34,3.68-1.99,5.54c-3.58,9.76-5.23,18.81-5.29,27.16-.07,8.35,1.38,16.06,4.06,23.17,2.68,7.08,6.53,13.58,11.24,19.56,4.68,5.98,10.21,11.41,16.19,16.36,5.98,4.95,12.41,9.49,18.94,13.61s13.17,7.84,19.49,11.24,12.41,6.5,17.84,9.32c5.36,2.82,10.14,5.4,13.92,7.77Z"/><path class="e" d="M163.95,405.93c1.99,1.27,3.92,2.44,5.78,3.51,1.86,1.1,3.68,2.06,5.43,2.96s3.51,1.65,5.23,2.27c1.72,.62,3.4,1.13,5.12,1.48,1.68,.34,3.4,.55,5.12,.55,1.72,.03,3.47-.1,5.29-.45,1.79-.34,3.64-.86,5.54-1.58,1.89-.72,3.88-1.65,5.95-2.82,4.88-2.75,10.25-5.84,15.95-9.18,5.71-3.33,11.76-6.94,18.05-10.73,6.29-3.78,12.79-7.7,19.42-11.76,6.64-4.02,13.37-8.15,20.15-12.24,6.77-4.09,13.51-8.22,20.15-12.24s13.17-7.94,19.46-11.69c6.29-3.75,12.38-7.32,18.08-10.62,5.71-3.3,11.1-6.36,15.99-9.08,4.13-2.27,8.11-3.95,11.96-5.19,3.85-1.24,7.56-1.99,11.14-2.37,3.58-.38,6.98-.34,10.21-.03,3.23,.31,6.29,.96,9.14,1.82,2.85,.86,5.54,1.96,7.98,3.2,2.44,1.24,4.68,2.61,6.7,4.06,2.03,1.44,3.78,2.92,5.29,4.43,1.51,1.48,2.78,2.96,3.78,4.3,1.13,1.55,1.99,3.71,2.61,6.26,.62,2.58,1.03,5.57,1.27,8.87,.24,3.3,.34,6.88,.38,10.62s0,7.6-.07,11.48c-.03,3.88-.1,7.77-.07,11.48,.03,3.75,.14,7.32,.41,10.62,.28,3.3,.65,6.29,1.31,8.87,.62,2.58,1.48,4.71,2.65,6.26,1.41,1.89,3.16,3.54,5.12,4.99,1.99,1.44,4.23,2.65,6.64,3.68,2.44,1.03,5.05,1.86,7.8,2.54s5.67,1.2,8.66,1.62,6.05,.69,9.18,.86c3.09,.17,6.22,.28,9.35,.31,3.09,.03,6.19,0,9.18-.07s5.91-.14,8.66-.24c1.44-.03,2.92-.07,4.43-.1,1.51-.03,3.09-.1,4.74-.24,1.65-.14,3.4-.34,5.26-.69,1.86-.34,3.85-.79,5.98-1.41,2.13-.62,4.4-1.41,6.88-2.41s5.12-2.23,8.01-3.71c2.89-1.48,5.98-3.23,9.32-5.29,3.33-2.06,6.94-4.43,10.83-7.19,2.48-1.75,4.68-3.3,6.64-4.74,1.96-1.44,3.71-2.75,5.29-4.02,1.55-1.27,2.92-2.48,4.16-3.68,1.24-1.2,2.3-2.41,3.27-3.68s1.82-2.58,2.61-4.02,1.48-2.99,2.17-4.71,1.31-3.64,1.96-5.78c.65-2.13,1.27-4.5,1.96-7.19,.76-2.99,1.44-5.74,1.99-8.29s1.03-4.88,1.44-7.05c.38-2.17,.72-4.16,.96-5.98,.24-1.82,.45-3.51,.58-5.05,.14-1.55,.24-2.99,.31-4.33,.07-1.34,.1-2.58,.14-3.71,.03-1.17,.03-2.23,.03-3.3s0-2.03,.03-3.03c.1-5.12-.07-10.42-.45-15.85-.41-5.43-1.03-10.97-1.82-16.57-.79-5.6-1.82-11.17-2.96-16.71-1.13-5.54-2.41-11.04-3.82-16.36-1.38-5.33-2.85-10.52-4.4-15.44-1.55-4.95-3.13-9.63-4.74-13.99s-3.23-8.39-4.81-12-3.16-6.81-4.64-9.49c-1.93-3.44-3.88-6.57-5.98-9.35-2.06-2.82-4.23-5.29-6.46-7.46-2.23-2.17-4.57-4.02-7.01-5.57-2.44-1.55-4.99-2.78-7.6-3.68-2.65-.93-5.4-1.51-8.25-1.82s-5.84-.28-8.9,.03-6.29,.93-9.63,1.89c-3.33,.93-6.81,2.17-10.42,3.71-4.95,2.13-11.04,4.64-17.91,7.43-6.88,2.78-14.61,5.88-22.86,9.18-8.25,3.3-17.09,6.77-26.16,10.35-9.08,3.58-18.46,7.25-27.81,10.93s-18.7,7.36-27.81,10.97c-9.08,3.61-17.88,7.08-26.13,10.42-8.25,3.3-15.95,6.43-22.83,9.28-6.88,2.85-12.93,5.4-17.88,7.56-1.72,.76-3.23,1.44-4.64,2.1s-2.72,1.31-3.92,1.89c-1.2,.62-2.34,1.17-3.44,1.75-1.1,.55-2.13,1.1-3.2,1.65-1.07,.55-2.1,1.1-3.2,1.65-1.1,.55-2.23,1.13-3.44,1.72s-2.51,1.2-3.92,1.86-2.96,1.34-4.68,2.06c-5.09,2.2-10.14,4.19-15.06,5.98-4.92,1.79-9.73,3.4-14.37,4.78s-9.11,2.54-13.37,3.51c-4.26,.93-8.29,1.65-12.03,2.13-3.75,.48-7.22,.72-10.35,.69-3.13-.03-5.91-.31-8.32-.83-2.41-.55-4.4-1.34-5.98-2.44s-2.68-2.48-3.3-4.13c-.31-.83-1-2.17-1.93-4.06s-2.1-4.3-3.3-7.22-2.48-6.36-3.64-10.28c-1.17-3.92-2.17-8.35-2.89-13.24s-1.17-10.28-1.1-16.12,.55-12.14,1.72-18.87,2.96-13.92,5.6-21.56c2.65-7.63,6.09-15.68,10.55-24.13,.31-.62,.69-1.41,1.1-2.37s.86-2.06,1.41-3.23c.52-1.17,1.1-2.44,1.75-3.75s1.38-2.61,2.17-3.88,1.65-2.54,2.61-3.68c.96-1.17,1.99-2.2,3.13-3.13s2.37-1.65,3.68-2.2,2.75-.86,4.3-.89c2.61-.07,5.16,.14,7.56,.55s4.71,1.1,6.88,1.93c2.2,.83,4.26,1.86,6.22,3.03,1.96,1.17,3.85,2.44,5.6,3.82s3.44,2.82,4.99,4.33,3.03,3.03,4.4,4.57c1.38,1.51,2.65,3.03,3.82,4.5s2.27,2.85,3.27,4.16c1.51,1.96,2.82,3.75,3.99,5.4,1.17,1.65,2.2,3.16,3.09,4.57s1.75,2.61,2.51,3.75,1.48,2.1,2.2,2.92c.72,.86,1.41,1.55,2.13,2.13s1.51,1.03,2.37,1.38,1.79,.55,2.85,.62c1.07,.1,2.27,.07,3.64-.1,1.24-.14,2.44-.28,3.61-.48,1.13-.17,2.27-.41,3.33-.69s2.13-.62,3.16-1.07c1.03-.41,2.06-.93,3.06-1.55,1.03-.62,2.03-1.34,3.06-2.2s2.06-1.86,3.09-2.99c1.07-1.13,2.13-2.44,3.23-3.92s2.27-3.13,3.47-4.99c.55-.83,1.07-2.17,1.55-3.92s.89-3.88,1.24-6.33,.62-5.16,.76-8.08c.14-2.89,.17-5.98,.07-9.14s-.34-6.36-.79-9.52-1.03-6.29-1.82-9.28-1.82-5.78-3.06-8.32c-1.24-2.54-2.72-4.81-4.47-6.74-1.96-2.13-3.99-4.26-6.05-6.39s-4.19-4.26-6.36-6.39-4.37-4.26-6.6-6.36-4.5-4.19-6.81-6.29c-2.3-2.06-4.61-4.13-6.91-6.15-2.3-2.03-4.64-4.02-6.98-5.95-2.34-1.96-4.64-3.85-6.98-5.74-2.3-1.86-4.61-3.68-6.91-5.47-3.44-2.65-7.84-4.43-12.93-5.43-5.09-1-10.86-1.24-17.09-.86-6.22,.41-12.86,1.48-19.63,3.06-6.81,1.58-13.75,3.71-20.63,6.26s-13.61,5.47-20.01,8.73c-6.39,3.23-12.41,6.77-17.81,10.49-5.4,3.71-10.14,7.6-13.99,11.55s-6.81,7.98-8.63,11.93c-.93,2.03-2.13,5.43-3.51,9.83-1.38,4.4-2.99,9.76-4.68,15.78-1.68,6.02-3.51,12.62-5.33,19.49s-3.68,13.99-5.47,20.97-3.54,13.86-5.12,20.22c-1.58,6.36-3.06,12.24-4.3,17.22-1.24,4.99-2.23,9.11-2.92,11.96s-1.1,4.5-1.1,4.5c-.48,2.1-1,4.19-1.51,6.22s-1.07,4.06-1.62,6.02c-.55,1.99-1.13,3.95-1.72,5.88s-1.17,3.85-1.79,5.74-1.24,3.78-1.86,5.64c-.62,1.86-1.27,3.71-1.93,5.57-.65,1.86-1.31,3.68-1.96,5.54s-1.34,3.68-1.99,5.54c-3.58,9.76-5.23,18.81-5.29,27.16-.07,8.35,1.38,16.06,4.06,23.17,2.68,7.08,6.53,13.58,11.24,19.56,4.68,5.98,10.21,11.41,16.19,16.36,5.98,4.95,12.41,9.49,18.94,13.61s13.17,7.84,19.49,11.24,12.41,6.5,17.84,9.32c5.36,2.82,10.14,5.4,13.92,7.77Z"/><path class="d" d="M163.95,405.93c1.99,1.27,3.92,2.44,5.78,3.51,1.86,1.1,3.68,2.06,5.43,2.96s3.51,1.65,5.23,2.27c1.72,.62,3.4,1.13,5.12,1.48,1.68,.34,3.4,.55,5.12,.55,1.72,.03,3.47-.1,5.29-.45,1.79-.34,3.64-.86,5.54-1.58,1.89-.72,3.88-1.65,5.95-2.82,4.88-2.75,10.25-5.84,15.95-9.18,5.71-3.33,11.76-6.94,18.05-10.73,6.29-3.78,12.79-7.7,19.42-11.76,6.64-4.02,13.37-8.15,20.15-12.24,6.77-4.09,13.51-8.22,20.15-12.24s13.17-7.94,19.46-11.69c6.29-3.75,12.38-7.32,18.08-10.62,5.71-3.3,11.1-6.36,15.99-9.08,4.13-2.27,8.11-3.95,11.96-5.19,3.85-1.24,7.56-1.99,11.14-2.37,3.58-.38,6.98-.34,10.21-.03,3.23,.31,6.29,.96,9.14,1.82,2.85,.86,5.54,1.96,7.98,3.2,2.44,1.24,4.68,2.61,6.7,4.06,2.03,1.44,3.78,2.92,5.29,4.43,1.51,1.48,2.78,2.96,3.78,4.3,1.13,1.55,1.99,3.71,2.61,6.26,.62,2.58,1.03,5.57,1.27,8.87,.24,3.3,.34,6.88,.38,10.62s0,7.6-.07,11.48c-.03,3.88-.1,7.77-.07,11.48,.03,3.75,.14,7.32,.41,10.62,.28,3.3,.65,6.29,1.31,8.87,.62,2.58,1.48,4.71,2.65,6.26,1.41,1.89,3.16,3.54,5.12,4.99,1.99,1.44,4.23,2.65,6.64,3.68,2.44,1.03,5.05,1.86,7.8,2.54s5.67,1.2,8.66,1.62,6.05,.69,9.18,.86c3.09,.17,6.22,.28,9.35,.31,3.09,.03,6.19,0,9.18-.07s5.91-.14,8.66-.24c1.44-.03,2.92-.07,4.43-.1,1.51-.03,3.09-.1,4.74-.24,1.65-.14,3.4-.34,5.26-.69,1.86-.34,3.85-.79,5.98-1.41,2.13-.62,4.4-1.41,6.88-2.41s5.12-2.23,8.01-3.71c2.89-1.48,5.98-3.23,9.32-5.29,3.33-2.06,6.94-4.43,10.83-7.19,2.48-1.75,4.68-3.3,6.64-4.74,1.96-1.44,3.71-2.75,5.29-4.02,1.55-1.27,2.92-2.48,4.16-3.68,1.24-1.2,2.3-2.41,3.27-3.68s1.82-2.58,2.61-4.02,1.48-2.99,2.17-4.71,1.31-3.64,1.96-5.78c.65-2.13,1.27-4.5,1.96-7.19,.76-2.99,1.44-5.74,1.99-8.29s1.03-4.88,1.44-7.05c.38-2.17,.72-4.16,.96-5.98,.24-1.82,.45-3.51,.58-5.05,.14-1.55,.24-2.99,.31-4.33,.07-1.34,.1-2.58,.14-3.71,.03-1.17,.03-2.23,.03-3.3s0-2.03,.03-3.03c.1-5.12-.07-10.42-.45-15.85-.41-5.43-1.03-10.97-1.82-16.57-.79-5.6-1.82-11.17-2.96-16.71-1.13-5.54-2.41-11.04-3.82-16.36-1.38-5.33-2.85-10.52-4.4-15.44-1.55-4.95-3.13-9.63-4.74-13.99s-3.23-8.39-4.81-12-3.16-6.81-4.64-9.49c-1.93-3.44-3.88-6.57-5.98-9.35-2.06-2.82-4.23-5.29-6.46-7.46-2.23-2.17-4.57-4.02-7.01-5.57-2.44-1.55-4.99-2.78-7.6-3.68-2.65-.93-5.4-1.51-8.25-1.82s-5.84-.28-8.9,.03-6.29,.93-9.63,1.89c-3.33,.93-6.81,2.17-10.42,3.71-4.95,2.13-11.04,4.64-17.91,7.43-6.88,2.78-14.61,5.88-22.86,9.18-8.25,3.3-17.09,6.77-26.16,10.35-9.08,3.58-18.46,7.25-27.81,10.93s-18.7,7.36-27.81,10.97c-9.08,3.61-17.88,7.08-26.13,10.42-8.25,3.3-15.95,6.43-22.83,9.28-6.88,2.85-12.93,5.4-17.88,7.56-1.72,.76-3.23,1.44-4.64,2.1s-2.72,1.31-3.92,1.89c-1.2,.62-2.34,1.17-3.44,1.75-1.1,.55-2.13,1.1-3.2,1.65-1.07,.55-2.1,1.1-3.2,1.65-1.1,.55-2.23,1.13-3.44,1.72s-2.51,1.2-3.92,1.86-2.96,1.34-4.68,2.06c-5.09,2.2-10.14,4.19-15.06,5.98-4.92,1.79-9.73,3.4-14.37,4.78s-9.11,2.54-13.37,3.51c-4.26,.93-8.29,1.65-12.03,2.13-3.75,.48-7.22,.72-10.35,.69-3.13-.03-5.91-.31-8.32-.83-2.41-.55-4.4-1.34-5.98-2.44s-2.68-2.48-3.3-4.13c-.31-.83-1-2.17-1.93-4.06s-2.1-4.3-3.3-7.22-2.48-6.36-3.64-10.28c-1.17-3.92-2.17-8.35-2.89-13.24s-1.17-10.28-1.1-16.12,.55-12.14,1.72-18.87,2.96-13.92,5.6-21.56c2.65-7.63,6.09-15.68,10.55-24.13,.31-.62,.69-1.41,1.1-2.37s.86-2.06,1.41-3.23c.52-1.17,1.1-2.44,1.75-3.75s1.38-2.61,2.17-3.88,1.65-2.54,2.61-3.68c.96-1.17,1.99-2.2,3.13-3.13s2.37-1.65,3.68-2.2,2.75-.86,4.3-.89c2.61-.07,5.16,.14,7.56,.55s4.71,1.1,6.88,1.93c2.2,.83,4.26,1.86,6.22,3.03,1.96,1.17,3.85,2.44,5.6,3.82s3.44,2.82,4.99,4.33,3.03,3.03,4.4,4.57c1.38,1.51,2.65,3.03,3.82,4.5s2.27,2.85,3.27,4.16c1.51,1.96,2.82,3.75,3.99,5.4,1.17,1.65,2.2,3.16,3.09,4.57s1.75,2.61,2.51,3.75,1.48,2.1,2.2,2.92c.72,.86,1.41,1.55,2.13,2.13s1.51,1.03,2.37,1.38,1.79,.55,2.85,.62c1.07,.1,2.27,.07,3.64-.1,1.24-.14,2.44-.28,3.61-.48,1.13-.17,2.27-.41,3.33-.69s2.13-.62,3.16-1.07c1.03-.41,2.06-.93,3.06-1.55,1.03-.62,2.03-1.34,3.06-2.2s2.06-1.86,3.09-2.99c1.07-1.13,2.13-2.44,3.23-3.92s2.27-3.13,3.47-4.99c.55-.83,1.07-2.17,1.55-3.92s.89-3.88,1.24-6.33,.62-5.16,.76-8.08c.14-2.89,.17-5.98,.07-9.14s-.34-6.36-.79-9.52-1.03-6.29-1.82-9.28-1.82-5.78-3.06-8.32c-1.24-2.54-2.72-4.81-4.47-6.74-1.96-2.13-3.99-4.26-6.05-6.39s-4.19-4.26-6.36-6.39-4.37-4.26-6.6-6.36-4.5-4.19-6.81-6.29c-2.3-2.06-4.61-4.13-6.91-6.15-2.3-2.03-4.64-4.02-6.98-5.95-2.34-1.96-4.64-3.85-6.98-5.74-2.3-1.86-4.61-3.68-6.91-5.47-3.44-2.65-7.84-4.43-12.93-5.43-5.09-1-10.86-1.24-17.09-.86-6.22,.41-12.86,1.48-19.63,3.06-6.81,1.58-13.75,3.71-20.63,6.26s-13.61,5.47-20.01,8.73c-6.39,3.23-12.41,6.77-17.81,10.49-5.4,3.71-10.14,7.6-13.99,11.55s-6.81,7.98-8.63,11.93c-.93,2.03-2.13,5.43-3.51,9.83-1.38,4.4-2.99,9.76-4.68,15.78-1.68,6.02-3.51,12.62-5.33,19.49s-3.68,13.99-5.47,20.97-3.54,13.86-5.12,20.22c-1.58,6.36-3.06,12.24-4.3,17.22-1.24,4.99-2.23,9.11-2.92,11.96s-1.1,4.5-1.1,4.5c-.48,2.1-1,4.19-1.51,6.22s-1.07,4.06-1.62,6.02c-.55,1.99-1.13,3.95-1.72,5.88s-1.17,3.85-1.79,5.74-1.24,3.78-1.86,5.64c-.62,1.86-1.27,3.71-1.93,5.57-.65,1.86-1.31,3.68-1.96,5.54s-1.34,3.68-1.99,5.54c-3.58,9.76-5.23,18.81-5.29,27.16-.07,8.35,1.38,16.06,4.06,23.17,2.68,7.08,6.53,13.58,11.24,19.56,4.68,5.98,10.21,11.41,16.19,16.36,5.98,4.95,12.41,9.49,18.94,13.61s13.17,7.84,19.49,11.24,12.41,6.5,17.84,9.32c5.36,2.82,10.14,5.4,13.92,7.77Z"/><path class="b" d="M163.95,405.93c11.41,7.27,23.9,14.36,37.51,8.73,7.6-3.18,14-7.6,21.9-12,38.07-22.37,77.11-47.13,115.31-69.28,12.92-7.3,24.66-15.34,39.09-16.64,16.23-1.81,33.28,5.03,43.11,17.77,1.13,1.55,1.99,3.71,2.61,6.26,1.38,5.96,1.58,12.87,1.65,19.49,.08,7.46-.2,15.52-.14,22.97,.12,6.67,.27,13.49,1.72,19.49,.62,2.58,1.48,4.71,2.65,6.26,8.65,10.92,24.25,12.71,37.4,13.68,8.96,.53,18.33,.3,27.19,0,6.89-.08,13.59-.34,20.42-2.44,12.59-3.83,23.78-10.71,35.03-18.6,8.39-6.12,16.94-11.12,21.97-20.15,4.08-7.65,6-17.48,8.08-25.96,2.58-10.91,3.64-21.51,3.51-32.45,.33-21.84-3.57-44.32-9.04-65.49-2.55-10.04-5.73-20.1-9.15-29.43-7.9-21.43-19.82-46.56-44.76-49.37-9.93-.99-19.55,1.65-28.95,5.64-30.09,12.68-63.44,25.52-94.75,37.89-25.38,10-52.28,20.56-76.77,30.67-8.95,3.74-15.25,6.31-22.52,9.66-5.98,2.79-11.3,5.78-17.19,8.66-19.99,9.38-41.81,17.28-63.43,20.32-8.69,.97-24.2,2.29-27.95-6.7-2.99-6.45-6.71-13.69-8.87-21.56-4.46-15.24-5.13-31.72-2.27-48.23,2.72-16.32,9.1-32.28,17.26-48.06,2.68-6.21,5.65-13.23,11.07-17.67,4.21-3.78,10.39-3.43,15.54-2.54,17.48,3.12,29.43,18.25,39.16,31.73,2.05,2.86,3.78,5.7,5.6,8.32,1.89,2.7,3.71,5.22,6.7,6.43,3.05,1.21,6.84,.52,10.11,.03,6.15-.81,11.57-3.78,15.71-8.49,2.46-2.63,4.54-5.64,6.7-8.9,1.59-2.61,2.2-6.57,2.78-10.25,1.75-14.41,1.33-30.9-4.85-44.35-2.49-5.39-6.58-8.92-10.52-13.13-8.48-8.74-17.5-17.15-26.68-25.2-4.57-4.02-9.27-7.87-13.96-11.69-2.3-1.86-4.61-3.68-6.91-5.47-3.44-2.65-7.84-4.43-12.93-5.43-32.58-5.92-86.22,16.07-109.16,39.23-7.12,7.64-9.04,11.54-12.14,21.76-1.38,4.4-2.99,9.76-4.68,15.78-3.56,12.74-7.42,27.21-10.8,40.46-4.23,16.21-8.64,34.34-12.34,49.4-3.04,12.42-5.5,22.26-9.59,34-1.88,5.57-3.89,11.11-5.88,16.64-6.43,17.52-7.24,34.06-1.24,50.33,8.27,21.76,27.18,37.36,46.38,49.54,16.32,10.55,35.46,18.82,51.26,28.33h0Z"/></svg>