<svg id="Layer_1" data-name="Layer 1" xmlns="http://www.w3.org/2000/svg" viewBox="0 0 648 482"><defs><style>.cls-1,.cls-2,.cls-3,.cls-4{fill:none;stroke-miterlimit:10;}.cls-1{stroke:#84e29c;stroke-width:48px;}.cls-2{stroke:#fff;stroke-width:44px;}.cls-3{stroke:#313d46;stroke-width:36px;}.cls-4{stroke:#f90;stroke-width:2px;stroke-dasharray:9.96 6.98;}</style></defs><path class="cls-1" d="M292.81,120.06l-.25-7.28-.54-4.91-1.36-5-2.1-5q-1.4-2.49-2.78-5L282.4,88l-3.89-4.72-4.34-4.48-4.71-4.18-5-3.82-5.22-3.4-5.37-2.92-5.44-2.36L243,60.38l-5.34-1.06L232.47,59l-98.13,2.38L125.57,63l-7.82,2-6.64,2.49-5.25,3-4.62,4.31-4.81,6.11-4.86,7.64q-2.4,4.45-4.79,8.91-2.3,4.94-4.58,9.89L78,118,74.21,129l-3.15,11.25-2.4,11.16q-.76,5.4-1.52,10.8l-.51,10.16q.32,4.64.64,9.27.95,4.05,1.91,8.1l3.33,6.65,4.88,5,11,7.35L98.82,215l9.93,5.36,9.61,4.75,9.46,4.38,9.44,4.26,14.47,6.71,324.46,177,6.36,2.61,6.66,1.68,6,1h6.06l5.62-.45,5.45-1.39,5.22-1.79,4.89-2.58,9.15-6.52,8.2-8.31q3.63-4.86,7.25-9.73l6.32-10.78q2.7-5.75,5.39-11.48l4.47-11.8q1.77-5.88,3.55-11.76,1.32-5.69,2.65-11.36l1.74-10.58c.28-3.15.57-6.29.85-9.44q0-4,0-7.94c-.3-2.58-.61-5.17-.91-7.75l-1.62-7c-.77-2.07-1.53-4.15-2.3-6.22l-3-5.52q-1.78-2.44-3.59-4.87l-4.19-4.24-4.77-3.67-5.33-3.12-5.85-2.62-6.36-2.17-6.83-1.74L520,256.56l-7.71-1-8.11-.73-8.49-.46-8.51-.09-7.92.34-7.46.62-7.14.77-7,.75-6.95.6-7.07.3-7.34-.15-7.74-.73-8.29-1.48-9-2.35-9.83-3.39L390.62,245l-11.94-5.88-13.21-7.35L353.17,224l-10.84-7.88q-4.72-4-9.46-8l-8.18-8.1-7-8.16q-2.94-4.11-5.9-8.2l-4.89-8.22q-2-4.09-4-8.19c-1.05-2.72-2.11-5.43-3.17-8.15l-2.46-8.07-1.82-8q-.66-3.92-1.3-7.84-.42-3.84-.85-7.68Z"/><path class="cls-2" d="M292.81,120.06l-.25-7.28-.54-4.91-1.36-5-2.1-5q-1.4-2.49-2.78-5L282.4,88l-3.89-4.72-4.34-4.48-4.71-4.18-5-3.82-5.22-3.4-5.37-2.92-5.44-2.36L243,60.38l-5.34-1.06L232.47,59l-98.13,2.38L125.57,63l-7.82,2-6.64,2.49-5.25,3-4.62,4.31-4.81,6.11-4.86,7.64q-2.4,4.45-4.79,8.91-2.3,4.94-4.58,9.89L78,118,74.21,129l-3.15,11.25-2.4,11.16q-.76,5.4-1.52,10.8l-.51,10.16q.32,4.64.64,9.27.95,4.05,1.91,8.1l3.33,6.65,4.88,5,11,7.35L98.82,215l9.93,5.36,9.61,4.75,9.46,4.38,9.44,4.26,14.47,6.71,324.46,177,6.36,2.61,6.66,1.68,6,1h6.06l5.62-.45,5.45-1.39,5.22-1.79,4.89-2.58,9.15-6.52,8.2-8.31q3.63-4.86,7.25-9.73l6.32-10.78q2.7-5.75,5.39-11.48l4.47-11.8q1.77-5.88,3.55-11.76,1.32-5.69,2.65-11.36l1.74-10.58c.28-3.15.57-6.29.85-9.44q0-4,0-7.94c-.3-2.58-.61-5.17-.91-7.75l-1.62-7c-.77-2.07-1.53-4.15-2.3-6.22l-3-5.52q-1.78-2.44-3.59-4.87l-4.19-4.24-4.77-3.67-5.33-3.12-5.85-2.62-6.36-2.17-6.83-1.74L520,256.56l-7.71-1-8.11-.73-8.49-.46-8.51-.09-7.92.34-7.46.62-7.14.77-7,.75-6.95.6-7.07.3-7.34-.15-7.74-.73-8.29-1.48-9-2.35-9.83-3.39L390.62,245l-11.94-5.88-13.21-7.35L353.17,224l-10.84-7.88q-4.72-4-9.46-8l-8.18-8.1-7-8.16q-2.94-4.11-5.9-8.2l-4.89-8.22q-2-4.09-4-8.19c-1.05-2.72-2.11-5.43-3.17-8.15l-2.46-8.07-1.82-8q-.66-3.92-1.3-7.84-.42-3.84-.85-7.68Z"/><path class="cls-3" d="M292.81,120.06l-.25-7.28-.54-4.91-1.36-5-2.1-5q-1.4-2.49-2.78-5L282.4,88l-3.89-4.72-4.34-4.48-4.71-4.18-5-3.82-5.22-3.4-5.37-2.92-5.44-2.36L243,60.38l-5.34-1.06L232.47,59l-98.13,2.38L125.57,63l-7.82,2-6.64,2.49-5.25,3-4.62,4.31-4.81,6.11-4.86,7.64q-2.4,4.45-4.79,8.91-2.3,4.94-4.58,9.89L78,118,74.21,129l-3.15,11.25-2.4,11.16q-.76,5.4-1.52,10.8l-.51,10.16q.32,4.64.64,9.27.95,4.05,1.91,8.1l3.33,6.65,4.88,5,11,7.35L98.82,215l9.93,5.36,9.61,4.75,9.46,4.38,9.44,4.26,14.47,6.71,324.46,177,6.36,2.61,6.66,1.68,6,1h6.06l5.62-.45,5.45-1.39,5.22-1.79,4.89-2.58,9.15-6.52,8.2-8.31q3.63-4.86,7.25-9.73l6.32-10.78q2.7-5.75,5.39-11.48l4.47-11.8q1.77-5.88,3.55-11.76,1.32-5.69,2.65-11.36l1.74-10.58c.28-3.15.57-6.29.85-9.44q0-4,0-7.94c-.3-2.58-.61-5.17-.91-7.75l-1.62-7c-.77-2.07-1.53-4.15-2.3-6.22l-3-5.52q-1.78-2.44-3.59-4.87l-4.19-4.24-4.77-3.67-5.33-3.12-5.85-2.62-6.36-2.17-6.83-1.74L520,256.56l-7.71-1-8.11-.73-8.49-.46-8.51-.09-7.92.34-7.46.62-7.14.77-7,.75-6.95.6-7.07.3-7.34-.15-7.74-.73-8.29-1.48-9-2.35-9.83-3.39L390.62,245l-11.94-5.88-13.21-7.35L353.17,224l-10.84-7.88q-4.72-4-9.46-8l-8.18-8.1-7-8.16q-2.94-4.11-5.9-8.2l-4.89-8.22q-2-4.09-4-8.19c-1.05-2.72-2.11-5.43-3.17-8.15l-2.46-8.07-1.82-8q-.66-3.92-1.3-7.84-.42-3.84-.85-7.68Z"/><path class="cls-4" d="M292.81,120.06a110.53,110.53,0,0,0-.79-12.19,53,53,0,0,0-3.47-10c-7.52-14.52-20.21-26-34.68-33.38a60,60,0,0,0-16.21-5.16c-34.42-.35-68.89,1.59-103.32,2.06-7.93,1.28-15.81,2.94-23.23,6.07l-5.25,3-4.62,4.31c-8.17,9.67-13.9,21-19,32.55a221.45,221.45,0,0,0-13.54,44.09,155.08,155.08,0,0,0-2,21q.32,4.64.64,9.27.95,4.05,1.91,8.1l3.33,6.65,4.88,5a303.17,303.17,0,0,0,50.43,28.08c8,3.58,16,7.28,23.91,11l324.46,177a63.13,63.13,0,0,0,13,4.29l6,1h6.06a43.75,43.75,0,0,0,11.07-1.84,47,47,0,0,0,10.11-4.37l9.15-6.52,8.2-8.31q3.63-4.86,7.25-9.73l6.32-10.78q2.7-5.75,5.39-11.48l4.47-11.8a200,200,0,0,0,7.94-33.7A121.59,121.59,0,0,0,572,306.8a88.21,88.21,0,0,0-2.53-14.71c-3.94-12.6-11.47-21.52-23.14-27.64-18.31-8.78-39.14-9.95-59.15-10.19-19.56.41-39,5.23-58.6,2.5-27.44-4.2-52.23-18-75.37-32.73-38-26.1-58.45-57.24-60.36-104Z"/></svg>