<?xml version="1.0" encoding="UTF-8"?>
<svg width="648px" height="481px" viewBox="0 0 648 481" version="1.1" xmlns="http://www.w3.org/2000/svg" xmlns:xlink="http://www.w3.org/1999/xlink">
    <title>img_console_environemnt_training_july_pro</title>
    <g id="Training-tracks" stroke="none" stroke-width="1" fill="none" fill-rule="evenodd">
        <g id="Track-creation-Copy" transform="translate(-4934.000000, -6011.000000)">
            <g id="JULY_PRO" transform="translate(2516.000000, 2704.000000)">
                <g id="img_console_environemnt_training_july_pro" transform="translate(2418.000000, 3307.000000)">
                    <g id="Group-28" transform="translate(63.000000, 100.000000)">
                        <path d="M296.840238,280.793275 L26.6870147,280.793275 C26.6870147,280.793275 5.29619392,281.493016 0.708017872,265.886132 C-0.168199902,262.76238 -0.23222486,259.466619 0.522010735,256.311193 C1.48747635,252.006456 3.50698241,225.194856 6.44766668,220.385243 C10.7258308,213.378974 20.4513469,198.994422 46.1203318,195.105987 C69.5838035,191.562994 103.454817,190.925255 109.088176,190.836681 L110.443371,190.836681 C113.61435,190.996115 129.486959,191.031545 130.886441,175.63724 C131.730682,167.08374 132.132757,158.492357 132.091059,149.897395 C132.074985,149.290104 132.027683,148.684042 131.949339,148.081611 C131.70133,145.991246 127.662318,117.080422 142.100015,111.535638 C159.203814,104.919098 194.589457,89.3919309 194.589457,89.3919309 L398.214128,2.62403011 C408.836786,-2.0032803 421.141516,-0.432029503 430.2605,6.71618713 C436.77075,11.9332445 441.146346,19.7366867 436.150726,31.0034048 C433.732633,36.4507566 427.045234,45.4942465 424.999155,55.8929312 C424.884008,56.4686676 414.627043,81.8187832 437.054189,94.7772804 C462.918039,109.728711 472.953567,114.263742 474.255617,114.892624 C482.227351,118.612766 508.799799,131.181534 514.74317,136.779463 C521.740582,143.387146 527.577663,154.662721 512.794524,159.330614 C500.278901,163.281052 474.361907,162.767318 466.735614,162.519308 C465.303929,162.477166 463.881181,162.278159 462.49288,161.925857 C455.708048,160.22522 432.448298,154.17556 394.972289,142.217958 L349.816842,127.868836 C349.816842,127.868836 321.818339,118.533049 304.71454,125.539318 C291.100589,131.101817 257.078998,142.474825 243.721914,146.903566 C239.548231,148.278554 235.943561,150.989839 233.464949,154.618434 C229.523369,160.40237 225.422355,169.321855 231.215148,176.088972 C240.550935,186.974818 264.200414,212.174356 278.266097,211.474615 C288.638209,210.952024 294.448717,195.708296 297.752559,192.608177 C298.275486,192.111801 298.772179,191.588499 299.240616,191.040403 C303.102478,186.558516 324.829883,163.936506 348.798231,191.775574 C357.992299,202.147686 374.059772,223.892806 382.961542,235.752975 C397.310664,254.867423 401.721691,254.725703 398.577284,266.94903 C395.034291,280.562981 375.494684,280.686985 368.461843,280.95271 C358.7629,281.280437 296.840238,280.793275 296.840238,280.793275 Z" id="Path" stroke="#84E29C" stroke-width="49"></path>
                        <path d="M296.840238,280.793275 L26.6870147,280.793275 C26.6870147,280.793275 5.29619392,281.493016 0.708017872,265.886132 C-0.168199902,262.76238 -0.23222486,259.466619 0.522010735,256.311193 C1.48747635,252.006456 3.50698241,225.194856 6.44766668,220.385243 C10.7258308,213.378974 20.4513469,198.994422 46.1203318,195.105987 C69.5838035,191.562994 103.454817,190.925255 109.088176,190.836681 L110.443371,190.836681 C113.61435,190.996115 129.486959,191.031545 130.886441,175.63724 C131.730682,167.08374 132.132757,158.492357 132.091059,149.897395 C132.074985,149.290104 132.027683,148.684042 131.949339,148.081611 C131.70133,145.991246 127.662318,117.080422 142.100015,111.535638 C159.203814,104.919098 194.589457,89.3919309 194.589457,89.3919309 L398.214128,2.62403011 C408.836786,-2.0032803 421.141516,-0.432029503 430.2605,6.71618713 C436.77075,11.9332445 441.146346,19.7366867 436.150726,31.0034048 C433.732633,36.4507566 427.045234,45.4942465 424.999155,55.8929312 C424.884008,56.4686676 414.627043,81.8187832 437.054189,94.7772804 C462.918039,109.728711 472.953567,114.263742 474.255617,114.892624 C482.227351,118.612766 508.799799,131.181534 514.74317,136.779463 C521.740582,143.387146 527.577663,154.662721 512.794524,159.330614 C500.278901,163.281052 474.361907,162.767318 466.735614,162.519308 C465.303929,162.477166 463.881181,162.278159 462.49288,161.925857 C455.708048,160.22522 432.448298,154.17556 394.972289,142.217958 L349.816842,127.868836 C349.816842,127.868836 321.818339,118.533049 304.71454,125.539318 C291.100589,131.101817 257.078998,142.474825 243.721914,146.903566 C239.548231,148.278554 235.943561,150.989839 233.464949,154.618434 C229.523369,160.40237 225.422355,169.321855 231.215148,176.088972 C240.550935,186.974818 264.200414,212.174356 278.266097,211.474615 C288.638209,210.952024 294.448717,195.708296 297.752559,192.608177 C298.275486,192.111801 298.772179,191.588499 299.240616,191.040403 C303.102478,186.558516 324.829883,163.936506 348.798231,191.775574 C357.992299,202.147686 374.059772,223.892806 382.961542,235.752975 C397.310664,254.867423 401.721691,254.725703 398.577284,266.94903 C395.034291,280.562981 375.494684,280.686985 368.461843,280.95271 C358.7629,281.280437 296.840238,280.793275 296.840238,280.793275 Z" id="Path" stroke="#FFFFFF" stroke-width="45"></path>
                        <path d="M296.840238,280.793275 L26.6870147,280.793275 C26.6870147,280.793275 5.29619392,281.493016 0.708017872,265.886132 C-0.168199902,262.76238 -0.23222486,259.466619 0.522010735,256.311193 C1.48747635,252.006456 3.50698241,225.194856 6.44766668,220.385243 C10.7258308,213.378974 20.4513469,198.994422 46.1203318,195.105987 C69.5838035,191.562994 103.454817,190.925255 109.088176,190.836681 L110.443371,190.836681 C113.61435,190.996115 129.486959,191.031545 130.886441,175.63724 C131.730682,167.08374 132.132757,158.492357 132.091059,149.897395 C132.074985,149.290104 132.027683,148.684042 131.949339,148.081611 C131.70133,145.991246 127.662318,117.080422 142.100015,111.535638 C159.203814,104.919098 194.589457,89.3919309 194.589457,89.3919309 L398.214128,2.62403011 C408.836786,-2.0032803 421.141516,-0.432029503 430.2605,6.71618713 C436.77075,11.9332445 441.146346,19.7366867 436.150726,31.0034048 C433.732633,36.4507566 427.045234,45.4942465 424.999155,55.8929312 C424.884008,56.4686676 414.627043,81.8187832 437.054189,94.7772804 C462.918039,109.728711 472.953567,114.263742 474.255617,114.892624 C482.227351,118.612766 508.799799,131.181534 514.74317,136.779463 C521.740582,143.387146 527.577663,154.662721 512.794524,159.330614 C500.278901,163.281052 474.361907,162.767318 466.735614,162.519308 C465.303929,162.477166 463.881181,162.278159 462.49288,161.925857 C455.708048,160.22522 432.448298,154.17556 394.972289,142.217958 L349.816842,127.868836 C349.816842,127.868836 321.818339,118.533049 304.71454,125.539318 C291.100589,131.101817 257.078998,142.474825 243.721914,146.903566 C239.548231,148.278554 235.943561,150.989839 233.464949,154.618434 C229.523369,160.40237 225.422355,169.321855 231.215148,176.088972 C240.550935,186.974818 264.200414,212.174356 278.266097,211.474615 C288.638209,210.952024 294.448717,195.708296 297.752559,192.608177 C298.275486,192.111801 298.772179,191.588499 299.240616,191.040403 C303.102478,186.558516 324.829883,163.936506 348.798231,191.775574 C357.992299,202.147686 374.059772,223.892806 382.961542,235.752975 C397.310664,254.867423 401.721691,254.725703 398.577284,266.94903 C395.034291,280.562981 375.494684,280.686985 368.461843,280.95271 C358.7629,281.280437 296.840238,280.793275 296.840238,280.793275 Z" id="Path" stroke="#313D46" stroke-width="36"></path>
                        <path d="M296.840238,280.793275 L26.6870147,280.793275 C26.6870147,280.793275 5.29619392,281.493016 0.708017872,265.886132 C-0.168199902,262.76238 -0.23222486,259.466619 0.522010735,256.311193 C1.48747635,252.006456 3.50698241,225.194856 6.44766668,220.385243 C10.7258308,213.378974 20.4513469,198.994422 46.1203318,195.105987 C69.5838035,191.562994 103.454817,190.925255 109.088176,190.836681 L110.443371,190.836681 C113.61435,190.996115 129.486959,191.031545 130.886441,175.63724 C131.730682,167.08374 132.132757,158.492357 132.091059,149.897395 C132.074985,149.290104 132.027683,148.684042 131.949339,148.081611 C131.70133,145.991246 127.662318,117.080422 142.100015,111.535638 C159.203814,104.919098 194.589457,89.3919309 194.589457,89.3919309 L398.214128,2.62403011 C408.836786,-2.0032803 421.141516,-0.432029503 430.2605,6.71618713 C436.77075,11.9332445 441.146346,19.7366867 436.150726,31.0034048 C433.732633,36.4507566 427.045234,45.4942465 424.999155,55.8929312 C424.884008,56.4686676 414.627043,81.8187832 437.054189,94.7772804 C462.918039,109.728711 472.953567,114.263742 474.255617,114.892624 C482.227351,118.612766 508.799799,131.181534 514.74317,136.779463 C521.740582,143.387146 527.577663,154.662721 512.794524,159.330614 C500.278901,163.281052 474.361907,162.767318 466.735614,162.519308 C465.303929,162.477166 463.881181,162.278159 462.49288,161.925857 C455.708048,160.22522 432.448298,154.17556 394.972289,142.217958 L349.816842,127.868836 C349.816842,127.868836 321.818339,118.533049 304.71454,125.539318 C291.100589,131.101817 257.078998,142.474825 243.721914,146.903566 C239.548231,148.278554 235.943561,150.989839 233.464949,154.618434 C229.523369,160.40237 225.422355,169.321855 231.215148,176.088972 C240.550935,186.974818 264.200414,212.174356 278.266097,211.474615 C288.638209,210.952024 294.448717,195.708296 297.752559,192.608177 C298.275486,192.111801 298.772179,191.588499 299.240616,191.040403 C303.102478,186.558516 324.829883,163.936506 348.798231,191.775574 C357.992299,202.147686 374.059772,223.892806 382.961542,235.752975 C397.310664,254.867423 401.721691,254.725703 398.577284,266.94903 C395.034291,280.562981 375.494684,280.686985 368.461843,280.95271 C358.7629,281.280437 296.840238,280.793275 296.840238,280.793275 Z" id="Path" stroke="#FF9900" stroke-width="2.32" stroke-dasharray="9,6"></path>
                    </g>
                    <rect id="Rectangle-Copy" x="0" y="0" width="648" height="481.00207"></rect>
                </g>
            </g>
        </g>
    </g>
</svg>