<svg id="Layer_1" data-name="Layer 1" xmlns="http://www.w3.org/2000/svg" viewBox="0 0 648 482"><defs><style>.cls-1,.cls-2,.cls-3,.cls-4{fill:none;stroke-miterlimit:10;}.cls-1{stroke:#84e29c;stroke-width:48px;}.cls-2{stroke:#fff;stroke-width:44px;}.cls-3{stroke:#313d46;stroke-width:36px;}.cls-4{stroke:#f90;stroke-width:2px;stroke-dasharray:10 7;}</style></defs><path class="cls-1" d="M301.1,105.34C318.49,43.13,203,61.18,165.77,63.82c-21.84,1.55-48.21.78-64.89,17.1-21.66,28-34.83,66.85-33.12,102.33.65,19.83,19.5,29.55,36.47,34.11,16.87,4.15,35,3.22,50.93,10.92L448.4,411c11.81,5.64,23.63,12.61,37.21,11.56,47.19-5.29,77-63.32,89.69-104.11,18.42-64.74-15.4-73.29-64.78-98.4-52-30.68,29.77-95.72-33.15-129-38.08-11.83-67.76,34.69-82.32,63.77-6.07,14.17-8.93,27.09,3.55,38.73,17,17.7,38.62,30.78,53.55,50.39,23.19,35.19-19.6,60.52-50.73,40.72-29.95-19.06-216.33-114.15-151.21-151C267.27,124.79,292.66,125.58,301.1,105.34Z"/><path class="cls-2" d="M301.1,105.34C318.49,43.13,203,61.18,165.77,63.82c-21.84,1.55-48.21.78-64.89,17.1-21.66,28-34.83,66.85-33.12,102.33.65,19.83,19.5,29.55,36.47,34.11,16.87,4.15,35,3.22,50.93,10.92L448.4,411c11.81,5.64,23.63,12.61,37.21,11.56,47.19-5.29,77-63.32,89.69-104.11,18.42-64.74-15.4-73.29-64.78-98.4-52-30.68,29.77-95.72-33.15-129-38.08-11.83-67.76,34.69-82.32,63.77-6.07,14.17-8.93,27.09,3.55,38.73,17,17.7,38.62,30.78,53.55,50.39,23.19,35.19-19.6,60.52-50.73,40.72-29.95-19.06-216.33-114.15-151.21-151C267.27,124.79,292.66,125.58,301.1,105.34Z"/><path class="cls-3" d="M301.1,105.34C318.49,43.13,203,61.18,165.77,63.82c-21.84,1.55-48.21.78-64.89,17.1-21.66,28-34.83,66.85-33.12,102.33.65,19.83,19.5,29.55,36.47,34.11,16.87,4.15,35,3.22,50.93,10.92L448.4,411c11.81,5.64,23.63,12.61,37.21,11.56,47.19-5.29,77-63.32,89.69-104.11,18.42-64.74-15.4-73.29-64.78-98.4-52-30.68,29.77-95.72-33.15-129-38.08-11.83-67.76,34.69-82.32,63.77-6.07,14.17-8.93,27.09,3.55,38.73,17,17.7,38.62,30.78,53.55,50.39,23.19,35.19-19.6,60.52-50.73,40.72-29.95-19.06-216.33-114.15-151.21-151C267.27,124.79,292.66,125.58,301.1,105.34Z"/><path class="cls-4" d="M301.1,105.34C318.49,43.13,203,61.18,165.77,63.82c-21.84,1.55-48.21.78-64.89,17.1-21.66,28-34.83,66.85-33.12,102.33.65,19.83,19.5,29.55,36.47,34.11,16.87,4.15,35,3.22,50.93,10.92L448.4,411c11.81,5.64,23.63,12.61,37.21,11.56,47.19-5.29,77-63.32,89.69-104.11,18.42-64.74-15.4-73.29-64.78-98.4-52-30.68,29.77-95.72-33.15-129-38.08-11.83-67.76,34.69-82.32,63.77-6.07,14.17-8.93,27.09,3.55,38.73,17,17.7,38.62,30.78,53.55,50.39,23.19,35.19-19.6,60.52-50.73,40.72-29.95-19.06-216.33-114.15-151.21-151,17.06-8.82,42.45-8,50.89-28.27Z"/></svg>