<svg xmlns="http://www.w3.org/2000/svg" width="574" height="319" viewBox="0 0 574 319">
  <g fill="none" fill-rule="evenodd" transform="translate(27 27)">
    <path stroke="#84E29C" stroke-width="52.53" d="M306.043361,264.431077 C275.827763,264.431077 239.324527,269.647339 213.475346,247.297369 C183.085092,221.025683 168.239278,225.023548 133.482608,237.778642 C90.8663902,253.389354 72.2130619,259.405189 59.4281965,215.695196 C38.4694007,144.114371 23.1694797,191.898379 4.23670082,128.884408 C-8.68788993,85.8597637 9.61612508,74.6657411 36.7228343,45.1196134 C59.4281965,20.370924 56.6336904,-0.570274801 96.4554024,0.571972403 C151.96128,2.17111849 172.955007,-9.70825244 192.167237,27.9859053 C198.978845,41.3501976 196.568584,56.8847596 203.694574,83.5752693 C214.10411,122.678199 228.111572,147.426888 269.714781,141.068379 C311.981686,134.595644 322.461084,97.2822357 360.53623,97.2822357 C410.767477,97.2822357 415.727725,61.8725724 450.659052,84.3367674 C505.780685,119.784506 521.918958,118.223434 519.823078,177.620289 C518.355962,219.502687 483.494499,226.35617 444.371413,222.929428 C402.977791,219.312312 403.152448,244.632125 380.097773,254.531601 C347.1226,268.695466 336.782928,264.354927 306.043361,264.431077 Z" stroke-linejoin="round"/>
    <path stroke="#FFFFFF" stroke-width="48.41" d="M306.043361,264.431077 C275.827763,264.431077 239.324527,269.647339 213.475346,247.297369 C183.085092,221.025683 168.239278,225.023548 133.482608,237.778642 C90.8663902,253.389354 72.2130619,259.405189 59.4281965,215.695196 C38.4694007,144.114371 23.1694797,191.898379 4.23670082,128.884408 C-8.68788993,85.8597637 9.61612508,74.6657411 36.7228343,45.1196134 C59.4281965,20.370924 56.6336904,-0.570274801 96.4554024,0.571972403 C151.96128,2.17111849 172.955007,-9.70825244 192.167237,27.9859053 C198.978845,41.3501976 196.568584,56.8847596 203.694574,83.5752693 C214.10411,122.678199 228.111572,147.426888 269.714781,141.068379 C311.981686,134.595644 322.461084,97.2822357 360.53623,97.2822357 C410.767477,97.2822357 415.727725,61.8725724 450.659052,84.3367674 C505.780685,119.784506 521.918958,118.223434 519.823078,177.620289 C518.355962,219.502687 483.494499,226.35617 444.371413,222.929428 C402.977791,219.312312 403.152448,244.632125 380.097773,254.531601 C347.1226,268.695466 336.782928,264.354927 306.043361,264.431077 Z" stroke-linejoin="round"/>
    <path stroke="#313D46" stroke-width="42.23" d="M306.043361,264.431077 C275.827763,264.431077 239.324527,269.647339 213.475346,247.297369 C183.085092,221.025683 168.239278,225.023548 133.482608,237.778642 C90.8663902,253.389354 72.2130619,259.405189 59.4281965,215.695196 C38.4694007,144.114371 23.1694797,191.898379 4.23670082,128.884408 C-8.68788993,85.8597637 9.61612508,74.6657411 36.7228343,45.1196134 C59.4281965,20.370924 56.6336904,-0.570274801 96.4554024,0.571972403 C151.96128,2.17111849 172.955007,-9.70825244 192.167237,27.9859053 C198.978845,41.3501976 196.568584,56.8847596 203.694574,83.5752693 C214.10411,122.678199 228.111572,147.426888 269.714781,141.068379 C311.981686,134.595644 322.461084,97.2822357 360.53623,97.2822357 C410.767477,97.2822357 415.727725,61.8725724 450.659052,84.3367674 C505.780685,119.784506 521.918958,118.223434 519.823078,177.620289 C518.355962,219.502687 483.494499,226.35617 444.371413,222.929428 C402.977791,219.312312 403.152448,244.632125 380.097773,254.531601 C347.1226,268.695466 336.782928,264.354927 306.043361,264.431077 Z" stroke-linejoin="round"/>
    <path stroke="#FF9900" stroke-width="2.317" d="M306.043361,264.431077 C275.827763,264.431077 239.324527,269.647339 213.475346,247.297369 C183.085092,221.025683 168.239278,225.023548 133.482608,237.778642 C90.8663902,253.389354 72.2130619,259.405189 59.4281965,215.695196 C38.4694007,144.114371 23.1694797,191.898379 4.23670082,128.884408 C-8.68788993,85.8597637 9.61612508,74.6657411 36.7228343,45.1196134 C59.4281965,20.370924 56.6336904,-0.570274801 96.4554024,0.571972403 C151.96128,2.17111849 172.955007,-9.70825244 192.167237,27.9859053 C198.978845,41.3501976 196.568584,56.8847596 203.694574,83.5752693 C214.10411,122.678199 228.111572,147.426888 269.714781,141.068379 C311.981686,134.595644 322.461084,97.2822357 360.53623,97.2822357 C410.767477,97.2822357 415.727725,61.8725724 450.659052,84.3367674 C505.780685,119.784506 521.918958,118.223434 519.823078,177.620289 C518.355962,219.502687 483.494499,226.35617 444.371413,222.929428 C402.977791,219.312312 403.152448,244.632125 380.097773,254.531601 C347.1226,268.695466 336.782928,264.354927 306.043361,264.431077 Z" stroke-dasharray="9.27 6.18"/>
  </g>
</svg>
