<?xml version="1.0" encoding="UTF-8"?>
<svg width="649px" height="482px" viewBox="0 0 649 482" version="1.1" xmlns="http://www.w3.org/2000/svg" xmlns:xlink="http://www.w3.org/1999/xlink">
    <title>img_console_environemnt_training_june_open</title>
    <g id="Training-tracks" stroke="none" stroke-width="1" fill="none" fill-rule="evenodd">
        <g id="Track-creation-Copy" transform="translate(-2826.000000, -6010.000000)">
            <g id="JUNE_OPEN" transform="translate(1457.000000, 2703.000000)">
                <g id="img_console_environemnt_training_june_open" transform="translate(1369.000000, 3307.000000)">
                    <path d="M67.3144975,155.290356 C46.9167044,176.782212 70.7926539,193.399627 61.0926163,225.249673 C51.3925788,257.099718 83.7214181,359.573777 168.250316,359.573777 L549.932935,359.573777 C551.052975,359.566626 552.172539,359.622104 553.286376,359.739952 C558.60754,360.349257 579.975337,360.958562 581.19477,331.878086 C582.414203,302.520653 581.388771,270.947564 581.19477,264.023641 C581.19477,263.19277 581.19477,262.3619 581.19477,261.531029 C581.392846,257.512122 580.924626,253.488141 579.80905,249.621882 C576.760467,239.720672 566.506142,235.690949 561.794695,233.530685 C546.440921,226.509827 509.539207,220.181361 460.24916,217.661053 C458.486986,217.575531 456.73496,217.343938 455.011139,216.968661 C431.287619,211.789567 445.241816,217.522575 432.382337,210.41863 C416.682134,201.819118 412.691261,182.930656 377.036695,154.625659 C377.216839,154.127137 319.986617,111.572707 311.907872,161.549582 C308.99786,184.038484 307.625998,205.01797 306.960853,219.890557 C306.398684,232.255839 295.976258,241.86197 283.597619,241.423957 C277.722168,241.216239 148.392954,257.099718 181.87194,178.000823 C192.05698,153.947115 201.0503,110.312553 191.350263,97.8494913 C184.061377,88.4744997 148.864099,69.5029509 67.3144975,155.290356 Z" id="Path" stroke="#84E29C" stroke-width="49"></path>
                    <path d="M67.3144975,155.290356 C46.9167044,176.782212 70.7926539,193.399627 61.0926163,225.249673 C51.3925788,257.099718 83.7214181,359.573777 168.250316,359.573777 L549.932935,359.573777 C551.052975,359.566626 552.172539,359.622104 553.286376,359.739952 C558.60754,360.349257 579.975337,360.958562 581.19477,331.878086 C582.414203,302.520653 581.388771,270.947564 581.19477,264.023641 C581.19477,263.19277 581.19477,262.3619 581.19477,261.531029 C581.392846,257.512122 580.924626,253.488141 579.80905,249.621882 C576.760467,239.720672 566.506142,235.690949 561.794695,233.530685 C546.440921,226.509827 509.539207,220.181361 460.24916,217.661053 C458.486986,217.575531 456.73496,217.343938 455.011139,216.968661 C431.287619,211.789567 445.241816,217.522575 432.382337,210.41863 C416.682134,201.819118 412.691261,182.930656 377.036695,154.625659 C377.216839,154.127137 319.986617,111.572707 311.907872,161.549582 C308.99786,184.038484 307.625998,205.01797 306.960853,219.890557 C306.398684,232.255839 295.976258,241.86197 283.597619,241.423957 C277.722168,241.216239 148.392954,257.099718 181.87194,178.000823 C192.05698,153.947115 201.0503,110.312553 191.350263,97.8494913 C184.061377,88.4744997 148.864099,69.5029509 67.3144975,155.290356 Z" id="Path" stroke="#FFFFFF" stroke-width="45"></path>
                    <path d="M67.3144975,155.290356 C46.9167044,176.782212 70.7926539,193.399627 61.0926163,225.249673 C51.3925788,257.099718 83.7214181,359.573777 168.250316,359.573777 L549.932935,359.573777 C551.052975,359.566626 552.172539,359.622104 553.286376,359.739952 C558.60754,360.349257 579.975337,360.958562 581.19477,331.878086 C582.414203,302.520653 581.388771,270.947564 581.19477,264.023641 C581.19477,263.19277 581.19477,262.3619 581.19477,261.531029 C581.392846,257.512122 580.924626,253.488141 579.80905,249.621882 C576.760467,239.720672 566.506142,235.690949 561.794695,233.530685 C546.440921,226.509827 509.539207,220.181361 460.24916,217.661053 C458.486986,217.575531 456.73496,217.343938 455.011139,216.968661 C431.287619,211.789567 445.241816,217.522575 432.382337,210.41863 C416.682134,201.819118 412.691261,182.930656 377.036695,154.625659 C377.216839,154.127137 319.986617,111.572707 311.907872,161.549582 C308.99786,184.038484 307.625998,205.01797 306.960853,219.890557 C306.398684,232.255839 295.976258,241.86197 283.597619,241.423957 C277.722168,241.216239 148.392954,257.099718 181.87194,178.000823 C192.05698,153.947115 201.0503,110.312553 191.350263,97.8494913 C184.061377,88.4744997 148.864099,69.5029509 67.3144975,155.290356 Z" id="Path" stroke="#313D46" stroke-width="36"></path>
                    <path d="M67.3144975,155.290356 C46.9167044,176.782212 70.7926539,193.399627 61.0926163,225.249673 C51.3925788,257.099718 83.7214181,359.573777 168.250316,359.573777 L549.932935,359.573777 C551.052975,359.566626 552.172539,359.622104 553.286376,359.739952 C558.60754,360.349257 579.975337,360.958562 581.19477,331.878086 C582.414203,302.520653 581.388771,270.947564 581.19477,264.023641 C581.19477,263.19277 581.19477,262.3619 581.19477,261.531029 C581.392846,257.512122 580.924626,253.488141 579.80905,249.621882 C576.760467,239.720672 566.506142,235.690949 561.794695,233.530685 C546.440921,226.509827 509.539207,220.181361 460.24916,217.661053 C458.486986,217.575531 456.73496,217.343938 455.011139,216.968661 C431.287619,211.789567 445.241816,217.522575 432.382337,210.41863 C416.682134,201.819118 412.691261,182.930656 377.036695,154.625659 C377.216839,154.127137 319.986617,111.572707 311.907872,161.549582 C308.99786,184.038484 307.625998,205.01797 306.960853,219.890557 C306.398684,232.255839 295.976258,241.86197 283.597619,241.423957 C277.722168,241.216239 148.392954,257.099718 181.87194,178.000823 C192.05698,153.947115 201.0503,110.312553 191.350263,97.8494913 C184.061377,88.4744997 148.864099,69.5029509 67.3144975,155.290356 Z" id="Path" stroke="#FF9900" stroke-width="2.32" stroke-dasharray="9,6"></path>
                    <circle id="Oval" fill="#313D46" cx="358" cy="154" r="6"></circle>
                    <rect id="Rectangle-Copy" x="0.782483994" y="0.0968396398" width="648" height="481.00207"></rect>
                </g>
            </g>
        </g>
    </g>
</svg>
