<?xml version="1.0" encoding="UTF-8"?>
<svg width="648px" height="482px" viewBox="0 0 648 482" version="1.1" xmlns="http://www.w3.org/2000/svg" xmlns:xlink="http://www.w3.org/1999/xlink">
    <title>img_console_environemnt_training_may_open</title>
    <g id="Training-tracks" stroke="none" stroke-width="1" fill="none" fill-rule="evenodd">
        <g id="Track-creation-Copy" transform="translate(-1424.000000, -6010.000000)">
            <g id="MAY-OPEN" transform="translate(739.000000, 2703.526369)">
                <g id="img_console_environemnt_training_may_open" transform="translate(685.000000, 3306.473631)">
                    <path d="M310.310937,410.73566 L524.12304,410.73566 C604.783135,410.73566 569.166989,348.297237 569.166989,348.297237 C569.166989,348.297237 530.408242,294.183938 524.12304,284.818175 C517.837838,275.452412 497.934698,226.542314 462.318552,189.079261 C426.702406,151.616208 400.514064,131.844041 333.471907,101.66547 C266.429751,71.4868992 244.431543,64.2024166 244.431543,64.2024166 L185.769656,51.7147322 C164.871359,51.7147322 125.012702,57.2613454 100.594691,60.9764315 C82.8762178,63.6008176 68.5288143,76.635533 64.3185994,93.933512 C63.3120789,98.2106233 62.5912015,102.549141 62.16068,106.920704 C59.0180789,138.139915 103.014494,143.343117 103.014494,143.343117 C103.014494,143.343117 262.239616,155.830801 283.19029,159.993363 C304.140964,164.155924 308.331099,199.100628 303.09343,206.38511 C297.855762,213.669593 274.81002,209.507031 274.81002,209.507031 C274.81002,209.507031 245.950467,203.127906 227.671004,209.507031 C210.910465,215.469901 218.725066,252.402227 233.390538,264.442436 C248.05601,276.482646 286.961411,303.549702 255.116387,352.928087 C255.116387,352.928087 234.427596,410.73566 310.310937,410.73566 Z" id="may-open" stroke="#84E29C" stroke-width="49"></path>
                    <path d="M310.310937,410.73566 L524.12304,410.73566 C604.783135,410.73566 569.166989,348.297237 569.166989,348.297237 C569.166989,348.297237 530.408242,294.183938 524.12304,284.818175 C517.837838,275.452412 497.934698,226.542314 462.318552,189.079261 C426.702406,151.616208 400.514064,131.844041 333.471907,101.66547 C266.429751,71.4868992 244.431543,64.2024166 244.431543,64.2024166 L185.769656,51.7147322 C164.871359,51.7147322 125.012702,57.2613454 100.594691,60.9764315 C82.8762178,63.6008176 68.5288143,76.635533 64.3185994,93.933512 C63.3120789,98.2106233 62.5912015,102.549141 62.16068,106.920704 C59.0180789,138.139915 103.014494,143.343117 103.014494,143.343117 C103.014494,143.343117 262.239616,155.830801 283.19029,159.993363 C304.140964,164.155924 308.331099,199.100628 303.09343,206.38511 C297.855762,213.669593 274.81002,209.507031 274.81002,209.507031 C274.81002,209.507031 245.950467,203.127906 227.671004,209.507031 C210.910465,215.469901 218.725066,252.402227 233.390538,264.442436 C248.05601,276.482646 286.961411,303.549702 255.116387,352.928087 C255.116387,352.928087 234.427596,410.73566 310.310937,410.73566 Z" id="may-open" stroke="#FFFFFF" stroke-width="45"></path>
                    <path d="M310.310937,410.73566 L524.12304,410.73566 C604.783135,410.73566 569.166989,348.297237 569.166989,348.297237 C569.166989,348.297237 530.408242,294.183938 524.12304,284.818175 C517.837838,275.452412 497.934698,226.542314 462.318552,189.079261 C426.702406,151.616208 400.514064,131.844041 333.471907,101.66547 C266.429751,71.4868992 244.431543,64.2024166 244.431543,64.2024166 L185.769656,51.7147322 C164.871359,51.7147322 125.012702,57.2613454 100.594691,60.9764315 C82.8762178,63.6008176 68.5288143,76.635533 64.3185994,93.933512 C63.3120789,98.2106233 62.5912015,102.549141 62.16068,106.920704 C59.0180789,138.139915 103.014494,143.343117 103.014494,143.343117 C103.014494,143.343117 262.239616,155.830801 283.19029,159.993363 C304.140964,164.155924 308.331099,199.100628 303.09343,206.38511 C297.855762,213.669593 274.81002,209.507031 274.81002,209.507031 C274.81002,209.507031 245.950467,203.127906 227.671004,209.507031 C210.910465,215.469901 218.725066,252.402227 233.390538,264.442436 C248.05601,276.482646 286.961411,303.549702 255.116387,352.928087 C255.116387,352.928087 234.427596,410.73566 310.310937,410.73566 Z" id="may-open" stroke="#313D46" stroke-width="36"></path>
                    <path d="M310.310937,410.73566 L524.12304,410.73566 C604.783135,410.73566 569.166989,348.297237 569.166989,348.297237 C569.166989,348.297237 530.408242,294.183938 524.12304,284.818175 C517.837838,275.452412 497.934698,226.542314 462.318552,189.079261 C426.702406,151.616208 400.514064,131.844041 333.471907,101.66547 C266.429751,71.4868992 244.431543,64.2024166 244.431543,64.2024166 L185.769656,51.7147322 C164.871359,51.7147322 125.012702,57.2613454 100.594691,60.9764315 C82.8762178,63.6008176 68.5288143,76.635533 64.3185994,93.933512 C63.3120789,98.2106233 62.5912015,102.549141 62.16068,106.920704 C59.0180789,138.139915 103.014494,143.343117 103.014494,143.343117 C103.014494,143.343117 262.239616,155.830801 283.19029,159.993363 C304.140964,164.155924 308.331099,199.100628 303.09343,206.38511 C297.855762,213.669593 274.81002,209.507031 274.81002,209.507031 C274.81002,209.507031 245.950467,203.127906 227.671004,209.507031 C210.910465,215.469901 218.725066,252.402227 233.390538,264.442436 C248.05601,276.482646 286.961411,303.549702 255.116387,352.928087 C255.116387,352.928087 234.427596,410.73566 310.310937,410.73566 Z" id="may-open" stroke="#FF9900" stroke-width="2.32" stroke-dasharray="9,6"></path>
                    <rect id="Rectangle-Copy" x="0" y="0.204491957" width="648" height="481.00207"></rect>
                </g>
            </g>
        </g>
    </g>
</svg>