<?xml version="1.0" encoding="UTF-8"?><svg id="a" xmlns="http://www.w3.org/2000/svg" viewBox="0 0 648 482"><defs><style>.b{stroke:#84e29c;stroke-width:48px;}.b,.c,.d,.e{fill:none;stroke-miterlimit:10;}.c{stroke:#f90;stroke-dasharray:0 0 9.99 6.99;stroke-width:2px;}.d{stroke:#313d46;stroke-width:36px;}.e{stroke:#fff;stroke-width:44px;}</style></defs><path class="b" d="M516.12,104.95c.2,45.22-4.12,125.05,2.88,168.05,3.4,20.89,28.4,34.87,35.54,54.82,8.32,32.43-20.65,46.33-40.83,64.87-24.31,25.88-62.5,27.8-95.77,30.48-94.39,1.18-188.84,.88-283.24,.53-14.05-.67-26.67-7.72-30.43-22.03-9.93-31.36,8.62-59.77,41.09-63.84,80.82-2.69,161.9,.15,242.65-3.95,8.86-1.12,17.36-4.22,23.65-10.77,9.04-8.75,13.81-20.77,15.25-33.12-.35-18.56-.7-37.13-1.05-55.69,.16-11.43-4.48-22.82-13.68-29.87-6.78-5.5-15.46-7.85-22.07-13.55-5.9-6.57-11.07-13.75-17.35-19.97-10.75-10.61-27.7-16.44-42.12-10.3-6.4,3.01-10.52,8.92-14.37,14.61-17.08,30.34-39.83,59.44-72.97,72.86-33.95,13.56-71.05,18.84-107.45,15.71-9.21-1.43-18.74-2.91-26.82-7.84-10.69-7.47-17.64-19.97-17.73-33.08-.01-13.61,4.9-26.66,10.99-38.65,7.31-17.67,22.21-24.81,39.98-28.58,18.79-3.38,38.07-5.14,56.2-11.36,6.57-2.75,12.96-6.07,18.18-11,12.54-13.53,25.08-27.06,37.61-40.58,17.63-20.5,37.34-36.73,66.1-32.52,30.02,2.95,36.39,24.03,70.4,21.84,17.84-3.01,33.5-13.45,50.22-19.99,4.5-1.43,9.19-2.15,13.91-1.69,26.21,1.69,61.11,16.69,61.23,44.64Z"/><path class="e" d="M516.12,104.95c.2,45.22-4.12,125.05,2.88,168.05,3.4,20.89,28.4,34.87,35.54,54.82,8.32,32.43-20.65,46.33-40.83,64.87-24.31,25.88-62.5,27.8-95.77,30.48-94.39,1.18-188.84,.88-283.24,.53-14.05-.67-26.67-7.72-30.43-22.03-9.93-31.36,8.62-59.77,41.09-63.84,80.82-2.69,161.9,.15,242.65-3.95,8.86-1.12,17.36-4.22,23.65-10.77,9.04-8.75,13.81-20.77,15.25-33.12-.35-18.56-.7-37.13-1.05-55.69,.16-11.43-4.48-22.82-13.68-29.87-6.78-5.5-15.46-7.85-22.07-13.55-5.9-6.57-11.07-13.75-17.35-19.97-10.75-10.61-27.7-16.44-42.12-10.3-6.4,3.01-10.52,8.92-14.37,14.61-17.08,30.34-39.83,59.44-72.97,72.86-33.95,13.56-71.05,18.84-107.45,15.71-9.21-1.43-18.74-2.91-26.82-7.84-10.69-7.47-17.64-19.97-17.73-33.08-.01-13.61,4.9-26.66,10.99-38.65,7.31-17.67,22.21-24.81,39.98-28.58,18.79-3.38,38.07-5.14,56.2-11.36,6.57-2.75,12.96-6.07,18.18-11,12.54-13.53,25.08-27.06,37.61-40.58,17.63-20.5,37.34-36.73,66.1-32.52,30.02,2.95,36.39,24.03,70.4,21.84,17.84-3.01,33.5-13.45,50.22-19.99,4.5-1.43,9.19-2.15,13.91-1.69,26.21,1.69,61.11,16.69,61.23,44.64Z"/><path class="d" d="M516.12,104.95c.2,45.22-4.12,125.05,2.88,168.05,3.4,20.89,28.4,34.87,35.54,54.82,8.32,32.43-20.65,46.33-40.83,64.87-24.31,25.88-62.5,27.8-95.77,30.48-94.39,1.18-188.84,.88-283.24,.53-14.05-.67-26.67-7.72-30.43-22.03-9.93-31.36,8.62-59.77,41.09-63.84,80.82-2.69,161.9,.15,242.65-3.95,8.86-1.12,17.36-4.22,23.65-10.77,9.04-8.75,13.81-20.77,15.25-33.12-.35-18.56-.7-37.13-1.05-55.69,.16-11.43-4.48-22.82-13.68-29.87-6.78-5.5-15.46-7.85-22.07-13.55-5.9-6.57-11.07-13.75-17.35-19.97-10.75-10.61-27.7-16.44-42.12-10.3-6.4,3.01-10.52,8.92-14.37,14.61-17.08,30.34-39.83,59.44-72.97,72.86-33.95,13.56-71.05,18.84-107.45,15.71-9.21-1.43-18.74-2.91-26.82-7.84-10.69-7.47-17.64-19.97-17.73-33.08-.01-13.61,4.9-26.66,10.99-38.65,7.31-17.67,22.21-24.81,39.98-28.58,18.79-3.38,38.07-5.14,56.2-11.36,6.57-2.75,12.96-6.07,18.18-11,12.54-13.53,25.08-27.06,37.61-40.58,17.63-20.5,37.34-36.73,66.1-32.52,30.02,2.95,36.39,24.03,70.4,21.84,17.84-3.01,33.5-13.45,50.22-19.99,4.5-1.43,9.19-2.15,13.91-1.69,26.21,1.69,61.11,16.69,61.23,44.64Z"/><path class="c" d="M516.12,104.95c.2,45.22-4.12,125.05,2.88,168.05,3.4,20.89,28.4,34.87,35.54,54.82,8.32,32.43-20.65,46.33-40.83,64.87-24.31,25.88-62.5,27.8-95.77,30.48-94.39,1.18-188.84,.88-283.24,.53-14.05-.67-26.67-7.72-30.43-22.03-9.93-31.36,8.62-59.77,41.09-63.84,80.82-2.69,161.9,.15,242.65-3.95,8.86-1.12,17.36-4.22,23.65-10.77,9.04-8.75,13.81-20.77,15.25-33.12-.35-18.56-.7-37.13-1.05-55.69,.16-11.43-4.48-22.82-13.68-29.87-6.78-5.5-15.46-7.85-22.07-13.55-5.9-6.57-11.07-13.75-17.35-19.97-10.75-10.61-27.7-16.44-42.12-10.3-6.4,3.01-10.52,8.92-14.37,14.61-17.08,30.34-39.83,59.44-72.97,72.86-33.95,13.56-71.05,18.84-107.45,15.71-9.21-1.43-18.74-2.91-26.82-7.84-25.19-18-19.42-47.76-6.74-71.73,7.31-17.67,22.21-24.81,39.98-28.58,24.44-4.98,55.03-5.01,74.38-22.36,12.54-13.53,25.08-27.06,37.61-40.58,17.63-20.5,37.34-36.73,66.1-32.52,30.02,2.95,36.39,24.03,70.4,21.84,17.84-3.01,33.5-13.45,50.22-19.99,4.5-1.43,9.19-2.15,13.91-1.69,26.21,1.69,61.11,16.69,61.23,44.64h0Z"/></svg>