<?xml version="1.0" encoding="UTF-8"?>
<svg width="648px" height="481px" viewBox="0 0 648 481" version="1.1" xmlns="http://www.w3.org/2000/svg" xmlns:xlink="http://www.w3.org/1999/xlink">
    <title>img_console_environemnt_training_july_open</title>
    <g id="Training-tracks" stroke="none" stroke-width="1" fill="none" fill-rule="evenodd">
        <g id="Track-creation-Copy" transform="translate(-4232.000000, -6011.000000)">
            <g id="JULY_OPEN" transform="translate(2157.000000, 2704.000000)">
                <g id="img_console_environemnt_training_july_open" transform="translate(2075.000000, 3307.000000)">
                    <g id="Group-27" transform="translate(63.000000, 113.000000)">
                        <path d="M305.023845,89.6597365 C301.274397,98.0034173 294.516131,108.869875 302.084463,117.711168 C314.281744,131.933615 345.179979,164.857015 363.556907,163.942798 C377.108156,163.260028 384.699633,143.343974 389.016128,139.293644 C389.699336,138.645124 390.34827,137.961426 390.960286,137.245334 C396.005841,131.389713 424.392871,101.833873 455.707712,138.205841 C467.719835,151.757089 488.71212,180.167265 500.342355,195.662672 C519.089599,220.635853 524.85264,220.450695 520.744448,236.420569 C516.115499,254.207306 490.586844,254.36932 481.39838,254.716491 C468.66877,255.190958 387.789456,254.554477 387.789456,254.554477 L34.8668007,254.554477 C34.8668007,254.554477 6.91952023,255.468695 0.92503108,235.078174 C-0.219754533,230.996967 -0.30340366,226.691028 0.68201125,222.568439 C1.94339989,216.944266 4.58190091,181.914693 8.4239287,175.630895 C14.0133848,166.477148 26.7198502,147.683614 60.2565868,142.603342 C90.9118025,137.974393 135.164556,137.141182 142.524586,137.025459 L144.295159,137.025459 C148.438068,137.233761 169.17576,137.280051 171.004195,117.167267 C172.107202,105.99205 172.632516,94.7673382 172.578038,83.5379512 C172.557037,82.7445207 172.495236,81.9526957 172.39288,81.1656148 C172.068853,78.4345348 166.791851,40.6623098 185.654819,33.4180043 C208.001071,24.7734418 254.232701,4.48707217 254.232701,4.48707217 C254.232701,4.48707217 285.674838,-8.08052476 289.736741,8.84985675 C292.183048,18.5746671 292.872791,28.658232 291.773478,38.6255721 C291.773478,38.6255721 291.773478,49.4573131 298.554889,56.2387236 C305.336299,63.0201341 311.377078,75.5067245 305.023845,89.6597365 Z" id="Path" stroke="#84E29C" stroke-width="49"></path>
                        <path d="M305.023845,89.6597365 C301.274397,98.0034173 294.516131,108.869875 302.084463,117.711168 C314.281744,131.933615 345.179979,164.857015 363.556907,163.942798 C377.108156,163.260028 384.699633,143.343974 389.016128,139.293644 C389.699336,138.645124 390.34827,137.961426 390.960286,137.245334 C396.005841,131.389713 424.392871,101.833873 455.707712,138.205841 C467.719835,151.757089 488.71212,180.167265 500.342355,195.662672 C519.089599,220.635853 524.85264,220.450695 520.744448,236.420569 C516.115499,254.207306 490.586844,254.36932 481.39838,254.716491 C468.66877,255.190958 387.789456,254.554477 387.789456,254.554477 L34.8668007,254.554477 C34.8668007,254.554477 6.91952023,255.468695 0.92503108,235.078174 C-0.219754533,230.996967 -0.30340366,226.691028 0.68201125,222.568439 C1.94339989,216.944266 4.58190091,181.914693 8.4239287,175.630895 C14.0133848,166.477148 26.7198502,147.683614 60.2565868,142.603342 C90.9118025,137.974393 135.164556,137.141182 142.524586,137.025459 L144.295159,137.025459 C148.438068,137.233761 169.17576,137.280051 171.004195,117.167267 C172.107202,105.99205 172.632516,94.7673382 172.578038,83.5379512 C172.557037,82.7445207 172.495236,81.9526957 172.39288,81.1656148 C172.068853,78.4345348 166.791851,40.6623098 185.654819,33.4180043 C208.001071,24.7734418 254.232701,4.48707217 254.232701,4.48707217 C254.232701,4.48707217 285.674838,-8.08052476 289.736741,8.84985675 C292.183048,18.5746671 292.872791,28.658232 291.773478,38.6255721 C291.773478,38.6255721 291.773478,49.4573131 298.554889,56.2387236 C305.336299,63.0201341 311.377078,75.5067245 305.023845,89.6597365 Z" id="Path" stroke="#FFFFFF" stroke-width="45"></path>
                        <path d="M305.023845,89.6597365 C301.274397,98.0034173 294.516131,108.869875 302.084463,117.711168 C314.281744,131.933615 345.179979,164.857015 363.556907,163.942798 C377.108156,163.260028 384.699633,143.343974 389.016128,139.293644 C389.699336,138.645124 390.34827,137.961426 390.960286,137.245334 C396.005841,131.389713 424.392871,101.833873 455.707712,138.205841 C467.719835,151.757089 488.71212,180.167265 500.342355,195.662672 C519.089599,220.635853 524.85264,220.450695 520.744448,236.420569 C516.115499,254.207306 490.586844,254.36932 481.39838,254.716491 C468.66877,255.190958 387.789456,254.554477 387.789456,254.554477 L34.8668007,254.554477 C34.8668007,254.554477 6.91952023,255.468695 0.92503108,235.078174 C-0.219754533,230.996967 -0.30340366,226.691028 0.68201125,222.568439 C1.94339989,216.944266 4.58190091,181.914693 8.4239287,175.630895 C14.0133848,166.477148 26.7198502,147.683614 60.2565868,142.603342 C90.9118025,137.974393 135.164556,137.141182 142.524586,137.025459 L144.295159,137.025459 C148.438068,137.233761 169.17576,137.280051 171.004195,117.167267 C172.107202,105.99205 172.632516,94.7673382 172.578038,83.5379512 C172.557037,82.7445207 172.495236,81.9526957 172.39288,81.1656148 C172.068853,78.4345348 166.791851,40.6623098 185.654819,33.4180043 C208.001071,24.7734418 254.232701,4.48707217 254.232701,4.48707217 C254.232701,4.48707217 285.674838,-8.08052476 289.736741,8.84985675 C292.183048,18.5746671 292.872791,28.658232 291.773478,38.6255721 C291.773478,38.6255721 291.773478,49.4573131 298.554889,56.2387236 C305.336299,63.0201341 311.377078,75.5067245 305.023845,89.6597365 Z" id="Path" stroke="#313D46" stroke-width="36"></path>
                        <path d="M305.023845,89.6597365 C301.274397,98.0034173 294.516131,108.869875 302.084463,117.711168 C314.281744,131.933615 345.179979,164.857015 363.556907,163.942798 C377.108156,163.260028 384.699633,143.343974 389.016128,139.293644 C389.699336,138.645124 390.34827,137.961426 390.960286,137.245334 C396.005841,131.389713 424.392871,101.833873 455.707712,138.205841 C467.719835,151.757089 488.71212,180.167265 500.342355,195.662672 C519.089599,220.635853 524.85264,220.450695 520.744448,236.420569 C516.115499,254.207306 490.586844,254.36932 481.39838,254.716491 C468.66877,255.190958 387.789456,254.554477 387.789456,254.554477 L34.8668007,254.554477 C34.8668007,254.554477 6.91952023,255.468695 0.92503108,235.078174 C-0.219754533,230.996967 -0.30340366,226.691028 0.68201125,222.568439 C1.94339989,216.944266 4.58190091,181.914693 8.4239287,175.630895 C14.0133848,166.477148 26.7198502,147.683614 60.2565868,142.603342 C90.9118025,137.974393 135.164556,137.141182 142.524586,137.025459 L144.295159,137.025459 C148.438068,137.233761 169.17576,137.280051 171.004195,117.167267 C172.107202,105.99205 172.632516,94.7673382 172.578038,83.5379512 C172.557037,82.7445207 172.495236,81.9526957 172.39288,81.1656148 C172.068853,78.4345348 166.791851,40.6623098 185.654819,33.4180043 C208.001071,24.7734418 254.232701,4.48707217 254.232701,4.48707217 C254.232701,4.48707217 285.674838,-8.08052476 289.736741,8.84985675 C292.183048,18.5746671 292.872791,28.658232 291.773478,38.6255721 C291.773478,38.6255721 291.773478,49.4573131 298.554889,56.2387236 C305.336299,63.0201341 311.377078,75.5067245 305.023845,89.6597365 Z" id="Path" stroke="#FF9900" stroke-width="2.32" stroke-dasharray="9,6"></path>
                    </g>
                    <rect id="Rectangle-Copy" x="0" y="0" width="648" height="481.00207"></rect>
                </g>
            </g>
        </g>
    </g>
</svg>