<svg xmlns="http://www.w3.org/2000/svg" width="530" height="395" viewBox="0 0 530 395">
  <g fill="none" fill-rule="evenodd" transform="translate(26.718 26.31)">
    <path stroke="#84E29C" stroke-width="52.53" d="M91.2822653,93.1903335 C110.282265,100.190333 164.282265,114.190333 186.782265,119.190333 C209.282265,124.190333 221.282265,123.190333 229.782265,125.190333 C238.282265,127.190333 267.782265,144.690333 286.782265,126.690333 C303.326648,111.016708 283.282265,94.6903335 285.282265,78.1903335 C287.887544,56.6967822 293.818471,49.2603296 302.282265,38.6903335 C307.251659,32.4843133 315.782265,24.1903335 320.782265,18.1903335 C332.171689,4.52302477 342.152584,-2.2881142 360.282265,0.690333482 C378.411947,3.66878116 389.282265,22.6903335 388.782265,33.1903335 C388.282265,43.6903335 382.282265,52.1903335 371.782265,63.1903335 C361.282265,74.1903335 352.782265,85.6903335 356.282265,111.690333 C359.782265,137.690333 386.282265,139.190333 398.782265,129.190333 C411.282265,119.190333 426.782265,90.1903335 448.782265,95.1903335 C470.782265,100.190333 480.282265,126.190333 474.282265,146.190333 C468.282265,166.190333 427.782265,191.690333 406.282265,201.690333 C384.782265,211.690333 348.782265,206.190333 338.782265,208.190333 C328.782265,210.190333 310.282265,213.190333 298.782265,211.690333 C287.282265,210.190333 274.282265,201.690333 254.782265,201.190333 C235.282265,200.690333 232.282265,213.690333 212.782265,213.190333 C193.282265,212.690333 183.782265,198.190333 160.782265,185.190333 C137.782265,172.190333 124.782265,172.690333 111.782265,176.190333 C98.7822653,179.690333 88.2822653,190.190333 88.2822653,205.190333 C88.2822653,220.190333 79.2822653,238.690333 74.7822653,249.190333 C70.2822653,259.690333 76.7822653,274.190333 79.7822653,280.690333 C82.7822653,287.190333 94.2822653,295.190333 94.2822653,312.690333 C94.2822653,330.190333 88.2822653,336.190333 71.7822653,341.190333 C55.2822653,346.190333 29.2822653,323.690333 12.7822653,313.190333 C-3.71773472,302.690333 0.282265281,255.190333 0.782265281,245.690333 C1.28226528,236.190333 7.28226528,200.690333 12.7822653,187.190333 C18.2822653,173.690333 44.3239676,122.114192 52.7822653,109.190333 C61.240563,96.2664749 72.2822653,86.1903335 91.2822653,93.1903335 Z" stroke-linejoin="round"/>
    <path stroke="#FFFFFF" stroke-width="46" d="M91.2822653,93.1903335 C110.282265,100.190333 164.282265,114.190333 186.782265,119.190333 C209.282265,124.190333 221.282265,123.190333 229.782265,125.190333 C238.282265,127.190333 267.782265,144.690333 286.782265,126.690333 C303.326648,111.016708 283.282265,94.6903335 285.282265,78.1903335 C287.887544,56.6967822 293.818471,49.2603296 302.282265,38.6903335 C307.251659,32.4843133 315.782265,24.1903335 320.782265,18.1903335 C332.171689,4.52302477 342.152584,-2.2881142 360.282265,0.690333482 C378.411947,3.66878116 389.282265,22.6903335 388.782265,33.1903335 C388.282265,43.6903335 382.282265,52.1903335 371.782265,63.1903335 C361.282265,74.1903335 352.782265,85.6903335 356.282265,111.690333 C359.782265,137.690333 386.282265,139.190333 398.782265,129.190333 C411.282265,119.190333 426.782265,90.1903335 448.782265,95.1903335 C470.782265,100.190333 480.282265,126.190333 474.282265,146.190333 C468.282265,166.190333 427.782265,191.690333 406.282265,201.690333 C384.782265,211.690333 348.782265,206.190333 338.782265,208.190333 C328.782265,210.190333 310.282265,213.190333 298.782265,211.690333 C287.282265,210.190333 274.282265,201.690333 254.782265,201.190333 C235.282265,200.690333 232.282265,213.690333 212.782265,213.190333 C193.282265,212.690333 183.782265,198.190333 160.782265,185.190333 C137.782265,172.190333 124.782265,172.690333 111.782265,176.190333 C98.7822653,179.690333 88.2822653,190.190333 88.2822653,205.190333 C88.2822653,220.190333 79.2822653,238.690333 74.7822653,249.190333 C70.2822653,259.690333 76.7822653,274.190333 79.7822653,280.690333 C82.7822653,287.190333 94.2822653,295.190333 94.2822653,312.690333 C94.2822653,330.190333 88.2822653,336.190333 71.7822653,341.190333 C55.2822653,346.190333 29.2822653,323.690333 12.7822653,313.190333 C-3.71773472,302.690333 0.282265281,255.190333 0.782265281,245.690333 C1.28226528,236.190333 7.28226528,200.690333 12.7822653,187.190333 C18.2822653,173.690333 44.3239676,122.114192 52.7822653,109.190333 C61.240563,96.2664749 72.2822653,86.1903335 91.2822653,93.1903335 Z" stroke-linejoin="round"/>
    <path stroke="#313D46" stroke-width="42.23" d="M91.2822653,93.1903335 C110.282265,100.190333 164.282265,114.190333 186.782265,119.190333 C209.282265,124.190333 221.282265,123.190333 229.782265,125.190333 C238.282265,127.190333 267.782265,144.690333 286.782265,126.690333 C303.326648,111.016708 283.282265,94.6903335 285.282265,78.1903335 C287.887544,56.6967822 293.818471,49.2603296 302.282265,38.6903335 C307.251659,32.4843133 315.782265,24.1903335 320.782265,18.1903335 C332.171689,4.52302477 342.152584,-2.2881142 360.282265,0.690333482 C378.411947,3.66878116 389.282265,22.6903335 388.782265,33.1903335 C388.282265,43.6903335 382.282265,52.1903335 371.782265,63.1903335 C361.282265,74.1903335 352.782265,85.6903335 356.282265,111.690333 C359.782265,137.690333 386.282265,139.190333 398.782265,129.190333 C411.282265,119.190333 426.782265,90.1903335 448.782265,95.1903335 C470.782265,100.190333 480.282265,126.190333 474.282265,146.190333 C468.282265,166.190333 427.782265,191.690333 406.282265,201.690333 C384.782265,211.690333 348.782265,206.190333 338.782265,208.190333 C328.782265,210.190333 310.282265,213.190333 298.782265,211.690333 C287.282265,210.190333 274.282265,201.690333 254.782265,201.190333 C235.282265,200.690333 232.282265,213.690333 212.782265,213.190333 C193.282265,212.690333 183.782265,198.190333 160.782265,185.190333 C137.782265,172.190333 124.782265,172.690333 111.782265,176.190333 C98.7822653,179.690333 88.2822653,190.190333 88.2822653,205.190333 C88.2822653,220.190333 79.2822653,238.690333 74.7822653,249.190333 C70.2822653,259.690333 76.7822653,274.190333 79.7822653,280.690333 C82.7822653,287.190333 94.2822653,295.190333 94.2822653,312.690333 C94.2822653,330.190333 88.2822653,336.190333 71.7822653,341.190333 C55.2822653,346.190333 29.2822653,323.690333 12.7822653,313.190333 C-3.71773472,302.690333 0.282265281,255.190333 0.782265281,245.690333 C1.28226528,236.190333 7.28226528,200.690333 12.7822653,187.190333 C18.2822653,173.690333 44.3239676,122.114192 52.7822653,109.190333 C61.240563,96.2664749 72.2822653,86.1903335 91.2822653,93.1903335 Z" stroke-linejoin="round"/>
    <path stroke="#FF9900" stroke-width="2.317" d="M91.2822653,93.1903335 C110.282265,100.190333 164.282265,114.190333 186.782265,119.190333 C209.282265,124.190333 221.282265,123.190333 229.782265,125.190333 C238.282265,127.190333 267.782265,144.690333 286.782265,126.690333 C303.326648,111.016708 283.282265,94.6903335 285.282265,78.1903335 C287.887544,56.6967822 293.818471,49.2603296 302.282265,38.6903335 C307.251659,32.4843133 315.782265,24.1903335 320.782265,18.1903335 C332.171689,4.52302477 342.152584,-2.2881142 360.282265,0.690333482 C378.411947,3.66878116 389.282265,22.6903335 388.782265,33.1903335 C388.282265,43.6903335 382.282265,52.1903335 371.782265,63.1903335 C361.282265,74.1903335 352.782265,85.6903335 356.282265,111.690333 C359.782265,137.690333 386.282265,139.190333 398.782265,129.190333 C411.282265,119.190333 426.782265,90.1903335 448.782265,95.1903335 C470.782265,100.190333 480.282265,126.190333 474.282265,146.190333 C468.282265,166.190333 427.782265,191.690333 406.282265,201.690333 C384.782265,211.690333 348.782265,206.190333 338.782265,208.190333 C328.782265,210.190333 310.282265,213.190333 298.782265,211.690333 C287.282265,210.190333 274.282265,201.690333 254.782265,201.190333 C235.282265,200.690333 232.282265,213.690333 212.782265,213.190333 C193.282265,212.690333 183.782265,198.190333 160.782265,185.190333 C137.782265,172.190333 124.782265,172.690333 111.782265,176.190333 C98.7822653,179.690333 88.2822653,190.190333 88.2822653,205.190333 C88.2822653,220.190333 79.2822653,238.690333 74.7822653,249.190333 C70.2822653,259.690333 76.7822653,274.190333 79.7822653,280.690333 C82.7822653,287.190333 94.2822653,295.190333 94.2822653,312.690333 C94.2822653,330.190333 88.2822653,336.190333 71.7822653,341.190333 C55.2822653,346.190333 29.2822653,323.690333 12.7822653,313.190333 C-3.71773472,302.690333 0.282265281,255.190333 0.782265281,245.690333 C1.28226528,236.190333 7.28226528,200.690333 12.7822653,187.190333 C18.2822653,173.690333 44.3239676,122.114192 52.7822653,109.190333 C61.240563,96.2664749 72.2822653,86.1903335 91.2822653,93.1903335 Z" stroke-dasharray="9 6"/>
  </g>
</svg>
