<svg xmlns="http://www.w3.org/2000/svg" width="354" height="160" viewBox="0 0 354 160"><title>cumulo carerra</title><line x1="12.25" y1="141.07" x2="174.65" y2="141.07" style="fill:none;stroke:#232f3e;stroke-miterlimit:10;stroke-width:2px"/><line x1="12.25" y1="123.07" x2="65.25" y2="123.07" style="fill:none;stroke:#232f3e;stroke-miterlimit:10;stroke-width:2px;stroke-dasharray:6,6"/><line x1="179.25" y1="101.07" x2="203.25" y2="101.07" style="fill:none;stroke:#232f3e;stroke-miterlimit:10;stroke-width:2px"/><circle cx="157.75" cy="82.57" r="0.5" style="fill:none;stroke:#232f3e;stroke-linejoin:round;stroke-width:2px"/><line x1="113.25" y1="60.07" x2="78.25" y2="60.07" style="fill:none;stroke:#232f3e;stroke-miterlimit:10;stroke-width:2px"/><line x1="103.25" y1="68.07" x2="88.25" y2="68.07" style="fill:none;stroke:#232f3e;stroke-miterlimit:10;stroke-width:2px"/><line x1="97.25" y1="76.07" x2="71.25" y2="76.07" style="fill:none;stroke:#232f3e;stroke-miterlimit:10;stroke-width:2px"/><path d="M127.55,92.37a3.1,3.1,0,0,0-1.3-.6c-4.9-1.4-11.1,5.2-14,14.8s-1.2,18.6,3.7,20c3.1.9,6.8-2.2,8.7-4.4a27.55,27.55,0,0,0,5.2-10.4,29.39,29.39,0,0,0,1.1-12.5c.9,3.9,1,9.5-.2,17.4a5.56,5.56,0,0,0,5.5,6.4h26.2c3.9,0,6.7-2.8,5.9-6.6l-.1-2.9m-4-52.5-8.5-2.2c-38.6-9.3-51.5,6.2-55.5,12.7l-3.9,6.9c-2,2.4-5.3,4.6-10.9,4.5-7.3.5-11,4.6-12.8,9.1a21.88,21.88,0,0,0-1.1,3.9l-.1.1a26.79,26.79,0,0,0-.5,7.1c1.8-1.6,3.5-3,5-4.2a32.23,32.23,0,0,0-3.6,7.7c-1.7,5.3-3.9,17.3,3.1,20,3.4,1.3,7.2-1.2,9.5-3.5a27.85,27.85,0,0,0,6.3-11.3c2.1-6.8,1.9-13.2-.3-16.9m45.2,8.4c1.2,4.2,1.9,8.1,2.5,9.7v0h8.4l.4-1c1-1.9,5.1-3,5.1-3h9.7s2.7,1.7,1.9,3.2l-.3,1.8h5.7l2.1-5.1,1.5-4.2a50.94,50.94,0,0,0,2.5-10.4l2-15.7a16.16,16.16,0,0,0-3.3-12.1,14.06,14.06,0,0,0-10.7-5.4h-.1l-7.1-.1a13.89,13.89,0,0,0-11.4,5.6m-59.5,33.9c-3.2-.3-7.1,3.5-8.8,8.9-1.5,4.7-.9,9.2,1.1,11.2M126,99c-3.4-.4-7.3,3.9-9.1,9.9-1.5,5.2-1,10.2,1.2,12.4m48.3-44.2-1.7,13.1a6.05,6.05,0,0,1-6,5.4h-.2a5.88,5.88,0,0,1-4.6-2.1,6.46,6.46,0,0,1-1.6-5l1.7-13.1a6.05,6.05,0,0,1,6-5.4,6.29,6.29,0,0,1,4.8,2.1A6.21,6.21,0,0,1,166.35,77.07Z" style="fill:none;stroke:#232f3e;stroke-linejoin:round;stroke-width:2px"/><path d="M163.45,125.47l-1.5,1.2h4.3c5.7,0,8.9-2.5,10.4-6,2.2-5.3.2-14.1-2.3-19.6" style="fill:none;stroke:#232f3e;stroke-linejoin:round;stroke-width:2px"/><path d="M131.15,86.27s-10.7-16.5-26.5,10.5" style="fill:none;stroke:#232f3e;stroke-linejoin:round;stroke-width:2px"/><line x1="88.25" y1="119.07" x2="105.25" y2="119.07" style="fill:none;stroke:#232f3e;stroke-linejoin:round;stroke-width:2px"/><circle cx="158.25" cy="82.07" r="4" style="fill:none;stroke:#232f3e;stroke-linejoin:round;stroke-width:2px"/><path d="M188,68h26.2a10.54,10.54,0,0,0,10.5-8.7,10.25,10.25,0,0,0-20-4.3" style="fill:none;stroke:#813194;stroke-linejoin:round;stroke-width:2.5511999130249023px"/><line x1="178.45" y1="67.97" x2="185.65" y2="67.97" style="fill:none;stroke:#813194;stroke-linejoin:round;stroke-width:2.5511999130249023px"/><path d="M109.25,46.77a12.91,12.91,0,0,0-2.5,3.6" style="fill:none;stroke:#813194;stroke-linejoin:round;stroke-width:2.5511999130249023px"/><path d="M111.65,44.87a13,13,0,0,0-1.5,1" style="fill:none;stroke:#813194;stroke-linejoin:round;stroke-width:2.5511999130249023px"/><path d="M129.05,50.17a12.3,12.3,0,0,0-11.1-6.9,13,13,0,0,0-4.9,1" style="fill:none;stroke:#813194;stroke-linejoin:round;stroke-width:2.5511999130249023px"/><path d="M184,36.27a20.06,20.06,0,0,0-17.7-10.6,22.75,22.75,0,0,0-2.6.2,17,17,0,0,0-31.3,9.2v.1a12.24,12.24,0,0,0-10.7,8.7" style="fill:none;stroke:#813194;stroke-linejoin:round;stroke-width:2.5511999130249023px"/><path d="M172.35,50.07a14,14,0,0,1,26.8-5.6,4.1,4.1,0,0,1,1.1-.1,7.51,7.51,0,0,1,7.3,5.7" style="fill:none;stroke:#813194;stroke-linejoin:round;stroke-width:2.5511999130249023px"/><polyline points="290.45 138.07 340.65 138.07 344.15 153.07 294.25 153.07" style="fill:none;stroke:#232f3e;stroke-linejoin:round;stroke-width:2px"/><polyline points="289.25 123.07 334.65 123.07 337.85 138.07 292.25 138.07" style="fill:none;stroke:#232f3e;stroke-linejoin:round;stroke-width:2px"/><polyline points="232.25 138.07 184.75 138.07 187.95 123.07 234.25 123.07" style="fill:none;stroke:#232f3e;stroke-linejoin:round;stroke-width:2px"/><polyline points="286.25 109.97 319.75 109.97 322.45 122.97 288.25 122.97" style="fill:none;stroke:#232f3e;stroke-linejoin:round;stroke-width:2px"/><polyline points="235.25 122.97 200.15 122.97 202.75 109.97 237.25 109.97" style="fill:none;stroke:#232f3e;stroke-linejoin:round;stroke-width:2px"/><polyline points="284.25 97.07 311.95 97.07 314.25 110.07 286.25 110.07" style="fill:none;stroke:#232f3e;stroke-linejoin:round;stroke-width:2px"/><polyline points="237.25 110.07 208.35 110.07 210.65 97.07 239.25 97.07" style="fill:none;stroke:#232f3e;stroke-linejoin:round;stroke-width:2px"/><polyline points="283.25 84.07 304.45 84.07 306.45 97.07 284.25 97.07" style="fill:none;stroke:#232f3e;stroke-linejoin:round;stroke-width:2px"/><polyline points="238.95 97.07 216.15 97.07 218.05 84.07 241.25 84.07" style="fill:none;stroke:#232f3e;stroke-linejoin:round;stroke-width:2px"/><polyline points="279.95 71.07 296.65 71.07 298.25 84.07 281.95 84.07" style="fill:none;stroke:#232f3e;stroke-linejoin:round;stroke-width:2px"/><polyline points="241.25 84.07 224.35 84.07 225.95 71.07 243.25 71.07" style="fill:none;stroke:#232f3e;stroke-linejoin:round;stroke-width:2px"/><polyline points="277.25 57.97 288.75 57.97 290.05 70.97 279.55 70.97" style="fill:none;stroke:#232f3e;stroke-linejoin:round;stroke-width:2px"/><polyline points="243.25 70.97 232.55 70.97 233.75 57.97 245.25 57.97" style="fill:none;stroke:#232f3e;stroke-linejoin:round;stroke-width:2px"/><rect x="247.25" y="20.07" width="29" height="24.9" style="fill:none;stroke:#232f3e;stroke-linejoin:round;stroke-width:2px"/><rect x="257.25" y="31.97" width="9" height="13" style="fill:none;stroke:#232f3e;stroke-linejoin:round;stroke-width:2px"/><line x1="229.75" y1="153.07" x2="247.55" y2="45.17" style="fill:none;stroke:#813194;stroke-linejoin:round;stroke-width:2.5511999130249023px"/><line x1="274.85" y1="45.17" x2="293.05" y2="152.97" style="fill:none;stroke:#813194;stroke-linejoin:round;stroke-width:2.5511999130249023px"/><line x1="237.25" y1="153.07" x2="253.55" y2="45.07" style="fill:none;stroke:#813194;stroke-linejoin:round;stroke-width:2.5511999130249023px"/><line x1="269.05" y1="45.07" x2="286.05" y2="152.67" style="fill:none;stroke:#813194;stroke-linejoin:round;stroke-width:2.5511999130249023px"/><path d="M34.25,101.27v-82a7.34,7.34,0,0,1,7.3-7.3h.5a7.34,7.34,0,0,1,7.3,7.3v82.2" style="fill:none;stroke:#813194;stroke-linejoin:round;stroke-width:2.5511999130249023px"/><path d="M48.25,40.07h7a2,2,0,0,0,2-2V24.77a6.5,6.5,0,1,1,13-.1v22.1a6.27,6.27,0,0,1-6.3,6.3H49.25" style="fill:none;stroke:#813194;stroke-linejoin:round;stroke-width:2.5511999130249023px"/><path d="M34.25,56.07h-6a2,2,0,0,1-2-2V43.27a5.69,5.69,0,0,0-4.4-5.6,5.51,5.51,0,0,0-6.6,5.4v18.6a5.55,5.55,0,0,0,5.5,5.5h13.5" style="fill:none;stroke:#813194;stroke-linejoin:round;stroke-width:2.5511999130249023px"/><line x1="12.25" y1="101.07" x2="64.25" y2="101.07" style="fill:none;stroke:#232f3e;stroke-miterlimit:10;stroke-width:2px"/><path d="M23.35,43.27a2.79,2.79,0,0,0-2.6-2,2.85,2.85,0,0,0-2.6,1.8" style="fill:none;stroke:#813194;stroke-linejoin:round;stroke-width:2.5511999130249023px"/><path d="M66.35,24.07a2.79,2.79,0,0,0-2.6-2,2.85,2.85,0,0,0-2.6,1.8" style="fill:none;stroke:#813194;stroke-linejoin:round;stroke-width:2.5511999130249023px"/><polyline points="245.55 57.97 240.75 57.97 241.65 44.97 280.85 44.97 281.75 57.97" style="fill:none;stroke:#232f3e;stroke-linejoin:round;stroke-width:2px"/><line x1="236.25" y1="153.07" x2="348.25" y2="153.07" style="fill:none;stroke:#232f3e;stroke-miterlimit:10;stroke-width:2px"/><line x1="127.25" y1="153.07" x2="236.25" y2="153.07" style="fill:none;stroke:#232f3e;stroke-miterlimit:10;stroke-width:2px"/><polyline points="229.25 153.07 178.35 153.07 181.85 138.07 231.25 138.07" style="fill:none;stroke:#232f3e;stroke-linejoin:round;stroke-width:2px"/></svg>