<svg xmlns="http://www.w3.org/2000/svg" width="354" height="160" viewBox="0 0 354 160"><title>Artboard 1reinvent console1</title><line x1="9" y1="139" x2="251" y2="139" style="fill:none;stroke:#232f3e;stroke-miterlimit:10;stroke-width:2px"/><line x1="308.67" y1="139" x2="343" y2="139" style="fill:none;stroke:#232f3e;stroke-miterlimit:10;stroke-width:2px"/><line x1="177" y1="121" x2="258.67" y2="121" style="fill:none;stroke:#232f3e;stroke-miterlimit:10;stroke-width:2px;stroke-dasharray:6,6"/><line x1="9" y1="121" x2="61" y2="121" style="fill:none;stroke:#232f3e;stroke-miterlimit:10;stroke-width:2px;stroke-dasharray:6,6"/><line x1="9" y1="99" x2="60" y2="99" style="fill:none;stroke:#232f3e;stroke-miterlimit:10;stroke-width:2px"/><line x1="177" y1="99" x2="255.1" y2="99" style="fill:none;stroke:#232f3e;stroke-miterlimit:10;stroke-width:2px"/><circle cx="153.5" cy="80.5" r="0.5" style="fill:none;stroke:#232f3e;stroke-linejoin:round;stroke-width:2px"/><line x1="109" y1="58" x2="75" y2="58" style="fill:none;stroke:#232f3e;stroke-miterlimit:10;stroke-width:2px"/><line x1="99" y1="66" x2="84" y2="66" style="fill:none;stroke:#232f3e;stroke-miterlimit:10;stroke-width:2px"/><line x1="93" y1="74" x2="67" y2="74" style="fill:none;stroke:#232f3e;stroke-miterlimit:10;stroke-width:2px"/><path d="M123.3,90.3a3.1,3.1,0,0,0-1.3-.6c-4.9-1.4-11.1,5.2-14,14.8s-1.2,18.6,3.7,20c3.1.9,6.8-2.2,8.7-4.4a27.55,27.55,0,0,0,5.2-10.4,29.39,29.39,0,0,0,1.1-12.5c.9,3.9,1,9.5-.2,17.4A5.56,5.56,0,0,0,132,121h26.2c3.9,0,6.7-2.8,5.9-6.6l-.1-2.9M158,59l-6.5-2.2C112.9,47.5,100,63,96,69.4l-3.9,6.9c-2,2.4-5.3,4.6-10.9,4.5-7.3.5-11,4.6-12.8,9.1a21.88,21.88,0,0,0-1.1,3.9l-.1.1a26.79,26.79,0,0,0-.5,7.1c1.8-1.6,3.5-3,5-4.2a32.23,32.23,0,0,0-3.6,7.7c-1.7,5.3-3.9,17.3,3.1,20,3.4,1.3,7.2-1.2,9.5-3.5A27.85,27.85,0,0,0,87,109.7c2.1-6.8,1.9-13.2-.3-16.9m45.2,8.5c1.2,4.2,1.9,8.1,2.5,9.7v0h8.4l.4-1c1-1.9,5.1-3,5.1-3H158s2.7,1.7,1.9,3.2l-.3,1.8h5.7l2.1-5.1,1.5-4.2a50.94,50.94,0,0,0,2.5-10.4l2-15.7a16.16,16.16,0,0,0-3.3-12.1,14.06,14.06,0,0,0-10.7-5.4h-.1l-7.1-.1a13.89,13.89,0,0,0-11.4,5.6M81.3,98.5c-3.2-.3-7.1,3.5-8.8,8.9-1.5,4.7-.9,9.2,1.1,11.2m48.1-21.7c-3.4-.4-7.3,3.9-9.1,9.9-1.5,5.2-1,10.2,1.2,12.4M162.1,75l-1.7,13.1a6.05,6.05,0,0,1-6,5.4h-.2a5.88,5.88,0,0,1-4.6-2.1,6.46,6.46,0,0,1-1.6-5l1.7-13.1a6.05,6.05,0,0,1,6-5.4,6.29,6.29,0,0,1,4.8,2.1A6.59,6.59,0,0,1,162.1,75Z" style="fill:none;stroke:#232f3e;stroke-linejoin:round;stroke-width:2px"/><path d="M159.2,123.4l-1.5,1.2H162c5.7,0,8.9-2.5,10.4-6,2.2-5.3.6-12.9-2-18.5" style="fill:none;stroke:#232f3e;stroke-linejoin:round;stroke-width:2px"/><path d="M126.9,84.2s-10.7-16.5-26.5,10.5" style="fill:none;stroke:#232f3e;stroke-linejoin:round;stroke-width:2px"/><line x1="84" y1="117" x2="101" y2="117" style="fill:none;stroke:#232f3e;stroke-linejoin:round;stroke-width:2px"/><circle cx="154" cy="80" r="4" style="fill:none;stroke:#232f3e;stroke-linejoin:round;stroke-width:2px"/><path d="M168,56.1h6.8a9.59,9.59,0,0,0,9.6-8,9.37,9.37,0,0,0-18.3-3.9" style="fill:none;stroke:#813194;stroke-linejoin:round;stroke-width:2px"/><path d="M78.7,39.5a12.27,12.27,0,0,0-2.3,3.3" style="fill:none;stroke:#813194;stroke-linejoin:round;stroke-width:2px"/><path d="M81,37.7a14.63,14.63,0,0,0-1.3.9" style="fill:none;stroke:#813194;stroke-linejoin:round;stroke-width:2px"/><path d="M96.9,42.5a11.17,11.17,0,0,0-10.2-6.3,11.3,11.3,0,0,0-4.5.9" style="fill:none;stroke:#813194;stroke-linejoin:round;stroke-width:2px"/><path d="M147.1,27.1a18.33,18.33,0,0,0-16.2-9.7,19.42,19.42,0,0,0-2.4.2,15.61,15.61,0,0,0-28.7,8.5h0A11.3,11.3,0,0,0,90,34" style="fill:none;stroke:#813194;stroke-linejoin:round;stroke-width:2px"/><path d="M136.5,39.7A12.78,12.78,0,0,1,161,34.6c.3,0,.7-.1,1-.1a7,7,0,0,1,6.7,5.2" style="fill:none;stroke:#813194;stroke-linejoin:round;stroke-width:2px"/><line x1="176.5" y1="12" x2="176.5" y2="21.4" style="fill:none;stroke:#813194;stroke-linejoin:round;stroke-width:2px"/><line x1="201.5" y1="37" x2="192.1" y2="37" style="fill:none;stroke:#813194;stroke-linejoin:round;stroke-width:2px"/><line x1="192.9" y1="20.6" x2="187.1" y2="26.4" style="fill:none;stroke:#813194;stroke-linejoin:round;stroke-width:2px"/><line x1="165.9" y1="26.4" x2="160.1" y2="20.6" style="fill:none;stroke:#813194;stroke-linejoin:round;stroke-width:2px"/><line x1="192.9" y1="53.4" x2="187.1" y2="47.6" style="fill:none;stroke:#813194;stroke-linejoin:round;stroke-width:2px"/><path d="M162.1,30.9a15.62,15.62,0,1,1,24.1,18.3" style="fill:none;stroke:#813194;stroke-linejoin:round;stroke-width:2px"/><path d="M176.5,25.1A11.93,11.93,0,0,1,188.4,37" style="fill:none;stroke:#813194;stroke-linejoin:round;stroke-width:2px"/><path d="M53.4,29.2a10.85,10.85,0,0,0,6.3-3.6c0-2.1,0-4.2.1-6.3a11.43,11.43,0,0,1-6.3,3.6C53.4,25,53.4,27.1,53.4,29.2Z" style="fill:#813194;stroke:#813194;stroke-miterlimit:10"/><path d="M47.1,34.7a12.52,12.52,0,0,0,6.3.8c0-2.1,0-4.2.1-6.3a12.52,12.52,0,0,1-6.3-.8C47.1,30.5,47.1,32.6,47.1,34.7Z" style="fill:#813194;stroke:#813194;stroke-miterlimit:10"/><path d="M40.8,25.7a56.83,56.83,0,0,0,6.3,2.7V22.7A64.84,64.84,0,0,1,40.9,20C40.9,21.9,40.8,23.8,40.8,25.7Z" style="fill:#813194;stroke:#813194;stroke-miterlimit:10"/><path d="M40.7,38A60,60,0,0,0,47,41c0-2.1,0-4.2.1-6.3a60,60,0,0,1-6.3-3C40.8,33.8,40.7,35.9,40.7,38Z" style="fill:#813194;stroke:#813194;stroke-miterlimit:10"/><path d="M53.3,41.8a10.85,10.85,0,0,0,6.3-3.6c0-2.1,0-4.2.1-6.3a11.43,11.43,0,0,1-6.3,3.6C53.3,37.6,53.3,39.7,53.3,41.8Z" style="fill:#813194;stroke:#813194;stroke-miterlimit:10"/><line x1="59.1" y1="27" x2="59.1" y2="40.6" style="fill:none;stroke:#232f3e;stroke-linejoin:round;stroke-width:2px"/><path d="M46.9,47.3a12.52,12.52,0,0,0,6.3.8c0-2.1,0-4.2.1-6.3A12.52,12.52,0,0,1,47,41C47,43.1,47,45.2,46.9,47.3Z" style="fill:#813194;stroke:#813194;stroke-miterlimit:10"/><path d="M28.1,34.3a11.51,11.51,0,0,1,6.3.8c0-2.1,0-4.2.1-6.3a13.73,13.73,0,0,0-6.3-.8C28.2,30.1,28.1,32.2,28.1,34.3Z" style="fill:#813194;stroke:#813194;stroke-miterlimit:10"/><path d="M21.9,31.6A11.43,11.43,0,0,1,28.2,28c0-2.1,0-4.2.1-6.3A10.85,10.85,0,0,0,22,25.3C21.9,27.4,21.9,29.5,21.9,31.6Z" style="fill:#813194;stroke:#813194;stroke-miterlimit:10"/><path d="M21.8,44.2a11.43,11.43,0,0,1,6.3-3.6c0-2.1,0-4.2.1-6.3a10.85,10.85,0,0,0-6.3,3.6C21.8,40,21.8,42.1,21.8,44.2Z" style="fill:#813194;stroke:#813194;stroke-miterlimit:10"/><path d="M34.5,28.7a45,45,0,0,1,6.3,3c0-2.1,0-4.2.1-6.3a60,60,0,0,0-6.3-3C34.5,24.5,34.5,26.6,34.5,28.7Z" style="fill:#813194;stroke:#813194;stroke-miterlimit:10"/><path d="M28.2,22.7a11.51,11.51,0,0,1,6.3.8c0-2.1,0-4.2.1-6.3a13.73,13.73,0,0,0-6.3-.8C28.3,18.5,28.3,20.6,28.2,22.7Z" style="fill:#813194;stroke:#813194;stroke-miterlimit:10"/><path d="M34.4,41.4a45,45,0,0,1,6.3,3c0-2.1,0-4.2.1-6.3a60,60,0,0,0-6.3-3C34.4,37.2,34.4,39.3,34.4,41.4Z" style="fill:#813194;stroke:#813194;stroke-miterlimit:10"/><path d="M59.2,28.6c0-3.3-.1-4.8,0-8.1-12.3,11.4-24.7-11.7-37-.4v23c12.3-11.3,24.7,12.9,37,1.5v-5" style="fill:none;stroke:#232f3e;stroke-miterlimit:10;stroke-width:2px"/><line x1="22.2" y1="29.6" x2="22.2" y2="98.6" style="fill:none;stroke:#232f3e;stroke-miterlimit:10;stroke-width:2px"/><path d="M313.5,57c0,21.2-15.3,38.4-34.1,38.4S245.3,78.2,245.3,57V23a3,3,0,0,1,3-3H311a3,3,0,0,1,3,3.1Z" style="fill:none;stroke:#000;stroke-linejoin:round;stroke-width:2.5px"/><path d="M283.7,125.6h-8.1a2,2,0,0,1-2-2V95.3h12.1v28.4A2,2,0,0,1,283.7,125.6Z" style="fill:none;stroke:#000;stroke-linejoin:round;stroke-width:2.5px"/><path d="M292.9,137.7H266.5a2,2,0,0,1-2-2v-8.1a2,2,0,0,1,2-2h26.4a2,2,0,0,1,2,2v8.1A2,2,0,0,1,292.9,137.7Z" style="fill:none;stroke:#000;stroke-linejoin:round;stroke-width:2.5px"/><path d="M302.3,149.8H257.1a2,2,0,0,1-2-2v-8.1a2,2,0,0,1,2-2h45.2a2,2,0,0,1,2,2v8.1A2,2,0,0,1,302.3,149.8Z" style="fill:none;stroke:#000;stroke-linejoin:round;stroke-width:2.5px"/><path d="M244.9,37.2H232.4a3,3,0,0,0-3,3V51a16.77,16.77,0,0,0,16.8,16.8" style="fill:none;stroke:#000;stroke-linejoin:round;stroke-width:2.5px"/><path d="M314.2,37.2h12.5a3,3,0,0,1,3,3V51a16.77,16.77,0,0,1-16.8,16.8" style="fill:none;stroke:#000;stroke-linejoin:round;stroke-width:2.5px"/><path d="M289.4,70.9l-9.5-5.1a.75.75,0,0,0-.9,0l-9.6,4.9a.94.94,0,0,1-1.4-1l1.9-10.6a.86.86,0,0,0-.3-.9l-7.7-7.6a1,1,0,0,1,.6-1.7l10.7-1.5a1,1,0,0,0,.8-.5l4.9-9.6a1,1,0,0,1,1.8,0l4.7,9.7a.75.75,0,0,0,.7.5l10.7,1.7a1,1,0,0,1,.5,1.7l-7.8,7.5a1.22,1.22,0,0,0-.3.9L290.9,70A1.11,1.11,0,0,1,289.4,70.9Z" style="fill:none;stroke:#813194;stroke-miterlimit:10;stroke-width:2.8345999717712402px"/><path d="M236.82,16.7l-3.17.82a.22.22,0,0,0-.2.19l-1.14,3.07a.29.29,0,0,1-.52.06L230,18.08a.25.25,0,0,0-.25-.13l-3.29-.12a.3.3,0,0,1-.21-.5l2.08-2.54a.33.33,0,0,0,.08-.28l-.89-3.15A.31.31,0,0,1,228,11l3.05,1.2a.24.24,0,0,0,.26,0L234,10.33a.31.31,0,0,1,.47.28l-.2,3.28a.31.31,0,0,0,.12.26l2.58,2A.34.34,0,0,1,236.82,16.7Z" style="fill:none;stroke:#813194;stroke-miterlimit:10;stroke-width:1.7999999523162842px"/><path d="M245.65,83.62l-3.17.82a.22.22,0,0,0-.2.19l-1.14,3.07a.29.29,0,0,1-.52.06L238.86,85a.28.28,0,0,0-.25-.14l-3.29-.11a.3.3,0,0,1-.21-.5l2.08-2.54a.3.3,0,0,0,.07-.28l-.88-3.15a.31.31,0,0,1,.4-.37l3.05,1.2a.22.22,0,0,0,.26,0l2.74-1.82a.31.31,0,0,1,.47.28l-.2,3.28a.33.33,0,0,0,.12.26l2.58,2A.34.34,0,0,1,245.65,83.62Z" style="fill:none;stroke:#813194;stroke-miterlimit:10;stroke-width:1.7999999523162842px"/><path d="M323.75,110.62l-3.17.82a.22.22,0,0,0-.2.19l-1.14,3.07a.29.29,0,0,1-.52.06L317,112a.28.28,0,0,0-.25-.14l-3.29-.11a.3.3,0,0,1-.21-.5l2.08-2.54a.3.3,0,0,0,.07-.28l-.88-3.15a.31.31,0,0,1,.4-.37l3.05,1.2a.22.22,0,0,0,.26,0l2.74-1.82a.31.31,0,0,1,.47.28l-.2,3.28a.33.33,0,0,0,.12.26l2.58,2A.34.34,0,0,1,323.75,110.62Z" style="fill:none;stroke:#813194;stroke-miterlimit:10;stroke-width:1.7999999523162842px"/><path d="M345.75,33.52l-3.17.82a.22.22,0,0,0-.2.19l-1.14,3.07a.29.29,0,0,1-.52.06L339,34.9a.28.28,0,0,0-.25-.14l-3.29-.11a.3.3,0,0,1-.21-.5l2.08-2.54a.3.3,0,0,0,.07-.28l-.88-3.15a.31.31,0,0,1,.4-.37l3.05,1.2a.22.22,0,0,0,.26,0l2.74-1.82a.31.31,0,0,1,.47.28l-.2,3.28a.33.33,0,0,0,.12.26l2.58,2A.34.34,0,0,1,345.75,33.52Z" style="fill:none;stroke:#813194;stroke-miterlimit:10;stroke-width:1.7999999523162842px"/><path d="M329.38,18.43l-1.51.39a.11.11,0,0,0-.09.09l-.54,1.45a.13.13,0,0,1-.24,0l-.84-1.3A.13.13,0,0,0,326,19L324.49,19a.15.15,0,0,1-.1-.24l1-1.2a.18.18,0,0,0,0-.13L325,15.91a.15.15,0,0,1,.19-.18l1.44.57a.11.11,0,0,0,.12,0l1.3-.86a.14.14,0,0,1,.22.13l-.09,1.55a.18.18,0,0,0,.05.13l1.23,1A.16.16,0,0,1,329.38,18.43Z" style="fill:none;stroke:#813194;stroke-miterlimit:10;stroke-width:1.0800000429153442px"/><path d="M245.26,10.11l-1.5.38a.13.13,0,0,0-.1.09L243.13,12a.14.14,0,0,1-.25,0l-.83-1.31a.12.12,0,0,0-.12-.06l-1.56-.06a.15.15,0,0,1-.1-.24l1-1.2a.14.14,0,0,0,0-.13l-.42-1.49a.16.16,0,0,1,.19-.18l1.45.57a.11.11,0,0,0,.12,0l1.3-.86a.14.14,0,0,1,.22.13l-.1,1.56a.17.17,0,0,0,.06.12l1.22,1A.16.16,0,0,1,245.26,10.11Z" style="fill:none;stroke:#813194;stroke-miterlimit:10;stroke-width:1.0800000429153442px"/><path d="M326.1,97.21l-1.5.38a.11.11,0,0,0-.09.09L324,99.13a.14.14,0,0,1-.25,0l-.83-1.31a.15.15,0,0,0-.12-.07l-1.55-.05a.15.15,0,0,1-.11-.24l1-1.2a.18.18,0,0,0,0-.13l-.42-1.49a.15.15,0,0,1,.19-.18l1.44.57a.11.11,0,0,0,.12,0l1.3-.86a.14.14,0,0,1,.22.13l-.09,1.55A.15.15,0,0,0,325,96l1.23,1A.17.17,0,0,1,326.1,97.21Z" style="fill:none;stroke:#813194;stroke-miterlimit:10;stroke-width:1.0800000429153442px"/><path d="M307.06,112.86l-1.5.38a.13.13,0,0,0-.1.09l-.53,1.46a.14.14,0,0,1-.25,0l-.83-1.31a.12.12,0,0,0-.12-.06l-1.56-.06a.15.15,0,0,1-.1-.24l1-1.2a.14.14,0,0,0,0-.13l-.42-1.49a.16.16,0,0,1,.19-.18l1.45.57a.11.11,0,0,0,.12,0l1.3-.86a.14.14,0,0,1,.22.13l-.1,1.56a.17.17,0,0,0,.06.12l1.22,1A.16.16,0,0,1,307.06,112.86Z" style="fill:none;stroke:#813194;stroke-miterlimit:10;stroke-width:1.0800000429153442px"/><path d="M251.06,93.21l-1.5.38a.13.13,0,0,0-.1.09l-.53,1.46a.14.14,0,0,1-.25,0l-.83-1.31a.12.12,0,0,0-.12-.06l-1.56-.06a.15.15,0,0,1-.1-.24l1-1.2a.14.14,0,0,0,0-.13l-.42-1.49a.16.16,0,0,1,.19-.18l1.45.57a.11.11,0,0,0,.12,0l1.3-.86a.14.14,0,0,1,.22.13l-.1,1.56a.17.17,0,0,0,.06.12l1.22,1A.16.16,0,0,1,251.06,93.21Z" style="fill:none;stroke:#813194;stroke-miterlimit:10;stroke-width:1.0800000429153442px"/></svg>