<svg xmlns="http://www.w3.org/2000/svg" width="354" height="160" viewBox="0 0 354 160"><title>reinvent</title><line x1="11.45" y1="143.73" x2="242.45" y2="143.73" style="fill:none;stroke:#232f3e;stroke-miterlimit:10;stroke-width:2px"/><line x1="321.45" y1="143.73" x2="345.45" y2="143.73" style="fill:none;stroke:#232f3e;stroke-miterlimit:10;stroke-width:2px"/><line x1="179.45" y1="125.73" x2="239.45" y2="125.73" style="fill:none;stroke:#232f3e;stroke-miterlimit:10;stroke-width:2px;stroke-dasharray:6,6"/><line x1="11.45" y1="125.73" x2="63.45" y2="125.73" style="fill:none;stroke:#232f3e;stroke-miterlimit:10;stroke-width:2px;stroke-dasharray:6,6"/><line x1="11.45" y1="103.73" x2="62.45" y2="103.73" style="fill:none;stroke:#232f3e;stroke-miterlimit:10;stroke-width:2px"/><line x1="179.45" y1="103.73" x2="238.45" y2="103.73" style="fill:none;stroke:#232f3e;stroke-miterlimit:10;stroke-width:2px"/><circle cx="155.95" cy="85.23" r="0.5" style="fill:none;stroke:#232f3e;stroke-linejoin:round;stroke-width:2px"/><line x1="111.45" y1="62.73" x2="77.45" y2="62.73" style="fill:none;stroke:#232f3e;stroke-miterlimit:10;stroke-width:2px"/><line x1="101.45" y1="70.73" x2="86.45" y2="70.73" style="fill:none;stroke:#232f3e;stroke-miterlimit:10;stroke-width:2px"/><line x1="95.45" y1="78.73" x2="69.45" y2="78.73" style="fill:none;stroke:#232f3e;stroke-miterlimit:10;stroke-width:2px"/><path d="M125.75,95a3.1,3.1,0,0,0-1.3-.6c-4.9-1.4-11.1,5.2-14,14.8s-1.2,18.6,3.7,20c3.1.9,6.8-2.2,8.7-4.4a27.55,27.55,0,0,0,5.2-10.4,29.39,29.39,0,0,0,1.1-12.5c.9,3.9,1,9.5-.2,17.4a5.56,5.56,0,0,0,5.5,6.4h26.2c3.9,0,6.7-2.8,5.9-6.6l-.1-2.9m-6-52.5-6.5-2.2c-38.6-9.3-51.5,6.2-55.5,12.7l-3.9,6.9c-2,2.4-5.3,4.6-10.9,4.5-7.3.5-11,4.6-12.8,9.1a21.88,21.88,0,0,0-1.1,3.9l-.1.1a26.79,26.79,0,0,0-.5,7.1c1.8-1.6,3.5-3,5-4.2a32.23,32.23,0,0,0-3.6,7.7c-1.7,5.3-3.9,17.3,3.1,20,3.4,1.3,7.2-1.2,9.5-3.5a27.85,27.85,0,0,0,6.3-11.3c2.1-6.8,1.9-13.2-.3-16.9m45.2,8.4c1.2,4.2,1.9,8.1,2.5,9.7v0h8.4l.4-1c1-1.9,5.1-3,5.1-3h9.7s2.7,1.7,1.9,3.2l-.3,1.8h5.7l2.1-5.1,1.5-4.2a50.94,50.94,0,0,0,2.5-10.4l2-15.7a16.16,16.16,0,0,0-3.3-12.1,14.06,14.06,0,0,0-10.7-5.4h-.1l-7.1-.1a13.89,13.89,0,0,0-11.4,5.6m-59.5,33.9c-3.2-.3-7.1,3.5-8.8,8.9-1.5,4.7-.9,9.2,1.1,11.2m48.1-21.7c-3.4-.4-7.3,3.9-9.1,9.9-1.5,5.2-1,10.2,1.2,12.4m48.3-44.2-1.7,13.1a6.05,6.05,0,0,1-6,5.4h-.2a5.88,5.88,0,0,1-4.6-2.1,6.46,6.46,0,0,1-1.6-5l1.7-13.1a6.05,6.05,0,0,1,6-5.4,6.29,6.29,0,0,1,4.8,2.1A6.21,6.21,0,0,1,164.55,79.73Z" style="fill:none;stroke:#232f3e;stroke-linejoin:round;stroke-width:2px"/><path d="M161.65,128.13l-1.5,1.2h4.3c5.7,0,8.9-2.5,10.4-6,2.2-5.3.6-12.9-2-18.5" style="fill:none;stroke:#232f3e;stroke-linejoin:round;stroke-width:2px"/><path d="M129.35,88.93s-10.7-16.5-26.5,10.5" style="fill:none;stroke:#232f3e;stroke-linejoin:round;stroke-width:2px"/><line x1="86.45" y1="121.73" x2="103.45" y2="121.73" style="fill:none;stroke:#232f3e;stroke-linejoin:round;stroke-width:2px"/><circle cx="156.45" cy="84.73" r="4" style="fill:none;stroke:#232f3e;stroke-linejoin:round;stroke-width:2px"/><path d="M213.45,63.63l-7.5,3.1c-7,2.9-7,11.5,0,14.3l56,23a10.51,10.51,0,0,0,7.8,0l8.5-3.5" style="fill:none;stroke:#232f3e;stroke-miterlimit:10;stroke-width:2px"/><path d="M289.35,51.83l-19.8-8.1a10.52,10.52,0,0,0-7.8,0l-18.1,7.4" style="fill:none;stroke:#232f3e;stroke-miterlimit:10;stroke-width:2px"/><path d="M256.65,50.93l7-2.9a5.71,5.71,0,0,1,4.2,0l8.7,3.6" style="fill:none;stroke:#232f3e;stroke-miterlimit:10;stroke-width:2px"/><path d="M275.85,96.33l-8.1,3.3a5.71,5.71,0,0,1-4.2,0l-56-23a2.85,2.85,0,0,1,0-5.6l7.2-3" style="fill:none;stroke:#232f3e;stroke-miterlimit:10;stroke-width:2px"/><path d="M317.35,63.63l7.5,3.1c7,2.9,7,11.5,0,14.3L315,85" style="fill:none;stroke:#232f3e;stroke-miterlimit:10;stroke-width:2px"/><path d="M314,80.43l9.2-3.8a2.85,2.85,0,0,0,0-5.6L316,68" style="fill:none;stroke:#232f3e;stroke-miterlimit:10;stroke-width:2px"/><circle cx="266.05" cy="60.33" r="7" style="fill:none;stroke:#813194;stroke-linejoin:round;stroke-width:2.5511999130249023px"/><circle cx="280.05" cy="60.33" r="7" style="fill:none;stroke:#813194;stroke-linejoin:round;stroke-width:2.5511999130249023px"/><circle cx="251.95" cy="60.33" r="7" style="fill:none;stroke:#813194;stroke-linejoin:round;stroke-width:2.5511999130249023px"/><circle cx="237.85" cy="60.33" r="7" style="fill:none;stroke:#813194;stroke-linejoin:round;stroke-width:2.5511999130249023px"/><circle cx="223.85" cy="60.33" r="7" style="fill:none;stroke:#813194;stroke-linejoin:round;stroke-width:2.5511999130249023px"/><circle cx="294.15" cy="60.33" r="7" style="fill:none;stroke:#813194;stroke-linejoin:round;stroke-width:2.5511999130249023px"/><circle cx="308.25" cy="60.33" r="7" style="fill:none;stroke:#813194;stroke-linejoin:round;stroke-width:2.5511999130249023px"/><polyline points="250.75 48.63 250.75 12.33 281.25 12.33 281.25 48.63" style="fill:none;stroke:#232f3e;stroke-miterlimit:10;stroke-width:2px"/><line x1="281.25" y1="155.73" x2="281.25" y2="114.33" style="fill:none;stroke:#232f3e;stroke-miterlimit:10;stroke-width:2px"/><line x1="250.75" y1="100.23" x2="250.75" y2="155.73" style="fill:none;stroke:#232f3e;stroke-miterlimit:10;stroke-width:2px"/><path d="M312.45,155.73c-1.3-4.6-3.2-9.6-4.2-14.5-3.5-16.3.3-31.1,1.6-40a81.65,81.65,0,0,0-8.4,36.5c0,5.2,1.7,12,3,18" style="fill:none;stroke:#232f3e;stroke-linejoin:round;stroke-width:2px"/><path d="M273.65,27.53a7.6,7.6,0,0,0-7.6,7.6,7.6,7.6,0,0,0-7.6-7.6,7.6,7.6,0,0,0,7.6-7.6A7.6,7.6,0,0,0,273.65,27.53Z" style="fill:none;stroke:#232f3e;stroke-linejoin:round;stroke-width:2px"/><line x1="266.05" y1="14.63" x2="266.05" y2="22.83" style="fill:none;stroke:#232f3e;stroke-linejoin:round;stroke-width:2px"/><line x1="266.05" y1="33.43" x2="266.05" y2="40.43" style="fill:none;stroke:#232f3e;stroke-linejoin:round;stroke-width:2px"/><line x1="253.15" y1="27.53" x2="261.35" y2="27.53" style="fill:none;stroke:#232f3e;stroke-linejoin:round;stroke-width:2px"/><line x1="270.75" y1="27.53" x2="278.95" y2="27.53" style="fill:none;stroke:#232f3e;stroke-linejoin:round;stroke-width:2px"/><line x1="263.65" y1="25.23" x2="258.95" y2="20.53" style="fill:none;stroke:#232f3e;stroke-linejoin:round;stroke-width:2px"/><line x1="273.05" y1="34.53" x2="268.35" y2="29.83" style="fill:none;stroke:#232f3e;stroke-linejoin:round;stroke-width:2px"/><line x1="263.65" y1="29.83" x2="258.95" y2="34.53" style="fill:none;stroke:#232f3e;stroke-linejoin:round;stroke-width:2px"/><line x1="273.05" y1="20.53" x2="268.35" y2="25.23" style="fill:none;stroke:#232f3e;stroke-linejoin:round;stroke-width:2px"/><path d="M323.85,130.73c.1.4.3.7.7.7a1.22,1.22,0,0,0,.9-.3c.3-.4,7.2-10.6,4.7-20.1q-2.4-8.85-14.7-12.6a12.25,12.25,0,0,1,9.5.5c3.9,1.8,7.6,5.6,11.1,11.2a.64.64,0,0,0,1,.3,1.11,1.11,0,0,0,.7-.9c0-.5-.6-13.8-9.3-17.9-4-1.9-9-1.5-15.1,1.3.5-2.8.1-11.5-5.8-14.2-2.2-1-6.5-2.7-10-2.8a.77.77,0,0,0-.8.7,1.16,1.16,0,0,0,.4,1c.1,0,9.1,8.3,10.4,14.1a23.75,23.75,0,0,0-7.3-5.7c-4.7-2.4-11.7-3.1-19.7,5.6a.9.9,0,0,0-.1,1.1c.2.4.5.5,1,.4.2-.1,12.5-3.3,20.5.4a3.92,3.92,0,0,1,1.4.8c-4.6-1.2-12.3-2.2-18.2,1.5q-7,4.5-7.8,16.2a1.05,1.05,0,0,0,.5.9,1,1,0,0,0,1-.2c.2-.2,13.3-13.2,25-13-3.7,1.9-9.9,5.7-12,12.3-1.8,5.2-.6,11.1,3.4,17.2a.54.54,0,0,0,.4.3.63.63,0,0,0,.6,0,1.11,1.11,0,0,0,.7-.9c0-.1,4.6-24.1,12.6-28.1C309.45,100.73,321.65,117.73,323.85,130.73Z" style="fill:none;stroke:#232f3e;stroke-linejoin:round;stroke-width:2px"/><path d="M170.45,60.83h6.8a9.59,9.59,0,0,0,9.6-8,9.37,9.37,0,0,0-18.3-3.9" style="fill:none;stroke:#813194;stroke-linejoin:round;stroke-width:2.5511999130249023px"/><path d="M81.25,44.23a12.27,12.27,0,0,0-2.3,3.3" style="fill:none;stroke:#813194;stroke-linejoin:round;stroke-width:2.5511999130249023px"/><path d="M83.45,42.43a14.63,14.63,0,0,0-1.3.9" style="fill:none;stroke:#813194;stroke-linejoin:round;stroke-width:2.5511999130249023px"/><path d="M99.35,47.23a11.17,11.17,0,0,0-10.2-6.3,11.3,11.3,0,0,0-4.5.9" style="fill:none;stroke:#813194;stroke-linejoin:round;stroke-width:2.5511999130249023px"/><path d="M149.55,31.83a18.33,18.33,0,0,0-16.2-9.7,19.42,19.42,0,0,0-2.4.2,15.61,15.61,0,0,0-28.7,8.5h0a11.3,11.3,0,0,0-9.8,7.9" style="fill:none;stroke:#813194;stroke-linejoin:round;stroke-width:2.5511999130249023px"/><path d="M139,44.43a12.78,12.78,0,0,1,24.5-5.1c.3,0,.7-.1,1-.1a7,7,0,0,1,6.7,5.2" style="fill:none;stroke:#813194;stroke-linejoin:round;stroke-width:2.5511999130249023px"/><line x1="178.95" y1="16.73" x2="178.95" y2="26.13" style="fill:none;stroke:#813194;stroke-linejoin:round;stroke-width:2.5511999130249023px"/><line x1="203.95" y1="41.73" x2="194.65" y2="41.73" style="fill:none;stroke:#813194;stroke-linejoin:round;stroke-width:2.5511999130249023px"/><line x1="195.45" y1="25.33" x2="189.65" y2="31.13" style="fill:none;stroke:#813194;stroke-linejoin:round;stroke-width:2.5511999130249023px"/><line x1="168.35" y1="31.13" x2="162.55" y2="25.33" style="fill:none;stroke:#813194;stroke-linejoin:round;stroke-width:2.5511999130249023px"/><line x1="195.45" y1="58.13" x2="189.65" y2="52.33" style="fill:none;stroke:#813194;stroke-linejoin:round;stroke-width:2.5511999130249023px"/><path d="M164.55,35.63a15.62,15.62,0,1,1,24.1,18.3" style="fill:none;stroke:#813194;stroke-linejoin:round;stroke-width:2.5511999130249023px"/><path d="M179,29.83a11.93,11.93,0,0,1,11.9,11.9" style="fill:none;stroke:#813194;stroke-linejoin:round;stroke-width:2.5511999130249023px"/><path d="M55.85,33.93a10.85,10.85,0,0,0,6.3-3.6c0-2.1,0-4.2.1-6.3a11.43,11.43,0,0,1-6.3,3.6C56,29.73,56,31.83,55.85,33.93Z" style="fill:#813194;stroke:#813194;stroke-miterlimit:10"/><path d="M49.55,39.43a12.52,12.52,0,0,0,6.3.8c0-2.1,0-4.2.1-6.3a12.52,12.52,0,0,1-6.3-.8C49.55,35.23,49.55,37.33,49.55,39.43Z" style="fill:#813194;stroke:#813194;stroke-miterlimit:10"/><path d="M43.35,30.13a60,60,0,0,0,6.3,3c0-2.1,0-4.2.1-6.3a60,60,0,0,1-6.3-3C43.35,25.93,43.35,28,43.35,30.13Z" style="fill:#813194;stroke:#813194;stroke-miterlimit:10"/><path d="M43.15,42.73a60,60,0,0,0,6.3,3c0-2.1,0-4.2.1-6.3a60,60,0,0,1-6.3-3C43.25,38.53,43.25,40.63,43.15,42.73Z" style="fill:#813194;stroke:#813194;stroke-miterlimit:10"/><path d="M55.75,46.53a10.85,10.85,0,0,0,6.3-3.6c0-2.1,0-4.2.1-6.3a11.43,11.43,0,0,1-6.3,3.6C55.85,42.33,55.75,44.43,55.75,46.53Z" style="fill:#813194;stroke:#813194;stroke-miterlimit:10"/><line x1="61.55" y1="31.73" x2="61.55" y2="45.33" style="fill:none;stroke:#232f3e;stroke-linejoin:round;stroke-width:2px"/><path d="M49.45,52a12.52,12.52,0,0,0,6.3.8c0-2.1,0-4.2.1-6.3a12.52,12.52,0,0,1-6.3-.8C49.45,47.83,49.45,49.93,49.45,52Z" style="fill:#813194;stroke:#813194;stroke-miterlimit:10"/><path d="M30.65,39a11.51,11.51,0,0,1,6.3.8c0-2.1,0-4.2.1-6.3a13.73,13.73,0,0,0-6.3-.8C30.65,34.83,30.65,36.93,30.65,39Z" style="fill:#813194;stroke:#813194;stroke-miterlimit:10"/><path d="M24.35,36.33a11.43,11.43,0,0,1,6.3-3.6c0-2.1,0-4.2.1-6.3a10.85,10.85,0,0,0-6.3,3.6C24.45,32.13,24.45,34.23,24.35,36.33Z" style="fill:#813194;stroke:#813194;stroke-miterlimit:10"/><path d="M24.25,48.93a11.43,11.43,0,0,1,6.3-3.6c0-2.1,0-4.2.1-6.3a10.85,10.85,0,0,0-6.3,3.6C24.35,44.73,24.25,46.83,24.25,48.93Z" style="fill:#813194;stroke:#813194;stroke-miterlimit:10"/><path d="M37,33.43a45,45,0,0,1,6.3,3c0-2.1,0-4.2.1-6.3a60,60,0,0,0-6.3-3C37,29.23,37,31.33,37,33.43Z" style="fill:#813194;stroke:#813194;stroke-miterlimit:10"/><path d="M30.75,27.43a11.51,11.51,0,0,1,6.3.8c0-2.1,0-4.2.1-6.3a13.73,13.73,0,0,0-6.3-.8C30.75,23.23,30.75,25.33,30.75,27.43Z" style="fill:#813194;stroke:#813194;stroke-miterlimit:10"/><path d="M36.85,46.13a45,45,0,0,1,6.3,3c0-2.1,0-4.2.1-6.3a60,60,0,0,0-6.3-3C36.85,41.93,36.85,44,36.85,46.13Z" style="fill:#813194;stroke:#813194;stroke-miterlimit:10"/><path d="M61.65,33.33c0-3.3-.1-4.8,0-8.1-12.3,11.4-24.7-11.7-37-.4v23c12.3-11.3,24.7,12.9,37,1.5v-5" style="fill:none;stroke:#232f3e;stroke-miterlimit:10;stroke-width:2px"/><line x1="24.65" y1="34.33" x2="24.65" y2="103.33" style="fill:none;stroke:#232f3e;stroke-miterlimit:10;stroke-width:2px"/></svg>