<svg xmlns="http://www.w3.org/2000/svg" width="354" height="160" viewBox="0 0 354 160"><title>London Loop</title><text transform="translate(10.56 -3.98)" style="isolation:isolate;font-size:18px;font-family:ArialMT, Arial">UK</text><line x1="11.54" y1="142.02" x2="221.54" y2="142.02" style="fill:none;stroke:#232f3e;stroke-miterlimit:10;stroke-width:2px"/><line x1="179.54" y1="124.02" x2="219.54" y2="124.02" style="fill:none;stroke:#232f3e;stroke-miterlimit:10;stroke-width:2px;stroke-dasharray:6,6"/><line x1="11.54" y1="124.02" x2="63.54" y2="124.02" style="fill:none;stroke:#232f3e;stroke-miterlimit:10;stroke-width:2px;stroke-dasharray:6,6"/><line x1="11.54" y1="102.02" x2="62.54" y2="102.02" style="fill:none;stroke:#232f3e;stroke-miterlimit:10;stroke-width:2px"/><line x1="179.54" y1="102.02" x2="221.54" y2="102.02" style="fill:none;stroke:#232f3e;stroke-miterlimit:10;stroke-width:2px"/><path d="M335.54,154V98h-28v56Z" style="fill:none;stroke:#232f3e;stroke-miterlimit:10;stroke-width:2px"/><rect x="304.54" y="63.02" width="35" height="35" style="fill:none;stroke:#232f3e;stroke-miterlimit:10;stroke-width:2px"/><circle cx="321.84" cy="80.82" r="14.2" style="fill:none;stroke:#813194;stroke-linejoin:round;stroke-width:2.5511999130249023px"/><path d="M328.94,48.92c5.9,10.6,9.5,14.2,9.5,14.2h-33.1s3.5-2.4,9.5-14.2Z" style="fill:none;stroke:#232f3e;stroke-linejoin:round;stroke-width:2px"/><rect x="314.74" y="41.82" width="14.2" height="7.1" style="fill:none;stroke:#232f3e;stroke-linejoin:round;stroke-width:2px"/><polygon points="314.74 41.82 321.84 20.62 328.94 41.82 314.74 41.82" style="fill:none;stroke:#232f3e;stroke-linejoin:round;stroke-width:2px"/><polyline points="321.84 70.22 321.84 80.82 331.34 80.82" style="fill:none;stroke:#813194;stroke-linejoin:round;stroke-width:2.5511999130249023px"/><line x1="321.84" y1="102.12" x2="321.84" y2="150.62" style="fill:none;stroke:#232f3e;stroke-linejoin:round;stroke-width:2px"/><line x1="314.74" y1="102.12" x2="314.74" y2="150.62" style="fill:none;stroke:#232f3e;stroke-linejoin:round;stroke-width:2px"/><line x1="328.94" y1="102.12" x2="328.94" y2="150.62" style="fill:none;stroke:#232f3e;stroke-linejoin:round;stroke-width:2px"/><line x1="308.54" y1="109.02" x2="334.54" y2="109.02" style="fill:none;stroke:#232f3e;stroke-linejoin:round;stroke-width:2px"/><line x1="321.84" y1="20.62" x2="321.84" y2="8.72" style="fill:none;stroke:#232f3e;stroke-linejoin:round;stroke-width:2px"/><ellipse cx="321.84" cy="15.82" rx="2.4" ry="1.2" style="fill:none;stroke:#232f3e;stroke-linejoin:round;stroke-width:2px"/><line x1="317.14" y1="53.72" x2="317.14" y2="59.62" style="fill:none;stroke:#232f3e;stroke-linejoin:round;stroke-width:2px"/><line x1="321.84" y1="53.72" x2="321.84" y2="59.62" style="fill:none;stroke:#232f3e;stroke-linejoin:round;stroke-width:2px"/><line x1="326.54" y1="53.72" x2="326.54" y2="59.62" style="fill:none;stroke:#232f3e;stroke-linejoin:round;stroke-width:2px"/><polyline points="285.24 155.02 285.24 112.72 294.64 112.72 294.64 155.02" style="fill:none;stroke:#232f3e;stroke-linejoin:round;stroke-width:2px"/><path d="M294.84,112.72h-9.7a1,1,0,0,1-1-1v-1.5a1,1,0,0,1,1-1h9.7a1,1,0,0,1,1,1v1.5A1,1,0,0,1,294.84,112.72Z" style="fill:none;stroke:#232f3e;stroke-linejoin:round;stroke-width:2px"/><path d="M286.34,109.22s3-13,3.5-13,3.5,13,3.5,13" style="fill:none;stroke:#232f3e;stroke-linejoin:round;stroke-width:2px"/><line x1="307.64" y1="128.12" x2="294.64" y2="128.12" style="fill:none;stroke:#232f3e;stroke-linejoin:round;stroke-width:2px"/><line x1="285.24" y1="128.12" x2="275.74" y2="128.12" style="fill:none;stroke:#232f3e;stroke-linejoin:round;stroke-width:2px"/><line x1="265.14" y1="128.12" x2="255.64" y2="128.12" style="fill:none;stroke:#232f3e;stroke-linejoin:round;stroke-width:2px"/><line x1="247.34" y1="128.12" x2="237.94" y2="128.12" style="fill:none;stroke:#232f3e;stroke-linejoin:round;stroke-width:2px"/><line x1="289.94" y1="97.42" x2="289.94" y2="92.72" style="fill:none;stroke:#232f3e;stroke-linejoin:round;stroke-width:2px"/><polyline points="266.34 155.02 266.34 112.72 275.74 112.72 275.74 155.02" style="fill:none;stroke:#232f3e;stroke-linejoin:round;stroke-width:2px"/><path d="M275.94,112.72h-9.7a1,1,0,0,1-1-1v-1.5a1,1,0,0,1,1-1h9.7a1,1,0,0,1,1,1v1.5A1,1,0,0,1,275.94,112.72Z" style="fill:none;stroke:#232f3e;stroke-linejoin:round;stroke-width:2px"/><path d="M267.44,109.22s3-13,3.5-13,3.5,13,3.5,13" style="fill:none;stroke:#232f3e;stroke-linejoin:round;stroke-width:2px"/><line x1="271.04" y1="97.42" x2="271.04" y2="92.72" style="fill:none;stroke:#232f3e;stroke-linejoin:round;stroke-width:2px"/><polyline points="247.34 155.02 247.34 112.72 256.84 112.72 256.84 155.02" style="fill:none;stroke:#232f3e;stroke-linejoin:round;stroke-width:2px"/><path d="M256.94,112.72h-9.7a1,1,0,0,1-1-1v-1.5a1,1,0,0,1,1-1h9.7a1,1,0,0,1,1,1v1.5C258,112.32,257.54,112.72,256.94,112.72Z" style="fill:none;stroke:#232f3e;stroke-linejoin:round;stroke-width:2px"/><path d="M248.54,109.22s3-13,3.5-13,3.5,13,3.5,13" style="fill:none;stroke:#232f3e;stroke-linejoin:round;stroke-width:2px"/><line x1="252.14" y1="97.42" x2="252.14" y2="92.72" style="fill:none;stroke:#232f3e;stroke-linejoin:round;stroke-width:2px"/><polyline points="228.44 155.02 228.44 112.72 237.94 112.72 237.94 155.02" style="fill:none;stroke:#232f3e;stroke-linejoin:round;stroke-width:2px"/><path d="M238,112.72h-9.7a1,1,0,0,1-1-1v-1.5a1,1,0,0,1,1-1H238a1,1,0,0,1,1,1v1.5C239.14,112.32,238.64,112.72,238,112.72Z" style="fill:none;stroke:#232f3e;stroke-linejoin:round;stroke-width:2px"/><path d="M229.64,109.22s3-13,3.5-13,3.5,13,3.5,13" style="fill:none;stroke:#232f3e;stroke-linejoin:round;stroke-width:2px"/><line x1="233.24" y1="97.42" x2="233.24" y2="92.72" style="fill:none;stroke:#232f3e;stroke-linejoin:round;stroke-width:2px"/><line x1="352.05" y1="152.62" x2="217.54" y2="154.12" style="fill:none;stroke:#232f3e;stroke-linejoin:round;stroke-width:2px"/><line x1="280.44" y1="135.22" x2="280.44" y2="149.42" style="fill:none;stroke:#232f3e;stroke-linejoin:round;stroke-width:2px"/><line x1="300.54" y1="135.22" x2="300.54" y2="149.42" style="fill:none;stroke:#232f3e;stroke-linejoin:round;stroke-width:2px"/><line x1="261.54" y1="135.22" x2="261.54" y2="149.42" style="fill:none;stroke:#232f3e;stroke-linejoin:round;stroke-width:2px"/><line x1="242.64" y1="135.22" x2="242.64" y2="149.42" style="fill:none;stroke:#232f3e;stroke-linejoin:round;stroke-width:2px"/><circle cx="156.04" cy="83.52" r="0.5" style="fill:none;stroke:#232f3e;stroke-linejoin:round;stroke-width:2px"/><line x1="111.54" y1="61.02" x2="76.54" y2="61.02" style="fill:none;stroke:#232f3e;stroke-miterlimit:10;stroke-width:2px"/><line x1="101.54" y1="69.02" x2="86.54" y2="69.02" style="fill:none;stroke:#232f3e;stroke-miterlimit:10;stroke-width:2px"/><line x1="95.54" y1="77.02" x2="69.54" y2="77.02" style="fill:none;stroke:#232f3e;stroke-miterlimit:10;stroke-width:2px"/><path d="M125.84,93.32a3.1,3.1,0,0,0-1.3-.6c-4.9-1.4-11.1,5.2-14,14.8s-1.2,18.6,3.7,20c3.1.9,6.8-2.2,8.7-4.4a27.55,27.55,0,0,0,5.2-10.4,29.39,29.39,0,0,0,1.1-12.5c.9,3.9,1,9.5-.2,17.4a5.56,5.56,0,0,0,5.5,6.4h26.2c3.9,0,6.7-2.8,5.9-6.6l-.1-2.9m-5-52.5-7.5-2.2c-38.6-9.3-51.5,6.2-55.5,12.7l-3.9,6.9c-2,2.4-5.3,4.6-10.9,4.5-7.3.5-11,4.6-12.8,9.1a21.88,21.88,0,0,0-1.1,3.9l-.1.1a26.79,26.79,0,0,0-.5,7.1c1.8-1.6,3.5-3,5-4.2a32.23,32.23,0,0,0-3.6,7.7c-1.7,5.3-3.9,17.3,3.1,20,3.4,1.3,7.2-1.2,9.5-3.5a27.85,27.85,0,0,0,6.3-11.3c2.1-6.8,1.9-13.2-.3-16.9m45.2,8.4c1.2,4.2,1.9,8.1,2.5,9.7v0h8.4l.4-1c1-1.9,5.1-3,5.1-3h9.7s2.7,1.7,1.9,3.2l-.3,1.8h5.7l2.1-5.1,1.5-4.2a50.94,50.94,0,0,0,2.5-10.4l2-15.7a16.16,16.16,0,0,0-3.3-12.1,14.06,14.06,0,0,0-10.7-5.4h-.1l-7.1-.1a13.89,13.89,0,0,0-11.4,5.6m-59.5,33.9c-3.2-.3-7.1,3.5-8.8,8.9-1.5,4.7-.9,9.2,1.1,11.2m48.1-21.7c-3.4-.4-7.3,3.9-9.1,9.9-1.5,5.2-1,10.2,1.2,12.4M164.64,78l-1.7,13.1a6.05,6.05,0,0,1-6,5.4h-.2a5.88,5.88,0,0,1-4.6-2.1,6.46,6.46,0,0,1-1.6-5l1.7-13.1a6.05,6.05,0,0,1,6-5.4A6.29,6.29,0,0,1,163,73,6.21,6.21,0,0,1,164.64,78Z" style="fill:none;stroke:#232f3e;stroke-linejoin:round;stroke-width:2px"/><path d="M161.74,126.42l-1.5,1.2h4.3c5.7,0,8.9-2.5,10.4-6,2.2-5.3.2-13.1-2.3-18.6" style="fill:none;stroke:#232f3e;stroke-linejoin:round;stroke-width:2px"/><path d="M129.44,87.22s-10.7-16.5-26.5,10.5" style="fill:none;stroke:#232f3e;stroke-linejoin:round;stroke-width:2px"/><line x1="86.54" y1="120.02" x2="103.54" y2="120.02" style="fill:none;stroke:#232f3e;stroke-linejoin:round;stroke-width:2px"/><circle cx="156.54" cy="83.02" r="4" style="fill:none;stroke:#232f3e;stroke-linejoin:round;stroke-width:2px"/><path d="M234.44,65.12h26.4a10.48,10.48,0,0,0,10.5-8.8,10.36,10.36,0,0,0-10.2-11.9,10.5,10.5,0,0,0-10,7.6" style="fill:none;stroke:#813194;stroke-linejoin:round;stroke-width:2.5511999130249023px"/><line x1="218.04" y1="65.12" x2="225.74" y2="65.12" style="fill:none;stroke:#813194;stroke-linejoin:round;stroke-width:2.5511999130249023px"/><line x1="178.54" y1="65.12" x2="214.84" y2="65.12" style="fill:none;stroke:#813194;stroke-linejoin:round;stroke-width:2.5511999130249023px"/><line x1="227.94" y1="65.12" x2="230.04" y2="65.12" style="fill:none;stroke:#813194;stroke-linejoin:round;stroke-width:2.5511999130249023px"/><path d="M155,46.82a13.4,13.4,0,0,0-2.5,3.7" style="fill:none;stroke:#813194;stroke-linejoin:round;stroke-width:2.5511999130249023px"/><path d="M157.54,44.82c-.5.3-1,.7-1.5,1" style="fill:none;stroke:#813194;stroke-linejoin:round;stroke-width:2.5511999130249023px"/><path d="M175,50.12a12.53,12.53,0,0,0-11.2-7,13.5,13.5,0,0,0-5,1" style="fill:none;stroke:#813194;stroke-linejoin:round;stroke-width:2.5511999130249023px"/><path d="M230.34,33.22a20.15,20.15,0,0,0-17.9-10.7,21.12,21.12,0,0,0-2.6.2,17.34,17.34,0,0,0-14.4-7.9,17.09,17.09,0,0,0-17.1,17.1V32a12.48,12.48,0,0,0-10.8,8.7" style="fill:none;stroke:#813194;stroke-linejoin:round;stroke-width:2.5511999130249023px"/><path d="M218.64,47.12a14.08,14.08,0,0,1,27-5.6,4.1,4.1,0,0,1,1.1-.1,7.71,7.71,0,0,1,7.4,5.8" style="fill:none;stroke:#813194;stroke-linejoin:round;stroke-width:2.5511999130249023px"/><line x1="23.54" y1="45.02" x2="23.54" y2="102.02" style="fill:none;stroke:#232f3e;stroke-miterlimit:10;stroke-width:2px"/><path d="M60.54,32c0-3.3-.1-4.8,0-8.1-12.3,11.4-24.7-11.7-37-.4v23c12.3-11.3,24.7,12.9,37,1.5V32Z" style="fill:none;stroke:#813194;stroke-linejoin:round;stroke-width:2.5511999130249023px"/><path d="M60.64,38.62c-5.6,3.1-15.1-.5-15.1-.5v11.3" style="fill:none;stroke:#813194;stroke-linejoin:round;stroke-width:2.5511999130249023px"/><path d="M23.54,39c5.6-4.3,11.6-3.9,17.2-1.8,0,0-.2,6.1-.2,9.6" style="fill:none;stroke:#813194;stroke-linejoin:round;stroke-width:2.5511999130249023px"/><path d="M45.54,25v8.9c5.1,1.8,10.1,3,15.2-.3" style="fill:none;stroke:#813194;stroke-linejoin:round;stroke-width:2.5511999130249023px"/><path d="M23.54,33c5.4-4.1,17,0,17,0V23" style="fill:none;stroke:#813194;stroke-linejoin:round;stroke-width:2.5511999130249023px"/><path d="M40.64,31.42A34,34,0,0,0,27.54,21" style="fill:none;stroke:#813194;stroke-linejoin:round;stroke-width:2.5511999130249023px"/><path d="M33.94,31.42c-2-3.3-7.9-6.9-10.3-7.8" style="fill:none;stroke:#813194;stroke-linejoin:round;stroke-width:2.5511999130249023px"/><path d="M40.44,37.12c-1.5,2.7-2.3,4.6-6.3,6.7" style="fill:none;stroke:#813194;stroke-linejoin:round;stroke-width:2.5511999130249023px"/><path d="M36.14,36.12c-1.2,2.6-5.9,5.8-9,8.1" style="fill:none;stroke:#813194;stroke-linejoin:round;stroke-width:2.5511999130249023px"/><path d="M45.74,33.62c3.7-1.6,6.4-3.6,7.9-6.6" style="fill:none;stroke:#813194;stroke-linejoin:round;stroke-width:2.5511999130249023px"/><path d="M51.24,35.62a17.78,17.78,0,0,0,9-10.2" style="fill:none;stroke:#813194;stroke-linejoin:round;stroke-width:2.5511999130249023px"/><path d="M45.74,39c3.7,4.5,8.3,9.5,12,11" style="fill:none;stroke:#813194;stroke-linejoin:round;stroke-width:2.5511999130249023px"/><path d="M52.54,39.62a25.59,25.59,0,0,0,8.1,6.4" style="fill:none;stroke:#813194;stroke-linejoin:round;stroke-width:2.5511999130249023px"/></svg>