<svg xmlns="http://www.w3.org/2000/svg" width="354" height="160" viewBox="0 0 354 160"><title>kumo torakku</title><line x1="8.65" y1="138.3" x2="183.65" y2="138.3" style="fill:none;stroke:#232f3e;stroke-miterlimit:10;stroke-width:2px"/><line x1="176.65" y1="120.3" x2="200.65" y2="120.3" style="fill:none;stroke:#232f3e;stroke-miterlimit:10;stroke-width:2px;stroke-dasharray:6,6"/><line x1="8.65" y1="120.3" x2="60.65" y2="120.3" style="fill:none;stroke:#232f3e;stroke-miterlimit:10;stroke-width:2px;stroke-dasharray:6,6"/><line x1="8.65" y1="98.3" x2="59.65" y2="98.3" style="fill:none;stroke:#232f3e;stroke-miterlimit:10;stroke-width:2px"/><line x1="176.65" y1="98.3" x2="198.65" y2="98.3" style="fill:none;stroke:#232f3e;stroke-miterlimit:10;stroke-width:2px"/><circle cx="153.15" cy="79.8" r="0.5" style="fill:none;stroke:#232f3e;stroke-linejoin:round;stroke-width:2px"/><line x1="108.65" y1="57.3" x2="73.65" y2="57.3" style="fill:none;stroke:#232f3e;stroke-miterlimit:10;stroke-width:2px"/><line x1="98.65" y1="65.3" x2="83.65" y2="65.3" style="fill:none;stroke:#232f3e;stroke-miterlimit:10;stroke-width:2px"/><line x1="92.65" y1="73.3" x2="66.65" y2="73.3" style="fill:none;stroke:#232f3e;stroke-miterlimit:10;stroke-width:2px"/><path d="M123,89.6a5.17,5.17,0,0,0-1.3-.6c-4.9-1.4-11.1,5.2-14,14.8s-1.2,18.6,3.7,20c3.1.9,6.8-2.2,8.7-4.4a27.55,27.55,0,0,0,5.2-10.4,29.73,29.73,0,0,0,1.1-12.6c.9,3.9,1,9.5-.2,17.4a5.56,5.56,0,0,0,5.5,6.4h26.2c3.9,0,6.7-2.8,5.9-6.6l-.1-2.9m-7-52.4-5.5-2.2c-38.6-9.3-51.5,6.2-55.5,12.7l-3.9,6.9c-2,2.4-5.3,4.6-10.9,4.5-7.3.5-11,4.6-12.8,9.1A21.88,21.88,0,0,0,67,93.2l-.1.1a26.79,26.79,0,0,0-.5,7.1c1.8-1.6,3.5-3,5-4.2a32.23,32.23,0,0,0-3.6,7.7c-1.7,5.3-3.9,17.3,3.1,20,3.4,1.3,7.2-1.2,9.5-3.5a27.85,27.85,0,0,0,6.3-11.3c2.1-6.8,1.9-13.2-.3-16.9m45.2,8.4c1.2,4.2,1.9,8.1,2.5,9.7v0h8.4l.4-1c1-1.9,5.1-3,5.1-3h9.7s2.7,1.7,1.9,3.2l-.3,1.8H165l2.1-5.1,1.5-4.2a50.94,50.94,0,0,0,2.5-10.4l2-15.7a16.16,16.16,0,0,0-3.3-12.1,14.06,14.06,0,0,0-10.7-5.4H159s-13.6-.7-18.5,5.5M81,97.8c-3.2-.3-7.1,3.5-8.8,8.9-1.5,4.7-.9,9.2,1.1,11.2m48.1-21.7c-3.4-.4-7.3,3.9-9.1,9.9-1.5,5.2-1,10.2,1.2,12.4m48.3-44.2-1.7,13.1a6.05,6.05,0,0,1-6,5.4h-.2a5.88,5.88,0,0,1-4.6-2.1,6.46,6.46,0,0,1-1.6-5l1.7-13.1a6.05,6.05,0,0,1,6-5.4,6.29,6.29,0,0,1,4.8,2.1A6.21,6.21,0,0,1,161.75,74.3Z" style="fill:none;stroke:#232f3e;stroke-linejoin:round;stroke-width:2px"/><path d="M158.85,122.7l-1.5,1.2h4.3c5.7,0,8.9-2.5,10.4-6,2.1-4.9-.4-12.9-2.8-18.5" style="fill:none;stroke:#232f3e;stroke-linejoin:round;stroke-width:2px"/><path d="M126.55,83.5S115.85,67,100.05,94" style="fill:none;stroke:#232f3e;stroke-linejoin:round;stroke-width:2px"/><line x1="83.65" y1="116.3" x2="100.65" y2="116.3" style="fill:none;stroke:#232f3e;stroke-linejoin:round;stroke-width:2px"/><circle cx="153.65" cy="79.3" r="4" style="fill:none;stroke:#232f3e;stroke-linejoin:round;stroke-width:2px"/><rect x="210.65" y="52.3" width="27" height="9" style="fill:none;stroke:#232f3e;stroke-miterlimit:10;stroke-width:2px"/><rect x="297.7" y="117.3" width="24" height="32" style="fill:none;stroke:#232f3e;stroke-miterlimit:10;stroke-width:2px"/><polyline points="308.65 108.3 293.65 108.3 297.65 117.3 308.65 117.3" style="fill:none;stroke:#232f3e;stroke-miterlimit:10;stroke-width:2px"/><polyline points="309.65 108.3 324.65 108.3 321.65 117.3 309.65 117.3" style="fill:none;stroke:#232f3e;stroke-miterlimit:10;stroke-width:2px"/><polygon points="309.65 108.3 330.25 108.3 325.05 99.3 309.65 99.3 308.65 99.3 293.45 99.3 288.35 108.3 308.65 108.3 309.65 108.3" style="fill:none;stroke:#232f3e;stroke-miterlimit:10;stroke-width:2px"/><polyline points="315.65 99.3 315.65 75.3 302.65 75.3 302.65 99.3" style="fill:none;stroke:#232f3e;stroke-miterlimit:10;stroke-width:2px"/><rect x="295.7" y="52.3" width="27" height="9" style="fill:none;stroke:#232f3e;stroke-miterlimit:10;stroke-width:2px"/><polygon points="319.25 52.3 322.55 45.3 210.75 45.3 214.05 52.3 319.25 52.3" style="fill:none;stroke:#232f3e;stroke-miterlimit:10;stroke-width:2px"/><path d="M322.55,45.3s16-6.7,17.3-18.6c0,0-33.3,8-66.5,6.7h-13.3c-33.3,1.3-66.6-6.7-66.6-6.7,1.3,12,17.3,18.6,17.3,18.6" style="fill:none;stroke:#232f3e;stroke-miterlimit:10;stroke-width:2px"/><rect x="256.65" y="52.3" width="19" height="20" style="fill:none;stroke:#232f3e;stroke-miterlimit:10;stroke-width:2px"/><polyline points="278.65 61.3 331.65 61.3 331.65 75.3 201.65 75.3 201.65 61.3 253.65 61.3" style="fill:none;stroke:#813194;stroke-linejoin:round;stroke-width:2.5511999130249023px"/><rect x="305.65" y="125.3" width="8" height="15" style="fill:none;stroke:#232f3e;stroke-miterlimit:10;stroke-width:2px"/><rect x="212.7" y="117.3" width="24" height="32" style="fill:none;stroke:#232f3e;stroke-miterlimit:10;stroke-width:2px"/><polyline points="223.65 108.3 208.65 108.3 212.65 117.3 223.65 117.3" style="fill:none;stroke:#232f3e;stroke-miterlimit:10;stroke-width:2px"/><polyline points="224.65 108.3 239.65 108.3 236.65 117.3 224.65 117.3" style="fill:none;stroke:#232f3e;stroke-miterlimit:10;stroke-width:2px"/><polygon points="224.65 108.3 245.25 108.3 240.05 99.3 224.65 99.3 223.65 99.3 208.45 99.3 203.35 108.3 223.65 108.3 224.65 108.3" style="fill:none;stroke:#232f3e;stroke-miterlimit:10;stroke-width:2px"/><polyline points="230.65 99.3 230.65 75.3 217.65 75.3 217.65 99.3" style="fill:none;stroke:#232f3e;stroke-miterlimit:10;stroke-width:2px"/><rect x="220.65" y="125.3" width="8" height="15" style="fill:none;stroke:#232f3e;stroke-miterlimit:10;stroke-width:2px"/><path d="M243,130.1a5.9,5.9,0,0,0,1.4.2c3.9,0,3.9-4,7.7-4s3.9,4,7.7,4,3.9-4,7.7-4,3.9,4,7.7,4,3.9-4,7.7-4,3.9,4,7.7,4" style="fill:none;stroke:#813194;stroke-linejoin:round;stroke-width:2.5511999130249023px"/><path d="M325,130.1a5.9,5.9,0,0,0,1.4.2c3.9,0,3.9-4,7.7-4s3.9,4,7.7,4a3.75,3.75,0,0,0,1.1-.1" style="fill:none;stroke:#813194;stroke-linejoin:round;stroke-width:2.5511999130249023px"/><path d="M325,138.1a5.9,5.9,0,0,0,1.4.2c3.9,0,3.9-4,7.7-4s3.9,4,7.7,4a3.75,3.75,0,0,0,1.1-.1" style="fill:none;stroke:#813194;stroke-linejoin:round;stroke-width:2.5511999130249023px"/><path d="M325,146.1a5.9,5.9,0,0,0,1.4.2c3.9,0,3.9-4,7.7-4s3.9,4,7.7,4a3.75,3.75,0,0,0,1.1-.1" style="fill:none;stroke:#813194;stroke-linejoin:round;stroke-width:2.5511999130249023px"/><path d="M191,130.1a5.9,5.9,0,0,0,1.4.2c3.9,0,3.9-4,7.7-4s3.9,4,7.7,4a3.75,3.75,0,0,0,1.1-.1" style="fill:none;stroke:#813194;stroke-linejoin:round;stroke-width:2.5511999130249023px"/><path d="M191,138.1a5.9,5.9,0,0,0,1.4.2c3.9,0,3.9-4,7.7-4s3.9,4,7.7,4a3.75,3.75,0,0,0,1.1-.1" style="fill:none;stroke:#813194;stroke-linejoin:round;stroke-width:2.5511999130249023px"/><path d="M191,146.1a5.9,5.9,0,0,0,1.4.2c3.9,0,3.9-4,7.7-4s3.9,4,7.7,4a3.75,3.75,0,0,0,1.1-.1" style="fill:none;stroke:#813194;stroke-linejoin:round;stroke-width:2.5511999130249023px"/><path d="M243,138.1a5.9,5.9,0,0,0,1.4.2c3.9,0,3.9-4,7.7-4s3.9,4,7.7,4,3.9-4,7.7-4,3.9,4,7.7,4,3.9-4,7.7-4,3.9,4,7.7,4" style="fill:none;stroke:#813194;stroke-linejoin:round;stroke-width:2.5511999130249023px"/><path d="M243,146.1a5.9,5.9,0,0,0,1.4.2c3.9,0,3.9-4,7.7-4s3.9,4,7.7,4,3.9-4,7.7-4,3.9,4,7.7,4,3.9-4,7.7-4,3.9,4,7.7,4" style="fill:none;stroke:#813194;stroke-linejoin:round;stroke-width:2.5511999130249023px"/><line x1="263.65" y1="56.3" x2="263.65" y2="68.3" style="fill:none;stroke:#232f3e;stroke-miterlimit:10;stroke-width:2px"/><line x1="268.65" y1="56.3" x2="268.65" y2="68.3" style="fill:none;stroke:#232f3e;stroke-miterlimit:10;stroke-width:2px"/><line x1="65.55" y1="28.7" x2="65.55" y2="42.3" style="fill:none;stroke:#232f3e;stroke-linejoin:round;stroke-width:2px"/><path d="M65.65,30.3c0-3.3-.1-4.8,0-8.1-12.3,11.4-24.7-11.7-37-.4v23c12.3-11.3,24.7,12.9,37,1.5v-5" style="fill:none;stroke:#232f3e;stroke-miterlimit:10;stroke-width:2px"/><line x1="28.65" y1="31.3" x2="28.65" y2="100.3" style="fill:none;stroke:#232f3e;stroke-miterlimit:10;stroke-width:2px"/><circle cx="48.65" cy="34.3" r="7" style="fill:#813194;stroke:#813194;stroke-miterlimit:10"/></svg>