<svg id="Layer_1" data-name="Layer 1" xmlns="http://www.w3.org/2000/svg" width="354" height="160" viewBox="0 0 354 160"><title>DeepRacer_VirtualRaces-Generic</title><line x1="9" y1="139" x2="204" y2="139" style="fill:none;stroke:#232f3e;stroke-miterlimit:10;stroke-width:2px"/><line x1="177" y1="121" x2="201" y2="121" style="fill:none;stroke:#232f3e;stroke-miterlimit:10;stroke-width:2px;stroke-dasharray:6,6"/><line x1="9" y1="121" x2="61" y2="121" style="fill:none;stroke:#232f3e;stroke-miterlimit:10;stroke-width:2px;stroke-dasharray:6,6"/><line x1="9" y1="99" x2="60" y2="99" style="fill:none;stroke:#232f3e;stroke-miterlimit:10;stroke-width:2px"/><line x1="177" y1="99" x2="199" y2="99" style="fill:none;stroke:#232f3e;stroke-miterlimit:10;stroke-width:2px"/><circle cx="153.5" cy="80.5" r="0.5" style="fill:none;stroke:#232f3e;stroke-linejoin:round;stroke-width:2px"/><line x1="109" y1="58" x2="74" y2="58" style="fill:none;stroke:#232f3e;stroke-miterlimit:10;stroke-width:2px"/><line x1="99" y1="66" x2="84" y2="66" style="fill:none;stroke:#232f3e;stroke-miterlimit:10;stroke-width:2px"/><line x1="93" y1="74" x2="67" y2="74" style="fill:none;stroke:#232f3e;stroke-miterlimit:10;stroke-width:2px"/><path d="M123.31,90.33a5,5,0,0,0-1.27-.58c-4.88-1.44-11.14,5.2-14,14.83s-1.17,18.6,3.72,20c3.09.91,6.84-2.24,8.74-4.4a27.69,27.69,0,0,0,5.23-10.42,29.61,29.61,0,0,0,1.13-12.55c.86,3.91,1,9.48-.18,17.38a5.53,5.53,0,0,0,5.45,6.38h26.23c3.91,0,6.7-2.79,5.88-6.62l-.14-2.91M157,59l-5.48-2.24C112.91,47.51,100,63,96,69.43l-3.88,6.88c-2,2.37-5.35,4.62-10.93,4.46-7.31.45-11,4.64-12.81,9.1a26,26,0,0,0-1.15,3.95l-.06.1a28.13,28.13,0,0,0-.51,7.1c1.83-1.57,3.5-3,5-4.24a31.87,31.87,0,0,0-3.57,7.71c-1.66,5.32-3.91,17.27,3.09,20,3.44,1.35,7.17-1.17,9.45-3.55A29,29,0,0,0,87,109.7c2.12-6.78,1.87-13.22-.28-17m45.16,8.51c1.19,4.22,1.9,8.11,2.46,9.75a1.86,1.86,0,0,1,0-.22V111h8.38l.41-1c1-1.85,5.06-3,5.06-3h9.7s2.65,1.74,1.87,3.16l-.34,1.84h5.73l2.1-5.11,1.5-4.16a49.11,49.11,0,0,0,2.5-10.38l2-15.74A16.22,16.22,0,0,0,170,64.46,14.08,14.08,0,0,0,159.29,59l-.14,0s-13.63-.74-18.46,5.48m-59.38,34c-3.25-.34-7.07,3.48-8.78,8.93-1.47,4.7-.93,9.17,1.12,11.2m48-21.69c-3.37-.37-7.33,3.85-9.1,9.89-1.54,5.2-1,10.15,1.15,12.39M162.07,75,160.41,88.1a6.21,6.21,0,0,1-6,5.44h-.16a6.24,6.24,0,0,1-6.18-7l1.67-13.08A6.23,6.23,0,1,1,162.07,75Z" style="fill:none;stroke:#232f3e;stroke-linejoin:round;stroke-width:2px"/><path d="M159.19,123.38l-1.54,1.23s2,0,4.31,0c5.72,0,8.9-2.49,10.39-6,2.08-4.91-.38-12.91-2.82-18.47" style="fill:none;stroke:#232f3e;stroke-linejoin:round;stroke-width:2px"/><path d="M126.88,84.17S116.14,67.62,100.4,94.63" style="fill:none;stroke:#232f3e;stroke-linejoin:round;stroke-width:2px"/><line x1="84" y1="117" x2="101" y2="117" style="fill:none;stroke:#232f3e;stroke-linejoin:round;stroke-width:2px"/><circle cx="154" cy="80" r="4" style="fill:none;stroke:#232f3e;stroke-linejoin:round;stroke-width:2px"/><path d="M293,109V49h-6V35h-6V26h-4V17h-1.5L274,9.5A1.58,1.58,0,0,0,272.5,8h0A1.58,1.58,0,0,0,271,9.5L269.5,17H268v9h-4v9h-6V49h-6V73" style="fill:none;stroke:#232f3e;stroke-miterlimit:10;stroke-width:2px"/><line x1="255" y1="96" x2="255" y2="109" style="fill:none;stroke:#232f3e;stroke-miterlimit:10;stroke-width:2px"/><line x1="209.95" y1="138" x2="209.95" y2="96.25" style="fill:none;stroke:#232f3e;stroke-miterlimit:10;stroke-width:2px"/><rect x="216" y="99" width="7" height="7" style="fill:none;stroke:#232f3e;stroke-miterlimit:10;stroke-width:2px"/><rect x="242" y="99" width="7" height="7" style="fill:none;stroke:#232f3e;stroke-miterlimit:10;stroke-width:2px"/><rect x="229" y="99" width="7" height="7" style="fill:none;stroke:#232f3e;stroke-miterlimit:10;stroke-width:2px"/><rect x="216" y="125" width="7" height="7" style="fill:none;stroke:#232f3e;stroke-miterlimit:10;stroke-width:2px"/><rect x="229" y="125" width="7" height="7" style="fill:none;stroke:#232f3e;stroke-miterlimit:10;stroke-width:2px"/><rect x="216" y="112" width="7" height="7" style="fill:none;stroke:#232f3e;stroke-miterlimit:10;stroke-width:2px"/><rect x="229" y="112" width="7" height="7" style="fill:none;stroke:#232f3e;stroke-miterlimit:10;stroke-width:2px"/><polyline points="245 119 242 119 242 112 250 112" style="fill:none;stroke:#232f3e;stroke-miterlimit:10;stroke-width:2px"/><polyline points="249 128 249 132 242 132 242 125 246 125" style="fill:none;stroke:#232f3e;stroke-miterlimit:10;stroke-width:2px"/><polygon points="250 84 250 77 214 77 214 84 208 84 208 93 256 93 256 84 250 84" style="fill:none;stroke:#232f3e;stroke-miterlimit:10;stroke-width:2px"/><line x1="242" y1="84" x2="252" y2="84" style="fill:none;stroke:#232f3e;stroke-miterlimit:10;stroke-width:2px"/><line x1="214" y1="84" x2="237" y2="84" style="fill:none;stroke:#232f3e;stroke-miterlimit:10;stroke-width:2px"/><polyline points="254 150 209 150 209 141 254 141" style="fill:none;stroke:#232f3e;stroke-miterlimit:10;stroke-width:2px"/><line x1="264" y1="62" x2="264" y2="109" style="fill:none;stroke:#232f3e;stroke-miterlimit:10;stroke-width:2px"/><line x1="281" y1="62" x2="281" y2="109" style="fill:none;stroke:#232f3e;stroke-miterlimit:10;stroke-width:2px"/><line x1="255" y1="58" x2="290" y2="58" style="fill:none;stroke:#232f3e;stroke-miterlimit:10;stroke-width:2px"/><line x1="261" y1="42" x2="284" y2="42" style="fill:none;stroke:#232f3e;stroke-miterlimit:10;stroke-width:2px"/><line x1="266" y1="35" x2="278" y2="35" style="fill:none;stroke:#232f3e;stroke-miterlimit:10;stroke-width:2px"/><line x1="271" y1="26" x2="274" y2="26" style="fill:none;stroke:#232f3e;stroke-miterlimit:10;stroke-width:2px"/><line x1="261" y1="49" x2="284" y2="49" style="fill:none;stroke:#232f3e;stroke-miterlimit:10;stroke-width:2px"/><path d="M257,131v19h59V131" style="fill:none;stroke:#527fff;stroke-miterlimit:10;stroke-width:2px"/><path d="M296.65,122.35a4.41,4.41,0,0,0,0-.52h0a4.43,4.43,0,0,0,4.43,4.44" style="fill:none;stroke:#527fff;stroke-miterlimit:10;stroke-width:2px"/><path d="M289.33,122.35a4.41,4.41,0,0,0,0-.52h0a4.43,4.43,0,0,0,4.43,4.44" style="fill:none;stroke:#527fff;stroke-miterlimit:10;stroke-width:2px"/><path d="M281.89,122.35a4.41,4.41,0,0,0,0-.52h0a4.43,4.43,0,0,0,4.43,4.44" style="fill:none;stroke:#527fff;stroke-miterlimit:10;stroke-width:2px"/><path d="M274.13,122.35a4.41,4.41,0,0,0,0-.52h0a4.43,4.43,0,0,0,4.43,4.44" style="fill:none;stroke:#527fff;stroke-miterlimit:10;stroke-width:2px"/><path d="M267.22,122.35a4.41,4.41,0,0,0,0-.52h0a4.43,4.43,0,0,0,4.43,4.44" style="fill:none;stroke:#527fff;stroke-miterlimit:10;stroke-width:2px"/><path d="M258.92,122.35a4.41,4.41,0,0,0,0-.52h0a4.44,4.44,0,0,0,4.44,4.44" style="fill:none;stroke:#527fff;stroke-miterlimit:10;stroke-width:2px"/><path d="M304.53,122.35a4.41,4.41,0,0,0,0-.52h0a4.43,4.43,0,0,0,4.43,4.44" style="fill:none;stroke:#527fff;stroke-miterlimit:10;stroke-width:2px"/><path d="M313.31,122.14a4.33,4.33,0,0,0,5.61,4.18,4.26,4.26,0,0,0,3.08-4.16v-.06h0v-2.86L316.2,112H256.8l-5.8,7.24v2.86c0,2.45,1.63,4.43,5.71,4.43" style="fill:none;stroke:#527fff;stroke-miterlimit:10;stroke-width:2px"/><line x1="258" y1="118" x2="314" y2="118" style="fill:none;stroke:#527fff;stroke-miterlimit:10;stroke-width:2px"/><polyline points="266 146 266 133 279 133 279 146" style="fill:none;stroke:#527fff;stroke-miterlimit:10;stroke-width:2px"/><rect x="288" y="133" width="19" height="10" style="fill:none;stroke:#527fff;stroke-miterlimit:10;stroke-width:2px"/><polyline points="293 45 293 27 333 27 333 150 319.2 150" style="fill:none;stroke:#232f3e;stroke-miterlimit:10;stroke-width:2px"/><rect x="300" y="39" width="10" height="10" style="fill:none;stroke:#232f3e;stroke-miterlimit:10;stroke-width:2px"/><rect x="316" y="39" width="10" height="10" style="fill:none;stroke:#232f3e;stroke-miterlimit:10;stroke-width:2px"/><rect x="300" y="55" width="10" height="10" style="fill:none;stroke:#232f3e;stroke-miterlimit:10;stroke-width:2px"/><rect x="316" y="55" width="10" height="10" style="fill:none;stroke:#232f3e;stroke-miterlimit:10;stroke-width:2px"/><rect x="300" y="71" width="10" height="10" style="fill:none;stroke:#232f3e;stroke-miterlimit:10;stroke-width:2px"/><rect x="316" y="71" width="10" height="10" style="fill:none;stroke:#232f3e;stroke-miterlimit:10;stroke-width:2px"/><rect x="300" y="87" width="10" height="10" style="fill:none;stroke:#232f3e;stroke-miterlimit:10;stroke-width:2px"/><rect x="316" y="87" width="10" height="10" style="fill:none;stroke:#232f3e;stroke-miterlimit:10;stroke-width:2px"/><polyline points="310 109 310 103 300 103 300 109" style="fill:none;stroke:#232f3e;stroke-miterlimit:10;stroke-width:2px"/><polyline points="321 113 326 113 326 103 316 103 316 109" style="fill:none;stroke:#232f3e;stroke-miterlimit:10;stroke-width:2px"/><polyline points="325 149 325 131 319 131" style="fill:none;stroke:#232f3e;stroke-miterlimit:10;stroke-width:2px"/><path d="M182,29.43A6.29,6.29,0,1,1,187.4,39H140" style="fill:none;stroke:#527fff;stroke-miterlimit:10;stroke-width:2px"/><path d="M208.1,32.8A10.07,10.07,0,1,1,215.22,50H161" style="fill:none;stroke:#527fff;stroke-miterlimit:10;stroke-width:2px"/><path d="M197,68.22A5,5,0,1,0,199.84,59H173" style="fill:none;stroke:#527fff;stroke-miterlimit:10;stroke-width:2px"/><path d="M127,47a9.55,9.55,0,0,0-18.64-1.15" style="fill:none;stroke:#527fff;stroke-linejoin:round;stroke-width:2px"/><path d="M16.42,43.64A11.5,11.5,0,0,0,27.9,58H46.75" style="fill:none;stroke:#527fff;stroke-linejoin:round;stroke-width:2px"/><path d="M19.42,37.91a11.5,11.5,0,0,0-2.34,3.38" style="fill:none;stroke:#527fff;stroke-linejoin:round;stroke-width:2px"/><path d="M21.72,36.13a10.79,10.79,0,0,0-1.37.95" style="fill:none;stroke:#527fff;stroke-linejoin:round;stroke-width:2px"/><path d="M37.89,41A11.52,11.52,0,0,0,23,35.49" style="fill:none;stroke:#527fff;stroke-linejoin:round;stroke-width:2px"/><path d="M89.05,28.11a18.69,18.69,0,0,0-16.51-9.92,19.13,19.13,0,0,0-2.41.16A15.84,15.84,0,0,0,41,26.93V27a11.5,11.5,0,0,0-10,8.08" style="fill:none;stroke:#527fff;stroke-linejoin:round;stroke-width:2px"/><path d="M78.21,41a13,13,0,0,1,25-5.2,6.8,6.8,0,0,1,1-.08A7,7,0,0,1,111,41" style="fill:none;stroke:#527fff;stroke-linejoin:round;stroke-width:2px"/><line x1="50" y1="58" x2="56" y2="58" style="fill:none;stroke:#527fff;stroke-linejoin:round;stroke-width:2px"/><line x1="58" y1="58" x2="69" y2="58" style="fill:none;stroke:#527fff;stroke-linejoin:round;stroke-width:2px"/><line x1="159" y1="50" x2="152" y2="50" style="fill:none;stroke:#527fff;stroke-linejoin:round;stroke-width:2px"/></svg>