<?xml version="1.0" encoding="UTF-8"?><svg id="a" xmlns="http://www.w3.org/2000/svg" viewBox="0 0 648 482"><defs><style>.b{stroke:#84e29c;stroke-width:48px;}.b,.c,.d,.e{fill:none;stroke-miterlimit:10;}.c{stroke:#313d46;stroke-width:36px;}.d{stroke:#f90;stroke-dasharray:0 0 10.05 7.04;stroke-width:2px;}.e{stroke:#fff;stroke-width:44px;}</style></defs><path class="b" d="M176.88,174.11c-.03,3.79,.14,7.57,.52,11.33s.96,7.47,1.76,11.15c.79,3.68,1.79,7.3,2.96,10.84,1.2,3.55,2.58,7.02,4.17,10.4,.65,1.24,1.24,2.51,1.79,3.79s1.14,2.55,1.79,3.72c.65,1.17,1.41,2.27,2.34,3.17,.96,.9,2.1,1.65,3.55,2.13,5.47,1.72,11.84,2.1,18.69,1.58s14.11-1.96,21.38-3.86c7.26-1.89,14.46-4.3,21.17-6.78s12.91-5.03,18.11-7.19c9.88-5.06,19.9-9.81,30.02-14.36s20.38-8.85,30.67-13.05c10.29-4.2,20.66-8.26,31.02-12.32,10.36-4.06,20.72-8.12,31.09-12.26,5.47-2.17,11.02-4.34,16.52-6.51,5.51-2.17,11.05-4.34,16.56-6.54,5.51-2.17,11.02-4.37,16.52-6.54s10.98-4.37,16.39-6.54c3.37-1.27,6.68-2.62,9.95-3.96,3.27-1.38,6.51-2.75,9.74-4.13,3.24-1.38,6.47-2.72,9.71-3.96,3.27-1.27,6.54-2.44,9.88-3.51,9.54-2.86,17.83-2.82,24.99-.65,7.19,2.17,13.29,6.44,18.49,12.05,5.2,5.61,9.54,12.5,13.18,19.93,3.65,7.44,6.64,15.39,9.12,23.03,2.34,7.09,4.51,14.29,6.44,21.52,1.93,7.26,3.65,14.6,5.06,22,1.41,7.4,2.51,14.84,3.27,22.31,.76,7.47,1.14,14.94,1.07,22.45,.07,3.1,0,6.16-.17,9.23-.17,3.06-.45,6.13-.83,9.16-.38,3.03-.86,6.06-1.45,9.09s-1.24,6.02-2,9.05c-.48,1.86-.93,3.75-1.41,5.61-.48,1.89-.96,3.75-1.51,5.61-.55,1.86-1.17,3.68-1.86,5.51-.69,1.82-1.48,3.55-2.38,5.27-1.03,1.93-2.27,3.68-3.65,5.3s-2.89,3.1-4.51,4.51c-1.62,1.41-3.3,2.72-5.06,4.03-1.76,1.31-3.51,2.55-5.23,3.82-1.89,1.38-3.82,2.72-5.75,4.06-1.93,1.34-3.89,2.65-5.85,3.92-1.96,1.27-3.96,2.51-5.99,3.68-2,1.17-4.03,2.31-6.09,3.37-3.13,1.76-6.3,3.2-9.5,4.37-3.2,1.17-6.44,2.07-9.71,2.72-3.27,.65-6.61,1.1-10.02,1.38-3.41,.28-6.85,.34-10.36,.28-3.41,.07-6.82,.17-10.22,.17-3.41,.03-6.85,0-10.26-.17-3.41-.14-6.85-.41-10.22-.83-3.37-.41-6.75-1-10.09-1.79-2.34-.59-4.75-1.31-7.13-2.24-2.34-.93-4.65-2.07-6.71-3.48-2.07-1.38-3.92-3.03-5.37-4.96s-2.55-4.17-3.1-6.78c-.65-3-1.07-6.02-1.31-9.09-.28-3.06-.38-6.13-.41-9.23-.03-3.1,0-6.2,.07-9.29,.03-3.1,.1-6.16,.07-9.23-.1-2.62-.07-5.3-.07-8.02s-.03-5.47-.21-8.16c-.17-2.72-.52-5.37-1.14-7.95s-1.55-5.06-2.86-7.37c-2.79-3.58-6.09-6.71-9.81-9.26-3.68-2.58-7.78-4.61-12.05-6.06-4.27-1.45-8.78-2.34-13.29-2.62-4.51-.28-9.09,.07-13.49,1.03-3.06,.62-6.02,1.55-8.92,2.65-2.89,1.14-5.68,2.44-8.43,3.89-2.75,1.45-5.47,3-8.19,4.54-2.72,1.58-5.4,3.17-8.16,4.68-3.13,1.82-6.27,3.65-9.4,5.47-3.13,1.86-6.27,3.72-9.4,5.58-3.13,1.86-6.27,3.75-9.4,5.65s-6.27,3.79-9.4,5.65c-5.75,3.48-11.5,6.95-17.25,10.47-5.75,3.51-11.5,6.99-17.28,10.5-5.75,3.51-11.53,6.99-17.28,10.47-5.75,3.48-11.53,6.92-17.28,10.36-1.45,.86-2.89,1.72-4.3,2.55-1.45,.86-2.86,1.69-4.3,2.51-1.41,.83-2.86,1.65-4.27,2.48-1.41,.83-2.82,1.65-4.23,2.44-1.58,.9-3.13,1.79-4.65,2.69-1.55,.9-3.06,1.76-4.61,2.55-1.55,.79-3.13,1.51-4.79,2.13-1.65,.62-3.34,1.1-5.09,1.41-2.93,.59-5.78,.59-8.61,.17-2.79-.41-5.54-1.2-8.23-2.27-2.69-1.07-5.27-2.38-7.81-3.82-2.55-1.41-4.99-2.96-7.37-4.44-2.51-1.55-5.09-3.03-7.75-4.48-2.62-1.45-5.3-2.86-8.02-4.23-2.69-1.38-5.4-2.75-8.12-4.17-2.72-1.38-5.4-2.79-8.06-4.23-7.3-3.96-14.87-8.23-22.2-12.98-7.33-4.75-14.42-9.95-20.79-15.77-6.37-5.82-12.05-12.22-16.56-19.38s-7.81-15.08-9.47-23.86c-.86-4.27-1.14-8.54-1.03-12.81,.14-4.27,.69-8.5,1.55-12.74s2.03-8.4,3.34-12.57,2.86-8.23,4.41-12.26c1-2.89,2-5.78,2.96-8.68,.96-2.89,1.86-5.82,2.75-8.74,.86-2.93,1.72-5.85,2.51-8.81s1.51-5.92,2.2-8.88c2.2-8.37,4.79-15.32,7.78-21.03,3-5.71,6.47-10.22,10.47-13.63,3.99-3.44,8.5-5.82,13.67-7.3,5.16-1.48,10.91-2.1,17.42-2,8.5-.41,15.63,1,21.55,3.65,5.92,2.65,10.6,6.54,14.15,11.15s5.99,9.88,7.44,15.35c1.48,5.44,1.93,11.02,1.48,16.18Z"/><path class="e" d="M176.88,174.11c-.03,3.79,.14,7.57,.52,11.33s.96,7.47,1.76,11.15c.79,3.68,1.79,7.3,2.96,10.84,1.2,3.55,2.58,7.02,4.17,10.4,.65,1.24,1.24,2.51,1.79,3.79s1.14,2.55,1.79,3.72c.65,1.17,1.41,2.27,2.34,3.17,.96,.9,2.1,1.65,3.55,2.13,5.47,1.72,11.84,2.1,18.69,1.58s14.11-1.96,21.38-3.86c7.26-1.89,14.46-4.3,21.17-6.78s12.91-5.03,18.11-7.19c9.88-5.06,19.9-9.81,30.02-14.36s20.38-8.85,30.67-13.05c10.29-4.2,20.66-8.26,31.02-12.32,10.36-4.06,20.72-8.12,31.09-12.26,5.47-2.17,11.02-4.34,16.52-6.51,5.51-2.17,11.05-4.34,16.56-6.54,5.51-2.17,11.02-4.37,16.52-6.54s10.98-4.37,16.39-6.54c3.37-1.27,6.68-2.62,9.95-3.96,3.27-1.38,6.51-2.75,9.74-4.13,3.24-1.38,6.47-2.72,9.71-3.96,3.27-1.27,6.54-2.44,9.88-3.51,9.54-2.86,17.83-2.82,24.99-.65,7.19,2.17,13.29,6.44,18.49,12.05,5.2,5.61,9.54,12.5,13.18,19.93,3.65,7.44,6.64,15.39,9.12,23.03,2.34,7.09,4.51,14.29,6.44,21.52,1.93,7.26,3.65,14.6,5.06,22,1.41,7.4,2.51,14.84,3.27,22.31,.76,7.47,1.14,14.94,1.07,22.45,.07,3.1,0,6.16-.17,9.23-.17,3.06-.45,6.13-.83,9.16-.38,3.03-.86,6.06-1.45,9.09s-1.24,6.02-2,9.05c-.48,1.86-.93,3.75-1.41,5.61-.48,1.89-.96,3.75-1.51,5.61-.55,1.86-1.17,3.68-1.86,5.51-.69,1.82-1.48,3.55-2.38,5.27-1.03,1.93-2.27,3.68-3.65,5.3s-2.89,3.1-4.51,4.51c-1.62,1.41-3.3,2.72-5.06,4.03-1.76,1.31-3.51,2.55-5.23,3.82-1.89,1.38-3.82,2.72-5.75,4.06-1.93,1.34-3.89,2.65-5.85,3.92-1.96,1.27-3.96,2.51-5.99,3.68-2,1.17-4.03,2.31-6.09,3.37-3.13,1.76-6.3,3.2-9.5,4.37-3.2,1.17-6.44,2.07-9.71,2.72-3.27,.65-6.61,1.1-10.02,1.38-3.41,.28-6.85,.34-10.36,.28-3.41,.07-6.82,.17-10.22,.17-3.41,.03-6.85,0-10.26-.17-3.41-.14-6.85-.41-10.22-.83-3.37-.41-6.75-1-10.09-1.79-2.34-.59-4.75-1.31-7.13-2.24-2.34-.93-4.65-2.07-6.71-3.48-2.07-1.38-3.92-3.03-5.37-4.96s-2.55-4.17-3.1-6.78c-.65-3-1.07-6.02-1.31-9.09-.28-3.06-.38-6.13-.41-9.23-.03-3.1,0-6.2,.07-9.29,.03-3.1,.1-6.16,.07-9.23-.1-2.62-.07-5.3-.07-8.02s-.03-5.47-.21-8.16c-.17-2.72-.52-5.37-1.14-7.95s-1.55-5.06-2.86-7.37c-2.79-3.58-6.09-6.71-9.81-9.26-3.68-2.58-7.78-4.61-12.05-6.06-4.27-1.45-8.78-2.34-13.29-2.62-4.51-.28-9.09,.07-13.49,1.03-3.06,.62-6.02,1.55-8.92,2.65-2.89,1.14-5.68,2.44-8.43,3.89-2.75,1.45-5.47,3-8.19,4.54-2.72,1.58-5.4,3.17-8.16,4.68-3.13,1.82-6.27,3.65-9.4,5.47-3.13,1.86-6.27,3.72-9.4,5.58-3.13,1.86-6.27,3.75-9.4,5.65s-6.27,3.79-9.4,5.65c-5.75,3.48-11.5,6.95-17.25,10.47-5.75,3.51-11.5,6.99-17.28,10.5-5.75,3.51-11.53,6.99-17.28,10.47-5.75,3.48-11.53,6.92-17.28,10.36-1.45,.86-2.89,1.72-4.3,2.55-1.45,.86-2.86,1.69-4.3,2.51-1.41,.83-2.86,1.65-4.27,2.48-1.41,.83-2.82,1.65-4.23,2.44-1.58,.9-3.13,1.79-4.65,2.69-1.55,.9-3.06,1.76-4.61,2.55-1.55,.79-3.13,1.51-4.79,2.13-1.65,.62-3.34,1.1-5.09,1.41-2.93,.59-5.78,.59-8.61,.17-2.79-.41-5.54-1.2-8.23-2.27-2.69-1.07-5.27-2.38-7.81-3.82-2.55-1.41-4.99-2.96-7.37-4.44-2.51-1.55-5.09-3.03-7.75-4.48-2.62-1.45-5.3-2.86-8.02-4.23-2.69-1.38-5.4-2.75-8.12-4.17-2.72-1.38-5.4-2.79-8.06-4.23-7.3-3.96-14.87-8.23-22.2-12.98-7.33-4.75-14.42-9.95-20.79-15.77-6.37-5.82-12.05-12.22-16.56-19.38s-7.81-15.08-9.47-23.86c-.86-4.27-1.14-8.54-1.03-12.81,.14-4.27,.69-8.5,1.55-12.74s2.03-8.4,3.34-12.57,2.86-8.23,4.41-12.26c1-2.89,2-5.78,2.96-8.68,.96-2.89,1.86-5.82,2.75-8.74,.86-2.93,1.72-5.85,2.51-8.81s1.51-5.92,2.2-8.88c2.2-8.37,4.79-15.32,7.78-21.03,3-5.71,6.47-10.22,10.47-13.63,3.99-3.44,8.5-5.82,13.67-7.3,5.16-1.48,10.91-2.1,17.42-2,8.5-.41,15.63,1,21.55,3.65,5.92,2.65,10.6,6.54,14.15,11.15s5.99,9.88,7.44,15.35c1.48,5.44,1.93,11.02,1.48,16.18Z"/><path class="c" d="M176.88,174.11c-.03,3.79,.14,7.57,.52,11.33s.96,7.47,1.76,11.15c.79,3.68,1.79,7.3,2.96,10.84,1.2,3.55,2.58,7.02,4.17,10.4,.65,1.24,1.24,2.51,1.79,3.79s1.14,2.55,1.79,3.72c.65,1.17,1.41,2.27,2.34,3.17,.96,.9,2.1,1.65,3.55,2.13,5.47,1.72,11.84,2.1,18.69,1.58s14.11-1.96,21.38-3.86c7.26-1.89,14.46-4.3,21.17-6.78s12.91-5.03,18.11-7.19c9.88-5.06,19.9-9.81,30.02-14.36s20.38-8.85,30.67-13.05c10.29-4.2,20.66-8.26,31.02-12.32,10.36-4.06,20.72-8.12,31.09-12.26,5.47-2.17,11.02-4.34,16.52-6.51,5.51-2.17,11.05-4.34,16.56-6.54,5.51-2.17,11.02-4.37,16.52-6.54s10.98-4.37,16.39-6.54c3.37-1.27,6.68-2.62,9.95-3.96,3.27-1.38,6.51-2.75,9.74-4.13,3.24-1.38,6.47-2.72,9.71-3.96,3.27-1.27,6.54-2.44,9.88-3.51,9.54-2.86,17.83-2.82,24.99-.65,7.19,2.17,13.29,6.44,18.49,12.05,5.2,5.61,9.54,12.5,13.18,19.93,3.65,7.44,6.64,15.39,9.12,23.03,2.34,7.09,4.51,14.29,6.44,21.52,1.93,7.26,3.65,14.6,5.06,22,1.41,7.4,2.51,14.84,3.27,22.31,.76,7.47,1.14,14.94,1.07,22.45,.07,3.1,0,6.16-.17,9.23-.17,3.06-.45,6.13-.83,9.16-.38,3.03-.86,6.06-1.45,9.09s-1.24,6.02-2,9.05c-.48,1.86-.93,3.75-1.41,5.61-.48,1.89-.96,3.75-1.51,5.61-.55,1.86-1.17,3.68-1.86,5.51-.69,1.82-1.48,3.55-2.38,5.27-1.03,1.93-2.27,3.68-3.65,5.3s-2.89,3.1-4.51,4.51c-1.62,1.41-3.3,2.72-5.06,4.03-1.76,1.31-3.51,2.55-5.23,3.82-1.89,1.38-3.82,2.72-5.75,4.06-1.93,1.34-3.89,2.65-5.85,3.92-1.96,1.27-3.96,2.51-5.99,3.68-2,1.17-4.03,2.31-6.09,3.37-3.13,1.76-6.3,3.2-9.5,4.37-3.2,1.17-6.44,2.07-9.71,2.72-3.27,.65-6.61,1.1-10.02,1.38-3.41,.28-6.85,.34-10.36,.28-3.41,.07-6.82,.17-10.22,.17-3.41,.03-6.85,0-10.26-.17-3.41-.14-6.85-.41-10.22-.83-3.37-.41-6.75-1-10.09-1.79-2.34-.59-4.75-1.31-7.13-2.24-2.34-.93-4.65-2.07-6.71-3.48-2.07-1.38-3.92-3.03-5.37-4.96s-2.55-4.17-3.1-6.78c-.65-3-1.07-6.02-1.31-9.09-.28-3.06-.38-6.13-.41-9.23-.03-3.1,0-6.2,.07-9.29,.03-3.1,.1-6.16,.07-9.23-.1-2.62-.07-5.3-.07-8.02s-.03-5.47-.21-8.16c-.17-2.72-.52-5.37-1.14-7.95s-1.55-5.06-2.86-7.37c-2.79-3.58-6.09-6.71-9.81-9.26-3.68-2.58-7.78-4.61-12.05-6.06-4.27-1.45-8.78-2.34-13.29-2.62-4.51-.28-9.09,.07-13.49,1.03-3.06,.62-6.02,1.55-8.92,2.65-2.89,1.14-5.68,2.44-8.43,3.89-2.75,1.45-5.47,3-8.19,4.54-2.72,1.58-5.4,3.17-8.16,4.68-3.13,1.82-6.27,3.65-9.4,5.47-3.13,1.86-6.27,3.72-9.4,5.58-3.13,1.86-6.27,3.75-9.4,5.65s-6.27,3.79-9.4,5.65c-5.75,3.48-11.5,6.95-17.25,10.47-5.75,3.51-11.5,6.99-17.28,10.5-5.75,3.51-11.53,6.99-17.28,10.47-5.75,3.48-11.53,6.92-17.28,10.36-1.45,.86-2.89,1.72-4.3,2.55-1.45,.86-2.86,1.69-4.3,2.51-1.41,.83-2.86,1.65-4.27,2.48-1.41,.83-2.82,1.65-4.23,2.44-1.58,.9-3.13,1.79-4.65,2.69-1.55,.9-3.06,1.76-4.61,2.55-1.55,.79-3.13,1.51-4.79,2.13-1.65,.62-3.34,1.1-5.09,1.41-2.93,.59-5.78,.59-8.61,.17-2.79-.41-5.54-1.2-8.23-2.27-2.69-1.07-5.27-2.38-7.81-3.82-2.55-1.41-4.99-2.96-7.37-4.44-2.51-1.55-5.09-3.03-7.75-4.48-2.62-1.45-5.3-2.86-8.02-4.23-2.69-1.38-5.4-2.75-8.12-4.17-2.72-1.38-5.4-2.79-8.06-4.23-7.3-3.96-14.87-8.23-22.2-12.98-7.33-4.75-14.42-9.95-20.79-15.77-6.37-5.82-12.05-12.22-16.56-19.38s-7.81-15.08-9.47-23.86c-.86-4.27-1.14-8.54-1.03-12.81,.14-4.27,.69-8.5,1.55-12.74s2.03-8.4,3.34-12.57,2.86-8.23,4.41-12.26c1-2.89,2-5.78,2.96-8.68,.96-2.89,1.86-5.82,2.75-8.74,.86-2.93,1.72-5.85,2.51-8.81s1.51-5.92,2.2-8.88c2.2-8.37,4.79-15.32,7.78-21.03,3-5.71,6.47-10.22,10.47-13.63,3.99-3.44,8.5-5.82,13.67-7.3,5.16-1.48,10.91-2.1,17.42-2,8.5-.41,15.63,1,21.55,3.65,5.92,2.65,10.6,6.54,14.15,11.15s5.99,9.88,7.44,15.35c1.48,5.44,1.93,11.02,1.48,16.18Z"/><path class="d" d="M176.88,174.11c-.15,15.03,3.02,30.12,9.4,43.72,2.54,4.69,3.78,10.94,9.47,12.81,12.42,3.74,26.98,1.05,40.07-2.27,13.12-3.41,27.59-9.06,39.28-13.98,9.88-5.06,19.9-9.81,30.02-14.36,35.91-15.95,72.82-29.51,109.3-44.13,19.78-7.81,39.71-15.67,59.42-23.58,9.72-4.08,19.29-8.42,29.33-11.6,37.85-11.76,56.24,24.35,65.79,54.36,4.7,14.25,8.67,28.76,11.5,43.51,4.96,26.76,6.8,54.7-.1,81.28-1.9,7.47-3.53,15.13-7.16,22-5.39,9.73-15.53,15.29-24.2,21.72-8.58,5.87-17.74,11.64-27.44,15.35-6.43,2.35-12.91,3.54-19.73,4.1-19.25,.45-57.43,3.46-70.37-13.01-6.76-8.71-4.35-32.33-4.68-43.62-.39-10.49,1.1-21.98-4.27-31.5-11.15-14.43-31.01-20.8-48.64-16.9-9.23,1.85-17.46,6.45-25.54,11.08-9.01,5.2-18.03,10.38-26.96,15.73-30.8,18.39-61.33,37.35-92.19,55.63-4.26,2.51-8.53,4.98-12.81,7.44-4.67,2.61-9.04,5.5-14.05,7.37-13.13,5.37-26.22-1.91-37.11-8.95-7.67-4.74-15.84-8.71-23.89-12.87-35.21-18.05-78.91-44.1-78.11-89.02,.4-16.14,7.2-31.16,12.26-46.23,1.91-5.8,3.66-11.65,5.27-17.56,2.36-9.96,5.72-22.3,9.98-29.92,8.69-17.04,22.85-23.43,41.55-22.93,28.61-1.75,46.4,19.56,44.62,46.34h0Z"/></svg>