<?xml version="1.0" encoding="UTF-8"?>
<svg width="648px" height="481px" viewBox="0 0 648 481" version="1.1" xmlns="http://www.w3.org/2000/svg" xmlns:xlink="http://www.w3.org/1999/xlink">
    <title>img_console_environment_training_sept_open</title>
    <g id="Training-tracks" stroke="none" stroke-width="1" fill="none" fill-rule="evenodd">
        <g id="Track-creation-Copy" transform="translate(-7040.000000, -6011.000000)">
            <g id="SEPT_OPEN" transform="translate(3541.000000, 2704.000000)">
                <g id="img_console_environment_training_sept_open" transform="translate(3499.000000, 3307.000000)">
                    <g id="Group-36" transform="translate(63.000000, 162.000000)" stroke-linejoin="round">
                        <path d="M12.2785333,65.0077838 C-5.41290685,76.5809554 1.59062622,89.5631283 1.59062622,89.5631283 C1.59062622,89.5631283 -0.28915643,84.5186883 14.8028128,107.191779 C29.8947821,129.86487 41.8179749,123.562009 41.8179749,123.562009 L327.276397,120.410578 C327.276397,120.410578 341.745353,115.376894 362.487411,136.14622 C383.22947,156.915545 390.157812,156.926301 390.157812,156.926301 C390.157812,156.926301 474.415041,155.66788 504.588238,153.151038 C536.52306,150.483615 515.329853,107.191779 515.329853,107.191779 C515.329853,107.191779 481.332641,43.5931141 473.781286,34.8271895 C442.179454,-2.09725104 399.58895,0.989645096 399.58895,0.989645096 C399.58895,0.989645096 404.616026,0.666973025 351.176491,3.97973961 C351.176491,3.97973961 322.249321,7.12041443 309.67089,29.1589168 C297.092458,51.1974192 293.955907,49.3044097 291.410144,49.3044097 C288.864381,49.3044097 274.427651,46.1637349 267.51005,39.2370411 C260.59245,32.3103474 228.528729,22.8668115 212.813746,20.3499693 C197.098763,17.8331272 165.0243,24.1252325 155.593162,32.3103474 C150.490895,36.7309547 139.964112,47.3683773 131.381562,56.1235461 C118.75017,69.2199297 101.162384,76.3346579 82.9905857,75.6989851 C72.2489706,75.2364884 61.3032647,72.0635464 53.7626509,63.0932629 C33.6436058,39.1940182 30.539279,53.03665 12.2785333,65.0077838 Z" id="Path" stroke="#84E29C" stroke-width="49"></path>
                        <path d="M12.2785333,65.0077838 C-5.41290685,76.5809554 1.59062622,89.5631283 1.59062622,89.5631283 C1.59062622,89.5631283 -0.28915643,84.5186883 14.8028128,107.191779 C29.8947821,129.86487 41.8179749,123.562009 41.8179749,123.562009 L327.276397,120.410578 C327.276397,120.410578 341.745353,115.376894 362.487411,136.14622 C383.22947,156.915545 390.157812,156.926301 390.157812,156.926301 C390.157812,156.926301 474.415041,155.66788 504.588238,153.151038 C536.52306,150.483615 515.329853,107.191779 515.329853,107.191779 C515.329853,107.191779 481.332641,43.5931141 473.781286,34.8271895 C442.179454,-2.09725104 399.58895,0.989645096 399.58895,0.989645096 C399.58895,0.989645096 404.616026,0.666973025 351.176491,3.97973961 C351.176491,3.97973961 322.249321,7.12041443 309.67089,29.1589168 C297.092458,51.1974192 293.955907,49.3044097 291.410144,49.3044097 C288.864381,49.3044097 274.427651,46.1637349 267.51005,39.2370411 C260.59245,32.3103474 228.528729,22.8668115 212.813746,20.3499693 C197.098763,17.8331272 165.0243,24.1252325 155.593162,32.3103474 C150.490895,36.7309547 139.964112,47.3683773 131.381562,56.1235461 C118.75017,69.2199297 101.162384,76.3346579 82.9905857,75.6989851 C72.2489706,75.2364884 61.3032647,72.0635464 53.7626509,63.0932629 C33.6436058,39.1940182 30.539279,53.03665 12.2785333,65.0077838 Z" id="Path" stroke="#FFFFFF" stroke-width="45"></path>
                        <path d="M12.2785333,65.0077838 C-5.41290685,76.5809554 1.59062622,89.5631283 1.59062622,89.5631283 C1.59062622,89.5631283 -0.28915643,84.5186883 14.8028128,107.191779 C29.8947821,129.86487 41.8179749,123.562009 41.8179749,123.562009 L327.276397,120.410578 C327.276397,120.410578 341.745353,115.376894 362.487411,136.14622 C383.22947,156.915545 390.157812,156.926301 390.157812,156.926301 C390.157812,156.926301 474.415041,155.66788 504.588238,153.151038 C536.52306,150.483615 515.329853,107.191779 515.329853,107.191779 C515.329853,107.191779 481.332641,43.5931141 473.781286,34.8271895 C442.179454,-2.09725104 399.58895,0.989645096 399.58895,0.989645096 C399.58895,0.989645096 404.616026,0.666973025 351.176491,3.97973961 C351.176491,3.97973961 322.249321,7.12041443 309.67089,29.1589168 C297.092458,51.1974192 293.955907,49.3044097 291.410144,49.3044097 C288.864381,49.3044097 274.427651,46.1637349 267.51005,39.2370411 C260.59245,32.3103474 228.528729,22.8668115 212.813746,20.3499693 C197.098763,17.8331272 165.0243,24.1252325 155.593162,32.3103474 C150.490895,36.7309547 139.964112,47.3683773 131.381562,56.1235461 C118.75017,69.2199297 101.162384,76.3346579 82.9905857,75.6989851 C72.2489706,75.2364884 61.3032647,72.0635464 53.7626509,63.0932629 C33.6436058,39.1940182 30.539279,53.03665 12.2785333,65.0077838 Z" id="Path" stroke="#313D46" stroke-width="36"></path>
                        <path d="M12.2785333,65.0077838 C-5.41290685,76.5809554 1.59062622,89.5631283 1.59062622,89.5631283 C1.59062622,89.5631283 -0.28915643,84.5186883 14.8028128,107.191779 C29.8947821,129.86487 41.8179749,123.562009 41.8179749,123.562009 L327.276397,120.410578 C327.276397,120.410578 341.745353,115.376894 362.487411,136.14622 C383.22947,156.915545 390.157812,156.926301 390.157812,156.926301 C390.157812,156.926301 474.415041,155.66788 504.588238,153.151038 C536.52306,150.483615 515.329853,107.191779 515.329853,107.191779 C515.329853,107.191779 481.332641,43.5931141 473.781286,34.8271895 C442.179454,-2.09725104 399.58895,0.989645096 399.58895,0.989645096 C399.58895,0.989645096 404.616026,0.666973025 351.176491,3.97973961 C351.176491,3.97973961 322.249321,7.12041443 309.67089,29.1589168 C297.092458,51.1974192 293.955907,49.3044097 291.410144,49.3044097 C288.864381,49.3044097 274.427651,46.1637349 267.51005,39.2370411 C260.59245,32.3103474 228.528729,22.8668115 212.813746,20.3499693 C197.098763,17.8331272 165.0243,24.1252325 155.593162,32.3103474 C150.490895,36.7309547 139.964112,47.3683773 131.381562,56.1235461 C118.75017,69.2199297 101.162384,76.3346579 82.9905857,75.6989851 C72.2489706,75.2364884 61.3032647,72.0635464 53.7626509,63.0932629 C33.6436058,39.1940182 30.539279,53.03665 12.2785333,65.0077838 Z" id="Path" stroke="#FF9900" stroke-width="2.32" stroke-dasharray="9,6"></path>
                    </g>
                    <rect id="Rectangle-Copy" x="0" y="0" width="648" height="481.00207"></rect>
                </g>
            </g>
        </g>
    </g>
</svg>